<?xml version="1.0" encoding="UTF-8" standalone="no"?>
<!DOCTYPE svg PUBLIC "-//W3C//DTD SVG 1.1//EN"
 "http://www.w3.org/Graphics/SVG/1.1/DTD/svg11.dtd">
<!-- Generated by graphviz version 12.2.1 (20241206.2353)
 -->
<!-- Title: PROV Pages: 1 -->
<svg width="1152pt" height="327pt"
 viewBox="0.00 0.00 1152.00 327.27" xmlns="http://www.w3.org/2000/svg" xmlns:xlink="http://www.w3.org/1999/xlink">
<g id="graph0" class="graph" transform="scale(0.982792 0.982792) rotate(0) translate(4 329)">
<title>PROV</title>
<polygon fill="white" stroke="none" points="-4,4 -4,-329 1168.17,-329 1168.17,4 -4,4"/>
<!-- http://www.provbook.orgSlicing -->
<g id="node1" class="node">
<title>http://www.provbook.orgSlicing</title>
<g id="a_node1"><a xlink:href="http://www.provbook.orgSlicing" xlink:title="Slicing">
<polygon fill="#9fb1fc" stroke="#0000ff" points="740.37,-180.75 686.12,-180.75 686.12,-144.75 740.37,-144.75 740.37,-180.75"/>
<text text-anchor="middle" x="713.24" y="-157.7" font-family="Times,serif" font-size="14.00">Slicing</text>
</a>
</g>
</g>
<!-- http://www.provbook.orgOntario_Model_Study -->
<g id="node6" class="node">
<title>http://www.provbook.orgOntario_Model_Study</title>
<g id="a_node6"><a xlink:href="http://www.provbook.orgOntario_Model_Study" xlink:title="Ontario_Model_Study">
<ellipse fill="#fffc87" stroke="#808080" cx="586.24" cy="-235" rx="94.34" ry="18"/>
<text text-anchor="middle" x="586.24" y="-229.95" font-family="Times,serif" font-size="14.00">Ontario_Model_Study</text>
</a>
</g>
</g>
<!-- http://www.provbook.orgSlicing&#45;&gt;http://www.provbook.orgOntario_Model_Study -->
<g id="edge7" class="edge">
<title>http://www.provbook.orgSlicing&#45;&gt;http://www.provbook.orgOntario_Model_Study</title>
<path fill="none" stroke="black" d="M685.69,-178.99C668.25,-188.64 645.42,-201.27 626.03,-211.99"/>
<polygon fill="black" stroke="black" points="624.34,-208.93 617.29,-216.83 627.73,-215.05 624.34,-208.93"/>
<text text-anchor="middle" x="685.41" y="-191.27" font-family="Times,serif" font-size="8.00">use</text>
</g>
<!-- http://www.provbook.orgGEODES_Epimodel -->
<g id="node10" class="node">
<title>http://www.provbook.orgGEODES_Epimodel</title>
<g id="a_node10"><a xlink:href="http://www.provbook.orgGEODES_Epimodel" xlink:title="GEODES_Epimodel">
<polygon fill="#fdb266" stroke="black" points="916.27,-240.56 807.24,-253 698.22,-240.56 698.32,-220.44 916.17,-220.44 916.27,-240.56"/>
<text text-anchor="middle" x="807.24" y="-229.95" font-family="Times,serif" font-size="14.00">GEODES_Epimodel</text>
</a>
</g>
</g>
<!-- http://www.provbook.orgSlicing&#45;&gt;http://www.provbook.orgGEODES_Epimodel -->
<g id="edge9" class="edge">
<title>http://www.provbook.orgSlicing&#45;&gt;http://www.provbook.orgGEODES_Epimodel</title>
<path fill="none" stroke="black" d="M736.48,-181.12C749.56,-190.89 765.96,-203.15 779.68,-213.4"/>
<polygon fill="black" stroke="black" points="777.36,-216.04 787.47,-219.22 781.55,-210.43 777.36,-216.04"/>
<text text-anchor="middle" x="750.26" y="-172.47" font-family="Times,serif" font-size="8.00">assoc</text>
</g>
<!-- http://www.provbook.orgAssumption -->
<g id="node2" class="node">
<title>http://www.provbook.orgAssumption</title>
<g id="a_node2"><a xlink:href="http://www.provbook.orgAssumption" xlink:title="Assumption">
<ellipse fill="#fffc87" stroke="#808080" cx="713.24" cy="-90.5" rx="55.96" ry="18"/>
<text text-anchor="middle" x="713.24" y="-85.45" font-family="Times,serif" font-size="14.00">Assumption</text>
</a>
</g>
</g>
<!-- http://www.provbook.orgAssumption&#45;&gt;http://www.provbook.orgSlicing -->
<g id="edge8" class="edge">
<title>http://www.provbook.orgAssumption&#45;&gt;http://www.provbook.orgSlicing</title>
<path fill="none" stroke="black" d="M713.24,-108.87C713.24,-116.18 713.24,-124.89 713.24,-133.11"/>
<polygon fill="black" stroke="black" points="709.74,-133.07 713.24,-143.07 716.74,-133.07 709.74,-133.07"/>
<text text-anchor="middle" x="726.23" y="-113.64" font-family="Times,serif" font-size="8.00">gen</text>
</g>
<!-- http://www.provbook.orgrho -->
<g id="node4" class="node">
<title>http://www.provbook.orgrho</title>
<g id="a_node4"><a xlink:href="http://www.provbook.orgrho" xlink:title="rho">
<ellipse fill="#fffc87" stroke="#808080" cx="1041.24" cy="-307" rx="27" ry="18"/>
<text text-anchor="middle" x="1041.24" y="-301.95" font-family="Times,serif" font-size="14.00">rho</text>
</a>
</g>
</g>
<!-- http://www.provbook.orgAssumption&#45;&gt;http://www.provbook.orgrho -->
<g id="edge10" class="edge">
<title>http://www.provbook.orgAssumption&#45;&gt;http://www.provbook.orgrho</title>
<path fill="none" stroke="black" d="M764.32,-98.23C870.57,-113.37 1109.46,-153.84 1157.24,-217 1166.9,-229.76 1165.89,-239.54 1157.24,-253 1140.02,-279.81 1105.49,-293.23 1078.56,-299.84"/>
<polygon fill="black" stroke="black" points="1078.05,-296.37 1069.04,-301.94 1079.56,-303.2 1078.05,-296.37"/>
</g>
<!-- http://www.provbook.orgquarantine_efficiency -->
<g id="node8" class="node">
<title>http://www.provbook.orgquarantine_efficiency</title>
<g id="a_node8"><a xlink:href="http://www.provbook.orgquarantine_efficiency" xlink:title="quarantine_efficiency">
<ellipse fill="#fffc87" stroke="#808080" cx="130.24" cy="-307" rx="91.27" ry="18"/>
<text text-anchor="middle" x="130.24" y="-301.95" font-family="Times,serif" font-size="14.00">quarantine_efficiency</text>
</a>
</g>
</g>
<!-- http://www.provbook.orgAssumption&#45;&gt;http://www.provbook.orgquarantine_efficiency -->
<g id="edge11" class="edge">
<title>http://www.provbook.orgAssumption&#45;&gt;http://www.provbook.orgquarantine_efficiency</title>
<path fill="none" stroke="black" d="M657.41,-92.6C505.49,-96.89 90.5,-117.64 7.24,-217 -3.03,-229.26 -1.55,-239.63 7.24,-253 18.57,-270.21 36.78,-281.85 55.77,-289.73"/>
<polygon fill="black" stroke="black" points="54.35,-292.93 64.94,-293.19 56.82,-286.38 54.35,-292.93"/>
</g>
<!-- &#45;attrs0 -->
<g id="node3" class="node">
<title>&#45;attrs0</title>
<polygon fill="none" stroke="gray" points="774.49,-36.5 645.99,-36.5 645.99,0 780.49,0 780.49,-30.5 774.49,-36.5"/>
<polyline fill="none" stroke="gray" points="774.49,-36.5 774.49,-30.5"/>
<polyline fill="none" stroke="gray" points="780.49,-30.5 774.49,-30.5"/>
<text text-anchor="start" x="655.99" y="-21" font-family="Times,serif" font-size="10.00">type:</text>
<text text-anchor="start" x="681.24" y="-21" font-family="Times,serif" font-size="10.00">prov:Collection</text>
<text text-anchor="start" x="655.99" y="-7.75" font-family="Times,serif" font-size="10.00">label:</text>
<text text-anchor="start" x="681.24" y="-7.75" font-family="Times,serif" font-size="10.00">Fragment Assumption</text>
</g>
<!-- &#45;attrs0&#45;&gt;http://www.provbook.orgAssumption -->
<g id="edge1" class="edge">
<title>&#45;attrs0&#45;&gt;http://www.provbook.orgAssumption</title>
<path fill="none" stroke="gray" stroke-dasharray="5,2" d="M713.24,-36.98C713.24,-47.71 713.24,-61.34 713.24,-72.02"/>
</g>
<!-- &#45;attrs1 -->
<g id="node5" class="node">
<title>&#45;attrs1</title>
<polygon fill="none" stroke="gray" points="1141.87,-253 934.62,-253 934.62,-217 1147.87,-217 1147.87,-247 1141.87,-253"/>
<polyline fill="none" stroke="gray" points="1141.87,-253 1141.87,-247"/>
<polyline fill="none" stroke="gray" points="1147.87,-247 1141.87,-247"/>
<text text-anchor="start" x="944.62" y="-231.12" font-family="Times,serif" font-size="10.00">value:</text>
<text text-anchor="start" x="972.12" y="-231.12" font-family="Times,serif" font-size="10.00">Proportion of cases detected and isolated</text>
</g>
<!-- &#45;attrs1&#45;&gt;http://www.provbook.orgrho -->
<g id="edge2" class="edge">
<title>&#45;attrs1&#45;&gt;http://www.provbook.orgrho</title>
<path fill="none" stroke="gray" stroke-dasharray="5,2" d="M1041.24,-253.3C1041.24,-264.15 1041.24,-278.08 1041.24,-288.9"/>
</g>
<!-- http://www.provbook.orgOntario_Model_Study&#45;&gt;http://www.provbook.orgrho -->
<g id="edge12" class="edge">
<title>http://www.provbook.orgOntario_Model_Study&#45;&gt;http://www.provbook.orgrho</title>
<path fill="none" stroke="black" d="M655.48,-247.56C666.76,-249.41 678.32,-251.28 689.24,-253 803.6,-271.05 939.09,-291.06 1003.54,-300.5"/>
<polygon fill="black" stroke="black" points="1002.83,-303.93 1013.23,-301.92 1003.84,-297.01 1002.83,-303.93"/>
</g>
<!-- http://www.provbook.orgOntario_Model_Study&#45;&gt;http://www.provbook.orgquarantine_efficiency -->
<g id="edge14" class="edge">
<title>http://www.provbook.orgOntario_Model_Study&#45;&gt;http://www.provbook.orgquarantine_efficiency</title>
<path fill="none" stroke="black" d="M517.01,-247.57C505.73,-249.41 494.16,-251.28 483.24,-253 390.85,-267.56 284.71,-283.37 213.14,-293.9"/>
<polygon fill="black" stroke="black" points="212.84,-290.41 203.45,-295.33 213.86,-297.33 212.84,-290.41"/>
</g>
<!-- http://www.provbook.orgOntario_Model_Authors -->
<g id="node12" class="node">
<title>http://www.provbook.orgOntario_Model_Authors</title>
<g id="a_node12"><a xlink:href="http://www.provbook.orgOntario_Model_Authors" xlink:title="Ontario_Model_Authors">
<polygon fill="#fdb266" stroke="black" points="603.98,-312.56 477.24,-325 350.51,-312.56 350.63,-292.44 603.86,-292.44 603.98,-312.56"/>
<text text-anchor="middle" x="477.24" y="-301.95" font-family="Times,serif" font-size="14.00">Ontario_Model_Authors</text>
</a>
</g>
</g>
<!-- http://www.provbook.orgOntario_Model_Study&#45;&gt;http://www.provbook.orgOntario_Model_Authors -->
<g id="edge13" class="edge">
<title>http://www.provbook.orgOntario_Model_Study&#45;&gt;http://www.provbook.orgOntario_Model_Authors</title>
<path fill="none" stroke="black" d="M560.14,-252.77C544.7,-262.68 525.04,-275.3 508.75,-285.77"/>
<polygon fill="black" stroke="black" points="506.9,-282.8 500.37,-291.15 510.68,-288.69 506.9,-282.8"/>
<text text-anchor="middle" x="560.84" y="-265.02" font-family="Times,serif" font-size="8.00">att</text>
</g>
<!-- &#45;attrs2 -->
<g id="node7" class="node">
<title>&#45;attrs2</title>
<polygon fill="none" stroke="gray" points="662.12,-181 474.37,-181 474.37,-144.5 668.12,-144.5 668.12,-175 662.12,-181"/>
<polyline fill="none" stroke="gray" points="662.12,-181 662.12,-175"/>
<polyline fill="none" stroke="gray" points="668.12,-175 662.12,-175"/>
<text text-anchor="start" x="484.37" y="-165.5" font-family="Times,serif" font-size="10.00">type:</text>
<text text-anchor="start" x="511.87" y="-165.5" font-family="Times,serif" font-size="10.00">prov:Collection</text>
<text text-anchor="start" x="484.37" y="-152.25" font-family="Times,serif" font-size="10.00">value:</text>
<text text-anchor="start" x="511.87" y="-152.25" font-family="Times,serif" font-size="10.00">A little provenance goes a long way</text>
</g>
<!-- &#45;attrs2&#45;&gt;http://www.provbook.orgOntario_Model_Study -->
<g id="edge3" class="edge">
<title>&#45;attrs2&#45;&gt;http://www.provbook.orgOntario_Model_Study</title>
<path fill="none" stroke="gray" stroke-dasharray="5,2" d="M575.03,-181.48C577.32,-192.21 580.23,-205.84 582.51,-216.52"/>
</g>
<!-- &#45;attrs3 -->
<g id="node9" class="node">
<title>&#45;attrs3</title>
<polygon fill="none" stroke="gray" points="237.99,-253 16.49,-253 16.49,-217 243.99,-217 243.99,-247 237.99,-253"/>
<polyline fill="none" stroke="gray" points="237.99,-253 237.99,-247"/>
<polyline fill="none" stroke="gray" points="243.99,-247 237.99,-247"/>
<text text-anchor="start" x="26.49" y="-231.12" font-family="Times,serif" font-size="10.00">value:</text>
<text text-anchor="start" x="53.99" y="-231.12" font-family="Times,serif" font-size="10.00">Reduction in transmission due to quarantine</text>
</g>
<!-- &#45;attrs3&#45;&gt;http://www.provbook.orgquarantine_efficiency -->
<g id="edge4" class="edge">
<title>&#45;attrs3&#45;&gt;http://www.provbook.orgquarantine_efficiency</title>
<path fill="none" stroke="gray" stroke-dasharray="5,2" d="M130.24,-253.3C130.24,-264.15 130.24,-278.08 130.24,-288.9"/>
</g>
<!-- &#45;attrs4 -->
<g id="node11" class="node">
<title>&#45;attrs4</title>
<polygon fill="none" stroke="gray" points="879.74,-180.75 758.74,-180.75 758.74,-144.75 885.74,-144.75 885.74,-174.75 879.74,-180.75"/>
<polyline fill="none" stroke="gray" points="879.74,-180.75 879.74,-174.75"/>
<polyline fill="none" stroke="gray" points="885.74,-174.75 879.74,-174.75"/>
<text text-anchor="start" x="768.74" y="-158.87" font-family="Times,serif" font-size="10.00">label:</text>
<text text-anchor="start" x="793.99" y="-158.87" font-family="Times,serif" font-size="10.00">GEODES Epimodel</text>
</g>
<!-- &#45;attrs4&#45;&gt;http://www.provbook.orgGEODES_Epimodel -->
<g id="edge5" class="edge">
<title>&#45;attrs4&#45;&gt;http://www.provbook.orgGEODES_Epimodel</title>
<path fill="none" stroke="gray" stroke-dasharray="5,2" d="M818.54,-181.12C815.97,-193.14 812.6,-208.94 810.21,-220.13"/>
</g>
<!-- &#45;attrs5 -->
<g id="node13" class="node">
<title>&#45;attrs5</title>
<polygon fill="none" stroke="gray" points="468.12,-253 262.37,-253 262.37,-217 474.12,-217 474.12,-247 468.12,-253"/>
<polyline fill="none" stroke="gray" points="468.12,-253 468.12,-247"/>
<polyline fill="none" stroke="gray" points="474.12,-247 468.12,-247"/>
<text text-anchor="start" x="272.37" y="-231.12" font-family="Times,serif" font-size="10.00">label:</text>
<text text-anchor="start" x="297.62" y="-231.12" font-family="Times,serif" font-size="10.00">Tuite, A. R., Fisman, D. N., &amp; Greer, A. L.</text>
</g>
<!-- &#45;attrs5&#45;&gt;http://www.provbook.orgOntario_Model_Authors -->
<g id="edge6" class="edge">
<title>&#45;attrs5&#45;&gt;http://www.provbook.orgOntario_Model_Authors</title>
<path fill="none" stroke="gray" stroke-dasharray="5,2" d="M395.47,-253.48C414.01,-265.39 438.22,-280.94 455.48,-292.02"/>
</g>
</g>
</svg>
