<?xml version="1.0" encoding="UTF-8" standalone="no"?>
<!DOCTYPE svg PUBLIC "-//W3C//DTD SVG 1.1//EN"
 "http://www.w3.org/Graphics/SVG/1.1/DTD/svg11.dtd">
<!-- Generated by graphviz version 12.2.1 (20241206.2353)
 -->
<!-- Title: PROV Pages: 1 -->
<svg width="1152pt" height="244pt"
 viewBox="0.00 0.00 1152.00 243.57" xmlns="http://www.w3.org/2000/svg" xmlns:xlink="http://www.w3.org/1999/xlink">
<g id="graph0" class="graph" transform="scale(0.510638 0.510638) rotate(0) translate(4 473)">
<title>PROV</title>
<polygon fill="white" stroke="none" points="-4,4 -4,-473 2252,-473 2252,4 -4,4"/>
<!-- http://www.provbook.orgSlicing -->
<g id="node1" class="node">
<title>http://www.provbook.orgSlicing</title>
<g id="a_node1"><a xlink:href="http://www.provbook.orgSlicing" xlink:title="Slicing">
<polygon fill="#9fb1fc" stroke="#0000ff" points="1150.12,-180.75 1095.88,-180.75 1095.88,-144.75 1150.12,-144.75 1150.12,-180.75"/>
<text text-anchor="middle" x="1123" y="-157.7" font-family="Times,serif" font-size="14.00">Slicing</text>
</a>
</g>
</g>
<!-- http://www.provbook.orgOntario_Model_Study -->
<g id="node6" class="node">
<title>http://www.provbook.orgOntario_Model_Study</title>
<g id="a_node6"><a xlink:href="http://www.provbook.orgOntario_Model_Study" xlink:title="Ontario_Model_Study">
<ellipse fill="#fffc87" stroke="#808080" cx="978" cy="-235" rx="94.34" ry="18"/>
<text text-anchor="middle" x="978" y="-229.95" font-family="Times,serif" font-size="14.00">Ontario_Model_Study</text>
</a>
</g>
</g>
<!-- http://www.provbook.orgSlicing&#45;&gt;http://www.provbook.orgOntario_Model_Study -->
<g id="edge15" class="edge">
<title>http://www.provbook.orgSlicing&#45;&gt;http://www.provbook.orgOntario_Model_Study</title>
<path fill="none" stroke="black" d="M1095.39,-177.13C1074.63,-187.19 1045.78,-201.16 1021.87,-212.74"/>
<polygon fill="black" stroke="black" points="1020.46,-209.54 1012.99,-217.05 1023.52,-215.84 1020.46,-209.54"/>
<text text-anchor="middle" x="1094.3" y="-189.36" font-family="Times,serif" font-size="8.00">use</text>
</g>
<!-- http://www.provbook.orgGEODES_Epimodel -->
<g id="node23" class="node">
<title>http://www.provbook.orgGEODES_Epimodel</title>
<g id="a_node23"><a xlink:href="http://www.provbook.orgGEODES_Epimodel" xlink:title="GEODES_Epimodel">
<polygon fill="#fdb266" stroke="black" points="1308.02,-240.56 1199,-253 1089.98,-240.56 1090.08,-220.44 1307.92,-220.44 1308.02,-240.56"/>
<text text-anchor="middle" x="1199" y="-229.95" font-family="Times,serif" font-size="14.00">GEODES_Epimodel</text>
</a>
</g>
</g>
<!-- http://www.provbook.orgSlicing&#45;&gt;http://www.provbook.orgGEODES_Epimodel -->
<g id="edge17" class="edge">
<title>http://www.provbook.orgSlicing&#45;&gt;http://www.provbook.orgGEODES_Epimodel</title>
<path fill="none" stroke="black" d="M1141.79,-181.12C1152.05,-190.61 1164.86,-202.44 1175.75,-212.51"/>
<polygon fill="black" stroke="black" points="1173.16,-214.88 1182.88,-219.1 1177.91,-209.74 1173.16,-214.88"/>
<text text-anchor="middle" x="1156.11" y="-173.94" font-family="Times,serif" font-size="8.00">assoc</text>
</g>
<!-- http://www.provbook.orgRef18&#45;20 -->
<g id="node2" class="node">
<title>http://www.provbook.orgRef18&#45;20</title>
<g id="a_node2"><a xlink:href="http://www.provbook.orgRef18-20" xlink:title="Ref18&#45;20">
<ellipse fill="#fffc87" stroke="#808080" cx="1123" cy="-90.5" rx="45.72" ry="18"/>
<text text-anchor="middle" x="1123" y="-85.45" font-family="Times,serif" font-size="14.00">Ref18&#45;20</text>
</a>
</g>
</g>
<!-- http://www.provbook.orgRef18&#45;20&#45;&gt;http://www.provbook.orgSlicing -->
<g id="edge16" class="edge">
<title>http://www.provbook.orgRef18&#45;20&#45;&gt;http://www.provbook.orgSlicing</title>
<path fill="none" stroke="black" d="M1123,-108.87C1123,-116.18 1123,-124.89 1123,-133.11"/>
<polygon fill="black" stroke="black" points="1119.5,-133.07 1123,-143.07 1126.5,-133.07 1119.5,-133.07"/>
<text text-anchor="middle" x="1135.99" y="-113.64" font-family="Times,serif" font-size="8.00">gen</text>
</g>
<!-- http://www.provbook.orglatent_period -->
<g id="node4" class="node">
<title>http://www.provbook.orglatent_period</title>
<g id="a_node4"><a xlink:href="http://www.provbook.orglatent_period" xlink:title="latent_period">
<ellipse fill="#fffc87" stroke="#808080" cx="842" cy="-307" rx="59.54" ry="18"/>
<text text-anchor="middle" x="842" y="-301.95" font-family="Times,serif" font-size="14.00">latent_period</text>
</a>
</g>
</g>
<!-- http://www.provbook.orgRef18&#45;20&#45;&gt;http://www.provbook.orglatent_period -->
<g id="edge18" class="edge">
<title>http://www.provbook.orgRef18&#45;20&#45;&gt;http://www.provbook.orglatent_period</title>
<path fill="none" stroke="black" d="M1078.57,-95.22C1015.1,-101.46 903.01,-116.24 875,-144.5 840.07,-179.75 837.32,-241.34 839.18,-277.42"/>
<polygon fill="black" stroke="black" points="835.67,-277.35 839.84,-287.09 842.65,-276.87 835.67,-277.35"/>
</g>
<!-- http://www.provbook.orgpresymptomatic_period -->
<g id="node8" class="node">
<title>http://www.provbook.orgpresymptomatic_period</title>
<g id="a_node8"><a xlink:href="http://www.provbook.orgpresymptomatic_period" xlink:title="presymptomatic_period">
<ellipse fill="#fffc87" stroke="#808080" cx="1070" cy="-307" rx="99.46" ry="18"/>
<text text-anchor="middle" x="1070" y="-301.95" font-family="Times,serif" font-size="14.00">presymptomatic_period</text>
</a>
</g>
</g>
<!-- http://www.provbook.orgRef18&#45;20&#45;&gt;http://www.provbook.orgpresymptomatic_period -->
<g id="edge19" class="edge">
<title>http://www.provbook.orgRef18&#45;20&#45;&gt;http://www.provbook.orgpresymptomatic_period</title>
<path fill="none" stroke="black" d="M1168.82,-92.69C1304.17,-97.68 1685.61,-123.35 1569,-253 1543.38,-281.49 1317.31,-295.85 1178.39,-302.05"/>
<polygon fill="black" stroke="black" points="1178.24,-298.55 1168.4,-302.49 1178.55,-305.55 1178.24,-298.55"/>
</g>
<!-- http://www.provbook.orginfectious_period_mild -->
<g id="node10" class="node">
<title>http://www.provbook.orginfectious_period_mild</title>
<g id="a_node10"><a xlink:href="http://www.provbook.orginfectious_period_mild" xlink:title="infectious_period_mild">
<ellipse fill="#fffc87" stroke="#808080" cx="659" cy="-307" rx="97.41" ry="18"/>
<text text-anchor="middle" x="659" y="-301.95" font-family="Times,serif" font-size="14.00">infectious_period_mild</text>
</a>
</g>
</g>
<!-- http://www.provbook.orgRef18&#45;20&#45;&gt;http://www.provbook.orginfectious_period_mild -->
<g id="edge20" class="edge">
<title>http://www.provbook.orgRef18&#45;20&#45;&gt;http://www.provbook.orginfectious_period_mild</title>
<path fill="none" stroke="black" d="M1079.79,-96.96C976.8,-110.93 721.68,-151.57 671,-217 657.86,-233.97 655.38,-258.42 655.9,-277.4"/>
<polygon fill="black" stroke="black" points="652.39,-277.39 656.47,-287.16 659.38,-276.97 652.39,-277.39"/>
</g>
<!-- http://www.provbook.orginfectious_period_severe -->
<g id="node12" class="node">
<title>http://www.provbook.orginfectious_period_severe</title>
<g id="a_node12"><a xlink:href="http://www.provbook.orginfectious_period_severe" xlink:title="infectious_period_severe">
<ellipse fill="#fffc87" stroke="#808080" cx="402" cy="-307" rx="103.56" ry="18"/>
<text text-anchor="middle" x="402" y="-301.95" font-family="Times,serif" font-size="14.00">infectious_period_severe</text>
</a>
</g>
</g>
<!-- http://www.provbook.orgRef18&#45;20&#45;&gt;http://www.provbook.orginfectious_period_severe -->
<g id="edge21" class="edge">
<title>http://www.provbook.orgRef18&#45;20&#45;&gt;http://www.provbook.orginfectious_period_severe</title>
<path fill="none" stroke="black" d="M1076.91,-91.7C927.97,-93.42 464.05,-107.61 375,-217 360.57,-234.73 370.35,-260.06 381.99,-279.17"/>
<polygon fill="black" stroke="black" points="379.06,-281.09 387.48,-287.53 384.91,-277.25 379.06,-281.09"/>
</g>
<!-- http://www.provbook.orggamma_mild -->
<g id="node14" class="node">
<title>http://www.provbook.orggamma_mild</title>
<g id="a_node14"><a xlink:href="http://www.provbook.orggamma_mild" xlink:title="gamma_mild">
<ellipse fill="#fffc87" stroke="#808080" cx="1927" cy="-307" rx="61.08" ry="18"/>
<text text-anchor="middle" x="1927" y="-301.95" font-family="Times,serif" font-size="14.00">gamma_mild</text>
</a>
</g>
</g>
<!-- http://www.provbook.orgRef18&#45;20&#45;&gt;http://www.provbook.orggamma_mild -->
<g id="edge22" class="edge">
<title>http://www.provbook.orgRef18&#45;20&#45;&gt;http://www.provbook.orggamma_mild</title>
<path fill="none" stroke="black" d="M1168.05,-94.37C1341.75,-105.91 1961.15,-151.4 2017,-217 2027.37,-229.18 2024.94,-239.11 2017,-253 2008.14,-268.5 1992.79,-279.91 1977.25,-288.09"/>
<polygon fill="black" stroke="black" points="1975.91,-284.85 1968.43,-292.35 1978.96,-291.15 1975.91,-284.85"/>
</g>
<!-- http://www.provbook.orggamma_severe -->
<g id="node16" class="node">
<title>http://www.provbook.orggamma_severe</title>
<g id="a_node16"><a xlink:href="http://www.provbook.orggamma_severe" xlink:title="gamma_severe">
<ellipse fill="#fffc87" stroke="#808080" cx="2148" cy="-307" rx="67.22" ry="18"/>
<text text-anchor="middle" x="2148" y="-301.95" font-family="Times,serif" font-size="14.00">gamma_severe</text>
</a>
</g>
</g>
<!-- http://www.provbook.orgRef18&#45;20&#45;&gt;http://www.provbook.orggamma_severe -->
<g id="edge23" class="edge">
<title>http://www.provbook.orgRef18&#45;20&#45;&gt;http://www.provbook.orggamma_severe</title>
<path fill="none" stroke="black" d="M1168.76,-92.99C1370.19,-100.04 2170.99,-133.2 2241,-217 2251.26,-229.28 2249.04,-239.17 2241,-253 2232.04,-268.42 2216.72,-279.73 2201.08,-287.84"/>
<polygon fill="black" stroke="black" points="2199.71,-284.62 2192.18,-292.07 2202.72,-290.94 2199.71,-284.62"/>
</g>
<!-- &#45;attrs0 -->
<g id="node3" class="node">
<title>&#45;attrs0</title>
<polygon fill="none" stroke="gray" points="1179,-36.5 1061,-36.5 1061,0 1185,0 1185,-30.5 1179,-36.5"/>
<polyline fill="none" stroke="gray" points="1179,-36.5 1179,-30.5"/>
<polyline fill="none" stroke="gray" points="1185,-30.5 1179,-30.5"/>
<text text-anchor="start" x="1071" y="-21" font-family="Times,serif" font-size="10.00">type:</text>
<text text-anchor="start" x="1096.25" y="-21" font-family="Times,serif" font-size="10.00">prov:Collection</text>
<text text-anchor="start" x="1071" y="-7.75" font-family="Times,serif" font-size="10.00">label:</text>
<text text-anchor="start" x="1096.25" y="-7.75" font-family="Times,serif" font-size="10.00">Fragment Ref18&#45;20</text>
</g>
<!-- &#45;attrs0&#45;&gt;http://www.provbook.orgRef18&#45;20 -->
<g id="edge1" class="edge">
<title>&#45;attrs0&#45;&gt;http://www.provbook.orgRef18&#45;20</title>
<path fill="none" stroke="gray" stroke-dasharray="5,2" d="M1123,-36.98C1123,-47.71 1123,-61.34 1123,-72.02"/>
</g>
<!-- http://www.provbook.orgShenzhen_Study -->
<g id="node18" class="node">
<title>http://www.provbook.orgShenzhen_Study</title>
<g id="a_node18"><a xlink:href="http://www.provbook.orgShenzhen_Study" xlink:title="Shenzhen_Study">
<ellipse fill="#fffc87" stroke="#808080" cx="791" cy="-379" rx="72.85" ry="18"/>
<text text-anchor="middle" x="791" y="-373.95" font-family="Times,serif" font-size="14.00">Shenzhen_Study</text>
</a>
</g>
</g>
<!-- http://www.provbook.orglatent_period&#45;&gt;http://www.provbook.orgShenzhen_Study -->
<g id="edge26" class="edge">
<title>http://www.provbook.orglatent_period&#45;&gt;http://www.provbook.orgShenzhen_Study</title>
<path fill="none" stroke="black" d="M829.65,-324.95C823.7,-333.11 816.44,-343.09 809.81,-352.18"/>
<polygon fill="black" stroke="black" points="807.18,-349.84 804.12,-359.99 812.84,-353.97 807.18,-349.84"/>
<text text-anchor="middle" x="835.74" y="-335.93" font-family="Times,serif" font-size="8.00">der</text>
</g>
<!-- http://www.provbook.orgSingapore_and_Tianjin_Study -->
<g id="node19" class="node">
<title>http://www.provbook.orgSingapore_and_Tianjin_Study</title>
<g id="a_node19"><a xlink:href="http://www.provbook.orgSingapore_and_Tianjin_Study" xlink:title="Singapore_and_Tianjin_Study">
<ellipse fill="#fffc87" stroke="#808080" cx="242" cy="-379" rx="123.52" ry="18"/>
<text text-anchor="middle" x="242" y="-373.95" font-family="Times,serif" font-size="14.00">Singapore_and_Tianjin_Study</text>
</a>
</g>
</g>
<!-- http://www.provbook.orglatent_period&#45;&gt;http://www.provbook.orgSingapore_and_Tianjin_Study -->
<g id="edge27" class="edge">
<title>http://www.provbook.orglatent_period&#45;&gt;http://www.provbook.orgSingapore_and_Tianjin_Study</title>
<path fill="none" stroke="black" d="M796.58,-319.02C786.24,-321.25 775.28,-323.4 765,-325 593.01,-351.82 548.03,-341.96 375,-361 364.44,-362.16 353.42,-363.45 342.43,-364.78"/>
<polygon fill="black" stroke="black" points="342.02,-361.31 332.52,-366 342.87,-368.25 342.02,-361.31"/>
<text text-anchor="middle" x="791.96" y="-330.56" font-family="Times,serif" font-size="8.00">der</text>
</g>
<!-- http://www.provbook.orgVirological_Study -->
<g id="node20" class="node">
<title>http://www.provbook.orgVirological_Study</title>
<g id="a_node20"><a xlink:href="http://www.provbook.orgVirological_Study" xlink:title="Virological_Study">
<ellipse fill="#fffc87" stroke="#808080" cx="1172" cy="-379" rx="78.99" ry="18"/>
<text text-anchor="middle" x="1172" y="-373.95" font-family="Times,serif" font-size="14.00">Virological_Study</text>
</a>
</g>
</g>
<!-- http://www.provbook.orglatent_period&#45;&gt;http://www.provbook.orgVirological_Study -->
<g id="edge28" class="edge">
<title>http://www.provbook.orglatent_period&#45;&gt;http://www.provbook.orgVirological_Study</title>
<path fill="none" stroke="black" d="M889.63,-318.1C946.04,-330.07 1040.39,-350.08 1104.35,-363.65"/>
<polygon fill="black" stroke="black" points="1103.54,-367.06 1114.05,-365.71 1105,-360.21 1103.54,-367.06"/>
<text text-anchor="middle" x="899.66" y="-304.23" font-family="Times,serif" font-size="8.00">der</text>
</g>
<!-- &#45;attrs1 -->
<g id="node5" class="node">
<title>&#45;attrs1</title>
<polygon fill="none" stroke="gray" points="822.38,-253 679.62,-253 679.62,-217 828.38,-217 828.38,-247 822.38,-253"/>
<polyline fill="none" stroke="gray" points="822.38,-253 822.38,-247"/>
<polyline fill="none" stroke="gray" points="828.38,-247 822.38,-247"/>
<text text-anchor="start" x="689.62" y="-231.12" font-family="Times,serif" font-size="10.00">value:</text>
<text text-anchor="start" x="717.12" y="-231.12" font-family="Times,serif" font-size="10.00">Duration of latent period</text>
</g>
<!-- &#45;attrs1&#45;&gt;http://www.provbook.orglatent_period -->
<g id="edge2" class="edge">
<title>&#45;attrs1&#45;&gt;http://www.provbook.orglatent_period</title>
<path fill="none" stroke="gray" stroke-dasharray="5,2" d="M775.75,-253.3C789.8,-264.48 807.95,-278.92 821.7,-289.86"/>
</g>
<!-- http://www.provbook.orgOntario_Model_Study&#45;&gt;http://www.provbook.orglatent_period -->
<g id="edge24" class="edge">
<title>http://www.provbook.orgOntario_Model_Study&#45;&gt;http://www.provbook.orglatent_period</title>
<path fill="none" stroke="black" d="M946.11,-252.41C926.77,-262.37 901.94,-275.15 881.37,-285.73"/>
<polygon fill="black" stroke="black" points="880,-282.51 872.71,-290.19 883.2,-288.73 880,-282.51"/>
</g>
<!-- http://www.provbook.orgOntario_Model_Study&#45;&gt;http://www.provbook.orgpresymptomatic_period -->
<g id="edge29" class="edge">
<title>http://www.provbook.orgOntario_Model_Study&#45;&gt;http://www.provbook.orgpresymptomatic_period</title>
<path fill="none" stroke="black" d="M1000.27,-252.95C1011.91,-261.8 1026.34,-272.78 1039.05,-282.45"/>
<polygon fill="black" stroke="black" points="1036.65,-285.02 1046.73,-288.29 1040.89,-279.45 1036.65,-285.02"/>
</g>
<!-- http://www.provbook.orgOntario_Model_Study&#45;&gt;http://www.provbook.orginfectious_period_mild -->
<g id="edge33" class="edge">
<title>http://www.provbook.orgOntario_Model_Study&#45;&gt;http://www.provbook.orginfectious_period_mild</title>
<path fill="none" stroke="black" d="M917.62,-249.25C864.62,-260.88 787.42,-277.82 731.17,-290.16"/>
<polygon fill="black" stroke="black" points="730.71,-286.68 721.69,-292.24 732.21,-293.52 730.71,-286.68"/>
</g>
<!-- http://www.provbook.orgOntario_Model_Study&#45;&gt;http://www.provbook.orginfectious_period_severe -->
<g id="edge37" class="edge">
<title>http://www.provbook.orgOntario_Model_Study&#45;&gt;http://www.provbook.orginfectious_period_severe</title>
<path fill="none" stroke="black" d="M900.02,-245.48C795.13,-258.22 608.8,-280.87 496.2,-294.55"/>
<polygon fill="black" stroke="black" points="495.87,-291.07 486.37,-295.75 496.72,-298.01 495.87,-291.07"/>
</g>
<!-- http://www.provbook.orgOntario_Model_Study&#45;&gt;http://www.provbook.orggamma_mild -->
<g id="edge41" class="edge">
<title>http://www.provbook.orgOntario_Model_Study&#45;&gt;http://www.provbook.orggamma_mild</title>
<path fill="none" stroke="black" d="M1044.9,-248.08C1056.89,-249.95 1069.29,-251.69 1081,-253 1348.69,-282.97 1417.2,-271.52 1686,-289 1743.54,-292.74 1808.79,-297.37 1856.86,-300.85"/>
<polygon fill="black" stroke="black" points="1856.34,-304.32 1866.57,-301.55 1856.85,-297.34 1856.34,-304.32"/>
</g>
<!-- http://www.provbook.orgOntario_Model_Study&#45;&gt;http://www.provbook.orggamma_severe -->
<g id="edge42" class="edge">
<title>http://www.provbook.orgOntario_Model_Study&#45;&gt;http://www.provbook.orggamma_severe</title>
<path fill="none" stroke="black" d="M1044.33,-248.19C1056.49,-250.07 1069.1,-251.79 1081,-253 1486.33,-294.25 1590.74,-258.19 1997,-289 2023.23,-290.99 2051.94,-294.01 2077.22,-296.95"/>
<polygon fill="black" stroke="black" points="2076.72,-300.42 2087.07,-298.12 2077.55,-293.47 2076.72,-300.42"/>
</g>
<!-- http://www.provbook.orgOntario_Model_Authors -->
<g id="node25" class="node">
<title>http://www.provbook.orgOntario_Model_Authors</title>
<g id="a_node25"><a xlink:href="http://www.provbook.orgOntario_Model_Authors" xlink:title="Ontario_Model_Authors">
<polygon fill="#fdb266" stroke="black" points="1676.74,-312.56 1550,-325 1423.26,-312.56 1423.38,-292.44 1676.62,-292.44 1676.74,-312.56"/>
<text text-anchor="middle" x="1550" y="-301.95" font-family="Times,serif" font-size="14.00">Ontario_Model_Authors</text>
</a>
</g>
</g>
<!-- http://www.provbook.orgOntario_Model_Study&#45;&gt;http://www.provbook.orgOntario_Model_Authors -->
<g id="edge25" class="edge">
<title>http://www.provbook.orgOntario_Model_Study&#45;&gt;http://www.provbook.orgOntario_Model_Authors</title>
<path fill="none" stroke="black" d="M1046.35,-247.78C1057.9,-249.63 1069.78,-251.44 1081,-253 1191.94,-268.41 1318.13,-282.48 1411.64,-292.24"/>
<polygon fill="black" stroke="black" points="1411.07,-295.7 1421.38,-293.25 1411.79,-288.74 1411.07,-295.7"/>
<text text-anchor="middle" x="1055.8" y="-233.41" font-family="Times,serif" font-size="8.00">att</text>
</g>
<!-- &#45;attrs2 -->
<g id="node7" class="node">
<title>&#45;attrs2</title>
<polygon fill="none" stroke="gray" points="1071.88,-181 884.12,-181 884.12,-144.5 1077.88,-144.5 1077.88,-175 1071.88,-181"/>
<polyline fill="none" stroke="gray" points="1071.88,-181 1071.88,-175"/>
<polyline fill="none" stroke="gray" points="1077.88,-175 1071.88,-175"/>
<text text-anchor="start" x="894.12" y="-165.5" font-family="Times,serif" font-size="10.00">type:</text>
<text text-anchor="start" x="921.62" y="-165.5" font-family="Times,serif" font-size="10.00">prov:Collection</text>
<text text-anchor="start" x="894.12" y="-152.25" font-family="Times,serif" font-size="10.00">value:</text>
<text text-anchor="start" x="921.62" y="-152.25" font-family="Times,serif" font-size="10.00">A little provenance goes a long way</text>
</g>
<!-- &#45;attrs2&#45;&gt;http://www.provbook.orgOntario_Model_Study -->
<g id="edge3" class="edge">
<title>&#45;attrs2&#45;&gt;http://www.provbook.orgOntario_Model_Study</title>
<path fill="none" stroke="gray" stroke-dasharray="5,2" d="M980.24,-181.48C979.78,-192.21 979.2,-205.84 978.75,-216.52"/>
</g>
<!-- http://www.provbook.orgpresymptomatic_period&#45;&gt;http://www.provbook.orgShenzhen_Study -->
<g id="edge30" class="edge">
<title>http://www.provbook.orgpresymptomatic_period&#45;&gt;http://www.provbook.orgShenzhen_Study</title>
<path fill="none" stroke="black" d="M1013.54,-322.17C966.56,-333.95 899.84,-350.69 851.72,-362.77"/>
<polygon fill="black" stroke="black" points="851.14,-359.3 842.3,-365.13 852.85,-366.09 851.14,-359.3"/>
<text text-anchor="middle" x="1009.43" y="-333.87" font-family="Times,serif" font-size="8.00">der</text>
</g>
<!-- http://www.provbook.orgpresymptomatic_period&#45;&gt;http://www.provbook.orgSingapore_and_Tianjin_Study -->
<g id="edge31" class="edge">
<title>http://www.provbook.orgpresymptomatic_period&#45;&gt;http://www.provbook.orgSingapore_and_Tianjin_Study</title>
<path fill="none" stroke="black" d="M987.54,-317.44C962.93,-320.09 935.89,-322.83 911,-325 673.14,-345.7 612.63,-337.85 375,-361 364.05,-362.07 352.62,-363.32 341.24,-364.65"/>
<polygon fill="black" stroke="black" points="340.93,-361.16 331.41,-365.83 341.76,-368.11 340.93,-361.16"/>
<text text-anchor="middle" x="981.46" y="-328.43" font-family="Times,serif" font-size="8.00">der</text>
</g>
<!-- http://www.provbook.orgpresymptomatic_period&#45;&gt;http://www.provbook.orgVirological_Study -->
<g id="edge32" class="edge">
<title>http://www.provbook.orgpresymptomatic_period&#45;&gt;http://www.provbook.orgVirological_Study</title>
<path fill="none" stroke="black" d="M1094.43,-324.77C1107.78,-333.92 1124.49,-345.39 1138.98,-355.34"/>
<polygon fill="black" stroke="black" points="1136.65,-357.98 1146.87,-360.76 1140.61,-352.21 1136.65,-357.98"/>
<text text-anchor="middle" x="1107.97" y="-315.57" font-family="Times,serif" font-size="8.00">der</text>
</g>
<!-- &#45;attrs3 -->
<g id="node9" class="node">
<title>&#45;attrs3</title>
<polygon fill="none" stroke="gray" points="1553.75,-253 1326.25,-253 1326.25,-217 1559.75,-217 1559.75,-247 1553.75,-253"/>
<polyline fill="none" stroke="gray" points="1553.75,-253 1553.75,-247"/>
<polyline fill="none" stroke="gray" points="1559.75,-247 1553.75,-247"/>
<text text-anchor="start" x="1336.25" y="-231.12" font-family="Times,serif" font-size="10.00">value:</text>
<text text-anchor="start" x="1363.75" y="-231.12" font-family="Times,serif" font-size="10.00">Duration of presymptomatic infectious period</text>
</g>
<!-- &#45;attrs3&#45;&gt;http://www.provbook.orgpresymptomatic_period -->
<g id="edge4" class="edge">
<title>&#45;attrs3&#45;&gt;http://www.provbook.orgpresymptomatic_period</title>
<path fill="none" stroke="gray" stroke-dasharray="5,2" d="M1349.84,-253.48C1283.81,-265.87 1196.75,-282.21 1137.38,-293.35"/>
</g>
<!-- http://www.provbook.orginfectious_period_mild&#45;&gt;http://www.provbook.orgShenzhen_Study -->
<g id="edge34" class="edge">
<title>http://www.provbook.orginfectious_period_mild&#45;&gt;http://www.provbook.orgShenzhen_Study</title>
<path fill="none" stroke="black" d="M689.95,-324.41C708.16,-334.07 731.4,-346.39 750.99,-356.78"/>
<polygon fill="black" stroke="black" points="749.34,-359.87 759.82,-361.46 752.62,-353.69 749.34,-359.87"/>
<text text-anchor="middle" x="702.66" y="-313.72" font-family="Times,serif" font-size="8.00">der</text>
</g>
<!-- http://www.provbook.orginfectious_period_mild&#45;&gt;http://www.provbook.orgSingapore_and_Tianjin_Study -->
<g id="edge35" class="edge">
<title>http://www.provbook.orginfectious_period_mild&#45;&gt;http://www.provbook.orgSingapore_and_Tianjin_Study</title>
<path fill="none" stroke="black" d="M588.73,-319.8C518.05,-331.66 408.79,-350 331.84,-362.92"/>
<polygon fill="black" stroke="black" points="331.51,-359.43 322.23,-364.53 332.67,-366.33 331.51,-359.43"/>
<text text-anchor="middle" x="583.49" y="-331.12" font-family="Times,serif" font-size="8.00">der</text>
</g>
<!-- http://www.provbook.orginfectious_period_mild&#45;&gt;http://www.provbook.orgVirological_Study -->
<g id="edge36" class="edge">
<title>http://www.provbook.orginfectious_period_mild&#45;&gt;http://www.provbook.orgVirological_Study</title>
<path fill="none" stroke="black" d="M731.93,-319.24C745.57,-321.24 759.71,-323.24 773,-325 910.94,-343.26 946.48,-339.79 1084,-361 1090.4,-361.99 1097.05,-363.1 1103.7,-364.28"/>
<polygon fill="black" stroke="black" points="1102.88,-367.69 1113.34,-366.04 1104.13,-360.8 1102.88,-367.69"/>
<text text-anchor="middle" x="741.23" y="-304.74" font-family="Times,serif" font-size="8.00">der</text>
</g>
<!-- &#45;attrs4 -->
<g id="node11" class="node">
<title>&#45;attrs4</title>
<polygon fill="none" stroke="gray" points="617.75,-253 384.25,-253 384.25,-217 623.75,-217 623.75,-247 617.75,-253"/>
<polyline fill="none" stroke="gray" points="617.75,-253 617.75,-247"/>
<polyline fill="none" stroke="gray" points="623.75,-247 617.75,-247"/>
<text text-anchor="start" x="394.25" y="-231.12" font-family="Times,serif" font-size="10.00">value:</text>
<text text-anchor="start" x="421.75" y="-231.12" font-family="Times,serif" font-size="10.00">Duration of infectious period, mild to moderate</text>
</g>
<!-- &#45;attrs4&#45;&gt;http://www.provbook.orginfectious_period_mild -->
<g id="edge5" class="edge">
<title>&#45;attrs4&#45;&gt;http://www.provbook.orginfectious_period_mild</title>
<path fill="none" stroke="gray" stroke-dasharray="5,2" d="M542.71,-253.48C567.37,-264.62 599.09,-278.94 623.17,-289.82"/>
</g>
<!-- http://www.provbook.orginfectious_period_severe&#45;&gt;http://www.provbook.orgShenzhen_Study -->
<g id="edge38" class="edge">
<title>http://www.provbook.orginfectious_period_severe&#45;&gt;http://www.provbook.orgShenzhen_Study</title>
<path fill="none" stroke="black" d="M475.63,-320C537.9,-330.32 629.43,-345.89 709,-361 714.57,-362.06 720.35,-363.19 726.14,-364.34"/>
<polygon fill="black" stroke="black" points="725.26,-367.74 735.76,-366.29 726.65,-360.88 725.26,-367.74"/>
<text text-anchor="middle" x="485.16" y="-305.69" font-family="Times,serif" font-size="8.00">der</text>
</g>
<!-- http://www.provbook.orginfectious_period_severe&#45;&gt;http://www.provbook.orgSingapore_and_Tianjin_Study -->
<g id="edge39" class="edge">
<title>http://www.provbook.orginfectious_period_severe&#45;&gt;http://www.provbook.orgSingapore_and_Tianjin_Study</title>
<path fill="none" stroke="black" d="M364.89,-324.24C342.62,-333.98 314.04,-346.48 290.05,-356.98"/>
<polygon fill="black" stroke="black" points="288.89,-353.67 281.13,-360.88 291.69,-360.08 288.89,-353.67"/>
<text text-anchor="middle" x="363.23" y="-336.42" font-family="Times,serif" font-size="8.00">der</text>
</g>
<!-- http://www.provbook.orginfectious_period_severe&#45;&gt;http://www.provbook.orgVirological_Study -->
<g id="edge40" class="edge">
<title>http://www.provbook.orginfectious_period_severe&#45;&gt;http://www.provbook.orgVirological_Study</title>
<path fill="none" stroke="black" d="M485.4,-318.06C507.37,-320.53 531.06,-323.02 553,-325 788.59,-346.24 849.43,-330.51 1084,-361 1090.7,-361.87 1097.67,-362.94 1104.61,-364.1"/>
<polygon fill="black" stroke="black" points="1103.89,-367.53 1114.34,-365.82 1105.1,-360.64 1103.89,-367.53"/>
<text text-anchor="middle" x="494.3" y="-303.26" font-family="Times,serif" font-size="8.00">der</text>
</g>
<!-- &#45;attrs5 -->
<g id="node13" class="node">
<title>&#45;attrs5</title>
<polygon fill="none" stroke="gray" points="322,-253 132,-253 132,-217 328,-217 328,-247 322,-253"/>
<polyline fill="none" stroke="gray" points="322,-253 322,-247"/>
<polyline fill="none" stroke="gray" points="328,-247 322,-247"/>
<text text-anchor="start" x="142" y="-231.12" font-family="Times,serif" font-size="10.00">value:</text>
<text text-anchor="start" x="169.5" y="-231.12" font-family="Times,serif" font-size="10.00">Duration of infectious period, severe</text>
</g>
<!-- &#45;attrs5&#45;&gt;http://www.provbook.orginfectious_period_severe -->
<g id="edge6" class="edge">
<title>&#45;attrs5&#45;&gt;http://www.provbook.orginfectious_period_severe</title>
<path fill="none" stroke="gray" stroke-dasharray="5,2" d="M272.96,-253.48C300.42,-264.66 335.77,-279.05 362.53,-289.94"/>
</g>
<!-- &#45;attrs6 -->
<g id="node15" class="node">
<title>&#45;attrs6</title>
<polygon fill="none" stroke="gray" points="2001.75,-253 1846.25,-253 1846.25,-217 2007.75,-217 2007.75,-247 2001.75,-253"/>
<polyline fill="none" stroke="gray" points="2001.75,-253 2001.75,-247"/>
<polyline fill="none" stroke="gray" points="2007.75,-247 2001.75,-247"/>
<text text-anchor="start" x="1856.25" y="-231.12" font-family="Times,serif" font-size="10.00">value:</text>
<text text-anchor="start" x="1883.75" y="-231.12" font-family="Times,serif" font-size="10.00">Recovery rate for mild cases</text>
</g>
<!-- &#45;attrs6&#45;&gt;http://www.provbook.orggamma_mild -->
<g id="edge7" class="edge">
<title>&#45;attrs6&#45;&gt;http://www.provbook.orggamma_mild</title>
<path fill="none" stroke="gray" stroke-dasharray="5,2" d="M1927,-253.3C1927,-264.15 1927,-278.08 1927,-288.9"/>
</g>
<!-- &#45;attrs7 -->
<g id="node17" class="node">
<title>&#45;attrs7</title>
<polygon fill="none" stroke="gray" points="2226.12,-253 2063.88,-253 2063.88,-217 2232.12,-217 2232.12,-247 2226.12,-253"/>
<polyline fill="none" stroke="gray" points="2226.12,-253 2226.12,-247"/>
<polyline fill="none" stroke="gray" points="2232.12,-247 2226.12,-247"/>
<text text-anchor="start" x="2073.88" y="-231.12" font-family="Times,serif" font-size="10.00">value:</text>
<text text-anchor="start" x="2101.38" y="-231.12" font-family="Times,serif" font-size="10.00">Recovery rate for severe cases</text>
</g>
<!-- &#45;attrs7&#45;&gt;http://www.provbook.orggamma_severe -->
<g id="edge8" class="edge">
<title>&#45;attrs7&#45;&gt;http://www.provbook.orggamma_severe</title>
<path fill="none" stroke="gray" stroke-dasharray="5,2" d="M2148,-253.3C2148,-264.15 2148,-278.08 2148,-288.9"/>
</g>
<!-- http://www.provbook.orgShenzhen_Data -->
<g id="node21" class="node">
<title>http://www.provbook.orgShenzhen_Data</title>
<g id="a_node21"><a xlink:href="http://www.provbook.orgShenzhen_Data" xlink:title="Shenzhen_Data">
<ellipse fill="#fffc87" stroke="#808080" cx="570" cy="-451" rx="68.75" ry="18"/>
<text text-anchor="middle" x="570" y="-445.95" font-family="Times,serif" font-size="14.00">Shenzhen_Data</text>
</a>
</g>
</g>
<!-- http://www.provbook.orgShenzhen_Study&#45;&gt;http://www.provbook.orgShenzhen_Data -->
<g id="edge44" class="edge">
<title>http://www.provbook.orgShenzhen_Study&#45;&gt;http://www.provbook.orgShenzhen_Data</title>
<path fill="none" stroke="black" d="M747.34,-393.83C711.73,-405.11 661.29,-421.08 623.3,-433.12"/>
<polygon fill="black" stroke="black" points="622.36,-429.74 613.89,-436.1 624.48,-436.42 622.36,-429.74"/>
<text text-anchor="middle" x="744.11" y="-405.75" font-family="Times,serif" font-size="8.00">der</text>
</g>
<!-- http://www.provbook.orgSchenzhen_Authors -->
<g id="node27" class="node">
<title>http://www.provbook.orgSchenzhen_Authors</title>
<g id="a_node27"><a xlink:href="http://www.provbook.orgSchenzhen_Authors" xlink:title="Schenzhen_Authors">
<polygon fill="#fdb266" stroke="black" points="934.23,-456.56 829,-469 723.77,-456.56 723.87,-436.44 934.13,-436.44 934.23,-456.56"/>
<text text-anchor="middle" x="829" y="-445.95" font-family="Times,serif" font-size="14.00">Schenzhen_Authors</text>
</a>
</g>
</g>
<!-- http://www.provbook.orgShenzhen_Study&#45;&gt;http://www.provbook.orgSchenzhen_Authors -->
<g id="edge43" class="edge">
<title>http://www.provbook.orgShenzhen_Study&#45;&gt;http://www.provbook.orgSchenzhen_Authors</title>
<path fill="none" stroke="black" d="M800.39,-397.3C805.12,-406.01 810.92,-416.7 816.06,-426.17"/>
<polygon fill="black" stroke="black" points="812.93,-427.73 820.77,-434.85 819.08,-424.39 812.93,-427.73"/>
<text text-anchor="middle" x="815.39" y="-394.97" font-family="Times,serif" font-size="8.00">att</text>
</g>
<!-- http://www.provbook.orgSingapore_Tianjin_Authors -->
<g id="node29" class="node">
<title>http://www.provbook.orgSingapore_Tianjin_Authors</title>
<g id="a_node29"><a xlink:href="http://www.provbook.orgSingapore_Tianjin_Authors" xlink:title="Singapore_Tianjin_Authors">
<polygon fill="#fdb266" stroke="black" points="286.65,-456.56 146,-469 5.35,-456.56 5.48,-436.44 286.52,-436.44 286.65,-456.56"/>
<text text-anchor="middle" x="146" y="-445.95" font-family="Times,serif" font-size="14.00">Singapore_Tianjin_Authors</text>
</a>
</g>
</g>
<!-- http://www.provbook.orgSingapore_and_Tianjin_Study&#45;&gt;http://www.provbook.orgSingapore_Tianjin_Authors -->
<g id="edge45" class="edge">
<title>http://www.provbook.orgSingapore_and_Tianjin_Study&#45;&gt;http://www.provbook.orgSingapore_Tianjin_Authors</title>
<path fill="none" stroke="black" d="M218.76,-396.95C205.42,-406.68 188.55,-418.97 174.42,-429.28"/>
<polygon fill="black" stroke="black" points="172.39,-426.42 166.38,-435.14 176.52,-432.08 172.39,-426.42"/>
<text text-anchor="middle" x="220.35" y="-409.14" font-family="Times,serif" font-size="8.00">att</text>
</g>
<!-- http://www.provbook.orgVirological_Authors -->
<g id="node31" class="node">
<title>http://www.provbook.orgVirological_Authors</title>
<g id="a_node31"><a xlink:href="http://www.provbook.orgVirological_Authors" xlink:title="Virological_Authors">
<polygon fill="#fdb266" stroke="black" points="1206.76,-456.56 1099,-469 991.24,-456.56 991.34,-436.44 1206.66,-436.44 1206.76,-456.56"/>
<text text-anchor="middle" x="1099" y="-445.95" font-family="Times,serif" font-size="14.00">Virological_Authors</text>
</a>
</g>
</g>
<!-- http://www.provbook.orgVirological_Study&#45;&gt;http://www.provbook.orgVirological_Authors -->
<g id="edge46" class="edge">
<title>http://www.provbook.orgVirological_Study&#45;&gt;http://www.provbook.orgVirological_Authors</title>
<path fill="none" stroke="black" d="M1154.33,-396.95C1144.57,-406.3 1132.34,-418.03 1121.86,-428.08"/>
<polygon fill="black" stroke="black" points="1119.45,-425.54 1114.66,-434.99 1124.3,-430.59 1119.45,-425.54"/>
<text text-anchor="middle" x="1157.91" y="-408.79" font-family="Times,serif" font-size="8.00">att</text>
</g>
<!-- &#45;attrs8 -->
<g id="node22" class="node">
<title>&#45;attrs8</title>
<polygon fill="none" stroke="gray" points="694.38,-397 383.62,-397 383.62,-361 700.38,-361 700.38,-391 694.38,-397"/>
<polyline fill="none" stroke="gray" points="694.38,-397 694.38,-391"/>
<polyline fill="none" stroke="gray" points="700.38,-391 694.38,-391"/>
<text text-anchor="start" x="393.62" y="-375.12" font-family="Times,serif" font-size="10.00">value:</text>
<text text-anchor="start" x="421.12" y="-375.12" font-family="Times,serif" font-size="10.00">Dataset of 391 confirmed Covid&#45;19 cases and 1,286 close contacts</text>
</g>
<!-- &#45;attrs8&#45;&gt;http://www.provbook.orgShenzhen_Data -->
<g id="edge9" class="edge">
<title>&#45;attrs8&#45;&gt;http://www.provbook.orgShenzhen_Data</title>
<path fill="none" stroke="gray" stroke-dasharray="5,2" d="M548.92,-397.3C553.26,-408.15 558.83,-422.08 563.16,-432.9"/>
</g>
<!-- &#45;attrs9 -->
<g id="node24" class="node">
<title>&#45;attrs9</title>
<polygon fill="none" stroke="gray" points="1289.5,-180.75 1168.5,-180.75 1168.5,-144.75 1295.5,-144.75 1295.5,-174.75 1289.5,-180.75"/>
<polyline fill="none" stroke="gray" points="1289.5,-180.75 1289.5,-174.75"/>
<polyline fill="none" stroke="gray" points="1295.5,-174.75 1289.5,-174.75"/>
<text text-anchor="start" x="1178.5" y="-158.88" font-family="Times,serif" font-size="10.00">label:</text>
<text text-anchor="start" x="1203.75" y="-158.88" font-family="Times,serif" font-size="10.00">GEODES Epimodel</text>
</g>
<!-- &#45;attrs9&#45;&gt;http://www.provbook.orgGEODES_Epimodel -->
<g id="edge10" class="edge">
<title>&#45;attrs9&#45;&gt;http://www.provbook.orgGEODES_Epimodel</title>
<path fill="none" stroke="gray" stroke-dasharray="5,2" d="M1223.84,-181.12C1218.19,-193.14 1210.77,-208.94 1205.52,-220.13"/>
</g>
<!-- &#45;attrs10 -->
<g id="node26" class="node">
<title>&#45;attrs10</title>
<polygon fill="none" stroke="gray" points="1821.88,-253 1616.12,-253 1616.12,-217 1827.88,-217 1827.88,-247 1821.88,-253"/>
<polyline fill="none" stroke="gray" points="1821.88,-253 1821.88,-247"/>
<polyline fill="none" stroke="gray" points="1827.88,-247 1821.88,-247"/>
<text text-anchor="start" x="1626.12" y="-231.12" font-family="Times,serif" font-size="10.00">label:</text>
<text text-anchor="start" x="1651.38" y="-231.12" font-family="Times,serif" font-size="10.00">Tuite, A. R., Fisman, D. N., &amp; Greer, A. L.</text>
</g>
<!-- &#45;attrs10&#45;&gt;http://www.provbook.orgOntario_Model_Authors -->
<g id="edge11" class="edge">
<title>&#45;attrs10&#45;&gt;http://www.provbook.orgOntario_Model_Authors</title>
<path fill="none" stroke="gray" stroke-dasharray="5,2" d="M1679.04,-253.48C1649.79,-265.39 1611.58,-280.94 1584.35,-292.02"/>
</g>
<!-- &#45;attrs11 -->
<g id="node28" class="node">
<title>&#45;attrs11</title>
<polygon fill="none" stroke="gray" points="954.5,-397 881.5,-397 881.5,-361 960.5,-361 960.5,-391 954.5,-397"/>
<polyline fill="none" stroke="gray" points="954.5,-397 954.5,-391"/>
<polyline fill="none" stroke="gray" points="960.5,-391 954.5,-391"/>
<text text-anchor="start" x="891.5" y="-375.12" font-family="Times,serif" font-size="10.00">label:</text>
<text text-anchor="start" x="916.75" y="-375.12" font-family="Times,serif" font-size="10.00">Bi, et al.</text>
</g>
<!-- &#45;attrs11&#45;&gt;http://www.provbook.orgSchenzhen_Authors -->
<g id="edge12" class="edge">
<title>&#45;attrs11&#45;&gt;http://www.provbook.orgSchenzhen_Authors</title>
<path fill="none" stroke="gray" stroke-dasharray="5,2" d="M898.26,-397.3C882.61,-409.21 862.1,-424.82 847.47,-435.95"/>
</g>
<!-- &#45;attrs12 -->
<g id="node30" class="node">
<title>&#45;attrs12</title>
<polygon fill="none" stroke="gray" points="94,-397 0,-397 0,-361 100,-361 100,-391 94,-397"/>
<polyline fill="none" stroke="gray" points="94,-397 94,-391"/>
<polyline fill="none" stroke="gray" points="100,-391 94,-391"/>
<text text-anchor="start" x="10" y="-375.12" font-family="Times,serif" font-size="10.00">label:</text>
<text text-anchor="start" x="35.25" y="-375.12" font-family="Times,serif" font-size="10.00">Tindale, et al.</text>
</g>
<!-- &#45;attrs12&#45;&gt;http://www.provbook.orgSingapore_Tianjin_Authors -->
<g id="edge13" class="edge">
<title>&#45;attrs12&#45;&gt;http://www.provbook.orgSingapore_Tianjin_Authors</title>
<path fill="none" stroke="gray" stroke-dasharray="5,2" d="M73.73,-397.3C90.05,-409.21 111.46,-424.82 126.73,-435.95"/>
</g>
<!-- &#45;attrs13 -->
<g id="node32" class="node">
<title>&#45;attrs13</title>
<polygon fill="none" stroke="gray" points="1069.12,-397 978.88,-397 978.88,-361 1075.12,-361 1075.12,-391 1069.12,-397"/>
<polyline fill="none" stroke="gray" points="1069.12,-397 1069.12,-391"/>
<polyline fill="none" stroke="gray" points="1075.12,-391 1069.12,-391"/>
<text text-anchor="start" x="988.88" y="-375.12" font-family="Times,serif" font-size="10.00">label:</text>
<text text-anchor="start" x="1014.12" y="-375.12" font-family="Times,serif" font-size="10.00">Wolfel, et al.</text>
</g>
<!-- &#45;attrs13&#45;&gt;http://www.provbook.orgVirological_Authors -->
<g id="edge14" class="edge">
<title>&#45;attrs13&#45;&gt;http://www.provbook.orgVirological_Authors</title>
<path fill="none" stroke="gray" stroke-dasharray="5,2" d="M1044.8,-397.3C1057.12,-409.29 1073.31,-425.03 1084.78,-436.18"/>
</g>
</g>
</svg>
