<?xml version="1.0" encoding="UTF-8" standalone="no"?>
<!DOCTYPE svg PUBLIC "-//W3C//DTD SVG 1.1//EN"
 "http://www.w3.org/Graphics/SVG/1.1/DTD/svg11.dtd">
<!-- Generated by graphviz version 12.2.1 (20241206.2353)
 -->
<!-- Title: PROV Pages: 1 -->
<svg width="1152pt" height="391pt"
 viewBox="0.00 0.00 1152.00 391.14" xmlns="http://www.w3.org/2000/svg" xmlns:xlink="http://www.w3.org/1999/xlink">
<g id="graph0" class="graph" transform="scale(0.820003 0.820003) rotate(0) translate(4 473)">
<title>PROV</title>
<polygon fill="white" stroke="none" points="-4,4 -4,-473 1400.87,-473 1400.87,4 -4,4"/>
<!-- http://www.provbook.orgSlicing -->
<g id="node1" class="node">
<title>http://www.provbook.orgSlicing</title>
<g id="a_node1"><a xlink:href="http://www.provbook.orgSlicing" xlink:title="Slicing">
<polygon fill="#9fb1fc" stroke="#0000ff" points="747.75,-180.75 693.5,-180.75 693.5,-144.75 747.75,-144.75 747.75,-180.75"/>
<text text-anchor="middle" x="720.62" y="-157.7" font-family="Times,serif" font-size="14.00">Slicing</text>
</a>
</g>
</g>
<!-- http://www.provbook.orgOntario_Model_Study -->
<g id="node6" class="node">
<title>http://www.provbook.orgOntario_Model_Study</title>
<g id="a_node6"><a xlink:href="http://www.provbook.orgOntario_Model_Study" xlink:title="Ontario_Model_Study">
<ellipse fill="#fffc87" stroke="#808080" cx="664.62" cy="-235" rx="94.34" ry="18"/>
<text text-anchor="middle" x="664.62" y="-229.95" font-family="Times,serif" font-size="14.00">Ontario_Model_Study</text>
</a>
</g>
</g>
<!-- http://www.provbook.orgSlicing&#45;&gt;http://www.provbook.orgOntario_Model_Study -->
<g id="edge11" class="edge">
<title>http://www.provbook.orgSlicing&#45;&gt;http://www.provbook.orgOntario_Model_Study</title>
<path fill="none" stroke="black" d="M706.78,-181.12C700.34,-189.2 692.54,-198.98 685.41,-207.92"/>
<polygon fill="black" stroke="black" points="682.75,-205.65 679.25,-215.65 688.22,-210.01 682.75,-205.65"/>
<text text-anchor="middle" x="712.27" y="-192.35" font-family="Times,serif" font-size="8.00">use</text>
</g>
<!-- http://www.provbook.orgGEODES_Epimodel -->
<g id="node17" class="node">
<title>http://www.provbook.orgGEODES_Epimodel</title>
<g id="a_node17"><a xlink:href="http://www.provbook.orgGEODES_Epimodel" xlink:title="GEODES_Epimodel">
<polygon fill="#fdb266" stroke="black" points="994.65,-240.56 885.62,-253 776.6,-240.56 776.7,-220.44 994.55,-220.44 994.65,-240.56"/>
<text text-anchor="middle" x="885.62" y="-229.95" font-family="Times,serif" font-size="14.00">GEODES_Epimodel</text>
</a>
</g>
</g>
<!-- http://www.provbook.orgSlicing&#45;&gt;http://www.provbook.orgGEODES_Epimodel -->
<g id="edge13" class="edge">
<title>http://www.provbook.orgSlicing&#45;&gt;http://www.provbook.orgGEODES_Epimodel</title>
<path fill="none" stroke="black" d="M748.24,-175.51C773.9,-186.43 812.51,-202.87 842.28,-215.54"/>
<polygon fill="black" stroke="black" points="840.84,-218.74 851.41,-219.43 843.58,-212.3 840.84,-218.74"/>
<text text-anchor="middle" x="760.23" y="-163.77" font-family="Times,serif" font-size="8.00">assoc</text>
</g>
<!-- http://www.provbook.orgRef21 -->
<g id="node2" class="node">
<title>http://www.provbook.orgRef21</title>
<g id="a_node2"><a xlink:href="http://www.provbook.orgRef21" xlink:title="Ref21">
<ellipse fill="#fffc87" stroke="#808080" cx="416.62" cy="-90.5" rx="33.44" ry="18"/>
<text text-anchor="middle" x="416.62" y="-85.45" font-family="Times,serif" font-size="14.00">Ref21</text>
</a>
</g>
</g>
<!-- http://www.provbook.orgRef21&#45;&gt;http://www.provbook.orgSlicing -->
<g id="edge12" class="edge">
<title>http://www.provbook.orgRef21&#45;&gt;http://www.provbook.orgSlicing</title>
<path fill="none" stroke="black" d="M449.06,-95.24C498.15,-101.46 594.16,-115.85 682.3,-144.15"/>
<polygon fill="black" stroke="black" points="680.97,-147.4 691.57,-147.19 683.16,-140.75 680.97,-147.4"/>
<text text-anchor="middle" x="458.2" y="-80.61" font-family="Times,serif" font-size="8.00">gen</text>
</g>
<!-- http://www.provbook.orgsigma -->
<g id="node4" class="node">
<title>http://www.provbook.orgsigma</title>
<g id="a_node4"><a xlink:href="http://www.provbook.orgsigma" xlink:title="sigma">
<ellipse fill="#fffc87" stroke="#808080" cx="895.62" cy="-307" rx="33.44" ry="18"/>
<text text-anchor="middle" x="895.62" y="-301.95" font-family="Times,serif" font-size="14.00">sigma</text>
</a>
</g>
</g>
<!-- http://www.provbook.orgRef21&#45;&gt;http://www.provbook.orgsigma -->
<g id="edge14" class="edge">
<title>http://www.provbook.orgRef21&#45;&gt;http://www.provbook.orgsigma</title>
<path fill="none" stroke="black" d="M450.5,-90.98C555.43,-89.95 873.22,-91.38 958.62,-144.5 1002.96,-172.07 1031.24,-208.69 1003.62,-253 989.23,-276.11 961.49,-289.42 937.73,-296.93"/>
<polygon fill="black" stroke="black" points="936.9,-293.52 928.26,-299.66 938.84,-300.25 936.9,-293.52"/>
</g>
<!-- http://www.provbook.orghosp_stay_preICU -->
<g id="node8" class="node">
<title>http://www.provbook.orghosp_stay_preICU</title>
<g id="a_node8"><a xlink:href="http://www.provbook.orghosp_stay_preICU" xlink:title="hosp_stay_preICU">
<ellipse fill="#fffc87" stroke="#808080" cx="312.62" cy="-307" rx="80.01" ry="18"/>
<text text-anchor="middle" x="312.62" y="-301.95" font-family="Times,serif" font-size="14.00">hosp_stay_preICU</text>
</a>
</g>
</g>
<!-- http://www.provbook.orgRef21&#45;&gt;http://www.provbook.orghosp_stay_preICU -->
<g id="edge15" class="edge">
<title>http://www.provbook.orgRef21&#45;&gt;http://www.provbook.orghosp_stay_preICU</title>
<path fill="none" stroke="black" d="M402.87,-107.35C383.91,-130.07 349.99,-173.91 331.62,-217 323.38,-236.34 318.58,-259.62 315.86,-277.52"/>
<polygon fill="black" stroke="black" points="312.43,-276.79 314.53,-287.18 319.36,-277.75 312.43,-276.79"/>
</g>
<!-- http://www.provbook.orgtheta -->
<g id="node10" class="node">
<title>http://www.provbook.orgtheta</title>
<g id="a_node10"><a xlink:href="http://www.provbook.orgtheta" xlink:title="theta">
<ellipse fill="#fffc87" stroke="#808080" cx="151.62" cy="-162.75" rx="28.83" ry="18"/>
<text text-anchor="middle" x="151.62" y="-157.7" font-family="Times,serif" font-size="14.00">theta</text>
</a>
</g>
</g>
<!-- http://www.provbook.orgRef21&#45;&gt;http://www.provbook.orgtheta -->
<g id="edge16" class="edge">
<title>http://www.provbook.orgRef21&#45;&gt;http://www.provbook.orgtheta</title>
<path fill="none" stroke="black" d="M387,-99.35C338.43,-112.23 241.97,-137.8 188.86,-151.88"/>
<polygon fill="black" stroke="black" points="188.13,-148.45 179.36,-154.4 189.93,-155.22 188.13,-148.45"/>
</g>
<!-- &#45;attrs0 -->
<g id="node3" class="node">
<title>&#45;attrs0</title>
<polygon fill="none" stroke="gray" points="465.88,-36.5 361.38,-36.5 361.38,0 471.88,0 471.88,-30.5 465.88,-36.5"/>
<polyline fill="none" stroke="gray" points="465.88,-36.5 465.88,-30.5"/>
<polyline fill="none" stroke="gray" points="471.88,-30.5 465.88,-30.5"/>
<text text-anchor="start" x="371.38" y="-21" font-family="Times,serif" font-size="10.00">type:</text>
<text text-anchor="start" x="396.62" y="-21" font-family="Times,serif" font-size="10.00">prov:Collection</text>
<text text-anchor="start" x="371.38" y="-7.75" font-family="Times,serif" font-size="10.00">label:</text>
<text text-anchor="start" x="396.62" y="-7.75" font-family="Times,serif" font-size="10.00">Fragment Ref21</text>
</g>
<!-- &#45;attrs0&#45;&gt;http://www.provbook.orgRef21 -->
<g id="edge1" class="edge">
<title>&#45;attrs0&#45;&gt;http://www.provbook.orgRef21</title>
<path fill="none" stroke="gray" stroke-dasharray="5,2" d="M416.62,-36.98C416.62,-47.71 416.62,-61.34 416.62,-72.02"/>
</g>
<!-- http://www.provbook.orgHospitalized_Patients_Study -->
<g id="node12" class="node">
<title>http://www.provbook.orgHospitalized_Patients_Study</title>
<g id="a_node12"><a xlink:href="http://www.provbook.orgHospitalized_Patients_Study" xlink:title="Hospitalized_Patients_Study">
<ellipse fill="#fffc87" stroke="#808080" cx="312.62" cy="-379" rx="117.37" ry="18"/>
<text text-anchor="middle" x="312.62" y="-373.95" font-family="Times,serif" font-size="14.00">Hospitalized_Patients_Study</text>
</a>
</g>
</g>
<!-- http://www.provbook.orgsigma&#45;&gt;http://www.provbook.orgHospitalized_Patients_Study -->
<g id="edge19" class="edge">
<title>http://www.provbook.orgsigma&#45;&gt;http://www.provbook.orgHospitalized_Patients_Study</title>
<path fill="none" stroke="black" d="M862.98,-311.6C788.09,-319.89 598.19,-341.17 439.62,-361 429.92,-362.21 419.81,-363.51 409.71,-364.83"/>
<polygon fill="black" stroke="black" points="409.29,-361.35 399.83,-366.12 410.2,-368.29 409.29,-361.35"/>
<text text-anchor="middle" x="856.96" y="-322.61" font-family="Times,serif" font-size="8.00">der</text>
</g>
<!-- http://www.provbook.orgPOLYMOD_Study -->
<g id="node13" class="node">
<title>http://www.provbook.orgPOLYMOD_Study</title>
<g id="a_node13"><a xlink:href="http://www.provbook.orgPOLYMOD_Study" xlink:title="POLYMOD_Study">
<ellipse fill="#fffc87" stroke="#808080" cx="840.62" cy="-379" rx="82.57" ry="18"/>
<text text-anchor="middle" x="840.62" y="-373.95" font-family="Times,serif" font-size="14.00">POLYMOD_Study</text>
</a>
</g>
</g>
<!-- http://www.provbook.orgsigma&#45;&gt;http://www.provbook.orgPOLYMOD_Study -->
<g id="edge20" class="edge">
<title>http://www.provbook.orgsigma&#45;&gt;http://www.provbook.orgPOLYMOD_Study</title>
<path fill="none" stroke="black" d="M883.14,-323.88C876.58,-332.23 868.38,-342.68 860.93,-352.16"/>
<polygon fill="black" stroke="black" points="858.18,-349.99 854.76,-360.01 863.69,-354.31 858.18,-349.99"/>
<text text-anchor="middle" x="888.73" y="-335.08" font-family="Times,serif" font-size="8.00">der</text>
</g>
<!-- http://www.provbook.orgCanadian_Community_Health_Survey -->
<g id="node14" class="node">
<title>http://www.provbook.orgCanadian_Community_Health_Survey</title>
<g id="a_node14"><a xlink:href="http://www.provbook.orgCanadian_Community_Health_Survey" xlink:title="Canadian_Community_Health_Survey">
<ellipse fill="#fffc87" stroke="#808080" cx="1241.62" cy="-379" rx="155.25" ry="18"/>
<text text-anchor="middle" x="1241.62" y="-373.95" font-family="Times,serif" font-size="14.00">Canadian_Community_Health_Survey</text>
</a>
</g>
</g>
<!-- http://www.provbook.orgsigma&#45;&gt;http://www.provbook.orgCanadian_Community_Health_Survey -->
<g id="edge21" class="edge">
<title>http://www.provbook.orgsigma&#45;&gt;http://www.provbook.orgCanadian_Community_Health_Survey</title>
<path fill="none" stroke="black" d="M926.63,-314.27C977.67,-324.6 1081.13,-345.53 1155.57,-360.59"/>
<polygon fill="black" stroke="black" points="1154.82,-364.01 1165.31,-362.56 1156.21,-357.15 1154.82,-364.01"/>
<text text-anchor="middle" x="936.56" y="-300.3" font-family="Times,serif" font-size="8.00">der</text>
</g>
<!-- &#45;attrs1 -->
<g id="node5" class="node">
<title>&#45;attrs1</title>
<polygon fill="none" stroke="gray" points="1280.88,-253 1050.38,-253 1050.38,-217 1286.88,-217 1286.88,-247 1280.88,-253"/>
<polyline fill="none" stroke="gray" points="1280.88,-253 1280.88,-247"/>
<polyline fill="none" stroke="gray" points="1286.88,-247 1280.88,-247"/>
<text text-anchor="start" x="1060.38" y="-231.12" font-family="Times,serif" font-size="10.00">value:</text>
<text text-anchor="start" x="1087.88" y="-231.12" font-family="Times,serif" font-size="10.00">Rate of progression from exposed to infectious</text>
</g>
<!-- &#45;attrs1&#45;&gt;http://www.provbook.orgsigma -->
<g id="edge2" class="edge">
<title>&#45;attrs1&#45;&gt;http://www.provbook.orgsigma</title>
<path fill="none" stroke="gray" stroke-dasharray="5,2" d="M1100.44,-253.48C1044.22,-267.9 967.16,-287.66 925.42,-298.36"/>
</g>
<!-- http://www.provbook.orgOntario_Model_Study&#45;&gt;http://www.provbook.orgsigma -->
<g id="edge17" class="edge">
<title>http://www.provbook.orgOntario_Model_Study&#45;&gt;http://www.provbook.orgsigma</title>
<path fill="none" stroke="black" d="M713.33,-250.76C755.83,-263.64 816.71,-282.09 856.21,-294.06"/>
<polygon fill="black" stroke="black" points="854.96,-297.33 865.55,-296.89 856.99,-290.64 854.96,-297.33"/>
</g>
<!-- http://www.provbook.orgOntario_Model_Study&#45;&gt;http://www.provbook.orghosp_stay_preICU -->
<g id="edge22" class="edge">
<title>http://www.provbook.orgOntario_Model_Study&#45;&gt;http://www.provbook.orghosp_stay_preICU</title>
<path fill="none" stroke="black" d="M600.88,-248.68C539.2,-260.94 445.96,-279.48 382.34,-292.14"/>
<polygon fill="black" stroke="black" points="381.83,-288.67 372.7,-294.05 383.19,-295.54 381.83,-288.67"/>
</g>
<!-- http://www.provbook.orgOntario_Model_Authors -->
<g id="node19" class="node">
<title>http://www.provbook.orgOntario_Model_Authors</title>
<g id="a_node19"><a xlink:href="http://www.provbook.orgOntario_Model_Authors" xlink:title="Ontario_Model_Authors">
<polygon fill="#fdb266" stroke="black" points="714.36,-312.56 587.62,-325 460.89,-312.56 461.01,-292.44 714.24,-292.44 714.36,-312.56"/>
<text text-anchor="middle" x="587.62" y="-301.95" font-family="Times,serif" font-size="14.00">Ontario_Model_Authors</text>
</a>
</g>
</g>
<!-- http://www.provbook.orgOntario_Model_Study&#45;&gt;http://www.provbook.orgOntario_Model_Authors -->
<g id="edge18" class="edge">
<title>http://www.provbook.orgOntario_Model_Study&#45;&gt;http://www.provbook.orgOntario_Model_Authors</title>
<path fill="none" stroke="black" d="M645.99,-252.95C635.59,-262.4 622.53,-274.26 611.41,-284.38"/>
<polygon fill="black" stroke="black" points="609.15,-281.7 604.11,-291.02 613.86,-286.88 609.15,-281.7"/>
<text text-anchor="middle" x="649.17" y="-264.88" font-family="Times,serif" font-size="8.00">att</text>
</g>
<!-- &#45;attrs2 -->
<g id="node7" class="node">
<title>&#45;attrs2</title>
<polygon fill="none" stroke="gray" points="669.5,-181 481.75,-181 481.75,-144.5 675.5,-144.5 675.5,-175 669.5,-181"/>
<polyline fill="none" stroke="gray" points="669.5,-181 669.5,-175"/>
<polyline fill="none" stroke="gray" points="675.5,-175 669.5,-175"/>
<text text-anchor="start" x="491.75" y="-165.5" font-family="Times,serif" font-size="10.00">type:</text>
<text text-anchor="start" x="519.25" y="-165.5" font-family="Times,serif" font-size="10.00">prov:Collection</text>
<text text-anchor="start" x="491.75" y="-152.25" font-family="Times,serif" font-size="10.00">value:</text>
<text text-anchor="start" x="519.25" y="-152.25" font-family="Times,serif" font-size="10.00">A little provenance goes a long way</text>
</g>
<!-- &#45;attrs2&#45;&gt;http://www.provbook.orgOntario_Model_Study -->
<g id="edge3" class="edge">
<title>&#45;attrs2&#45;&gt;http://www.provbook.orgOntario_Model_Study</title>
<path fill="none" stroke="gray" stroke-dasharray="5,2" d="M600.33,-181.48C613.66,-192.37 630.65,-206.25 643.82,-217.01"/>
</g>
<!-- http://www.provbook.orghosp_stay_preICU&#45;&gt;http://www.provbook.orgHospitalized_Patients_Study -->
<g id="edge23" class="edge">
<title>http://www.provbook.orghosp_stay_preICU&#45;&gt;http://www.provbook.orgHospitalized_Patients_Study</title>
<path fill="none" stroke="black" d="M312.62,-325.3C312.62,-332.59 312.62,-341.27 312.62,-349.46"/>
<polygon fill="black" stroke="black" points="309.13,-349.38 312.63,-359.38 316.13,-349.38 309.13,-349.38"/>
<text text-anchor="middle" x="325.62" y="-330.08" font-family="Times,serif" font-size="8.00">der</text>
</g>
<!-- &#45;attrs3 -->
<g id="node9" class="node">
<title>&#45;attrs3</title>
<polygon fill="none" stroke="gray" points="278.25,-253 53,-253 53,-217 284.25,-217 284.25,-247 278.25,-253"/>
<polyline fill="none" stroke="gray" points="278.25,-253 278.25,-247"/>
<polyline fill="none" stroke="gray" points="284.25,-247 278.25,-247"/>
<text text-anchor="start" x="63" y="-231.12" font-family="Times,serif" font-size="10.00">value:</text>
<text text-anchor="start" x="90.5" y="-231.12" font-family="Times,serif" font-size="10.00">Average length of stay in hospital before ICU</text>
</g>
<!-- &#45;attrs3&#45;&gt;http://www.provbook.orghosp_stay_preICU -->
<g id="edge4" class="edge">
<title>&#45;attrs3&#45;&gt;http://www.provbook.orghosp_stay_preICU</title>
<path fill="none" stroke="gray" stroke-dasharray="5,2" d="M204.59,-253.48C227.75,-264.74 257.61,-279.26 280.07,-290.17"/>
</g>
<!-- http://www.provbook.orgtheta&#45;&gt;http://www.provbook.orgHospitalized_Patients_Study -->
<g id="edge24" class="edge">
<title>http://www.provbook.orgtheta&#45;&gt;http://www.provbook.orgHospitalized_Patients_Study</title>
<path fill="none" stroke="black" d="M124.42,-168.73C98.59,-175.07 61.18,-188.77 43.62,-217 35.18,-230.59 35.02,-239.51 43.62,-253 83.02,-314.74 161.65,-346.46 223.78,-362.46"/>
<polygon fill="black" stroke="black" points="222.76,-365.81 233.31,-364.81 224.44,-359.02 222.76,-365.81"/>
<text text-anchor="middle" x="120.48" y="-180.48" font-family="Times,serif" font-size="8.00">der</text>
</g>
<!-- &#45;attrs4 -->
<g id="node11" class="node">
<title>&#45;attrs4</title>
<polygon fill="none" stroke="gray" points="215.5,-108.5 81.75,-108.5 81.75,-72.5 221.5,-72.5 221.5,-102.5 215.5,-108.5"/>
<polyline fill="none" stroke="gray" points="215.5,-108.5 215.5,-102.5"/>
<polyline fill="none" stroke="gray" points="221.5,-102.5 215.5,-102.5"/>
<text text-anchor="start" x="91.75" y="-86.62" font-family="Times,serif" font-size="10.00">value:</text>
<text text-anchor="start" x="119.25" y="-86.62" font-family="Times,serif" font-size="10.00">Rate of ICU admission</text>
</g>
<!-- &#45;attrs4&#45;&gt;http://www.provbook.orgtheta -->
<g id="edge5" class="edge">
<title>&#45;attrs4&#45;&gt;http://www.provbook.orgtheta</title>
<path fill="none" stroke="gray" stroke-dasharray="5,2" d="M151.62,-108.87C151.62,-119.75 151.62,-133.73 151.62,-144.58"/>
</g>
<!-- http://www.provbook.orgZhongnan_Hospital_Patient_Data -->
<g id="node15" class="node">
<title>http://www.provbook.orgZhongnan_Hospital_Patient_Data</title>
<g id="a_node15"><a xlink:href="http://www.provbook.orgZhongnan_Hospital_Patient_Data" xlink:title="Zhongnan_Hospital_Patient_Data">
<ellipse fill="#fffc87" stroke="#808080" cx="160.62" cy="-451" rx="136.31" ry="18"/>
<text text-anchor="middle" x="160.62" y="-445.95" font-family="Times,serif" font-size="14.00">Zhongnan_Hospital_Patient_Data</text>
</a>
</g>
</g>
<!-- http://www.provbook.orgHospitalized_Patients_Study&#45;&gt;http://www.provbook.orgZhongnan_Hospital_Patient_Data -->
<g id="edge26" class="edge">
<title>http://www.provbook.orgHospitalized_Patients_Study&#45;&gt;http://www.provbook.orgZhongnan_Hospital_Patient_Data</title>
<path fill="none" stroke="black" d="M276.6,-396.59C255.84,-406.15 229.5,-418.28 207.18,-428.56"/>
<polygon fill="black" stroke="black" points="205.91,-425.29 198.29,-432.65 208.84,-431.65 205.91,-425.29"/>
<text text-anchor="middle" x="275.22" y="-408.8" font-family="Times,serif" font-size="8.00">der</text>
</g>
<!-- http://www.provbook.orgHospitalized_Patients_Authors -->
<g id="node21" class="node">
<title>http://www.provbook.orgHospitalized_Patients_Authors</title>
<g id="a_node21"><a xlink:href="http://www.provbook.orgHospitalized_Patients_Authors" xlink:title="Hospitalized_Patients_Authors">
<polygon fill="#fdb266" stroke="black" points="703.83,-456.56 548.62,-469 393.42,-456.56 393.56,-436.44 703.69,-436.44 703.83,-456.56"/>
<text text-anchor="middle" x="548.62" y="-445.95" font-family="Times,serif" font-size="14.00">Hospitalized_Patients_Authors</text>
</a>
</g>
</g>
<!-- http://www.provbook.orgHospitalized_Patients_Study&#45;&gt;http://www.provbook.orgHospitalized_Patients_Authors -->
<g id="edge25" class="edge">
<title>http://www.provbook.orgHospitalized_Patients_Study&#45;&gt;http://www.provbook.orgHospitalized_Patients_Authors</title>
<path fill="none" stroke="black" d="M365,-395.54C402.2,-406.57 452.17,-421.39 490.58,-432.78"/>
<polygon fill="black" stroke="black" points="489.56,-436.13 500.15,-435.62 491.55,-429.42 489.56,-436.13"/>
<text text-anchor="middle" x="375.89" y="-382.49" font-family="Times,serif" font-size="8.00">att</text>
</g>
<!-- http://www.provbook.orgPOLYMOD_Authors -->
<g id="node23" class="node">
<title>http://www.provbook.orgPOLYMOD_Authors</title>
<g id="a_node23"><a xlink:href="http://www.provbook.orgPOLYMOD_Authors" xlink:title="POLYMOD_Authors">
<polygon fill="#fdb266" stroke="black" points="984.81,-456.56 872.62,-469 760.44,-456.56 760.54,-436.44 984.71,-436.44 984.81,-456.56"/>
<text text-anchor="middle" x="872.62" y="-445.95" font-family="Times,serif" font-size="14.00">POLYMOD_Authors</text>
</a>
</g>
</g>
<!-- http://www.provbook.orgPOLYMOD_Study&#45;&gt;http://www.provbook.orgPOLYMOD_Authors -->
<g id="edge27" class="edge">
<title>http://www.provbook.orgPOLYMOD_Study&#45;&gt;http://www.provbook.orgPOLYMOD_Authors</title>
<path fill="none" stroke="black" d="M848.54,-397.3C852.47,-405.92 857.3,-416.47 861.59,-425.87"/>
<polygon fill="black" stroke="black" points="858.34,-427.16 865.68,-434.8 864.7,-424.25 858.34,-427.16"/>
<text text-anchor="middle" x="863.47" y="-396" font-family="Times,serif" font-size="8.00">att</text>
</g>
<!-- &#45;attrs5 -->
<g id="node16" class="node">
<title>&#45;attrs5</title>
<polygon fill="none" stroke="gray" points="171.25,-397 0,-397 0,-361 177.25,-361 177.25,-391 171.25,-397"/>
<polyline fill="none" stroke="gray" points="171.25,-397 171.25,-391"/>
<polyline fill="none" stroke="gray" points="177.25,-391 171.25,-391"/>
<text text-anchor="start" x="10" y="-375.12" font-family="Times,serif" font-size="10.00">value:</text>
<text text-anchor="start" x="37.5" y="-375.12" font-family="Times,serif" font-size="10.00">Hospital records of 138 patients</text>
</g>
<!-- &#45;attrs5&#45;&gt;http://www.provbook.orgZhongnan_Hospital_Patient_Data -->
<g id="edge6" class="edge">
<title>&#45;attrs5&#45;&gt;http://www.provbook.orgZhongnan_Hospital_Patient_Data</title>
<path fill="none" stroke="gray" stroke-dasharray="5,2" d="M106.42,-397.3C117.58,-408.15 131.91,-422.08 143.03,-432.9"/>
</g>
<!-- &#45;attrs6 -->
<g id="node18" class="node">
<title>&#45;attrs6</title>
<polygon fill="none" stroke="gray" points="943.12,-180.75 822.12,-180.75 822.12,-144.75 949.12,-144.75 949.12,-174.75 943.12,-180.75"/>
<polyline fill="none" stroke="gray" points="943.12,-180.75 943.12,-174.75"/>
<polyline fill="none" stroke="gray" points="949.12,-174.75 943.12,-174.75"/>
<text text-anchor="start" x="832.12" y="-158.88" font-family="Times,serif" font-size="10.00">label:</text>
<text text-anchor="start" x="857.38" y="-158.88" font-family="Times,serif" font-size="10.00">GEODES Epimodel</text>
</g>
<!-- &#45;attrs6&#45;&gt;http://www.provbook.orgGEODES_Epimodel -->
<g id="edge7" class="edge">
<title>&#45;attrs6&#45;&gt;http://www.provbook.orgGEODES_Epimodel</title>
<path fill="none" stroke="gray" stroke-dasharray="5,2" d="M885.62,-181.12C885.62,-193.14 885.62,-208.94 885.62,-220.13"/>
</g>
<!-- &#45;attrs7 -->
<g id="node20" class="node">
<title>&#45;attrs7</title>
<polygon fill="none" stroke="gray" points="546.5,-253 340.75,-253 340.75,-217 552.5,-217 552.5,-247 546.5,-253"/>
<polyline fill="none" stroke="gray" points="546.5,-253 546.5,-247"/>
<polyline fill="none" stroke="gray" points="552.5,-247 546.5,-247"/>
<text text-anchor="start" x="350.75" y="-231.12" font-family="Times,serif" font-size="10.00">label:</text>
<text text-anchor="start" x="376" y="-231.12" font-family="Times,serif" font-size="10.00">Tuite, A. R., Fisman, D. N., &amp; Greer, A. L.</text>
</g>
<!-- &#45;attrs7&#45;&gt;http://www.provbook.orgOntario_Model_Authors -->
<g id="edge8" class="edge">
<title>&#45;attrs7&#45;&gt;http://www.provbook.orgOntario_Model_Authors</title>
<path fill="none" stroke="gray" stroke-dasharray="5,2" d="M481.84,-253.48C505.82,-265.39 537.14,-280.94 559.47,-292.02"/>
</g>
<!-- &#45;attrs8 -->
<g id="node22" class="node">
<title>&#45;attrs8</title>
<polygon fill="none" stroke="gray" points="708.88,-397 448.38,-397 448.38,-361 714.88,-361 714.88,-391 708.88,-397"/>
<polyline fill="none" stroke="gray" points="708.88,-397 708.88,-391"/>
<polyline fill="none" stroke="gray" points="714.88,-391 708.88,-391"/>
<text text-anchor="start" x="458.38" y="-375.12" font-family="Times,serif" font-size="10.00">label:</text>
<text text-anchor="start" x="483.62" y="-375.12" font-family="Times,serif" font-size="10.00">Dawei Wang, Bo Hu, Chnagu Hu, Fangfang Zhu, et al.</text>
</g>
<!-- &#45;attrs8&#45;&gt;http://www.provbook.orgHospitalized_Patients_Authors -->
<g id="edge9" class="edge">
<title>&#45;attrs8&#45;&gt;http://www.provbook.orgHospitalized_Patients_Authors</title>
<path fill="none" stroke="gray" stroke-dasharray="5,2" d="M573.47,-397.3C567.82,-409.29 560.4,-425.03 555.14,-436.18"/>
</g>
<!-- &#45;attrs9 -->
<g id="node24" class="node">
<title>&#45;attrs9</title>
<polygon fill="none" stroke="gray" points="1062.5,-397 940.75,-397 940.75,-361 1068.5,-361 1068.5,-391 1062.5,-397"/>
<polyline fill="none" stroke="gray" points="1062.5,-397 1062.5,-391"/>
<polyline fill="none" stroke="gray" points="1068.5,-391 1062.5,-391"/>
<text text-anchor="start" x="950.75" y="-375.12" font-family="Times,serif" font-size="10.00">label:</text>
<text text-anchor="start" x="976" y="-375.12" font-family="Times,serif" font-size="10.00">Mossong, Joel, et al.</text>
</g>
<!-- &#45;attrs9&#45;&gt;http://www.provbook.orgPOLYMOD_Authors -->
<g id="edge10" class="edge">
<title>&#45;attrs9&#45;&gt;http://www.provbook.orgPOLYMOD_Authors</title>
<path fill="none" stroke="gray" stroke-dasharray="5,2" d="M971.66,-397.48C949.21,-409.39 919.89,-424.94 898.99,-436.02"/>
</g>
<!-- http://www.provbook.orgkappa -->
<g id="node25" class="node">
<title>http://www.provbook.orgkappa</title>
<ellipse fill="none" stroke="black" cx="1185.62" cy="-307" rx="127.1" ry="18"/>
<text text-anchor="middle" x="1185.62" y="-301.95" font-family="Times,serif" font-size="14.00">http://www.provbook.orgkappa</text>
</g>
<!-- http://www.provbook.orgkappa&#45;&gt;http://www.provbook.orgPOLYMOD_Study -->
<g id="edge28" class="edge">
<title>http://www.provbook.orgkappa&#45;&gt;http://www.provbook.orgPOLYMOD_Study</title>
<path fill="none" stroke="black" d="M1114.98,-322.33C1055.34,-334.43 970.4,-351.67 910.88,-363.75"/>
<polygon fill="black" stroke="black" points="910.29,-360.29 901.19,-365.71 911.68,-367.15 910.29,-360.29"/>
<text text-anchor="middle" x="1110.21" y="-333.83" font-family="Times,serif" font-size="8.00">der</text>
</g>
<!-- http://www.provbook.orgkappa&#45;&gt;http://www.provbook.orgCanadian_Community_Health_Survey -->
<g id="edge29" class="edge">
<title>http://www.provbook.orgkappa&#45;&gt;http://www.provbook.orgCanadian_Community_Health_Survey</title>
<path fill="none" stroke="black" d="M1199.47,-325.3C1205.91,-333.36 1213.71,-343.11 1220.84,-352.02"/>
<polygon fill="black" stroke="black" points="1218.02,-354.09 1227,-359.71 1223.48,-349.72 1218.02,-354.09"/>
<text text-anchor="middle" x="1214.3" y="-320.32" font-family="Times,serif" font-size="8.00">der</text>
</g>
</g>
</svg>
