<?xml version="1.0" encoding="UTF-8" standalone="no"?>
<!DOCTYPE svg PUBLIC "-//W3C//DTD SVG 1.1//EN"
 "http://www.w3.org/Graphics/SVG/1.1/DTD/svg11.dtd">
<!-- Generated by graphviz version 12.2.1 (20241206.2353)
 -->
<!-- Title: PROV Pages: 1 -->
<svg width="1152pt" height="331pt"
 viewBox="0.00 0.00 1152.00 331.43" xmlns="http://www.w3.org/2000/svg" xmlns:xlink="http://www.w3.org/1999/xlink">
<g id="graph0" class="graph" transform="scale(0.694813 0.694813) rotate(0) translate(4 473)">
<title>PROV</title>
<polygon fill="white" stroke="none" points="-4,4 -4,-473 1654,-473 1654,4 -4,4"/>
<!-- http://www.provbook.orgSlicing -->
<g id="node1" class="node">
<title>http://www.provbook.orgSlicing</title>
<g id="a_node1"><a xlink:href="http://www.provbook.orgSlicing" xlink:title="Slicing">
<polygon fill="#9fb1fc" stroke="#0000ff" points="753,-180.75 698.75,-180.75 698.75,-144.75 753,-144.75 753,-180.75"/>
<text text-anchor="middle" x="725.88" y="-157.7" font-family="Times,serif" font-size="14.00">Slicing</text>
</a>
</g>
</g>
<!-- http://www.provbook.orgOntario_Model_Study -->
<g id="node6" class="node">
<title>http://www.provbook.orgOntario_Model_Study</title>
<g id="a_node6"><a xlink:href="http://www.provbook.orgOntario_Model_Study" xlink:title="Ontario_Model_Study">
<ellipse fill="#fffc87" stroke="#808080" cx="1101.88" cy="-235" rx="94.34" ry="18"/>
<text text-anchor="middle" x="1101.88" y="-229.95" font-family="Times,serif" font-size="14.00">Ontario_Model_Study</text>
</a>
</g>
</g>
<!-- http://www.provbook.orgSlicing&#45;&gt;http://www.provbook.orgOntario_Model_Study -->
<g id="edge11" class="edge">
<title>http://www.provbook.orgSlicing&#45;&gt;http://www.provbook.orgOntario_Model_Study</title>
<path fill="none" stroke="black" d="M753.22,-168.86C809.66,-179.4 940.84,-203.91 1025.22,-219.68"/>
<polygon fill="black" stroke="black" points="1024.34,-223.07 1034.81,-221.47 1025.62,-216.19 1024.34,-223.07"/>
<text text-anchor="middle" x="762.98" y="-154.74" font-family="Times,serif" font-size="8.00">use</text>
</g>
<!-- http://www.provbook.orgGEODES_Epimodel -->
<g id="node17" class="node">
<title>http://www.provbook.orgGEODES_Epimodel</title>
<g id="a_node17"><a xlink:href="http://www.provbook.orgGEODES_Epimodel" xlink:title="GEODES_Epimodel">
<polygon fill="#fdb266" stroke="black" points="747.9,-240.56 638.88,-253 529.85,-240.56 529.95,-220.44 747.8,-220.44 747.9,-240.56"/>
<text text-anchor="middle" x="638.88" y="-229.95" font-family="Times,serif" font-size="14.00">GEODES_Epimodel</text>
</a>
</g>
</g>
<!-- http://www.provbook.orgSlicing&#45;&gt;http://www.provbook.orgGEODES_Epimodel -->
<g id="edge13" class="edge">
<title>http://www.provbook.orgSlicing&#45;&gt;http://www.provbook.orgGEODES_Epimodel</title>
<path fill="none" stroke="black" d="M704.37,-181.12C692.38,-190.79 677.38,-202.91 664.75,-213.11"/>
<polygon fill="black" stroke="black" points="662.82,-210.17 657.23,-219.18 667.21,-215.62 662.82,-210.17"/>
<text text-anchor="middle" x="706.7" y="-193.21" font-family="Times,serif" font-size="8.00">assoc</text>
</g>
<!-- http://www.provbook.orgRef22 -->
<g id="node2" class="node">
<title>http://www.provbook.orgRef22</title>
<g id="a_node2"><a xlink:href="http://www.provbook.orgRef22" xlink:title="Ref22">
<ellipse fill="#fffc87" stroke="#808080" cx="613.88" cy="-90.5" rx="33.44" ry="18"/>
<text text-anchor="middle" x="613.88" y="-85.45" font-family="Times,serif" font-size="14.00">Ref22</text>
</a>
</g>
</g>
<!-- http://www.provbook.orgRef22&#45;&gt;http://www.provbook.orgSlicing -->
<g id="edge12" class="edge">
<title>http://www.provbook.orgRef22&#45;&gt;http://www.provbook.orgSlicing</title>
<path fill="none" stroke="black" d="M635.2,-104.88C650.31,-114.35 670.95,-127.3 688.73,-138.45"/>
<polygon fill="black" stroke="black" points="686.64,-141.27 696.98,-143.62 690.36,-135.34 686.64,-141.27"/>
<text text-anchor="middle" x="648.46" y="-95.13" font-family="Times,serif" font-size="8.00">gen</text>
</g>
<!-- http://www.provbook.orgkappa -->
<g id="node4" class="node">
<title>http://www.provbook.orgkappa</title>
<g id="a_node4"><a xlink:href="http://www.provbook.orgkappa" xlink:title="kappa">
<ellipse fill="#fffc87" stroke="#808080" cx="470.88" cy="-307" rx="32.93" ry="18"/>
<text text-anchor="middle" x="470.88" y="-301.95" font-family="Times,serif" font-size="14.00">kappa</text>
</a>
</g>
</g>
<!-- http://www.provbook.orgRef22&#45;&gt;http://www.provbook.orgkappa -->
<g id="edge14" class="edge">
<title>http://www.provbook.orgRef22&#45;&gt;http://www.provbook.orgkappa</title>
<path fill="none" stroke="black" d="M581.6,-95.78C552.18,-101.51 510.02,-114.68 487.88,-144.5 459.08,-183.27 461.21,-242.47 465.77,-277.4"/>
<polygon fill="black" stroke="black" points="462.29,-277.79 467.22,-287.17 469.22,-276.76 462.29,-277.79"/>
</g>
<!-- http://www.provbook.orghosp_stay_postICU -->
<g id="node8" class="node">
<title>http://www.provbook.orghosp_stay_postICU</title>
<g id="a_node8"><a xlink:href="http://www.provbook.orghosp_stay_postICU" xlink:title="hosp_stay_postICU">
<ellipse fill="#fffc87" stroke="#808080" cx="877.88" cy="-307" rx="83.6" ry="18"/>
<text text-anchor="middle" x="877.88" y="-301.95" font-family="Times,serif" font-size="14.00">hosp_stay_postICU</text>
</a>
</g>
</g>
<!-- http://www.provbook.orgRef22&#45;&gt;http://www.provbook.orghosp_stay_postICU -->
<g id="edge15" class="edge">
<title>http://www.provbook.orgRef22&#45;&gt;http://www.provbook.orghosp_stay_postICU</title>
<path fill="none" stroke="black" d="M591.11,-104.07C576.06,-113.43 556.95,-127.51 544.88,-144.5 516.27,-184.76 488.62,-215.6 520.88,-253 554.1,-291.53 688.84,-302.5 782.92,-305.38"/>
<polygon fill="black" stroke="black" points="782.58,-308.87 792.67,-305.65 782.77,-301.87 782.58,-308.87"/>
</g>
<!-- http://www.provbook.orgicu_stay -->
<g id="node10" class="node">
<title>http://www.provbook.orgicu_stay</title>
<g id="a_node10"><a xlink:href="http://www.provbook.orgicu_stay" xlink:title="icu_stay">
<ellipse fill="#fffc87" stroke="#808080" cx="1412.88" cy="-307" rx="41.63" ry="18"/>
<text text-anchor="middle" x="1412.88" y="-301.95" font-family="Times,serif" font-size="14.00">icu_stay</text>
</a>
</g>
</g>
<!-- http://www.provbook.orgRef22&#45;&gt;http://www.provbook.orgicu_stay -->
<g id="edge16" class="edge">
<title>http://www.provbook.orgRef22&#45;&gt;http://www.provbook.orgicu_stay</title>
<path fill="none" stroke="black" d="M647.41,-91.92C738.46,-93.6 997.54,-102.07 1207.88,-144.5 1311.69,-165.44 1372.41,-131.47 1434.88,-217 1448.18,-235.22 1440.01,-260.55 1430.06,-279.53"/>
<polygon fill="black" stroke="black" points="1427.13,-277.6 1425.23,-288.02 1433.22,-281.06 1427.13,-277.6"/>
</g>
<!-- &#45;attrs0 -->
<g id="node3" class="node">
<title>&#45;attrs0</title>
<polygon fill="none" stroke="gray" points="663.12,-36.5 558.62,-36.5 558.62,0 669.12,0 669.12,-30.5 663.12,-36.5"/>
<polyline fill="none" stroke="gray" points="663.12,-36.5 663.12,-30.5"/>
<polyline fill="none" stroke="gray" points="669.12,-30.5 663.12,-30.5"/>
<text text-anchor="start" x="568.62" y="-21" font-family="Times,serif" font-size="10.00">type:</text>
<text text-anchor="start" x="593.88" y="-21" font-family="Times,serif" font-size="10.00">prov:Collection</text>
<text text-anchor="start" x="568.62" y="-7.75" font-family="Times,serif" font-size="10.00">label:</text>
<text text-anchor="start" x="593.88" y="-7.75" font-family="Times,serif" font-size="10.00">Fragment Ref22</text>
</g>
<!-- &#45;attrs0&#45;&gt;http://www.provbook.orgRef22 -->
<g id="edge1" class="edge">
<title>&#45;attrs0&#45;&gt;http://www.provbook.orgRef22</title>
<path fill="none" stroke="gray" stroke-dasharray="5,2" d="M613.88,-36.98C613.88,-47.71 613.88,-61.34 613.88,-72.02"/>
</g>
<!-- http://www.provbook.orgPOLYMOD_Study -->
<g id="node12" class="node">
<title>http://www.provbook.orgPOLYMOD_Study</title>
<g id="a_node12"><a xlink:href="http://www.provbook.orgPOLYMOD_Study" xlink:title="POLYMOD_Study">
<ellipse fill="#fffc87" stroke="#808080" cx="227.88" cy="-379" rx="82.57" ry="18"/>
<text text-anchor="middle" x="227.88" y="-373.95" font-family="Times,serif" font-size="14.00">POLYMOD_Study</text>
</a>
</g>
</g>
<!-- http://www.provbook.orgkappa&#45;&gt;http://www.provbook.orgPOLYMOD_Study -->
<g id="edge19" class="edge">
<title>http://www.provbook.orgkappa&#45;&gt;http://www.provbook.orgPOLYMOD_Study</title>
<path fill="none" stroke="black" d="M442.05,-316.3C404.06,-327.25 336.32,-346.76 287.17,-360.92"/>
<polygon fill="black" stroke="black" points="286.46,-357.48 277.82,-363.61 288.4,-364.21 286.46,-357.48"/>
<text text-anchor="middle" x="438.43" y="-328.14" font-family="Times,serif" font-size="8.00">der</text>
</g>
<!-- http://www.provbook.orgCanadian_Community_Health_Survey -->
<g id="node13" class="node">
<title>http://www.provbook.orgCanadian_Community_Health_Survey</title>
<g id="a_node13"><a xlink:href="http://www.provbook.orgCanadian_Community_Health_Survey" xlink:title="Canadian_Community_Health_Survey">
<ellipse fill="#fffc87" stroke="#808080" cx="483.88" cy="-379" rx="155.25" ry="18"/>
<text text-anchor="middle" x="483.88" y="-373.95" font-family="Times,serif" font-size="14.00">Canadian_Community_Health_Survey</text>
</a>
</g>
</g>
<!-- http://www.provbook.orgkappa&#45;&gt;http://www.provbook.orgCanadian_Community_Health_Survey -->
<g id="edge20" class="edge">
<title>http://www.provbook.orgkappa&#45;&gt;http://www.provbook.orgCanadian_Community_Health_Survey</title>
<path fill="none" stroke="black" d="M474.09,-325.3C475.46,-332.68 477.09,-341.48 478.63,-349.75"/>
<polygon fill="black" stroke="black" points="475.15,-350.21 480.42,-359.41 482.04,-348.94 475.15,-350.21"/>
<text text-anchor="middle" x="488.23" y="-327.58" font-family="Times,serif" font-size="8.00">der</text>
</g>
<!-- http://www.provbook.orgCritically_Ill_Patients_Study -->
<g id="node14" class="node">
<title>http://www.provbook.orgCritically_Ill_Patients_Study</title>
<g id="a_node14"><a xlink:href="http://www.provbook.orgCritically_Ill_Patients_Study" xlink:title="Critically_Ill_Patients_Study">
<ellipse fill="#fffc87" stroke="#808080" cx="877.88" cy="-379" rx="118.4" ry="18"/>
<text text-anchor="middle" x="877.88" y="-373.95" font-family="Times,serif" font-size="14.00">Critically_Ill_Patients_Study</text>
</a>
</g>
</g>
<!-- http://www.provbook.orgkappa&#45;&gt;http://www.provbook.orgCritically_Ill_Patients_Study -->
<g id="edge21" class="edge">
<title>http://www.provbook.orgkappa&#45;&gt;http://www.provbook.orgCritically_Ill_Patients_Study</title>
<path fill="none" stroke="black" d="M502.14,-313.38C563.07,-323.86 699.68,-347.35 790.29,-362.94"/>
<polygon fill="black" stroke="black" points="789.44,-366.34 799.88,-364.59 790.62,-359.44 789.44,-366.34"/>
<text text-anchor="middle" x="511.73" y="-299.12" font-family="Times,serif" font-size="8.00">der</text>
</g>
<!-- &#45;attrs1 -->
<g id="node5" class="node">
<title>&#45;attrs1</title>
<polygon fill="none" stroke="gray" points="429.88,-253 275.88,-253 275.88,-217 435.88,-217 435.88,-247 429.88,-253"/>
<polyline fill="none" stroke="gray" points="429.88,-253 429.88,-247"/>
<polyline fill="none" stroke="gray" points="435.88,-247 429.88,-247"/>
<text text-anchor="start" x="285.88" y="-231.12" font-family="Times,serif" font-size="10.00">value:</text>
<text text-anchor="start" x="313.38" y="-231.12" font-family="Times,serif" font-size="10.00">Mortality rate for ICU cases</text>
</g>
<!-- &#45;attrs1&#45;&gt;http://www.provbook.orgkappa -->
<g id="edge2" class="edge">
<title>&#45;attrs1&#45;&gt;http://www.provbook.orgkappa</title>
<path fill="none" stroke="gray" stroke-dasharray="5,2" d="M384.6,-253.48C404.69,-265.71 431.1,-281.79 449.38,-292.92"/>
</g>
<!-- http://www.provbook.orgOntario_Model_Study&#45;&gt;http://www.provbook.orgkappa -->
<g id="edge17" class="edge">
<title>http://www.provbook.orgOntario_Model_Study&#45;&gt;http://www.provbook.orgkappa</title>
<path fill="none" stroke="black" d="M1033.82,-247.86C1022.18,-249.71 1010.19,-251.5 998.88,-253 819.92,-276.73 605.57,-295.18 514.86,-302.54"/>
<polygon fill="black" stroke="black" points="514.6,-299.05 504.91,-303.34 515.16,-306.02 514.6,-299.05"/>
</g>
<!-- http://www.provbook.orgOntario_Model_Study&#45;&gt;http://www.provbook.orghosp_stay_postICU -->
<g id="edge22" class="edge">
<title>http://www.provbook.orgOntario_Model_Study&#45;&gt;http://www.provbook.orghosp_stay_postICU</title>
<path fill="none" stroke="black" d="M1054.1,-250.93C1019.13,-261.86 971.55,-276.73 934.64,-288.26"/>
<polygon fill="black" stroke="black" points="933.99,-284.8 925.49,-291.12 936.08,-291.48 933.99,-284.8"/>
</g>
<!-- http://www.provbook.orgOntario_Model_Study&#45;&gt;http://www.provbook.orgicu_stay -->
<g id="edge24" class="edge">
<title>http://www.provbook.orgOntario_Model_Study&#45;&gt;http://www.provbook.orgicu_stay</title>
<path fill="none" stroke="black" d="M1161.1,-249.33C1220.5,-262.7 1310.79,-283.02 1365.57,-295.35"/>
<polygon fill="black" stroke="black" points="1364.7,-298.74 1375.22,-297.52 1366.23,-291.91 1364.7,-298.74"/>
</g>
<!-- http://www.provbook.orgOntario_Model_Authors -->
<g id="node19" class="node">
<title>http://www.provbook.orgOntario_Model_Authors</title>
<g id="a_node19"><a xlink:href="http://www.provbook.orgOntario_Model_Authors" xlink:title="Ontario_Model_Authors">
<polygon fill="#fdb266" stroke="black" points="1313.61,-312.56 1186.88,-325 1060.14,-312.56 1060.26,-292.44 1313.49,-292.44 1313.61,-312.56"/>
<text text-anchor="middle" x="1186.88" y="-301.95" font-family="Times,serif" font-size="14.00">Ontario_Model_Authors</text>
</a>
</g>
</g>
<!-- http://www.provbook.orgOntario_Model_Study&#45;&gt;http://www.provbook.orgOntario_Model_Authors -->
<g id="edge18" class="edge">
<title>http://www.provbook.orgOntario_Model_Study&#45;&gt;http://www.provbook.orgOntario_Model_Authors</title>
<path fill="none" stroke="black" d="M1122.45,-252.95C1134.15,-262.58 1148.91,-274.74 1161.35,-284.98"/>
<polygon fill="black" stroke="black" points="1158.8,-287.42 1168.75,-291.07 1163.25,-282.01 1158.8,-287.42"/>
<text text-anchor="middle" x="1136.5" y="-244.96" font-family="Times,serif" font-size="8.00">att</text>
</g>
<!-- &#45;attrs2 -->
<g id="node7" class="node">
<title>&#45;attrs2</title>
<polygon fill="none" stroke="gray" points="1192.75,-181 1005,-181 1005,-144.5 1198.75,-144.5 1198.75,-175 1192.75,-181"/>
<polyline fill="none" stroke="gray" points="1192.75,-181 1192.75,-175"/>
<polyline fill="none" stroke="gray" points="1198.75,-175 1192.75,-175"/>
<text text-anchor="start" x="1015" y="-165.5" font-family="Times,serif" font-size="10.00">type:</text>
<text text-anchor="start" x="1042.5" y="-165.5" font-family="Times,serif" font-size="10.00">prov:Collection</text>
<text text-anchor="start" x="1015" y="-152.25" font-family="Times,serif" font-size="10.00">value:</text>
<text text-anchor="start" x="1042.5" y="-152.25" font-family="Times,serif" font-size="10.00">A little provenance goes a long way</text>
</g>
<!-- &#45;attrs2&#45;&gt;http://www.provbook.orgOntario_Model_Study -->
<g id="edge3" class="edge">
<title>&#45;attrs2&#45;&gt;http://www.provbook.orgOntario_Model_Study</title>
<path fill="none" stroke="gray" stroke-dasharray="5,2" d="M1101.88,-181.48C1101.88,-192.21 1101.88,-205.84 1101.88,-216.52"/>
</g>
<!-- http://www.provbook.orghosp_stay_postICU&#45;&gt;http://www.provbook.orgCritically_Ill_Patients_Study -->
<g id="edge23" class="edge">
<title>http://www.provbook.orghosp_stay_postICU&#45;&gt;http://www.provbook.orgCritically_Ill_Patients_Study</title>
<path fill="none" stroke="black" d="M877.88,-325.3C877.88,-332.59 877.88,-341.27 877.88,-349.46"/>
<polygon fill="black" stroke="black" points="874.38,-349.38 877.88,-359.38 881.38,-349.38 874.38,-349.38"/>
<text text-anchor="middle" x="890.87" y="-330.08" font-family="Times,serif" font-size="8.00">der</text>
</g>
<!-- &#45;attrs3 -->
<g id="node9" class="node">
<title>&#45;attrs3</title>
<polygon fill="none" stroke="gray" points="983.75,-253 766,-253 766,-217 989.75,-217 989.75,-247 983.75,-253"/>
<polyline fill="none" stroke="gray" points="983.75,-253 983.75,-247"/>
<polyline fill="none" stroke="gray" points="989.75,-247 983.75,-247"/>
<text text-anchor="start" x="776" y="-231.12" font-family="Times,serif" font-size="10.00">value:</text>
<text text-anchor="start" x="803.5" y="-231.12" font-family="Times,serif" font-size="10.00">Average length of stay in hospital after ICU</text>
</g>
<!-- &#45;attrs3&#45;&gt;http://www.provbook.orghosp_stay_postICU -->
<g id="edge4" class="edge">
<title>&#45;attrs3&#45;&gt;http://www.provbook.orghosp_stay_postICU</title>
<path fill="none" stroke="gray" stroke-dasharray="5,2" d="M877.88,-253.3C877.88,-264.15 877.88,-278.08 877.88,-288.9"/>
</g>
<!-- http://www.provbook.orgicu_stay&#45;&gt;http://www.provbook.orgCritically_Ill_Patients_Study -->
<g id="edge25" class="edge">
<title>http://www.provbook.orgicu_stay&#45;&gt;http://www.provbook.orgCritically_Ill_Patients_Study</title>
<path fill="none" stroke="black" d="M1375.76,-315.65C1359.57,-318.82 1340.33,-322.37 1322.88,-325 1182.23,-346.21 1146.04,-343.56 1004.88,-361 995.25,-362.19 985.22,-363.47 975.2,-364.77"/>
<polygon fill="black" stroke="black" points="974.88,-361.28 965.42,-366.04 975.79,-368.22 974.88,-361.28"/>
<text text-anchor="middle" x="1370.88" y="-327.11" font-family="Times,serif" font-size="8.00">der</text>
</g>
<!-- &#45;attrs4 -->
<g id="node11" class="node">
<title>&#45;attrs4</title>
<polygon fill="none" stroke="gray" points="1644,-253 1481.75,-253 1481.75,-217 1650,-217 1650,-247 1644,-253"/>
<polyline fill="none" stroke="gray" points="1644,-253 1644,-247"/>
<polyline fill="none" stroke="gray" points="1650,-247 1644,-247"/>
<text text-anchor="start" x="1491.75" y="-231.12" font-family="Times,serif" font-size="10.00">value:</text>
<text text-anchor="start" x="1519.25" y="-231.12" font-family="Times,serif" font-size="10.00">Average length of stay in ICU</text>
</g>
<!-- &#45;attrs4&#45;&gt;http://www.provbook.orgicu_stay -->
<g id="edge5" class="edge">
<title>&#45;attrs4&#45;&gt;http://www.provbook.orgicu_stay</title>
<path fill="none" stroke="gray" stroke-dasharray="5,2" d="M1527.66,-253.48C1500.58,-265.87 1464.87,-282.21 1440.51,-293.35"/>
</g>
<!-- http://www.provbook.orgPOLYMOD_Authors -->
<g id="node21" class="node">
<title>http://www.provbook.orgPOLYMOD_Authors</title>
<g id="a_node21"><a xlink:href="http://www.provbook.orgPOLYMOD_Authors" xlink:title="POLYMOD_Authors">
<polygon fill="#fdb266" stroke="black" points="258.06,-456.56 145.88,-469 33.69,-456.56 33.79,-436.44 257.96,-436.44 258.06,-456.56"/>
<text text-anchor="middle" x="145.88" y="-445.95" font-family="Times,serif" font-size="14.00">POLYMOD_Authors</text>
</a>
</g>
</g>
<!-- http://www.provbook.orgPOLYMOD_Study&#45;&gt;http://www.provbook.orgPOLYMOD_Authors -->
<g id="edge26" class="edge">
<title>http://www.provbook.orgPOLYMOD_Study&#45;&gt;http://www.provbook.orgPOLYMOD_Authors</title>
<path fill="none" stroke="black" d="M208.03,-396.95C196.84,-406.49 182.78,-418.5 170.85,-428.68"/>
<polygon fill="black" stroke="black" points="168.72,-425.9 163.39,-435.05 173.26,-431.22 168.72,-425.9"/>
<text text-anchor="middle" x="210.76" y="-408.97" font-family="Times,serif" font-size="8.00">att</text>
</g>
<!-- http://www.provbook.orgJin_Yin_Tan_Data -->
<g id="node15" class="node">
<title>http://www.provbook.orgJin_Yin_Tan_Data</title>
<g id="a_node15"><a xlink:href="http://www.provbook.orgJin_Yin_Tan_Data" xlink:title="Jin_Yin_Tan_Data">
<ellipse fill="#fffc87" stroke="#808080" cx="731.88" cy="-451" rx="81.04" ry="18"/>
<text text-anchor="middle" x="731.88" y="-445.95" font-family="Times,serif" font-size="14.00">Jin_Yin_Tan_Data</text>
</a>
</g>
</g>
<!-- http://www.provbook.orgCritically_Ill_Patients_Study&#45;&gt;http://www.provbook.orgJin_Yin_Tan_Data -->
<g id="edge30" class="edge">
<title>http://www.provbook.orgCritically_Ill_Patients_Study&#45;&gt;http://www.provbook.orgJin_Yin_Tan_Data</title>
<path fill="none" stroke="black" d="M843.28,-396.59C822.84,-406.39 796.79,-418.88 775.02,-429.31"/>
<polygon fill="black" stroke="black" points="773.59,-426.12 766.09,-433.6 776.62,-432.43 773.59,-426.12"/>
<text text-anchor="middle" x="842.13" y="-408.82" font-family="Times,serif" font-size="8.00">der</text>
</g>
<!-- http://www.provbook.orgCritically_Ill_Patients_Authors -->
<g id="node23" class="node">
<title>http://www.provbook.orgCritically_Ill_Patients_Authors</title>
<g id="a_node23"><a xlink:href="http://www.provbook.orgCritically_Ill_Patients_Authors" xlink:title="Critically_Ill_Patients_Authors">
<polygon fill="#fdb266" stroke="black" points="1203.35,-456.56 1046.88,-469 890.4,-456.56 890.55,-436.44 1203.2,-436.44 1203.35,-456.56"/>
<text text-anchor="middle" x="1046.88" y="-445.95" font-family="Times,serif" font-size="14.00">Critically_Ill_Patients_Authors</text>
</a>
</g>
</g>
<!-- http://www.provbook.orgCritically_Ill_Patients_Study&#45;&gt;http://www.provbook.orgCritically_Ill_Patients_Authors -->
<g id="edge29" class="edge">
<title>http://www.provbook.orgCritically_Ill_Patients_Study&#45;&gt;http://www.provbook.orgCritically_Ill_Patients_Authors</title>
<path fill="none" stroke="black" d="M917.5,-396.41C943.05,-407 976.32,-420.77 1002.72,-431.71"/>
<polygon fill="black" stroke="black" points="1001.22,-434.88 1011.8,-435.47 1003.9,-428.41 1001.22,-434.88"/>
<text text-anchor="middle" x="929.4" y="-384.56" font-family="Times,serif" font-size="8.00">att</text>
</g>
<!-- &#45;attrs5 -->
<g id="node16" class="node">
<title>&#45;attrs5</title>
<polygon fill="none" stroke="gray" points="735,-397 662.75,-397 662.75,-361 741,-361 741,-391 735,-397"/>
<polyline fill="none" stroke="gray" points="735,-397 735,-391"/>
<polyline fill="none" stroke="gray" points="741,-391 735,-391"/>
<text text-anchor="start" x="672.75" y="-375.12" font-family="Times,serif" font-size="10.00">value:</text>
<text text-anchor="start" x="700.25" y="-375.12" font-family="Times,serif" font-size="10.00">Dataset</text>
</g>
<!-- &#45;attrs5&#45;&gt;http://www.provbook.orgJin_Yin_Tan_Data -->
<g id="edge6" class="edge">
<title>&#45;attrs5&#45;&gt;http://www.provbook.orgJin_Yin_Tan_Data</title>
<path fill="none" stroke="gray" stroke-dasharray="5,2" d="M709.29,-397.3C713.94,-408.15 719.91,-422.08 724.54,-432.9"/>
</g>
<!-- &#45;attrs6 -->
<g id="node18" class="node">
<title>&#45;attrs6</title>
<polygon fill="none" stroke="gray" points="674.38,-180.75 553.38,-180.75 553.38,-144.75 680.38,-144.75 680.38,-174.75 674.38,-180.75"/>
<polyline fill="none" stroke="gray" points="674.38,-180.75 674.38,-174.75"/>
<polyline fill="none" stroke="gray" points="680.38,-174.75 674.38,-174.75"/>
<text text-anchor="start" x="563.38" y="-158.88" font-family="Times,serif" font-size="10.00">label:</text>
<text text-anchor="start" x="588.62" y="-158.88" font-family="Times,serif" font-size="10.00">GEODES Epimodel</text>
</g>
<!-- &#45;attrs6&#45;&gt;http://www.provbook.orgGEODES_Epimodel -->
<g id="edge7" class="edge">
<title>&#45;attrs6&#45;&gt;http://www.provbook.orgGEODES_Epimodel</title>
<path fill="none" stroke="gray" stroke-dasharray="5,2" d="M622.31,-181.12C626.08,-193.14 631.03,-208.94 634.53,-220.13"/>
</g>
<!-- &#45;attrs7 -->
<g id="node20" class="node">
<title>&#45;attrs7</title>
<polygon fill="none" stroke="gray" points="1419.75,-253 1214,-253 1214,-217 1425.75,-217 1425.75,-247 1419.75,-253"/>
<polyline fill="none" stroke="gray" points="1419.75,-253 1419.75,-247"/>
<polyline fill="none" stroke="gray" points="1425.75,-247 1419.75,-247"/>
<text text-anchor="start" x="1224" y="-231.12" font-family="Times,serif" font-size="10.00">label:</text>
<text text-anchor="start" x="1249.25" y="-231.12" font-family="Times,serif" font-size="10.00">Tuite, A. R., Fisman, D. N., &amp; Greer, A. L.</text>
</g>
<!-- &#45;attrs7&#45;&gt;http://www.provbook.orgOntario_Model_Authors -->
<g id="edge8" class="edge">
<title>&#45;attrs7&#45;&gt;http://www.provbook.orgOntario_Model_Authors</title>
<path fill="none" stroke="gray" stroke-dasharray="5,2" d="M1286.66,-253.48C1264.04,-265.39 1234.49,-280.94 1213.44,-292.02"/>
</g>
<!-- &#45;attrs8 -->
<g id="node22" class="node">
<title>&#45;attrs8</title>
<polygon fill="none" stroke="gray" points="121.75,-397 0,-397 0,-361 127.75,-361 127.75,-391 121.75,-397"/>
<polyline fill="none" stroke="gray" points="121.75,-397 121.75,-391"/>
<polyline fill="none" stroke="gray" points="127.75,-391 121.75,-391"/>
<text text-anchor="start" x="10" y="-375.12" font-family="Times,serif" font-size="10.00">label:</text>
<text text-anchor="start" x="35.25" y="-375.12" font-family="Times,serif" font-size="10.00">Mossong, Joel, et al.</text>
</g>
<!-- &#45;attrs8&#45;&gt;http://www.provbook.orgPOLYMOD_Authors -->
<g id="edge9" class="edge">
<title>&#45;attrs8&#45;&gt;http://www.provbook.orgPOLYMOD_Authors</title>
<path fill="none" stroke="gray" stroke-dasharray="5,2" d="M84.14,-397.3C98.09,-409.21 116.37,-424.82 129.42,-435.95"/>
</g>
<!-- &#45;attrs9 -->
<g id="node24" class="node">
<title>&#45;attrs9</title>
<polygon fill="none" stroke="gray" points="1133.62,-397 1014.12,-397 1014.12,-361 1139.62,-361 1139.62,-391 1133.62,-397"/>
<polyline fill="none" stroke="gray" points="1133.62,-397 1133.62,-391"/>
<polyline fill="none" stroke="gray" points="1139.62,-391 1133.62,-391"/>
<text text-anchor="start" x="1024.12" y="-375.12" font-family="Times,serif" font-size="10.00">label:</text>
<text text-anchor="start" x="1049.38" y="-375.12" font-family="Times,serif" font-size="10.00">Yang, Xiaobo, et al.</text>
</g>
<!-- &#45;attrs9&#45;&gt;http://www.provbook.orgCritically_Ill_Patients_Authors -->
<g id="edge10" class="edge">
<title>&#45;attrs9&#45;&gt;http://www.provbook.orgCritically_Ill_Patients_Authors</title>
<path fill="none" stroke="gray" stroke-dasharray="5,2" d="M1069.46,-397.3C1064.32,-409.29 1057.58,-425.03 1052.8,-436.18"/>
</g>
<!-- http://www.provbook.orgsigma -->
<g id="node25" class="node">
<title>http://www.provbook.orgsigma</title>
<ellipse fill="none" stroke="black" cx="259.88" cy="-307" rx="127.61" ry="18"/>
<text text-anchor="middle" x="259.88" y="-301.95" font-family="Times,serif" font-size="14.00">http://www.provbook.orgsigma</text>
</g>
<!-- http://www.provbook.orgsigma&#45;&gt;http://www.provbook.orgPOLYMOD_Study -->
<g id="edge27" class="edge">
<title>http://www.provbook.orgsigma&#45;&gt;http://www.provbook.orgPOLYMOD_Study</title>
<path fill="none" stroke="black" d="M251.96,-325.3C248.48,-332.93 244.29,-342.08 240.4,-350.6"/>
<polygon fill="black" stroke="black" points="237.3,-348.97 236.32,-359.52 243.66,-351.88 237.3,-348.97"/>
<text text-anchor="middle" x="260.66" y="-334.8" font-family="Times,serif" font-size="8.00">der</text>
</g>
<!-- http://www.provbook.orgsigma&#45;&gt;http://www.provbook.orgCanadian_Community_Health_Survey -->
<g id="edge28" class="edge">
<title>http://www.provbook.orgsigma&#45;&gt;http://www.provbook.orgCanadian_Community_Health_Survey</title>
<path fill="none" stroke="black" d="M310.7,-323.88C343.46,-334.12 386.28,-347.5 421.15,-358.4"/>
<polygon fill="black" stroke="black" points="419.66,-361.6 430.25,-361.24 421.75,-354.92 419.66,-361.6"/>
<text text-anchor="middle" x="321.74" y="-311" font-family="Times,serif" font-size="8.00">der</text>
</g>
</g>
</svg>
