<?xml version="1.0" encoding="UTF-8" standalone="no"?>
<!DOCTYPE svg PUBLIC "-//W3C//DTD SVG 1.1//EN"
 "http://www.w3.org/Graphics/SVG/1.1/DTD/svg11.dtd">
<!-- Generated by graphviz version 12.2.1 (20241206.2353)
 -->
<!-- Title: PROV Pages: 1 -->
<svg width="882pt" height="477pt"
 viewBox="0.00 0.00 881.96 477.00" xmlns="http://www.w3.org/2000/svg" xmlns:xlink="http://www.w3.org/1999/xlink">
<g id="graph0" class="graph" transform="scale(1 1) rotate(0) translate(4 473)">
<title>PROV</title>
<polygon fill="white" stroke="none" points="-4,4 -4,-473 877.96,-473 877.96,4 -4,4"/>
<!-- http://www.provbook.orgSlicing -->
<g id="node1" class="node">
<title>http://www.provbook.orgSlicing</title>
<g id="a_node1"><a xlink:href="http://www.provbook.orgSlicing" xlink:title="Slicing">
<polygon fill="#9fb1fc" stroke="#0000ff" points="247.21,-180.75 192.96,-180.75 192.96,-144.75 247.21,-144.75 247.21,-180.75"/>
<text text-anchor="middle" x="220.09" y="-157.7" font-family="Times,serif" font-size="14.00">Slicing</text>
</a>
</g>
</g>
<!-- http://www.provbook.orgOntario_Model_Study -->
<g id="node6" class="node">
<title>http://www.provbook.orgOntario_Model_Study</title>
<g id="a_node6"><a xlink:href="http://www.provbook.orgOntario_Model_Study" xlink:title="Ontario_Model_Study">
<ellipse fill="#fffc87" stroke="#808080" cx="550.09" cy="-235" rx="94.34" ry="18"/>
<text text-anchor="middle" x="550.09" y="-229.95" font-family="Times,serif" font-size="14.00">Ontario_Model_Study</text>
</a>
</g>
</g>
<!-- http://www.provbook.orgSlicing&#45;&gt;http://www.provbook.orgOntario_Model_Study -->
<g id="edge7" class="edge">
<title>http://www.provbook.orgSlicing&#45;&gt;http://www.provbook.orgOntario_Model_Study</title>
<path fill="none" stroke="black" d="M247.65,-169.62C297.82,-180.3 405.54,-203.23 477.92,-218.64"/>
<polygon fill="black" stroke="black" points="476.78,-221.97 487.29,-220.63 478.24,-215.13 476.78,-221.97"/>
<text text-anchor="middle" x="257.69" y="-155.75" font-family="Times,serif" font-size="8.00">use</text>
</g>
<!-- http://www.provbook.orgGEODES_Epimodel -->
<g id="node9" class="node">
<title>http://www.provbook.orgGEODES_Epimodel</title>
<g id="a_node9"><a xlink:href="http://www.provbook.orgGEODES_Epimodel" xlink:title="GEODES_Epimodel">
<polygon fill="#fdb266" stroke="black" points="242.11,-240.56 133.09,-253 24.06,-240.56 24.16,-220.44 242.01,-220.44 242.11,-240.56"/>
<text text-anchor="middle" x="133.09" y="-229.95" font-family="Times,serif" font-size="14.00">GEODES_Epimodel</text>
</a>
</g>
</g>
<!-- http://www.provbook.orgSlicing&#45;&gt;http://www.provbook.orgGEODES_Epimodel -->
<g id="edge9" class="edge">
<title>http://www.provbook.orgSlicing&#45;&gt;http://www.provbook.orgGEODES_Epimodel</title>
<path fill="none" stroke="black" d="M198.58,-181.12C186.59,-190.79 171.59,-202.91 158.96,-213.11"/>
<polygon fill="black" stroke="black" points="157.03,-210.17 151.44,-219.18 161.42,-215.62 157.03,-210.17"/>
<text text-anchor="middle" x="200.91" y="-193.21" font-family="Times,serif" font-size="8.00">assoc</text>
</g>
<!-- http://www.provbook.orgRef6 -->
<g id="node2" class="node">
<title>http://www.provbook.orgRef6</title>
<g id="a_node2"><a xlink:href="http://www.provbook.orgRef6" xlink:title="Ref6">
<ellipse fill="#fffc87" stroke="#808080" cx="119.09" cy="-90.5" rx="28.83" ry="18"/>
<text text-anchor="middle" x="119.09" y="-85.45" font-family="Times,serif" font-size="14.00">Ref6</text>
</a>
</g>
</g>
<!-- http://www.provbook.orgRef6&#45;&gt;http://www.provbook.orgSlicing -->
<g id="edge8" class="edge">
<title>http://www.provbook.orgRef6&#45;&gt;http://www.provbook.orgSlicing</title>
<path fill="none" stroke="black" d="M137.61,-104.38C151.13,-113.79 169.84,-126.81 186.03,-138.06"/>
<polygon fill="black" stroke="black" points="183.76,-140.75 193.97,-143.58 187.75,-135 183.76,-140.75"/>
<text text-anchor="middle" x="151.18" y="-95.28" font-family="Times,serif" font-size="8.00">gen</text>
</g>
<!-- http://www.provbook.orgbeta -->
<g id="node4" class="node">
<title>http://www.provbook.orgbeta</title>
<g id="a_node4"><a xlink:href="http://www.provbook.orgbeta" xlink:title="beta">
<ellipse fill="#fffc87" stroke="#808080" cx="349.09" cy="-307" rx="27" ry="18"/>
<text text-anchor="middle" x="349.09" y="-301.95" font-family="Times,serif" font-size="14.00">beta</text>
</a>
</g>
</g>
<!-- http://www.provbook.orgRef6&#45;&gt;http://www.provbook.orgbeta -->
<g id="edge10" class="edge">
<title>http://www.provbook.orgRef6&#45;&gt;http://www.provbook.orgbeta</title>
<path fill="none" stroke="black" d="M95.66,-101.44C77.51,-110.27 53.02,-124.82 38.09,-144.5 8.28,-183.76 -16.92,-215.51 15.09,-253 52.66,-297.01 230.42,-304.67 310.18,-305.86"/>
<polygon fill="black" stroke="black" points="310.11,-309.36 320.15,-305.98 310.19,-302.36 310.11,-309.36"/>
</g>
<!-- &#45;attrs0 -->
<g id="node3" class="node">
<title>&#45;attrs0</title>
<polygon fill="none" stroke="gray" points="168.34,-36.5 63.84,-36.5 63.84,0 174.34,0 174.34,-30.5 168.34,-36.5"/>
<polyline fill="none" stroke="gray" points="168.34,-36.5 168.34,-30.5"/>
<polyline fill="none" stroke="gray" points="174.34,-30.5 168.34,-30.5"/>
<text text-anchor="start" x="73.84" y="-21" font-family="Times,serif" font-size="10.00">type:</text>
<text text-anchor="start" x="99.09" y="-21" font-family="Times,serif" font-size="10.00">prov:Collection</text>
<text text-anchor="start" x="73.84" y="-7.75" font-family="Times,serif" font-size="10.00">label:</text>
<text text-anchor="start" x="99.09" y="-7.75" font-family="Times,serif" font-size="10.00">Ref6</text>
</g>
<!-- &#45;attrs0&#45;&gt;http://www.provbook.orgRef6 -->
<g id="edge1" class="edge">
<title>&#45;attrs0&#45;&gt;http://www.provbook.orgRef6</title>
<path fill="none" stroke="gray" stroke-dasharray="5,2" d="M119.09,-36.98C119.09,-47.71 119.09,-61.34 119.09,-72.02"/>
</g>
<!-- http://www.provbook.orgWuhan_Study -->
<g id="node8" class="node">
<title>http://www.provbook.orgWuhan_Study</title>
<g id="a_node8"><a xlink:href="http://www.provbook.orgWuhan_Study" xlink:title="Wuhan_Study">
<ellipse fill="#fffc87" stroke="#808080" cx="349.09" cy="-379" rx="63.63" ry="18"/>
<text text-anchor="middle" x="349.09" y="-373.95" font-family="Times,serif" font-size="14.00">Wuhan_Study</text>
</a>
</g>
</g>
<!-- http://www.provbook.orgbeta&#45;&gt;http://www.provbook.orgWuhan_Study -->
<g id="edge13" class="edge">
<title>http://www.provbook.orgbeta&#45;&gt;http://www.provbook.orgWuhan_Study</title>
<path fill="none" stroke="black" d="M349.09,-325.3C349.09,-332.59 349.09,-341.27 349.09,-349.46"/>
<polygon fill="black" stroke="black" points="345.59,-349.38 349.09,-359.38 352.59,-349.38 345.59,-349.38"/>
<text text-anchor="middle" x="362.08" y="-330.08" font-family="Times,serif" font-size="8.00">der</text>
</g>
<!-- &#45;attrs1 -->
<g id="node5" class="node">
<title>&#45;attrs1</title>
<polygon fill="none" stroke="gray" points="432.09,-253 260.09,-253 260.09,-217 438.09,-217 438.09,-247 432.09,-253"/>
<polyline fill="none" stroke="gray" points="432.09,-253 432.09,-247"/>
<polyline fill="none" stroke="gray" points="438.09,-247 432.09,-247"/>
<text text-anchor="start" x="270.09" y="-231.12" font-family="Times,serif" font-size="10.00">value:</text>
<text text-anchor="start" x="297.59" y="-231.12" font-family="Times,serif" font-size="10.00">Basic reproduction number (R0)</text>
</g>
<!-- &#45;attrs1&#45;&gt;http://www.provbook.orgbeta -->
<g id="edge2" class="edge">
<title>&#45;attrs1&#45;&gt;http://www.provbook.orgbeta</title>
<path fill="none" stroke="gray" stroke-dasharray="5,2" d="M349.09,-253.3C349.09,-264.15 349.09,-278.08 349.09,-288.9"/>
</g>
<!-- http://www.provbook.orgOntario_Model_Study&#45;&gt;http://www.provbook.orgbeta -->
<g id="edge11" class="edge">
<title>http://www.provbook.orgOntario_Model_Study&#45;&gt;http://www.provbook.orgbeta</title>
<path fill="none" stroke="black" d="M505.97,-251.36C469.12,-264.2 417.3,-282.24 383.46,-294.03"/>
<polygon fill="black" stroke="black" points="382.44,-290.68 374.15,-297.27 384.75,-297.29 382.44,-290.68"/>
</g>
<!-- http://www.provbook.orgOntario_Model_Authors -->
<g id="node11" class="node">
<title>http://www.provbook.orgOntario_Model_Authors</title>
<g id="a_node11"><a xlink:href="http://www.provbook.orgOntario_Model_Authors" xlink:title="Ontario_Model_Authors">
<polygon fill="#fdb266" stroke="black" points="785.82,-312.56 659.09,-325 532.35,-312.56 532.47,-292.44 785.7,-292.44 785.82,-312.56"/>
<text text-anchor="middle" x="659.09" y="-301.95" font-family="Times,serif" font-size="14.00">Ontario_Model_Authors</text>
</a>
</g>
</g>
<!-- http://www.provbook.orgOntario_Model_Study&#45;&gt;http://www.provbook.orgOntario_Model_Authors -->
<g id="edge12" class="edge">
<title>http://www.provbook.orgOntario_Model_Study&#45;&gt;http://www.provbook.orgOntario_Model_Authors</title>
<path fill="none" stroke="black" d="M576.19,-252.77C591.63,-262.68 611.29,-275.3 627.58,-285.77"/>
<polygon fill="black" stroke="black" points="625.65,-288.69 635.95,-291.15 629.43,-282.8 625.65,-288.69"/>
<text text-anchor="middle" x="589.52" y="-243.16" font-family="Times,serif" font-size="8.00">att</text>
</g>
<!-- &#45;attrs2 -->
<g id="node7" class="node">
<title>&#45;attrs2</title>
<polygon fill="none" stroke="gray" points="640.96,-181 453.21,-181 453.21,-144.5 646.96,-144.5 646.96,-175 640.96,-181"/>
<polyline fill="none" stroke="gray" points="640.96,-181 640.96,-175"/>
<polyline fill="none" stroke="gray" points="646.96,-175 640.96,-175"/>
<text text-anchor="start" x="463.21" y="-165.5" font-family="Times,serif" font-size="10.00">type:</text>
<text text-anchor="start" x="490.71" y="-165.5" font-family="Times,serif" font-size="10.00">prov:Collection</text>
<text text-anchor="start" x="463.21" y="-152.25" font-family="Times,serif" font-size="10.00">value:</text>
<text text-anchor="start" x="490.71" y="-152.25" font-family="Times,serif" font-size="10.00">A little provenance goes a long way</text>
</g>
<!-- &#45;attrs2&#45;&gt;http://www.provbook.orgOntario_Model_Study -->
<g id="edge3" class="edge">
<title>&#45;attrs2&#45;&gt;http://www.provbook.orgOntario_Model_Study</title>
<path fill="none" stroke="gray" stroke-dasharray="5,2" d="M550.09,-181.48C550.09,-192.21 550.09,-205.84 550.09,-216.52"/>
</g>
<!-- http://www.provbook.orgWuhan_Authors -->
<g id="node13" class="node">
<title>http://www.provbook.orgWuhan_Authors</title>
<g id="a_node13"><a xlink:href="http://www.provbook.orgWuhan_Authors" xlink:title="Wuhan_Authors">
<polygon fill="#fdb266" stroke="black" points="357.86,-456.56 269.09,-469 180.31,-456.56 180.39,-436.44 357.78,-436.44 357.86,-456.56"/>
<text text-anchor="middle" x="269.09" y="-445.95" font-family="Times,serif" font-size="14.00">Wuhan_Authors</text>
</a>
</g>
</g>
<!-- http://www.provbook.orgWuhan_Study&#45;&gt;http://www.provbook.orgWuhan_Authors -->
<g id="edge14" class="edge">
<title>http://www.provbook.orgWuhan_Study&#45;&gt;http://www.provbook.orgWuhan_Authors</title>
<path fill="none" stroke="black" d="M330.13,-396.59C319.15,-406.19 305.23,-418.37 293.45,-428.68"/>
<polygon fill="black" stroke="black" points="291.31,-425.91 286.08,-435.13 295.92,-431.17 291.31,-425.91"/>
<text text-anchor="middle" x="333.04" y="-408.58" font-family="Times,serif" font-size="8.00">att</text>
</g>
<!-- &#45;attrs3 -->
<g id="node10" class="node">
<title>&#45;attrs3</title>
<polygon fill="none" stroke="gray" points="168.59,-180.75 47.59,-180.75 47.59,-144.75 174.59,-144.75 174.59,-174.75 168.59,-180.75"/>
<polyline fill="none" stroke="gray" points="168.59,-180.75 168.59,-174.75"/>
<polyline fill="none" stroke="gray" points="174.59,-174.75 168.59,-174.75"/>
<text text-anchor="start" x="57.59" y="-158.88" font-family="Times,serif" font-size="10.00">label:</text>
<text text-anchor="start" x="82.84" y="-158.88" font-family="Times,serif" font-size="10.00">GEODES Epimodel</text>
</g>
<!-- &#45;attrs3&#45;&gt;http://www.provbook.orgGEODES_Epimodel -->
<g id="edge4" class="edge">
<title>&#45;attrs3&#45;&gt;http://www.provbook.orgGEODES_Epimodel</title>
<path fill="none" stroke="gray" stroke-dasharray="5,2" d="M116.52,-181.12C120.29,-193.14 125.24,-208.94 128.74,-220.13"/>
</g>
<!-- &#45;attrs4 -->
<g id="node12" class="node">
<title>&#45;attrs4</title>
<polygon fill="none" stroke="gray" points="867.96,-253 662.21,-253 662.21,-217 873.96,-217 873.96,-247 867.96,-253"/>
<polyline fill="none" stroke="gray" points="867.96,-253 867.96,-247"/>
<polyline fill="none" stroke="gray" points="873.96,-247 867.96,-247"/>
<text text-anchor="start" x="672.21" y="-231.12" font-family="Times,serif" font-size="10.00">label:</text>
<text text-anchor="start" x="697.46" y="-231.12" font-family="Times,serif" font-size="10.00">Tuite, A. R., Fisman, D. N., &amp; Greer, A. L.</text>
</g>
<!-- &#45;attrs4&#45;&gt;http://www.provbook.orgOntario_Model_Authors -->
<g id="edge5" class="edge">
<title>&#45;attrs4&#45;&gt;http://www.provbook.orgOntario_Model_Authors</title>
<path fill="none" stroke="gray" stroke-dasharray="5,2" d="M740.86,-253.48C722.32,-265.39 698.11,-280.94 680.85,-292.02"/>
</g>
<!-- &#45;attrs5 -->
<g id="node14" class="node">
<title>&#45;attrs5</title>
<polygon fill="none" stroke="gray" points="261.59,-397 110.59,-397 110.59,-361 267.59,-361 267.59,-391 261.59,-397"/>
<polyline fill="none" stroke="gray" points="261.59,-397 261.59,-391"/>
<polyline fill="none" stroke="gray" points="267.59,-391 261.59,-391"/>
<text text-anchor="start" x="120.59" y="-375.12" font-family="Times,serif" font-size="10.00">label:</text>
<text text-anchor="start" x="145.84" y="-375.12" font-family="Times,serif" font-size="10.00">Li Q., Guan X., Wu P., et al.</text>
</g>
<!-- &#45;attrs5&#45;&gt;http://www.provbook.orgWuhan_Authors -->
<g id="edge6" class="edge">
<title>&#45;attrs5&#45;&gt;http://www.provbook.orgWuhan_Authors</title>
<path fill="none" stroke="gray" stroke-dasharray="5,2" d="M208.86,-397.3C222.46,-409.21 240.3,-424.82 253.03,-435.95"/>
</g>
</g>
</svg>
