<?xml version="1.0" encoding="UTF-8" standalone="no"?>
<!DOCTYPE svg PUBLIC "-//W3C//DTD SVG 1.1//EN"
 "http://www.w3.org/Graphics/SVG/1.1/DTD/svg11.dtd">
<!-- Generated by graphviz version 12.2.1 (20241206.2353)
 -->
<!-- Title: PROV Pages: 1 -->
<svg width="910pt" height="333pt"
 viewBox="0.00 0.00 910.01 333.00" xmlns="http://www.w3.org/2000/svg" xmlns:xlink="http://www.w3.org/1999/xlink">
<g id="graph0" class="graph" transform="scale(1 1) rotate(0) translate(4 329)">
<title>PROV</title>
<polygon fill="white" stroke="none" points="-4,4 -4,-329 906.01,-329 906.01,4 -4,4"/>
<!-- http://www.provbook.orgSlicing -->
<g id="node1" class="node">
<title>http://www.provbook.orgSlicing</title>
<g id="a_node1"><a xlink:href="http://www.provbook.orgSlicing" xlink:title="Slicing">
<polygon fill="#9fb1fc" stroke="#0000ff" points="247.26,-180.75 193.01,-180.75 193.01,-144.75 247.26,-144.75 247.26,-180.75"/>
<text text-anchor="middle" x="220.14" y="-157.7" font-family="Times,serif" font-size="14.00">Slicing</text>
</a>
</g>
</g>
<!-- http://www.provbook.orgOntario_Model_Study -->
<g id="node6" class="node">
<title>http://www.provbook.orgOntario_Model_Study</title>
<g id="a_node6"><a xlink:href="http://www.provbook.orgOntario_Model_Study" xlink:title="Ontario_Model_Study">
<ellipse fill="#fffc87" stroke="#808080" cx="578.14" cy="-235" rx="94.34" ry="18"/>
<text text-anchor="middle" x="578.14" y="-229.95" font-family="Times,serif" font-size="14.00">Ontario_Model_Study</text>
</a>
</g>
</g>
<!-- http://www.provbook.orgSlicing&#45;&gt;http://www.provbook.orgOntario_Model_Study -->
<g id="edge6" class="edge">
<title>http://www.provbook.orgSlicing&#45;&gt;http://www.provbook.orgOntario_Model_Study</title>
<path fill="none" stroke="black" d="M247.63,-169.15C301.66,-179.75 423.33,-203.62 503.01,-219.26"/>
<polygon fill="black" stroke="black" points="501.99,-222.62 512.48,-221.12 503.34,-215.76 501.99,-222.62"/>
<text text-anchor="middle" x="257.5" y="-155.12" font-family="Times,serif" font-size="8.00">use</text>
</g>
<!-- http://www.provbook.orgGEODES_Epimodel -->
<g id="node8" class="node">
<title>http://www.provbook.orgGEODES_Epimodel</title>
<g id="a_node8"><a xlink:href="http://www.provbook.orgGEODES_Epimodel" xlink:title="GEODES_Epimodel">
<polygon fill="#fdb266" stroke="black" points="242.16,-240.56 133.14,-253 24.11,-240.56 24.22,-220.44 242.06,-220.44 242.16,-240.56"/>
<text text-anchor="middle" x="133.14" y="-229.95" font-family="Times,serif" font-size="14.00">GEODES_Epimodel</text>
</a>
</g>
</g>
<!-- http://www.provbook.orgSlicing&#45;&gt;http://www.provbook.orgGEODES_Epimodel -->
<g id="edge8" class="edge">
<title>http://www.provbook.orgSlicing&#45;&gt;http://www.provbook.orgGEODES_Epimodel</title>
<path fill="none" stroke="black" d="M198.63,-181.12C186.65,-190.79 171.64,-202.91 159.01,-213.11"/>
<polygon fill="black" stroke="black" points="157.08,-210.17 151.5,-219.18 161.48,-215.62 157.08,-210.17"/>
<text text-anchor="middle" x="200.96" y="-193.21" font-family="Times,serif" font-size="8.00">assoc</text>
</g>
<!-- http://www.provbook.orgUnknown -->
<g id="node2" class="node">
<title>http://www.provbook.orgUnknown</title>
<g id="a_node2"><a xlink:href="http://www.provbook.orgUnknown" xlink:title="Unknown">
<ellipse fill="#fffc87" stroke="#808080" cx="119.14" cy="-90.5" rx="47.26" ry="18"/>
<text text-anchor="middle" x="119.14" y="-85.45" font-family="Times,serif" font-size="14.00">Unknown</text>
</a>
</g>
</g>
<!-- http://www.provbook.orgUnknown&#45;&gt;http://www.provbook.orgSlicing -->
<g id="edge7" class="edge">
<title>http://www.provbook.orgUnknown&#45;&gt;http://www.provbook.orgSlicing</title>
<path fill="none" stroke="black" d="M141.05,-106.74C154.09,-115.81 170.93,-127.52 185.71,-137.8"/>
<polygon fill="black" stroke="black" points="183.61,-140.61 193.82,-143.45 187.61,-134.86 183.61,-140.61"/>
<text text-anchor="middle" x="154.63" y="-97.64" font-family="Times,serif" font-size="8.00">gen</text>
</g>
<!-- http://www.provbook.orgdelta -->
<g id="node4" class="node">
<title>http://www.provbook.orgdelta</title>
<g id="a_node4"><a xlink:href="http://www.provbook.orgdelta" xlink:title="delta">
<ellipse fill="#fffc87" stroke="#808080" cx="363.14" cy="-307" rx="28.83" ry="18"/>
<text text-anchor="middle" x="363.14" y="-301.95" font-family="Times,serif" font-size="14.00">delta</text>
</a>
</g>
</g>
<!-- http://www.provbook.orgUnknown&#45;&gt;http://www.provbook.orgdelta -->
<g id="edge9" class="edge">
<title>http://www.provbook.orgUnknown&#45;&gt;http://www.provbook.orgdelta</title>
<path fill="none" stroke="black" d="M89.19,-104.73C72.03,-113.7 51.35,-127.1 38.14,-144.5 8.33,-183.76 -16.99,-215.61 15.14,-253 54.38,-298.67 239.41,-305.43 322.53,-306.13"/>
<polygon fill="black" stroke="black" points="322.49,-309.63 332.51,-306.18 322.53,-302.63 322.49,-309.63"/>
</g>
<!-- &#45;attrs0 -->
<g id="node3" class="node">
<title>&#45;attrs0</title>
<polygon fill="none" stroke="gray" points="176.64,-36.5 55.64,-36.5 55.64,0 182.64,0 182.64,-30.5 176.64,-36.5"/>
<polyline fill="none" stroke="gray" points="176.64,-36.5 176.64,-30.5"/>
<polyline fill="none" stroke="gray" points="182.64,-30.5 176.64,-30.5"/>
<text text-anchor="start" x="65.64" y="-21" font-family="Times,serif" font-size="10.00">type:</text>
<text text-anchor="start" x="90.89" y="-21" font-family="Times,serif" font-size="10.00">prov:Collection</text>
<text text-anchor="start" x="65.64" y="-7.75" font-family="Times,serif" font-size="10.00">label:</text>
<text text-anchor="start" x="90.89" y="-7.75" font-family="Times,serif" font-size="10.00">Fragment Unknown</text>
</g>
<!-- &#45;attrs0&#45;&gt;http://www.provbook.orgUnknown -->
<g id="edge1" class="edge">
<title>&#45;attrs0&#45;&gt;http://www.provbook.orgUnknown</title>
<path fill="none" stroke="gray" stroke-dasharray="5,2" d="M119.14,-36.98C119.14,-47.71 119.14,-61.34 119.14,-72.02"/>
</g>
<!-- &#45;attrs1 -->
<g id="node5" class="node">
<title>&#45;attrs1</title>
<polygon fill="none" stroke="gray" points="459.64,-253 260.64,-253 260.64,-217 465.64,-217 465.64,-247 459.64,-253"/>
<polyline fill="none" stroke="gray" points="459.64,-253 459.64,-247"/>
<polyline fill="none" stroke="gray" points="465.64,-247 459.64,-247"/>
<text text-anchor="start" x="270.64" y="-231.12" font-family="Times,serif" font-size="10.00">value:</text>
<text text-anchor="start" x="298.14" y="-231.12" font-family="Times,serif" font-size="10.00">Rate of hospitalization for severe cases</text>
</g>
<!-- &#45;attrs1&#45;&gt;http://www.provbook.orgdelta -->
<g id="edge2" class="edge">
<title>&#45;attrs1&#45;&gt;http://www.provbook.orgdelta</title>
<path fill="none" stroke="gray" stroke-dasharray="5,2" d="M363.14,-253.3C363.14,-264.15 363.14,-278.08 363.14,-288.9"/>
</g>
<!-- http://www.provbook.orgOntario_Model_Study&#45;&gt;http://www.provbook.orgdelta -->
<g id="edge10" class="edge">
<title>http://www.provbook.orgOntario_Model_Study&#45;&gt;http://www.provbook.orgdelta</title>
<path fill="none" stroke="black" d="M531.75,-251.1C491.92,-264.07 435.34,-282.49 398.93,-294.35"/>
<polygon fill="black" stroke="black" points="398.18,-290.91 389.76,-297.33 400.35,-297.56 398.18,-290.91"/>
</g>
<!-- http://www.provbook.orgOntario_Model_Authors -->
<g id="node10" class="node">
<title>http://www.provbook.orgOntario_Model_Authors</title>
<g id="a_node10"><a xlink:href="http://www.provbook.orgOntario_Model_Authors" xlink:title="Ontario_Model_Authors">
<polygon fill="#fdb266" stroke="black" points="813.87,-312.56 687.14,-325 560.4,-312.56 560.52,-292.44 813.76,-292.44 813.87,-312.56"/>
<text text-anchor="middle" x="687.14" y="-301.95" font-family="Times,serif" font-size="14.00">Ontario_Model_Authors</text>
</a>
</g>
</g>
<!-- http://www.provbook.orgOntario_Model_Study&#45;&gt;http://www.provbook.orgOntario_Model_Authors -->
<g id="edge11" class="edge">
<title>http://www.provbook.orgOntario_Model_Study&#45;&gt;http://www.provbook.orgOntario_Model_Authors</title>
<path fill="none" stroke="black" d="M604.25,-252.77C619.68,-262.68 639.34,-275.3 655.64,-285.77"/>
<polygon fill="black" stroke="black" points="653.7,-288.69 664.01,-291.15 657.48,-282.8 653.7,-288.69"/>
<text text-anchor="middle" x="617.58" y="-243.16" font-family="Times,serif" font-size="8.00">att</text>
</g>
<!-- &#45;attrs2 -->
<g id="node7" class="node">
<title>&#45;attrs2</title>
<polygon fill="none" stroke="gray" points="669.01,-181 481.26,-181 481.26,-144.5 675.01,-144.5 675.01,-175 669.01,-181"/>
<polyline fill="none" stroke="gray" points="669.01,-181 669.01,-175"/>
<polyline fill="none" stroke="gray" points="675.01,-175 669.01,-175"/>
<text text-anchor="start" x="491.26" y="-165.5" font-family="Times,serif" font-size="10.00">type:</text>
<text text-anchor="start" x="518.76" y="-165.5" font-family="Times,serif" font-size="10.00">prov:Collection</text>
<text text-anchor="start" x="491.26" y="-152.25" font-family="Times,serif" font-size="10.00">value:</text>
<text text-anchor="start" x="518.76" y="-152.25" font-family="Times,serif" font-size="10.00">A little provenance goes a long way</text>
</g>
<!-- &#45;attrs2&#45;&gt;http://www.provbook.orgOntario_Model_Study -->
<g id="edge3" class="edge">
<title>&#45;attrs2&#45;&gt;http://www.provbook.orgOntario_Model_Study</title>
<path fill="none" stroke="gray" stroke-dasharray="5,2" d="M578.14,-181.48C578.14,-192.21 578.14,-205.84 578.14,-216.52"/>
</g>
<!-- &#45;attrs3 -->
<g id="node9" class="node">
<title>&#45;attrs3</title>
<polygon fill="none" stroke="gray" points="168.64,-180.75 47.64,-180.75 47.64,-144.75 174.64,-144.75 174.64,-174.75 168.64,-180.75"/>
<polyline fill="none" stroke="gray" points="168.64,-180.75 168.64,-174.75"/>
<polyline fill="none" stroke="gray" points="174.64,-174.75 168.64,-174.75"/>
<text text-anchor="start" x="57.64" y="-158.87" font-family="Times,serif" font-size="10.00">label:</text>
<text text-anchor="start" x="82.89" y="-158.87" font-family="Times,serif" font-size="10.00">GEODES Epimodel</text>
</g>
<!-- &#45;attrs3&#45;&gt;http://www.provbook.orgGEODES_Epimodel -->
<g id="edge4" class="edge">
<title>&#45;attrs3&#45;&gt;http://www.provbook.orgGEODES_Epimodel</title>
<path fill="none" stroke="gray" stroke-dasharray="5,2" d="M116.58,-181.12C120.34,-193.14 125.29,-208.94 128.79,-220.13"/>
</g>
<!-- &#45;attrs4 -->
<g id="node11" class="node">
<title>&#45;attrs4</title>
<polygon fill="none" stroke="gray" points="896.01,-253 690.26,-253 690.26,-217 902.01,-217 902.01,-247 896.01,-253"/>
<polyline fill="none" stroke="gray" points="896.01,-253 896.01,-247"/>
<polyline fill="none" stroke="gray" points="902.01,-247 896.01,-247"/>
<text text-anchor="start" x="700.26" y="-231.12" font-family="Times,serif" font-size="10.00">label:</text>
<text text-anchor="start" x="725.51" y="-231.12" font-family="Times,serif" font-size="10.00">Tuite, A. R., Fisman, D. N., &amp; Greer, A. L.</text>
</g>
<!-- &#45;attrs4&#45;&gt;http://www.provbook.orgOntario_Model_Authors -->
<g id="edge5" class="edge">
<title>&#45;attrs4&#45;&gt;http://www.provbook.orgOntario_Model_Authors</title>
<path fill="none" stroke="gray" stroke-dasharray="5,2" d="M768.91,-253.48C750.37,-265.39 726.16,-280.94 708.91,-292.02"/>
</g>
</g>
</svg>
