<?xml version="1.0" encoding="UTF-8" standalone="no"?>
<!DOCTYPE svg PUBLIC "-//W3C//DTD SVG 1.1//EN"
 "http://www.w3.org/Graphics/SVG/1.1/DTD/svg11.dtd">
<!-- Generated by graphviz version 12.2.1 (20241206.2353)
 -->
<!-- Title: PROV Pages: 1 -->
<svg width="1152pt" height="305pt"
 viewBox="0.00 0.00 1152.00 305.17" xmlns="http://www.w3.org/2000/svg" xmlns:xlink="http://www.w3.org/1999/xlink">
<g id="graph0" class="graph" transform="scale(0.846514 0.846514) rotate(0) translate(4 356.5)">
<title>PROV</title>
<polygon fill="white" stroke="none" points="-4,4 -4,-356.5 1356.88,-356.5 1356.88,4 -4,4"/>
<!-- http://example.org/DemographicLifeExpectencyCalculation -->
<g id="node1" class="node">
<title>http://example.org/DemographicLifeExpectencyCalculation</title>
<g id="a_node1"><a xlink:href="http://example.org/DemographicLifeExpectencyCalculation" xlink:title="DemographicLifeExpectencyCalculation">
<polygon fill="#9fb1fc" stroke="#0000ff" points="238,-273.62 0,-273.62 0,-237.62 238,-237.62 238,-273.62"/>
<text text-anchor="middle" x="119" y="-250.57" font-family="Times,serif" font-size="14.00">DemographicLifeExpectencyCalculation</text>
</a>
</g>
</g>
<!-- http://example.org/DataAnalysis -->
<g id="node2" class="node">
<title>http://example.org/DataAnalysis</title>
<g id="a_node2"><a xlink:href="http://example.org/DataAnalysis" xlink:title="DataAnalysis">
<polygon fill="#9fb1fc" stroke="#0000ff" points="382.38,-273.62 293.62,-273.62 293.62,-237.62 382.38,-237.62 382.38,-273.62"/>
<text text-anchor="middle" x="338" y="-250.57" font-family="Times,serif" font-size="14.00">DataAnalysis</text>
</a>
</g>
</g>
<!-- http://example.org/chowell2003 -->
<g id="node5" class="node">
<title>http://example.org/chowell2003</title>
<g id="a_node5"><a xlink:href="http://example.org/chowell2003" xlink:title="chowell2003">
<ellipse fill="#fffc87" stroke="#808080" cx="406" cy="-334.5" rx="58.52" ry="18"/>
<text text-anchor="middle" x="406" y="-329.45" font-family="Times,serif" font-size="14.00">chowell2003</text>
</a>
</g>
</g>
<!-- http://example.org/DataAnalysis&#45;&gt;http://example.org/chowell2003 -->
<g id="edge14" class="edge">
<title>http://example.org/DataAnalysis&#45;&gt;http://example.org/chowell2003</title>
<path fill="none" stroke="black" d="M353.43,-274.07C362.34,-284.14 373.69,-296.97 383.57,-308.14"/>
<polygon fill="black" stroke="black" points="380.85,-310.35 390.1,-315.52 386.09,-305.71 380.85,-310.35"/>
<text text-anchor="middle" x="368.13" y="-268.36" font-family="Times,serif" font-size="8.00">use</text>
</g>
<!-- http://example.org/carcionePaper -->
<g id="node3" class="node">
<title>http://example.org/carcionePaper</title>
<g id="a_node3"><a xlink:href="http://example.org/carcionePaper" xlink:title="carcionePaper">
<ellipse fill="#fffc87" stroke="#808080" cx="432" cy="-90.75" rx="63.12" ry="18"/>
<text text-anchor="middle" x="432" y="-85.7" font-family="Times,serif" font-size="14.00">carcionePaper</text>
</a>
</g>
</g>
<!-- http://example.org/beta -->
<g id="node13" class="node">
<title>http://example.org/beta</title>
<g id="a_node13"><a xlink:href="http://example.org/beta" xlink:title="beta">
<ellipse fill="#fffc87" stroke="#808080" cx="338" cy="-169.88" rx="27" ry="18"/>
<text text-anchor="middle" x="338" y="-164.82" font-family="Times,serif" font-size="14.00">beta</text>
</a>
</g>
</g>
<!-- http://example.org/carcionePaper&#45;&gt;http://example.org/beta -->
<g id="edge19" class="edge">
<title>http://example.org/carcionePaper&#45;&gt;http://example.org/beta</title>
<path fill="none" stroke="black" d="M412.07,-108.11C397.74,-119.86 378.32,-135.79 362.97,-148.39"/>
<polygon fill="black" stroke="black" points="361.14,-145.36 355.63,-154.41 365.58,-150.77 361.14,-145.36"/>
</g>
<!-- http://example.org/epsilon -->
<g id="node15" class="node">
<title>http://example.org/epsilon</title>
<g id="a_node15"><a xlink:href="http://example.org/epsilon" xlink:title="epsilon">
<ellipse fill="#fffc87" stroke="#808080" cx="768" cy="-169.88" rx="37.53" ry="18"/>
<text text-anchor="middle" x="768" y="-164.82" font-family="Times,serif" font-size="14.00">epsilon</text>
</a>
</g>
</g>
<!-- http://example.org/carcionePaper&#45;&gt;http://example.org/epsilon -->
<g id="edge20" class="edge">
<title>http://example.org/carcionePaper&#45;&gt;http://example.org/epsilon</title>
<path fill="none" stroke="black" d="M478.37,-103.37C486.87,-105.36 495.68,-107.32 504,-109 600.26,-128.45 628.82,-114 722,-145 726.3,-146.43 730.68,-148.22 734.95,-150.17"/>
<polygon fill="black" stroke="black" points="733.35,-153.29 743.87,-154.58 736.45,-147.01 733.35,-153.29"/>
</g>
<!-- http://example.org/gamma -->
<g id="node17" class="node">
<title>http://example.org/gamma</title>
<g id="a_node17"><a xlink:href="http://example.org/gamma" xlink:title="gamma">
<ellipse fill="#fffc87" stroke="#808080" cx="432" cy="-169.88" rx="39.07" ry="18"/>
<text text-anchor="middle" x="432" y="-164.82" font-family="Times,serif" font-size="14.00">gamma</text>
</a>
</g>
</g>
<!-- http://example.org/carcionePaper&#45;&gt;http://example.org/gamma -->
<g id="edge21" class="edge">
<title>http://example.org/carcionePaper&#45;&gt;http://example.org/gamma</title>
<path fill="none" stroke="black" d="M432,-108.87C432,-118.09 432,-129.71 432,-140.26"/>
<polygon fill="black" stroke="black" points="428.5,-140.03 432,-150.03 435.5,-140.03 428.5,-140.03"/>
</g>
<!-- http://example.org/alpha -->
<g id="node19" class="node">
<title>http://example.org/alpha</title>
<g id="a_node19"><a xlink:href="http://example.org/alpha" xlink:title="alpha">
<ellipse fill="#fffc87" stroke="#808080" cx="1274" cy="-169.88" rx="30.88" ry="18"/>
<text text-anchor="middle" x="1274" y="-164.82" font-family="Times,serif" font-size="14.00">alpha</text>
</a>
</g>
</g>
<!-- http://example.org/carcionePaper&#45;&gt;http://example.org/alpha -->
<g id="edge22" class="edge">
<title>http://example.org/carcionePaper&#45;&gt;http://example.org/alpha</title>
<path fill="none" stroke="black" d="M476.69,-103.82C485.67,-105.86 495.09,-107.73 504,-109 665,-132.05 1079.59,-97.05 1235,-145 1238.76,-146.16 1242.52,-147.76 1246.14,-149.59"/>
<polygon fill="black" stroke="black" points="1244.15,-152.49 1254.56,-154.43 1247.63,-146.42 1244.15,-152.49"/>
</g>
<!-- http://example.org/mu -->
<g id="node21" class="node">
<title>http://example.org/mu</title>
<g id="a_node21"><a xlink:href="http://example.org/mu" xlink:title="mu">
<ellipse fill="#fffc87" stroke="#808080" cx="119" cy="-169.88" rx="27" ry="18"/>
<text text-anchor="middle" x="119" y="-164.82" font-family="Times,serif" font-size="14.00">mu</text>
</a>
</g>
</g>
<!-- http://example.org/carcionePaper&#45;&gt;http://example.org/mu -->
<g id="edge23" class="edge">
<title>http://example.org/carcionePaper&#45;&gt;http://example.org/mu</title>
<path fill="none" stroke="black" d="M385.48,-103.21C322.71,-118.68 212.2,-145.91 155.23,-159.95"/>
<polygon fill="black" stroke="black" points="154.59,-156.5 145.72,-162.29 156.26,-163.3 154.59,-156.5"/>
</g>
<!-- &#45;attrs0 -->
<g id="node4" class="node">
<title>&#45;attrs0</title>
<polygon fill="none" stroke="gray" points="615.88,-36.5 242.12,-36.5 242.12,0 621.88,0 621.88,-30.5 615.88,-36.5"/>
<polyline fill="none" stroke="gray" points="615.88,-36.5 615.88,-30.5"/>
<polyline fill="none" stroke="gray" points="621.88,-30.5 615.88,-30.5"/>
<text text-anchor="start" x="252.12" y="-21" font-family="Times,serif" font-size="10.00">title:</text>
<text text-anchor="start" x="294.62" y="-21" font-family="Times,serif" font-size="10.00">A Simulation of a COVID&#45;19 Epidemic Based on a Deterministic SEIR Model</text>
<text text-anchor="start" x="252.12" y="-7.75" font-family="Times,serif" font-size="10.00">identifier:</text>
<text text-anchor="start" x="294.62" y="-7.75" font-family="Times,serif" font-size="10.00">https://doi.org/10.3389/fpubh.2020.00230</text>
</g>
<!-- &#45;attrs0&#45;&gt;http://example.org/carcionePaper -->
<g id="edge1" class="edge">
<title>&#45;attrs0&#45;&gt;http://example.org/carcionePaper</title>
<path fill="none" stroke="gray" stroke-dasharray="5,2" d="M432,-36.68C432,-47.6 432,-61.63 432,-72.52"/>
</g>
<!-- &#45;attrs1 -->
<g id="node6" class="node">
<title>&#45;attrs1</title>
<polygon fill="none" stroke="gray" points="541.62,-280.5 400.38,-280.5 400.38,-230.75 547.62,-230.75 547.62,-274.5 541.62,-280.5"/>
<polyline fill="none" stroke="gray" points="541.62,-280.5 541.62,-274.5"/>
<polyline fill="none" stroke="gray" points="547.62,-274.5 541.62,-274.5"/>
<text text-anchor="start" x="410.38" y="-265" font-family="Times,serif" font-size="10.00">title:</text>
<text text-anchor="start" x="443.12" y="-265" font-family="Times,serif" font-size="10.00">SARS outbreak control</text>
<text text-anchor="start" x="410.38" y="-251.75" font-family="Times,serif" font-size="10.00">creator:</text>
<text text-anchor="start" x="443.12" y="-251.75" font-family="Times,serif" font-size="10.00">Chowell et al.</text>
<text text-anchor="start" x="410.38" y="-238.5" font-family="Times,serif" font-size="10.00">date:</text>
<text text-anchor="start" x="443.12" y="-238.5" font-family="Times,serif" font-size="10.00">2003</text>
</g>
<!-- &#45;attrs1&#45;&gt;http://example.org/chowell2003 -->
<g id="edge2" class="edge">
<title>&#45;attrs1&#45;&gt;http://example.org/chowell2003</title>
<path fill="none" stroke="gray" stroke-dasharray="5,2" d="M452.48,-280.95C442.21,-292.56 430.17,-306.17 420.92,-316.63"/>
</g>
<!-- http://example.org/read2020 -->
<g id="node7" class="node">
<title>http://example.org/read2020</title>
<g id="a_node7"><a xlink:href="http://example.org/read2020" xlink:title="read2020">
<ellipse fill="#fffc87" stroke="#808080" cx="611" cy="-255.62" rx="45.21" ry="18"/>
<text text-anchor="middle" x="611" y="-250.57" font-family="Times,serif" font-size="14.00">read2020</text>
</a>
</g>
</g>
<!-- &#45;attrs2 -->
<g id="node8" class="node">
<title>&#45;attrs2</title>
<polygon fill="none" stroke="gray" points="706.88,-194.75 489.12,-194.75 489.12,-145 712.88,-145 712.88,-188.75 706.88,-194.75"/>
<polyline fill="none" stroke="gray" points="706.88,-194.75 706.88,-188.75"/>
<polyline fill="none" stroke="gray" points="712.88,-188.75 706.88,-188.75"/>
<text text-anchor="start" x="499.12" y="-179.25" font-family="Times,serif" font-size="10.00">title:</text>
<text text-anchor="start" x="531.88" y="-179.25" font-family="Times,serif" font-size="10.00">Early estimation of COVID&#45;19 parameters</text>
<text text-anchor="start" x="499.12" y="-166" font-family="Times,serif" font-size="10.00">creator:</text>
<text text-anchor="start" x="531.88" y="-166" font-family="Times,serif" font-size="10.00">Read et al.</text>
<text text-anchor="start" x="499.12" y="-152.75" font-family="Times,serif" font-size="10.00">date:</text>
<text text-anchor="start" x="531.88" y="-152.75" font-family="Times,serif" font-size="10.00">2020</text>
</g>
<!-- &#45;attrs2&#45;&gt;http://example.org/read2020 -->
<g id="edge3" class="edge">
<title>&#45;attrs2&#45;&gt;http://example.org/read2020</title>
<path fill="none" stroke="gray" stroke-dasharray="5,2" d="M603.89,-195.1C605.51,-208.63 607.48,-225.16 608.94,-237.37"/>
</g>
<!-- http://example.org/lauer2020 -->
<g id="node9" class="node">
<title>http://example.org/lauer2020</title>
<g id="a_node9"><a xlink:href="http://example.org/lauer2020" xlink:title="lauer2020">
<ellipse fill="#fffc87" stroke="#808080" cx="842" cy="-255.62" rx="47.77" ry="18"/>
<text text-anchor="middle" x="842" y="-250.57" font-family="Times,serif" font-size="14.00">lauer2020</text>
</a>
</g>
</g>
<!-- &#45;attrs3 -->
<g id="node10" class="node">
<title>&#45;attrs3</title>
<polygon fill="none" stroke="gray" points="1002,-194.75 824,-194.75 824,-145 1008,-145 1008,-188.75 1002,-194.75"/>
<polyline fill="none" stroke="gray" points="1002,-194.75 1002,-188.75"/>
<polyline fill="none" stroke="gray" points="1008,-188.75 1002,-188.75"/>
<text text-anchor="start" x="834" y="-179.25" font-family="Times,serif" font-size="10.00">title:</text>
<text text-anchor="start" x="866.75" y="-179.25" font-family="Times,serif" font-size="10.00">Incubation period of COVID&#45;19</text>
<text text-anchor="start" x="834" y="-166" font-family="Times,serif" font-size="10.00">creator:</text>
<text text-anchor="start" x="866.75" y="-166" font-family="Times,serif" font-size="10.00">Lauer et al.</text>
<text text-anchor="start" x="834" y="-152.75" font-family="Times,serif" font-size="10.00">date:</text>
<text text-anchor="start" x="866.75" y="-152.75" font-family="Times,serif" font-size="10.00">2020</text>
</g>
<!-- &#45;attrs3&#45;&gt;http://example.org/lauer2020 -->
<g id="edge4" class="edge">
<title>&#45;attrs3&#45;&gt;http://example.org/lauer2020</title>
<path fill="none" stroke="gray" stroke-dasharray="5,2" d="M894.6,-195.1C882.39,-208.92 867.41,-225.87 856.56,-238.15"/>
</g>
<!-- http://example.org/ferguson2020 -->
<g id="node11" class="node">
<title>http://example.org/ferguson2020</title>
<g id="a_node11"><a xlink:href="http://example.org/ferguson2020" xlink:title="ferguson2020">
<ellipse fill="#fffc87" stroke="#808080" cx="1200" cy="-255.62" rx="61.59" ry="18"/>
<text text-anchor="middle" x="1200" y="-250.57" font-family="Times,serif" font-size="14.00">ferguson2020</text>
</a>
</g>
</g>
<!-- &#45;attrs4 -->
<g id="node12" class="node">
<title>&#45;attrs4</title>
<polygon fill="none" stroke="gray" points="1219.5,-194.75 1026.5,-194.75 1026.5,-145 1225.5,-145 1225.5,-188.75 1219.5,-194.75"/>
<polyline fill="none" stroke="gray" points="1219.5,-194.75 1219.5,-188.75"/>
<polyline fill="none" stroke="gray" points="1225.5,-188.75 1219.5,-188.75"/>
<text text-anchor="start" x="1036.5" y="-179.25" font-family="Times,serif" font-size="10.00">title:</text>
<text text-anchor="start" x="1069.25" y="-179.25" font-family="Times,serif" font-size="10.00">Imperial College COVID&#45;19 Report</text>
<text text-anchor="start" x="1036.5" y="-166" font-family="Times,serif" font-size="10.00">creator:</text>
<text text-anchor="start" x="1069.25" y="-166" font-family="Times,serif" font-size="10.00">Ferguson et al.</text>
<text text-anchor="start" x="1036.5" y="-152.75" font-family="Times,serif" font-size="10.00">date:</text>
<text text-anchor="start" x="1069.25" y="-152.75" font-family="Times,serif" font-size="10.00">2020</text>
</g>
<!-- &#45;attrs4&#45;&gt;http://example.org/ferguson2020 -->
<g id="edge5" class="edge">
<title>&#45;attrs4&#45;&gt;http://example.org/ferguson2020</title>
<path fill="none" stroke="gray" stroke-dasharray="5,2" d="M1147.4,-195.1C1159.53,-208.82 1174.38,-225.63 1185.21,-237.89"/>
</g>
<!-- http://example.org/beta&#45;&gt;http://example.org/DataAnalysis -->
<g id="edge12" class="edge">
<title>http://example.org/beta&#45;&gt;http://example.org/DataAnalysis</title>
<path fill="none" stroke="black" d="M338,-188.23C338,-199.12 338,-213.43 338,-225.98"/>
<polygon fill="black" stroke="black" points="334.5,-225.78 338,-235.78 341.5,-225.78 334.5,-225.78"/>
<text text-anchor="middle" x="350.99" y="-193" font-family="Times,serif" font-size="8.00">gen</text>
</g>
<!-- &#45;attrs5 -->
<g id="node14" class="node">
<title>&#45;attrs5</title>
<polygon fill="none" stroke="gray" points="345.12,-109 170.88,-109 170.88,-72.5 351.12,-72.5 351.12,-103 345.12,-109"/>
<polyline fill="none" stroke="gray" points="345.12,-109 345.12,-103"/>
<polyline fill="none" stroke="gray" points="351.12,-103 345.12,-103"/>
<text text-anchor="start" x="180.88" y="-93.5" font-family="Times,serif" font-size="10.00">value:</text>
<text text-anchor="start" x="231.62" y="-93.5" font-family="Times,serif" font-size="10.00">0.75</text>
<text text-anchor="start" x="180.88" y="-80.25" font-family="Times,serif" font-size="10.00">description:</text>
<text text-anchor="start" x="231.62" y="-80.25" font-family="Times,serif" font-size="10.00">Transmission rate (per day)</text>
</g>
<!-- &#45;attrs5&#45;&gt;http://example.org/beta -->
<g id="edge6" class="edge">
<title>&#45;attrs5&#45;&gt;http://example.org/beta</title>
<path fill="none" stroke="gray" stroke-dasharray="5,2" d="M278.47,-109.25C292.14,-122.94 310.9,-141.74 323.69,-154.54"/>
</g>
<!-- http://example.org/epsilon&#45;&gt;http://example.org/read2020 -->
<g id="edge15" class="edge">
<title>http://example.org/epsilon&#45;&gt;http://example.org/read2020</title>
<path fill="none" stroke="black" d="M743.47,-183.96C717.62,-197.75 676.65,-219.6 647.12,-235.36"/>
<polygon fill="black" stroke="black" points="645.7,-232.15 638.53,-239.94 649,-238.32 645.7,-232.15"/>
<text text-anchor="middle" x="742.97" y="-196.23" font-family="Times,serif" font-size="8.00">der</text>
</g>
<!-- http://example.org/epsilon&#45;&gt;http://example.org/lauer2020 -->
<g id="edge16" class="edge">
<title>http://example.org/epsilon&#45;&gt;http://example.org/lauer2020</title>
<path fill="none" stroke="black" d="M782.27,-187.02C792.95,-199.11 807.75,-215.87 819.95,-229.67"/>
<polygon fill="black" stroke="black" points="817.28,-231.93 826.52,-237.11 822.52,-227.3 817.28,-231.93"/>
<text text-anchor="middle" x="796.97" y="-181.32" font-family="Times,serif" font-size="8.00">der</text>
</g>
<!-- &#45;attrs6 -->
<g id="node16" class="node">
<title>&#45;attrs6</title>
<polygon fill="none" stroke="gray" points="1026.5,-109 743.5,-109 743.5,-72.5 1032.5,-72.5 1032.5,-103 1026.5,-109"/>
<polyline fill="none" stroke="gray" points="1026.5,-109 1026.5,-103"/>
<polyline fill="none" stroke="gray" points="1032.5,-103 1026.5,-103"/>
<text text-anchor="start" x="753.5" y="-93.5" font-family="Times,serif" font-size="10.00">value:</text>
<text text-anchor="start" x="804.25" y="-93.5" font-family="Times,serif" font-size="10.00">0.333</text>
<text text-anchor="start" x="753.5" y="-80.25" font-family="Times,serif" font-size="10.00">description:</text>
<text text-anchor="start" x="804.25" y="-80.25" font-family="Times,serif" font-size="10.00">Rate from exposed to infectious (1/incubation period)</text>
</g>
<!-- &#45;attrs6&#45;&gt;http://example.org/epsilon -->
<g id="edge7" class="edge">
<title>&#45;attrs6&#45;&gt;http://example.org/epsilon</title>
<path fill="none" stroke="gray" stroke-dasharray="5,2" d="M860.47,-109.44C839.02,-123.23 809.65,-142.11 789.81,-154.86"/>
</g>
<!-- http://example.org/gamma&#45;&gt;http://example.org/DataAnalysis -->
<g id="edge13" class="edge">
<title>http://example.org/gamma&#45;&gt;http://example.org/DataAnalysis</title>
<path fill="none" stroke="black" d="M414.76,-186.24C401.07,-198.43 381.67,-215.71 365.8,-229.86"/>
<polygon fill="black" stroke="black" points="363.67,-227.07 358.53,-236.33 368.33,-232.29 363.67,-227.07"/>
<text text-anchor="middle" x="417.8" y="-198.2" font-family="Times,serif" font-size="8.00">gen</text>
</g>
<!-- http://example.org/gamma&#45;&gt;http://example.org/read2020 -->
<g id="edge17" class="edge">
<title>http://example.org/gamma&#45;&gt;http://example.org/read2020</title>
<path fill="none" stroke="black" d="M457.58,-183.79C464.81,-187.39 472.69,-191.26 480,-194.75 510.55,-209.32 545.41,-225.22 571.49,-236.97"/>
<polygon fill="black" stroke="black" points="569.8,-240.05 580.36,-240.96 572.67,-233.67 569.8,-240.05"/>
<text text-anchor="middle" x="470.08" y="-172.77" font-family="Times,serif" font-size="8.00">der</text>
</g>
<!-- &#45;attrs7 -->
<g id="node18" class="node">
<title>&#45;attrs7</title>
<polygon fill="none" stroke="gray" points="719.25,-109 512.75,-109 512.75,-72.5 725.25,-72.5 725.25,-103 719.25,-109"/>
<polyline fill="none" stroke="gray" points="719.25,-109 719.25,-103"/>
<polyline fill="none" stroke="gray" points="725.25,-103 719.25,-103"/>
<text text-anchor="start" x="522.75" y="-93.5" font-family="Times,serif" font-size="10.00">value:</text>
<text text-anchor="start" x="573.5" y="-93.5" font-family="Times,serif" font-size="10.00">0.125</text>
<text text-anchor="start" x="522.75" y="-80.25" font-family="Times,serif" font-size="10.00">description:</text>
<text text-anchor="start" x="573.5" y="-80.25" font-family="Times,serif" font-size="10.00">Recovery rate (1/infectious period)</text>
</g>
<!-- &#45;attrs7&#45;&gt;http://example.org/gamma -->
<g id="edge8" class="edge">
<title>&#45;attrs7&#45;&gt;http://example.org/gamma</title>
<path fill="none" stroke="gray" stroke-dasharray="5,2" d="M569.32,-109.47C542.6,-119.33 509.22,-132.17 480,-145 472.5,-148.29 464.49,-152.14 457.19,-155.78"/>
</g>
<!-- http://example.org/alpha&#45;&gt;http://example.org/ferguson2020 -->
<g id="edge18" class="edge">
<title>http://example.org/alpha&#45;&gt;http://example.org/ferguson2020</title>
<path fill="none" stroke="black" d="M1260.43,-186.24C1249.72,-198.36 1234.55,-215.52 1222.1,-229.62"/>
<polygon fill="black" stroke="black" points="1219.76,-226.98 1215.76,-236.79 1225,-231.61 1219.76,-226.98"/>
<text text-anchor="middle" x="1265.2" y="-197.73" font-family="Times,serif" font-size="8.00">der</text>
</g>
<!-- &#45;attrs8 -->
<g id="node20" class="node">
<title>&#45;attrs8</title>
<polygon fill="none" stroke="gray" points="1346.88,-109 1195.12,-109 1195.12,-72.5 1352.88,-72.5 1352.88,-103 1346.88,-109"/>
<polyline fill="none" stroke="gray" points="1346.88,-109 1346.88,-103"/>
<polyline fill="none" stroke="gray" points="1352.88,-103 1346.88,-103"/>
<text text-anchor="start" x="1205.12" y="-93.5" font-family="Times,serif" font-size="10.00">value:</text>
<text text-anchor="start" x="1255.88" y="-93.5" font-family="Times,serif" font-size="10.00">0.006</text>
<text text-anchor="start" x="1205.12" y="-80.25" font-family="Times,serif" font-size="10.00">description:</text>
<text text-anchor="start" x="1255.88" y="-80.25" font-family="Times,serif" font-size="10.00">Fatality rate (per day)</text>
</g>
<!-- &#45;attrs8&#45;&gt;http://example.org/alpha -->
<g id="edge9" class="edge">
<title>&#45;attrs8&#45;&gt;http://example.org/alpha</title>
<path fill="none" stroke="gray" stroke-dasharray="5,2" d="M1274,-109.25C1274,-121.87 1274,-138.84 1274,-151.44"/>
</g>
<!-- http://example.org/mu&#45;&gt;http://example.org/DemographicLifeExpectencyCalculation -->
<g id="edge11" class="edge">
<title>http://example.org/mu&#45;&gt;http://example.org/DemographicLifeExpectencyCalculation</title>
<path fill="none" stroke="black" d="M119,-188.23C119,-199.12 119,-213.43 119,-225.98"/>
<polygon fill="black" stroke="black" points="115.5,-225.78 119,-235.78 122.5,-225.78 115.5,-225.78"/>
<text text-anchor="middle" x="131.99" y="-193" font-family="Times,serif" font-size="8.00">gen</text>
</g>
<!-- &#45;attrs9 -->
<g id="node22" class="node">
<title>&#45;attrs9</title>
<polygon fill="none" stroke="gray" points="146.75,-109 9.25,-109 9.25,-72.5 152.75,-72.5 152.75,-103 146.75,-109"/>
<polyline fill="none" stroke="gray" points="146.75,-109 146.75,-103"/>
<polyline fill="none" stroke="gray" points="152.75,-103 146.75,-103"/>
<text text-anchor="start" x="19.25" y="-93.5" font-family="Times,serif" font-size="10.00">value:</text>
<text text-anchor="start" x="70" y="-93.5" font-family="Times,serif" font-size="10.00">0.000033</text>
<text text-anchor="start" x="19.25" y="-80.25" font-family="Times,serif" font-size="10.00">description:</text>
<text text-anchor="start" x="70" y="-80.25" font-family="Times,serif" font-size="10.00">Natural death rate</text>
</g>
<!-- &#45;attrs9&#45;&gt;http://example.org/mu -->
<g id="edge10" class="edge">
<title>&#45;attrs9&#45;&gt;http://example.org/mu</title>
<path fill="none" stroke="gray" stroke-dasharray="5,2" d="M89.62,-109.25C95.97,-122.14 104.55,-139.56 110.8,-152.24"/>
</g>
</g>
</svg>
