<?xml version="1.0" encoding="UTF-8" standalone="no"?>
<!DOCTYPE svg PUBLIC "-//W3C//DTD SVG 1.1//EN"
 "http://www.w3.org/Graphics/SVG/1.1/DTD/svg11.dtd">
<!-- Generated by graphviz version 12.2.1 (20241206.2353)
 -->
<!-- Title: PROV Pages: 1 -->
<svg width="1152pt" height="317pt"
 viewBox="0.00 0.00 1152.00 316.73" xmlns="http://www.w3.org/2000/svg" xmlns:xlink="http://www.w3.org/1999/xlink">
<g id="graph0" class="graph" transform="scale(0.949711 0.949711) rotate(0) translate(4 329.5)">
<title>PROV</title>
<polygon fill="white" stroke="none" points="-4,4 -4,-329.5 1209,-329.5 1209,4 -4,4"/>
<!-- http://www.w3.org/ns/prov#data_analysis -->
<g id="node1" class="node">
<title>http://www.w3.org/ns/prov#data_analysis</title>
<g id="a_node1"><a xlink:href="http://www.w3.org/ns/prov#data_analysis" xlink:title="data_analysis">
<polygon fill="#9fb1fc" stroke="#0000ff" points="254,-253.25 165.25,-253.25 165.25,-217.25 254,-217.25 254,-253.25"/>
<text text-anchor="middle" x="209.62" y="-230.2" font-family="Times,serif" font-size="14.00">data_analysis</text>
</a>
</g>
</g>
<!-- http://www.w3.org/ns/prov#data_hunan -->
<g id="node17" class="node">
<title>http://www.w3.org/ns/prov#data_hunan</title>
<g id="a_node17"><a xlink:href="http://www.w3.org/ns/prov#data_hunan" xlink:title="data_hunan">
<ellipse fill="#fffc87" stroke="#808080" cx="458.62" cy="-307.5" rx="53.4" ry="18"/>
<text text-anchor="middle" x="458.62" y="-302.45" font-family="Times,serif" font-size="14.00">data_hunan</text>
</a>
</g>
</g>
<!-- http://www.w3.org/ns/prov#data_analysis&#45;&gt;http://www.w3.org/ns/prov#data_hunan -->
<g id="edge24" class="edge">
<title>http://www.w3.org/ns/prov#data_analysis&#45;&gt;http://www.w3.org/ns/prov#data_hunan</title>
<path fill="none" stroke="black" d="M254.25,-249.61C258.76,-250.94 263.28,-252.25 267.62,-253.5 314.73,-267.04 368.55,-281.92 407.03,-292.46"/>
<polygon fill="black" stroke="black" points="405.92,-295.78 416.49,-295.05 407.77,-289.03 405.92,-295.78"/>
<text text-anchor="middle" x="265.1" y="-236.53" font-family="Times,serif" font-size="8.00">use</text>
</g>
<!-- http://www.w3.org/ns/prov#data_hubei -->
<g id="node19" class="node">
<title>http://www.w3.org/ns/prov#data_hubei</title>
<g id="a_node19"><a xlink:href="http://www.w3.org/ns/prov#data_hubei" xlink:title="data_hubei">
<ellipse fill="#fffc87" stroke="#808080" cx="209.62" cy="-307.5" rx="51.35" ry="18"/>
<text text-anchor="middle" x="209.62" y="-302.45" font-family="Times,serif" font-size="14.00">data_hubei</text>
</a>
</g>
</g>
<!-- http://www.w3.org/ns/prov#data_analysis&#45;&gt;http://www.w3.org/ns/prov#data_hubei -->
<g id="edge25" class="edge">
<title>http://www.w3.org/ns/prov#data_analysis&#45;&gt;http://www.w3.org/ns/prov#data_hubei</title>
<path fill="none" stroke="black" d="M209.62,-253.62C209.62,-260.93 209.62,-269.64 209.62,-277.86"/>
<polygon fill="black" stroke="black" points="206.13,-277.82 209.63,-287.82 213.13,-277.82 206.13,-277.82"/>
<text text-anchor="middle" x="222.62" y="-258.39" font-family="Times,serif" font-size="8.00">use</text>
</g>
<!-- &#45;attrs0 -->
<g id="node2" class="node">
<title>&#45;attrs0</title>
<polygon fill="none" stroke="gray" points="117.25,-181 0,-181 0,-144.5 123.25,-144.5 123.25,-175 117.25,-181"/>
<polyline fill="none" stroke="gray" points="117.25,-181 117.25,-175"/>
<polyline fill="none" stroke="gray" points="123.25,-175 117.25,-175"/>
<text text-anchor="start" x="10" y="-165.5" font-family="Times,serif" font-size="10.00">type:</text>
<text text-anchor="start" x="35.25" y="-165.5" font-family="Times,serif" font-size="10.00">prov:Activity</text>
<text text-anchor="start" x="10" y="-152.25" font-family="Times,serif" font-size="10.00">label:</text>
<text text-anchor="start" x="35.25" y="-152.25" font-family="Times,serif" font-size="10.00">Statistical Analysis</text>
</g>
<!-- &#45;attrs0&#45;&gt;http://www.w3.org/ns/prov#data_analysis -->
<g id="edge1" class="edge">
<title>&#45;attrs0&#45;&gt;http://www.w3.org/ns/prov#data_analysis</title>
<path fill="none" stroke="gray" stroke-dasharray="5,2" d="M98.59,-181.36C121.36,-192.21 150.44,-206.06 173.13,-216.87"/>
</g>
<!-- http://www.w3.org/ns/prov#curve_fitting -->
<g id="node3" class="node">
<title>http://www.w3.org/ns/prov#curve_fitting</title>
<g id="a_node3"><a xlink:href="http://www.w3.org/ns/prov#curve_fitting" xlink:title="curve_fitting">
<polygon fill="#9fb1fc" stroke="#0000ff" points="433.5,-253.25 347.75,-253.25 347.75,-217.25 433.5,-217.25 433.5,-253.25"/>
<text text-anchor="middle" x="390.62" y="-230.2" font-family="Times,serif" font-size="14.00">curve_fitting</text>
</a>
</g>
</g>
<!-- http://www.w3.org/ns/prov#curve_fitting&#45;&gt;http://www.w3.org/ns/prov#data_hunan -->
<g id="edge22" class="edge">
<title>http://www.w3.org/ns/prov#curve_fitting&#45;&gt;http://www.w3.org/ns/prov#data_hunan</title>
<path fill="none" stroke="black" d="M407.43,-253.62C415.74,-262.2 425.92,-272.71 434.99,-282.09"/>
<polygon fill="black" stroke="black" points="432.42,-284.46 441.89,-289.21 437.45,-279.59 432.42,-284.46"/>
<text text-anchor="middle" x="421.98" y="-247.24" font-family="Times,serif" font-size="8.00">use</text>
</g>
<!-- http://www.w3.org/ns/prov#curve_fitting&#45;&gt;http://www.w3.org/ns/prov#data_hubei -->
<g id="edge23" class="edge">
<title>http://www.w3.org/ns/prov#curve_fitting&#45;&gt;http://www.w3.org/ns/prov#data_hubei</title>
<path fill="none" stroke="black" d="M347.27,-253.08C318.99,-264.05 282.18,-278.34 253.74,-289.38"/>
<polygon fill="black" stroke="black" points="252.75,-286.01 244.7,-292.89 255.29,-292.53 252.75,-286.01"/>
<text text-anchor="middle" x="344.98" y="-265.18" font-family="Times,serif" font-size="8.00">use</text>
</g>
<!-- &#45;attrs1 -->
<g id="node4" class="node">
<title>&#45;attrs1</title>
<polygon fill="none" stroke="gray" points="571.62,-181 321.62,-181 321.62,-144.5 577.62,-144.5 577.62,-175 571.62,-181"/>
<polyline fill="none" stroke="gray" points="571.62,-181 571.62,-175"/>
<polyline fill="none" stroke="gray" points="577.62,-175 571.62,-175"/>
<text text-anchor="start" x="331.62" y="-165.5" font-family="Times,serif" font-size="10.00">type:</text>
<text text-anchor="start" x="356.88" y="-165.5" font-family="Times,serif" font-size="10.00">prov:Activity</text>
<text text-anchor="start" x="331.62" y="-152.25" font-family="Times,serif" font-size="10.00">label:</text>
<text text-anchor="start" x="356.88" y="-152.25" font-family="Times,serif" font-size="10.00">Curve Fitting Using Berkeley Madonna and Python</text>
</g>
<!-- &#45;attrs1&#45;&gt;http://www.w3.org/ns/prov#curve_fitting -->
<g id="edge2" class="edge">
<title>&#45;attrs1&#45;&gt;http://www.w3.org/ns/prov#curve_fitting</title>
<path fill="none" stroke="gray" stroke-dasharray="5,2" d="M435.04,-181.18C425.9,-192.1 414.15,-206.13 405.04,-217.02"/>
</g>
<!-- http://www.w3.org/ns/prov#Hunan_Model_Study -->
<g id="node5" class="node">
<title>http://www.w3.org/ns/prov#Hunan_Model_Study</title>
<g id="a_node5"><a xlink:href="http://www.w3.org/ns/prov#Hunan_Model_Study" xlink:title="Hunan_Model_Study">
<ellipse fill="#fffc87" stroke="#808080" cx="456.62" cy="-90.25" rx="90.76" ry="18"/>
<text text-anchor="middle" x="456.62" y="-85.2" font-family="Times,serif" font-size="14.00">Hunan_Model_Study</text>
</a>
</g>
</g>
<!-- http://www.w3.org/ns/prov#beta_ii -->
<g id="node7" class="node">
<title>http://www.w3.org/ns/prov#beta_ii</title>
<g id="a_node7"><a xlink:href="http://www.w3.org/ns/prov#beta_ii" xlink:title="beta_ii">
<ellipse fill="#fffc87" stroke="#808080" cx="267.62" cy="-162.75" rx="36" ry="18"/>
<text text-anchor="middle" x="267.62" y="-157.7" font-family="Times,serif" font-size="14.00">beta_ii</text>
</a>
</g>
</g>
<!-- http://www.w3.org/ns/prov#Hunan_Model_Study&#45;&gt;http://www.w3.org/ns/prov#beta_ii -->
<g id="edge33" class="edge">
<title>http://www.w3.org/ns/prov#Hunan_Model_Study&#45;&gt;http://www.w3.org/ns/prov#beta_ii</title>
<path fill="none" stroke="black" d="M414.67,-106.61C385.92,-117.18 346.92,-131.58 312.62,-144.5 310.57,-145.27 308.46,-146.07 306.34,-146.88"/>
<polygon fill="black" stroke="black" points="305.2,-143.56 297.11,-150.39 307.7,-150.1 305.2,-143.56"/>
</g>
<!-- http://www.w3.org/ns/prov#beta_ji -->
<g id="node9" class="node">
<title>http://www.w3.org/ns/prov#beta_ji</title>
<g id="a_node9"><a xlink:href="http://www.w3.org/ns/prov#beta_ji" xlink:title="beta_ji">
<ellipse fill="#fffc87" stroke="#808080" cx="631.62" cy="-162.75" rx="36" ry="18"/>
<text text-anchor="middle" x="631.62" y="-157.7" font-family="Times,serif" font-size="14.00">beta_ji</text>
</a>
</g>
</g>
<!-- http://www.w3.org/ns/prov#Hunan_Model_Study&#45;&gt;http://www.w3.org/ns/prov#beta_ji -->
<g id="edge36" class="edge">
<title>http://www.w3.org/ns/prov#Hunan_Model_Study&#45;&gt;http://www.w3.org/ns/prov#beta_ji</title>
<path fill="none" stroke="black" d="M495.46,-106.9C524.75,-118.69 564.7,-134.79 593.75,-146.49"/>
<polygon fill="black" stroke="black" points="592.32,-149.69 602.9,-150.18 594.93,-143.2 592.32,-149.69"/>
</g>
<!-- http://www.w3.org/ns/prov#beta_jj -->
<g id="node11" class="node">
<title>http://www.w3.org/ns/prov#beta_jj</title>
<g id="a_node11"><a xlink:href="http://www.w3.org/ns/prov#beta_jj" xlink:title="beta_jj">
<ellipse fill="#fffc87" stroke="#808080" cx="721.62" cy="-162.75" rx="36" ry="18"/>
<text text-anchor="middle" x="721.62" y="-157.7" font-family="Times,serif" font-size="14.00">beta_jj</text>
</a>
</g>
</g>
<!-- http://www.w3.org/ns/prov#Hunan_Model_Study&#45;&gt;http://www.w3.org/ns/prov#beta_jj -->
<g id="edge35" class="edge">
<title>http://www.w3.org/ns/prov#Hunan_Model_Study&#45;&gt;http://www.w3.org/ns/prov#beta_jj</title>
<path fill="none" stroke="black" d="M517.9,-103.86C562.35,-113.55 623.72,-128.03 676.62,-144.5 678.87,-145.2 681.17,-145.95 683.48,-146.74"/>
<polygon fill="black" stroke="black" points="682.2,-150 692.79,-150.09 684.56,-143.41 682.2,-150"/>
</g>
<!-- http://www.w3.org/ns/prov#beta_ij -->
<g id="node13" class="node">
<title>http://www.w3.org/ns/prov#beta_ij</title>
<g id="a_node13"><a xlink:href="http://www.w3.org/ns/prov#beta_ij" xlink:title="beta_ij">
<ellipse fill="#fffc87" stroke="#808080" cx="177.62" cy="-162.75" rx="36" ry="18"/>
<text text-anchor="middle" x="177.62" y="-157.7" font-family="Times,serif" font-size="14.00">beta_ij</text>
</a>
</g>
</g>
<!-- http://www.w3.org/ns/prov#Hunan_Model_Study&#45;&gt;http://www.w3.org/ns/prov#beta_ij -->
<g id="edge34" class="edge">
<title>http://www.w3.org/ns/prov#Hunan_Model_Study&#45;&gt;http://www.w3.org/ns/prov#beta_ij</title>
<path fill="none" stroke="black" d="M392.17,-103.34C344.81,-112.85 279.13,-127.33 222.62,-144.5 220.37,-145.18 218.07,-145.93 215.76,-146.7"/>
<polygon fill="black" stroke="black" points="214.68,-143.37 206.44,-150.03 217.04,-149.97 214.68,-143.37"/>
</g>
<!-- http://www.w3.org/ns/prov#omega -->
<g id="node15" class="node">
<title>http://www.w3.org/ns/prov#omega</title>
<g id="a_node15"><a xlink:href="http://www.w3.org/ns/prov#omega" xlink:title="omega">
<ellipse fill="#fffc87" stroke="#808080" cx="811.62" cy="-162.75" rx="36" ry="18"/>
<text text-anchor="middle" x="811.62" y="-157.7" font-family="Times,serif" font-size="14.00">omega</text>
</a>
</g>
</g>
<!-- http://www.w3.org/ns/prov#Hunan_Model_Study&#45;&gt;http://www.w3.org/ns/prov#omega -->
<g id="edge37" class="edge">
<title>http://www.w3.org/ns/prov#Hunan_Model_Study&#45;&gt;http://www.w3.org/ns/prov#omega</title>
<path fill="none" stroke="black" d="M523.59,-102.81C534.63,-104.71 545.95,-106.66 556.62,-108.5 649.95,-124.55 675.31,-119.43 766.62,-144.5 769.05,-145.17 771.53,-145.91 774.01,-146.71"/>
<polygon fill="black" stroke="black" points="772.76,-149.99 783.36,-149.98 775.07,-143.38 772.76,-149.99"/>
</g>
<!-- &#45;attrs2 -->
<g id="node6" class="node">
<title>&#45;attrs2</title>
<polygon fill="none" stroke="gray" points="504.75,-36 402.5,-36 402.5,0 510.75,0 510.75,-30 504.75,-36"/>
<polyline fill="none" stroke="gray" points="504.75,-36 504.75,-30"/>
<polyline fill="none" stroke="gray" points="510.75,-30 504.75,-30"/>
<text text-anchor="start" x="412.5" y="-14.12" font-family="Times,serif" font-size="10.00">type:</text>
<text text-anchor="start" x="435.5" y="-14.12" font-family="Times,serif" font-size="10.00">prov:Collection</text>
</g>
<!-- &#45;attrs2&#45;&gt;http://www.w3.org/ns/prov#Hunan_Model_Study -->
<g id="edge3" class="edge">
<title>&#45;attrs2&#45;&gt;http://www.w3.org/ns/prov#Hunan_Model_Study</title>
<path fill="none" stroke="gray" stroke-dasharray="5,2" d="M456.62,-36.37C456.62,-47.25 456.62,-61.23 456.62,-72.08"/>
</g>
<!-- http://www.w3.org/ns/prov#beta_ii&#45;&gt;http://www.w3.org/ns/prov#curve_fitting -->
<g id="edge17" class="edge">
<title>http://www.w3.org/ns/prov#beta_ii&#45;&gt;http://www.w3.org/ns/prov#curve_fitting</title>
<path fill="none" stroke="black" d="M290.76,-177.01C307.47,-186.59 330.48,-199.77 350.19,-211.08"/>
<polygon fill="black" stroke="black" points="348.42,-214.1 358.84,-216.03 351.91,-208.02 348.42,-214.1"/>
<text text-anchor="middle" x="303.73" y="-166.74" font-family="Times,serif" font-size="8.00">gen</text>
</g>
<!-- http://www.w3.org/ns/prov#beta_ii&#45;&gt;http://www.w3.org/ns/prov#data_hunan -->
<g id="edge26" class="edge">
<title>http://www.w3.org/ns/prov#beta_ii&#45;&gt;http://www.w3.org/ns/prov#data_hunan</title>
<path fill="none" stroke="black" d="M277.24,-180.33C289.37,-200.03 311.92,-232.83 338.62,-253.5 359.61,-269.75 386.36,-282.18 409.28,-290.92"/>
<polygon fill="black" stroke="black" points="407.82,-294.11 418.42,-294.26 410.23,-287.54 407.82,-294.11"/>
<text text-anchor="middle" x="292.23" y="-177.04" font-family="Times,serif" font-size="8.00">der</text>
</g>
<!-- &#45;attrs3 -->
<g id="node8" class="node">
<title>&#45;attrs3</title>
<polygon fill="none" stroke="gray" points="326.75,-108.5 230.5,-108.5 230.5,-72 332.75,-72 332.75,-102.5 326.75,-108.5"/>
<polyline fill="none" stroke="gray" points="326.75,-108.5 326.75,-102.5"/>
<polyline fill="none" stroke="gray" points="332.75,-102.5 326.75,-102.5"/>
<text text-anchor="start" x="240.5" y="-93" font-family="Times,serif" font-size="10.00">type:</text>
<text text-anchor="start" x="268" y="-93" font-family="Times,serif" font-size="10.00">prov:Entity</text>
<text text-anchor="start" x="240.5" y="-79.75" font-family="Times,serif" font-size="10.00">value:</text>
<text text-anchor="start" x="268" y="-79.75" font-family="Times,serif" font-size="10.00">0.000000001</text>
</g>
<!-- &#45;attrs3&#45;&gt;http://www.w3.org/ns/prov#beta_ii -->
<g id="edge4" class="edge">
<title>&#45;attrs3&#45;&gt;http://www.w3.org/ns/prov#beta_ii</title>
<path fill="none" stroke="gray" stroke-dasharray="5,2" d="M278.16,-108.68C275.99,-119.6 273.21,-133.63 271.05,-144.52"/>
</g>
<!-- http://www.w3.org/ns/prov#beta_ji&#45;&gt;http://www.w3.org/ns/prov#curve_fitting -->
<g id="edge18" class="edge">
<title>http://www.w3.org/ns/prov#beta_ji&#45;&gt;http://www.w3.org/ns/prov#curve_fitting</title>
<path fill="none" stroke="black" d="M604.21,-174.87C598.44,-177.03 592.37,-179.19 586.62,-181 527.03,-199.8 507.97,-198.78 444.92,-216.47"/>
<polygon fill="black" stroke="black" points="444.07,-213.07 435.42,-219.19 445.99,-219.8 444.07,-213.07"/>
<text text-anchor="middle" x="601.72" y="-186.93" font-family="Times,serif" font-size="8.00">gen</text>
</g>
<!-- http://www.w3.org/ns/prov#beta_ji&#45;&gt;http://www.w3.org/ns/prov#data_hunan -->
<g id="edge27" class="edge">
<title>http://www.w3.org/ns/prov#beta_ji&#45;&gt;http://www.w3.org/ns/prov#data_hunan</title>
<path fill="none" stroke="black" d="M632.72,-181.17C632.99,-201.07 630.35,-233.45 612.62,-253.5 589.42,-279.74 552.61,-293 520.79,-299.69"/>
<polygon fill="black" stroke="black" points="520.43,-296.2 511.26,-301.51 521.74,-303.07 520.43,-296.2"/>
<text text-anchor="middle" x="645.69" y="-185.98" font-family="Times,serif" font-size="8.00">der</text>
</g>
<!-- &#45;attrs4 -->
<g id="node10" class="node">
<title>&#45;attrs4</title>
<polygon fill="none" stroke="gray" points="661.75,-108.5 565.5,-108.5 565.5,-72 667.75,-72 667.75,-102.5 661.75,-108.5"/>
<polyline fill="none" stroke="gray" points="661.75,-108.5 661.75,-102.5"/>
<polyline fill="none" stroke="gray" points="667.75,-102.5 661.75,-102.5"/>
<text text-anchor="start" x="575.5" y="-93" font-family="Times,serif" font-size="10.00">type:</text>
<text text-anchor="start" x="603" y="-93" font-family="Times,serif" font-size="10.00">prov:Entity</text>
<text text-anchor="start" x="575.5" y="-79.75" font-family="Times,serif" font-size="10.00">value:</text>
<text text-anchor="start" x="603" y="-79.75" font-family="Times,serif" font-size="10.00">0.000000001</text>
</g>
<!-- &#45;attrs4&#45;&gt;http://www.w3.org/ns/prov#beta_ji -->
<g id="edge5" class="edge">
<title>&#45;attrs4&#45;&gt;http://www.w3.org/ns/prov#beta_ji</title>
<path fill="none" stroke="gray" stroke-dasharray="5,2" d="M620.33,-108.68C622.66,-119.6 625.64,-133.63 627.96,-144.52"/>
</g>
<!-- http://www.w3.org/ns/prov#beta_jj&#45;&gt;http://www.w3.org/ns/prov#curve_fitting -->
<g id="edge19" class="edge">
<title>http://www.w3.org/ns/prov#beta_jj&#45;&gt;http://www.w3.org/ns/prov#curve_fitting</title>
<path fill="none" stroke="black" d="M694.81,-175.1C688.89,-177.3 682.61,-179.41 676.62,-181 578.4,-207.06 547.05,-193.37 444.99,-216.68"/>
<polygon fill="black" stroke="black" points="444.28,-213.25 435.35,-218.95 445.89,-220.06 444.28,-213.25"/>
<text text-anchor="middle" x="692.26" y="-187.16" font-family="Times,serif" font-size="8.00">gen</text>
</g>
<!-- http://www.w3.org/ns/prov#beta_jj&#45;&gt;http://www.w3.org/ns/prov#data_hunan -->
<g id="edge28" class="edge">
<title>http://www.w3.org/ns/prov#beta_jj&#45;&gt;http://www.w3.org/ns/prov#data_hunan</title>
<path fill="none" stroke="black" d="M709.97,-180.13C694.82,-200.25 666.51,-234.09 634.62,-253.5 598.71,-275.36 553.15,-288.75 517.38,-296.61"/>
<polygon fill="black" stroke="black" points="516.69,-293.18 507.62,-298.66 518.13,-300.03 516.69,-293.18"/>
<text text-anchor="middle" x="715.71" y="-191.27" font-family="Times,serif" font-size="8.00">der</text>
</g>
<!-- &#45;attrs5 -->
<g id="node12" class="node">
<title>&#45;attrs5</title>
<polygon fill="none" stroke="gray" points="781.75,-108.5 685.5,-108.5 685.5,-72 787.75,-72 787.75,-102.5 781.75,-108.5"/>
<polyline fill="none" stroke="gray" points="781.75,-108.5 781.75,-102.5"/>
<polyline fill="none" stroke="gray" points="787.75,-102.5 781.75,-102.5"/>
<text text-anchor="start" x="695.5" y="-93" font-family="Times,serif" font-size="10.00">type:</text>
<text text-anchor="start" x="723" y="-93" font-family="Times,serif" font-size="10.00">prov:Entity</text>
<text text-anchor="start" x="695.5" y="-79.75" font-family="Times,serif" font-size="10.00">value:</text>
<text text-anchor="start" x="723" y="-79.75" font-family="Times,serif" font-size="10.00">0.000000001</text>
</g>
<!-- &#45;attrs5&#45;&gt;http://www.w3.org/ns/prov#beta_jj -->
<g id="edge6" class="edge">
<title>&#45;attrs5&#45;&gt;http://www.w3.org/ns/prov#beta_jj</title>
<path fill="none" stroke="gray" stroke-dasharray="5,2" d="M732.92,-108.68C730.59,-119.6 727.61,-133.63 725.29,-144.52"/>
</g>
<!-- http://www.w3.org/ns/prov#beta_ij&#45;&gt;http://www.w3.org/ns/prov#curve_fitting -->
<g id="edge20" class="edge">
<title>http://www.w3.org/ns/prov#beta_ij&#45;&gt;http://www.w3.org/ns/prov#curve_fitting</title>
<path fill="none" stroke="black" d="M205.14,-174.59C210.89,-176.78 216.94,-179.01 222.62,-181 260.51,-194.25 303.68,-207.9 336.77,-218.07"/>
<polygon fill="black" stroke="black" points="335.55,-221.35 346.14,-220.93 337.6,-214.66 335.55,-221.35"/>
<text text-anchor="middle" x="216.75" y="-162.37" font-family="Times,serif" font-size="8.00">gen</text>
</g>
<!-- http://www.w3.org/ns/prov#beta_ij&#45;&gt;http://www.w3.org/ns/prov#data_hunan -->
<g id="edge29" class="edge">
<title>http://www.w3.org/ns/prov#beta_ij&#45;&gt;http://www.w3.org/ns/prov#data_hunan</title>
<path fill="none" stroke="black" d="M201.27,-176.69C218.86,-186.75 243.09,-201.55 262.62,-217 280.74,-231.33 279.93,-241.42 299.62,-253.5 331.35,-272.96 371.07,-286.21 402.88,-294.59"/>
<polygon fill="black" stroke="black" points="401.75,-297.91 412.3,-296.98 403.47,-291.13 401.75,-297.91"/>
<text text-anchor="middle" x="214.26" y="-166.47" font-family="Times,serif" font-size="8.00">der</text>
</g>
<!-- &#45;attrs6 -->
<g id="node14" class="node">
<title>&#45;attrs6</title>
<polygon fill="none" stroke="gray" points="206.75,-108.5 110.5,-108.5 110.5,-72 212.75,-72 212.75,-102.5 206.75,-108.5"/>
<polyline fill="none" stroke="gray" points="206.75,-108.5 206.75,-102.5"/>
<polyline fill="none" stroke="gray" points="212.75,-102.5 206.75,-102.5"/>
<text text-anchor="start" x="120.5" y="-93" font-family="Times,serif" font-size="10.00">type:</text>
<text text-anchor="start" x="148" y="-93" font-family="Times,serif" font-size="10.00">prov:Entity</text>
<text text-anchor="start" x="120.5" y="-79.75" font-family="Times,serif" font-size="10.00">value:</text>
<text text-anchor="start" x="148" y="-79.75" font-family="Times,serif" font-size="10.00">0.000000001</text>
</g>
<!-- &#45;attrs6&#45;&gt;http://www.w3.org/ns/prov#beta_ij -->
<g id="edge7" class="edge">
<title>&#45;attrs6&#45;&gt;http://www.w3.org/ns/prov#beta_ij</title>
<path fill="none" stroke="gray" stroke-dasharray="5,2" d="M165.58,-108.68C168.06,-119.6 171.24,-133.63 173.72,-144.52"/>
</g>
<!-- http://www.w3.org/ns/prov#omega&#45;&gt;http://www.w3.org/ns/prov#curve_fitting -->
<g id="edge21" class="edge">
<title>http://www.w3.org/ns/prov#omega&#45;&gt;http://www.w3.org/ns/prov#curve_fitting</title>
<path fill="none" stroke="black" d="M784.85,-175.29C778.94,-177.48 772.64,-179.54 766.62,-181 629.41,-214.34 586.34,-187.46 445.09,-216.75"/>
<polygon fill="black" stroke="black" points="444.37,-213.33 435.33,-218.84 445.84,-220.17 444.37,-213.33"/>
<text text-anchor="middle" x="782.26" y="-187.34" font-family="Times,serif" font-size="8.00">gen</text>
</g>
<!-- http://www.w3.org/ns/prov#omega&#45;&gt;http://www.w3.org/ns/prov#data_hunan -->
<g id="edge30" class="edge">
<title>http://www.w3.org/ns/prov#omega&#45;&gt;http://www.w3.org/ns/prov#data_hunan</title>
<path fill="none" stroke="black" d="M789.57,-177.48C772.39,-188.2 747.96,-203.49 726.62,-217 701.21,-233.1 697.24,-241.57 669.62,-253.5 620.29,-274.81 560.62,-288.81 517.33,-297.03"/>
<polygon fill="black" stroke="black" points="516.83,-293.57 507.63,-298.83 518.1,-300.45 516.83,-293.57"/>
<text text-anchor="middle" x="790.09" y="-189.75" font-family="Times,serif" font-size="8.00">der</text>
</g>
<!-- http://www.w3.org/ns/prov#ref_lauer -->
<g id="node21" class="node">
<title>http://www.w3.org/ns/prov#ref_lauer</title>
<g id="a_node21"><a xlink:href="http://www.w3.org/ns/prov#ref_lauer" xlink:title="ref_lauer">
<ellipse fill="#fffc87" stroke="#808080" cx="911.62" cy="-235.25" rx="44.19" ry="18"/>
<text text-anchor="middle" x="911.62" y="-230.2" font-family="Times,serif" font-size="14.00">ref_lauer</text>
</a>
</g>
</g>
<!-- http://www.w3.org/ns/prov#omega&#45;&gt;http://www.w3.org/ns/prov#ref_lauer -->
<g id="edge31" class="edge">
<title>http://www.w3.org/ns/prov#omega&#45;&gt;http://www.w3.org/ns/prov#ref_lauer</title>
<path fill="none" stroke="black" d="M831.86,-178.02C846.08,-188.04 865.34,-201.62 881.38,-212.93"/>
<polygon fill="black" stroke="black" points="878.96,-215.5 889.15,-218.4 882.99,-209.78 878.96,-215.5"/>
<text text-anchor="middle" x="845.48" y="-169" font-family="Times,serif" font-size="8.00">der</text>
</g>
<!-- http://www.w3.org/ns/prov#ref_guan -->
<g id="node23" class="node">
<title>http://www.w3.org/ns/prov#ref_guan</title>
<g id="a_node23"><a xlink:href="http://www.w3.org/ns/prov#ref_guan" xlink:title="ref_guan">
<ellipse fill="#fffc87" stroke="#808080" cx="1148.62" cy="-235.25" rx="43.67" ry="18"/>
<text text-anchor="middle" x="1148.62" y="-230.2" font-family="Times,serif" font-size="14.00">ref_guan</text>
</a>
</g>
</g>
<!-- http://www.w3.org/ns/prov#omega&#45;&gt;http://www.w3.org/ns/prov#ref_guan -->
<g id="edge32" class="edge">
<title>http://www.w3.org/ns/prov#omega&#45;&gt;http://www.w3.org/ns/prov#ref_guan</title>
<path fill="none" stroke="black" d="M838.44,-175.12C844.35,-177.31 850.64,-179.42 856.62,-181 960.5,-208.39 991.08,-192.29 1095.62,-217 1098.8,-217.75 1102.06,-218.6 1105.33,-219.52"/>
<polygon fill="black" stroke="black" points="1104.32,-222.87 1114.9,-222.38 1106.32,-216.16 1104.32,-222.87"/>
<text text-anchor="middle" x="849.96" y="-162.79" font-family="Times,serif" font-size="8.00">der</text>
</g>
<!-- &#45;attrs7 -->
<g id="node16" class="node">
<title>&#45;attrs7</title>
<polygon fill="none" stroke="gray" points="895,-108.5 806.25,-108.5 806.25,-72 901,-72 901,-102.5 895,-108.5"/>
<polyline fill="none" stroke="gray" points="895,-108.5 895,-102.5"/>
<polyline fill="none" stroke="gray" points="901,-102.5 895,-102.5"/>
<text text-anchor="start" x="816.25" y="-93" font-family="Times,serif" font-size="10.00">type:</text>
<text text-anchor="start" x="843.75" y="-93" font-family="Times,serif" font-size="10.00">prov:Entity</text>
<text text-anchor="start" x="816.25" y="-79.75" font-family="Times,serif" font-size="10.00">value:</text>
<text text-anchor="start" x="843.75" y="-79.75" font-family="Times,serif" font-size="10.00">0.1429</text>
</g>
<!-- &#45;attrs7&#45;&gt;http://www.w3.org/ns/prov#omega -->
<g id="edge8" class="edge">
<title>&#45;attrs7&#45;&gt;http://www.w3.org/ns/prov#omega</title>
<path fill="none" stroke="gray" stroke-dasharray="5,2" d="M843.24,-108.68C836.64,-119.77 828.13,-134.05 821.6,-145.01"/>
</g>
<!-- &#45;attrs8 -->
<g id="node18" class="node">
<title>&#45;attrs8</title>
<polygon fill="none" stroke="gray" points="597.5,-253.5 451.75,-253.5 451.75,-217 603.5,-217 603.5,-247.5 597.5,-253.5"/>
<polyline fill="none" stroke="gray" points="597.5,-253.5 597.5,-247.5"/>
<polyline fill="none" stroke="gray" points="603.5,-247.5 597.5,-247.5"/>
<text text-anchor="start" x="461.75" y="-238" font-family="Times,serif" font-size="10.00">type:</text>
<text text-anchor="start" x="487" y="-238" font-family="Times,serif" font-size="10.00">prov:Entity</text>
<text text-anchor="start" x="461.75" y="-224.75" font-family="Times,serif" font-size="10.00">label:</text>
<text text-anchor="start" x="487" y="-224.75" font-family="Times,serif" font-size="10.00">Hunan COVID&#45;19 dataset</text>
</g>
<!-- &#45;attrs8&#45;&gt;http://www.w3.org/ns/prov#data_hunan -->
<g id="edge9" class="edge">
<title>&#45;attrs8&#45;&gt;http://www.w3.org/ns/prov#data_hunan</title>
<path fill="none" stroke="gray" stroke-dasharray="5,2" d="M510.21,-253.98C499.35,-265.03 485.47,-279.17 474.85,-289.99"/>
</g>
<!-- &#45;attrs9 -->
<g id="node20" class="node">
<title>&#45;attrs9</title>
<polygon fill="none" stroke="gray" points="141.12,-253.5 2.12,-253.5 2.12,-217 147.12,-217 147.12,-247.5 141.12,-253.5"/>
<polyline fill="none" stroke="gray" points="141.12,-253.5 141.12,-247.5"/>
<polyline fill="none" stroke="gray" points="147.12,-247.5 141.12,-247.5"/>
<text text-anchor="start" x="12.12" y="-238" font-family="Times,serif" font-size="10.00">type:</text>
<text text-anchor="start" x="37.38" y="-238" font-family="Times,serif" font-size="10.00">prov:Entity</text>
<text text-anchor="start" x="12.12" y="-224.75" font-family="Times,serif" font-size="10.00">label:</text>
<text text-anchor="start" x="37.38" y="-224.75" font-family="Times,serif" font-size="10.00">Hubei CDC fatality data</text>
</g>
<!-- &#45;attrs9&#45;&gt;http://www.w3.org/ns/prov#data_hubei -->
<g id="edge10" class="edge">
<title>&#45;attrs9&#45;&gt;http://www.w3.org/ns/prov#data_hubei</title>
<path fill="none" stroke="gray" stroke-dasharray="5,2" d="M108.69,-253.98C131.34,-265.76 160.72,-281.05 181.93,-292.09"/>
</g>
<!-- http://www.w3.org/ns/prov#ref_lauer_authors -->
<g id="node25" class="node">
<title>http://www.w3.org/ns/prov#ref_lauer_authors</title>
<g id="a_node25"><a xlink:href="http://www.w3.org/ns/prov#ref_lauer_authors" xlink:title="ref_lauer_authors">
<polygon fill="#fdb266" stroke="black" points="902.47,-313.06 808.62,-325.5 714.78,-313.06 714.87,-292.94 902.38,-292.94 902.47,-313.06"/>
<text text-anchor="middle" x="808.62" y="-302.45" font-family="Times,serif" font-size="14.00">ref_lauer_authors</text>
</a>
</g>
</g>
<!-- http://www.w3.org/ns/prov#ref_lauer&#45;&gt;http://www.w3.org/ns/prov#ref_lauer_authors -->
<g id="edge15" class="edge">
<title>http://www.w3.org/ns/prov#ref_lauer&#45;&gt;http://www.w3.org/ns/prov#ref_lauer_authors</title>
<path fill="none" stroke="black" d="M889.53,-251.32C874.51,-261.57 854.47,-275.23 838.09,-286.4"/>
<polygon fill="black" stroke="black" points="836.48,-283.27 830.19,-291.79 840.42,-289.05 836.48,-283.27"/>
<text text-anchor="middle" x="890.65" y="-263.55" font-family="Times,serif" font-size="8.00">att</text>
</g>
<!-- &#45;attrs10 -->
<g id="node22" class="node">
<title>&#45;attrs10</title>
<polygon fill="none" stroke="gray" points="973.38,-181 865.88,-181 865.88,-144.5 979.38,-144.5 979.38,-175 973.38,-181"/>
<polyline fill="none" stroke="gray" points="973.38,-181 973.38,-175"/>
<polyline fill="none" stroke="gray" points="979.38,-175 973.38,-175"/>
<text text-anchor="start" x="875.88" y="-165.5" font-family="Times,serif" font-size="10.00">type:</text>
<text text-anchor="start" x="901.12" y="-165.5" font-family="Times,serif" font-size="10.00">prov:Entity</text>
<text text-anchor="start" x="875.88" y="-152.25" font-family="Times,serif" font-size="10.00">label:</text>
<text text-anchor="start" x="901.12" y="-152.25" font-family="Times,serif" font-size="10.00">Lauer et al. 2020</text>
</g>
<!-- &#45;attrs10&#45;&gt;http://www.w3.org/ns/prov#ref_lauer -->
<g id="edge11" class="edge">
<title>&#45;attrs10&#45;&gt;http://www.w3.org/ns/prov#ref_lauer</title>
<path fill="none" stroke="gray" stroke-dasharray="5,2" d="M919.91,-181.18C918.2,-192.1 916.01,-206.13 914.31,-217.02"/>
</g>
<!-- http://www.w3.org/ns/prov#ref_guan_authors -->
<g id="node27" class="node">
<title>http://www.w3.org/ns/prov#ref_guan_authors</title>
<g id="a_node27"><a xlink:href="http://www.w3.org/ns/prov#ref_guan_authors" xlink:title="ref_guan_authors">
<polygon fill="#fdb266" stroke="black" points="1182.83,-313.06 1089.62,-325.5 996.42,-313.06 996.5,-292.94 1182.75,-292.94 1182.83,-313.06"/>
<text text-anchor="middle" x="1089.62" y="-302.45" font-family="Times,serif" font-size="14.00">ref_guan_authors</text>
</a>
</g>
</g>
<!-- http://www.w3.org/ns/prov#ref_guan&#45;&gt;http://www.w3.org/ns/prov#ref_guan_authors -->
<g id="edge16" class="edge">
<title>http://www.w3.org/ns/prov#ref_guan&#45;&gt;http://www.w3.org/ns/prov#ref_guan_authors</title>
<path fill="none" stroke="black" d="M1134.94,-252.54C1127.12,-261.85 1117.2,-273.67 1108.63,-283.87"/>
<polygon fill="black" stroke="black" points="1105.97,-281.6 1102.22,-291.5 1111.33,-286.1 1105.97,-281.6"/>
<text text-anchor="middle" x="1140.06" y="-263.92" font-family="Times,serif" font-size="8.00">att</text>
</g>
<!-- &#45;attrs11 -->
<g id="node24" class="node">
<title>&#45;attrs11</title>
<polygon fill="none" stroke="gray" points="1199,-181 1092.25,-181 1092.25,-144.5 1205,-144.5 1205,-175 1199,-181"/>
<polyline fill="none" stroke="gray" points="1199,-181 1199,-175"/>
<polyline fill="none" stroke="gray" points="1205,-175 1199,-175"/>
<text text-anchor="start" x="1102.25" y="-165.5" font-family="Times,serif" font-size="10.00">type:</text>
<text text-anchor="start" x="1127.5" y="-165.5" font-family="Times,serif" font-size="10.00">prov:Entity</text>
<text text-anchor="start" x="1102.25" y="-152.25" font-family="Times,serif" font-size="10.00">label:</text>
<text text-anchor="start" x="1127.5" y="-152.25" font-family="Times,serif" font-size="10.00">Guan et al. 2020</text>
</g>
<!-- &#45;attrs11&#45;&gt;http://www.w3.org/ns/prov#ref_guan -->
<g id="edge12" class="edge">
<title>&#45;attrs11&#45;&gt;http://www.w3.org/ns/prov#ref_guan</title>
<path fill="none" stroke="gray" stroke-dasharray="5,2" d="M1148.62,-181.18C1148.62,-192.1 1148.62,-206.13 1148.62,-217.02"/>
</g>
<!-- &#45;attrs12 -->
<g id="node26" class="node">
<title>&#45;attrs12</title>
<polygon fill="none" stroke="gray" points="843.38,-253.5 735.88,-253.5 735.88,-217 849.38,-217 849.38,-247.5 843.38,-253.5"/>
<polyline fill="none" stroke="gray" points="843.38,-253.5 843.38,-247.5"/>
<polyline fill="none" stroke="gray" points="849.38,-247.5 843.38,-247.5"/>
<text text-anchor="start" x="745.88" y="-238" font-family="Times,serif" font-size="10.00">type:</text>
<text text-anchor="start" x="771.12" y="-238" font-family="Times,serif" font-size="10.00">prov:Person</text>
<text text-anchor="start" x="745.88" y="-224.75" font-family="Times,serif" font-size="10.00">label:</text>
<text text-anchor="start" x="771.12" y="-224.75" font-family="Times,serif" font-size="10.00">Lauer et al. 2020</text>
</g>
<!-- &#45;attrs12&#45;&gt;http://www.w3.org/ns/prov#ref_lauer_authors -->
<g id="edge13" class="edge">
<title>&#45;attrs12&#45;&gt;http://www.w3.org/ns/prov#ref_lauer_authors</title>
<path fill="none" stroke="gray" stroke-dasharray="5,2" d="M796.66,-253.98C799.4,-266.01 802.97,-281.68 805.5,-292.77"/>
</g>
<!-- &#45;attrs13 -->
<g id="node28" class="node">
<title>&#45;attrs13</title>
<polygon fill="none" stroke="gray" points="1081,-253.5 974.25,-253.5 974.25,-217 1087,-217 1087,-247.5 1081,-253.5"/>
<polyline fill="none" stroke="gray" points="1081,-253.5 1081,-247.5"/>
<polyline fill="none" stroke="gray" points="1087,-247.5 1081,-247.5"/>
<text text-anchor="start" x="984.25" y="-238" font-family="Times,serif" font-size="10.00">type:</text>
<text text-anchor="start" x="1009.5" y="-238" font-family="Times,serif" font-size="10.00">prov:Person</text>
<text text-anchor="start" x="984.25" y="-224.75" font-family="Times,serif" font-size="10.00">label:</text>
<text text-anchor="start" x="1009.5" y="-224.75" font-family="Times,serif" font-size="10.00">Guan et al. 2020</text>
</g>
<!-- &#45;attrs13&#45;&gt;http://www.w3.org/ns/prov#ref_guan_authors -->
<g id="edge14" class="edge">
<title>&#45;attrs13&#45;&gt;http://www.w3.org/ns/prov#ref_guan_authors</title>
<path fill="none" stroke="gray" stroke-dasharray="5,2" d="M1045.51,-253.98C1055.62,-266.01 1068.78,-281.68 1078.09,-292.77"/>
</g>
</g>
</svg>
