<?xml version="1.0" encoding="UTF-8" standalone="no"?>
<!DOCTYPE svg PUBLIC "-//W3C//DTD SVG 1.1//EN"
 "http://www.w3.org/Graphics/SVG/1.1/DTD/svg11.dtd">
<!-- Generated by graphviz version 12.2.1 (20241206.2353)
 -->
<!-- Title: PROV Pages: 1 -->
<svg width="827pt" height="334pt"
 viewBox="0.00 0.00 826.53 333.50" xmlns="http://www.w3.org/2000/svg" xmlns:xlink="http://www.w3.org/1999/xlink">
<g id="graph0" class="graph" transform="scale(1 1) rotate(0) translate(4 329.5)">
<title>PROV</title>
<polygon fill="white" stroke="none" points="-4,4 -4,-329.5 822.53,-329.5 822.53,4 -4,4"/>
<!-- http://www.provbook.orgSlicing -->
<g id="node1" class="node">
<title>http://www.provbook.orgSlicing</title>
<g id="a_node1"><a xlink:href="http://www.provbook.orgSlicing" xlink:title="Slicing">
<polygon fill="#9fb1fc" stroke="#0000ff" points="277.65,-180.75 223.4,-180.75 223.4,-144.75 277.65,-144.75 277.65,-180.75"/>
<text text-anchor="middle" x="250.53" y="-157.7" font-family="Times,serif" font-size="14.00">Slicing</text>
</a>
</g>
</g>
<!-- http://www.provbook.orgSAIUGR -->
<g id="node4" class="node">
<title>http://www.provbook.orgSAIUGR</title>
<g id="a_node4"><a xlink:href="http://www.provbook.orgSAIUGR" xlink:title="SAIUGR">
<ellipse fill="#fffc87" stroke="#808080" cx="383.53" cy="-235.25" rx="45.21" ry="18"/>
<text text-anchor="middle" x="383.53" y="-230.2" font-family="Times,serif" font-size="14.00">SAIUGR</text>
</a>
</g>
</g>
<!-- http://www.provbook.orgSlicing&#45;&gt;http://www.provbook.orgSAIUGR -->
<g id="edge5" class="edge">
<title>http://www.provbook.orgSlicing&#45;&gt;http://www.provbook.orgSAIUGR</title>
<path fill="none" stroke="black" d="M278.08,-178.36C298.18,-189.01 325.61,-203.55 347.46,-215.13"/>
<polygon fill="black" stroke="black" points="345.55,-218.08 356.03,-219.67 348.83,-211.9 345.55,-218.08"/>
<text text-anchor="middle" x="290.8" y="-167.67" font-family="Times,serif" font-size="8.00">use</text>
</g>
<!-- http://www.provbook.orgGEODES_Epimodel -->
<g id="node11" class="node">
<title>http://www.provbook.orgGEODES_Epimodel</title>
<g id="a_node11"><a xlink:href="http://www.provbook.orgGEODES_Epimodel" xlink:title="GEODES_Epimodel">
<polygon fill="#fdb266" stroke="black" points="312.55,-240.81 203.53,-253.25 94.5,-240.81 94.61,-220.69 312.45,-220.69 312.55,-240.81"/>
<text text-anchor="middle" x="203.53" y="-230.2" font-family="Times,serif" font-size="14.00">GEODES_Epimodel</text>
</a>
</g>
</g>
<!-- http://www.provbook.orgSlicing&#45;&gt;http://www.provbook.orgGEODES_Epimodel -->
<g id="edge7" class="edge">
<title>http://www.provbook.orgSlicing&#45;&gt;http://www.provbook.orgGEODES_Epimodel</title>
<path fill="none" stroke="black" d="M238.91,-181.18C232.94,-190.13 225.58,-201.18 219.12,-210.86"/>
<polygon fill="black" stroke="black" points="216.28,-208.81 213.65,-219.07 222.11,-212.69 216.28,-208.81"/>
<text text-anchor="middle" x="245.56" y="-191.9" font-family="Times,serif" font-size="8.00">assoc</text>
</g>
<!-- http://www.provbook.orgEstimated -->
<g id="node2" class="node">
<title>http://www.provbook.orgEstimated</title>
<g id="a_node2"><a xlink:href="http://www.provbook.orgEstimated" xlink:title="Estimated">
<ellipse fill="#fffc87" stroke="#808080" cx="149.53" cy="-90.5" rx="48.28" ry="18"/>
<text text-anchor="middle" x="149.53" y="-85.45" font-family="Times,serif" font-size="14.00">Estimated</text>
</a>
</g>
</g>
<!-- http://www.provbook.orgEstimated&#45;&gt;http://www.provbook.orgSlicing -->
<g id="edge6" class="edge">
<title>http://www.provbook.orgEstimated&#45;&gt;http://www.provbook.orgSlicing</title>
<path fill="none" stroke="black" d="M171.44,-106.74C184.48,-115.81 201.32,-127.52 216.1,-137.8"/>
<polygon fill="black" stroke="black" points="214,-140.61 224.21,-143.45 218,-134.86 214,-140.61"/>
<text text-anchor="middle" x="185.02" y="-97.64" font-family="Times,serif" font-size="8.00">gen</text>
</g>
<!-- http://www.provbook.orgbeta -->
<g id="node6" class="node">
<title>http://www.provbook.orgbeta</title>
<g id="a_node6"><a xlink:href="http://www.provbook.orgbeta" xlink:title="beta">
<ellipse fill="#fffc87" stroke="#808080" cx="409.53" cy="-307.5" rx="27" ry="18"/>
<text text-anchor="middle" x="409.53" y="-302.45" font-family="Times,serif" font-size="14.00">beta</text>
</a>
</g>
</g>
<!-- http://www.provbook.orgEstimated&#45;&gt;http://www.provbook.orgbeta -->
<g id="edge8" class="edge">
<title>http://www.provbook.orgEstimated&#45;&gt;http://www.provbook.orgbeta</title>
<path fill="none" stroke="black" d="M198.22,-91.43C284.88,-92.46 460.38,-100.12 498.53,-144.5 537.16,-189.44 473.73,-253.86 435.39,-286.26"/>
<polygon fill="black" stroke="black" points="433.38,-283.38 427.89,-292.44 437.83,-288.78 433.38,-283.38"/>
</g>
<!-- http://www.provbook.orgetaI -->
<g id="node7" class="node">
<title>http://www.provbook.orgetaI</title>
<g id="a_node7"><a xlink:href="http://www.provbook.orgetaI" xlink:title="etaI">
<ellipse fill="#fffc87" stroke="#808080" cx="791.53" cy="-307.5" rx="27" ry="18"/>
<text text-anchor="middle" x="791.53" y="-302.45" font-family="Times,serif" font-size="14.00">etaI</text>
</a>
</g>
</g>
<!-- http://www.provbook.orgEstimated&#45;&gt;http://www.provbook.orgetaI -->
<g id="edge9" class="edge">
<title>http://www.provbook.orgEstimated&#45;&gt;http://www.provbook.orgetaI</title>
<path fill="none" stroke="black" d="M197.79,-92.96C335.57,-98.27 725.62,-121.6 799.53,-217 813.04,-234.44 809.18,-259.93 803.02,-279.25"/>
<polygon fill="black" stroke="black" points="799.73,-278.06 799.64,-288.66 806.31,-280.43 799.73,-278.06"/>
</g>
<!-- http://www.provbook.orgetaU -->
<g id="node8" class="node">
<title>http://www.provbook.orgetaU</title>
<g id="a_node8"><a xlink:href="http://www.provbook.orgetaU" xlink:title="etaU">
<ellipse fill="#fffc87" stroke="#808080" cx="37.53" cy="-307.5" rx="28.32" ry="18"/>
<text text-anchor="middle" x="37.53" y="-302.45" font-family="Times,serif" font-size="14.00">etaU</text>
</a>
</g>
</g>
<!-- http://www.provbook.orgEstimated&#45;&gt;http://www.provbook.orgetaU -->
<g id="edge10" class="edge">
<title>http://www.provbook.orgEstimated&#45;&gt;http://www.provbook.orgetaU</title>
<path fill="none" stroke="black" d="M103.52,-96.49C72.8,-102.47 34.51,-115.61 14.53,-144.5 -13.62,-185.18 7.17,-245.49 23.35,-279.89"/>
<polygon fill="black" stroke="black" points="20.14,-281.3 27.7,-288.73 26.42,-278.21 20.14,-281.3"/>
</g>
<!-- http://www.provbook.orggammaI -->
<g id="node9" class="node">
<title>http://www.provbook.orggammaI</title>
<g id="a_node9"><a xlink:href="http://www.provbook.orggammaI" xlink:title="gammaI">
<ellipse fill="#fffc87" stroke="#808080" cx="175.53" cy="-307.5" rx="42.14" ry="18"/>
<text text-anchor="middle" x="175.53" y="-302.45" font-family="Times,serif" font-size="14.00">gammaI</text>
</a>
</g>
</g>
<!-- http://www.provbook.orgEstimated&#45;&gt;http://www.provbook.orggammaI -->
<g id="edge11" class="edge">
<title>http://www.provbook.orgEstimated&#45;&gt;http://www.provbook.orggammaI</title>
<path fill="none" stroke="black" d="M106.96,-99.42C81.53,-106.58 51.2,-119.93 35.53,-144.5 9.47,-185.34 8,-213.64 35.53,-253.5 55.13,-281.88 92.03,-295.08 123.02,-301.21"/>
<polygon fill="black" stroke="black" points="122.19,-304.61 132.64,-302.9 123.4,-297.72 122.19,-304.61"/>
</g>
<!-- http://www.provbook.orggammaU -->
<g id="node10" class="node">
<title>http://www.provbook.orggammaU</title>
<g id="a_node10"><a xlink:href="http://www.provbook.orggammaU" xlink:title="gammaU">
<ellipse fill="#fffc87" stroke="#808080" cx="306.53" cy="-307.5" rx="45.72" ry="18"/>
<text text-anchor="middle" x="306.53" y="-302.45" font-family="Times,serif" font-size="14.00">gammaU</text>
</a>
</g>
</g>
<!-- http://www.provbook.orgEstimated&#45;&gt;http://www.provbook.orggammaU -->
<g id="edge12" class="edge">
<title>http://www.provbook.orgEstimated&#45;&gt;http://www.provbook.orggammaU</title>
<path fill="none" stroke="black" d="M116.68,-104.11C99.31,-112.67 79.54,-125.86 69.53,-144.5 56.06,-169.57 82.97,-250.89 85.53,-253.5 91.57,-259.66 192.62,-282.16 255.96,-295.79"/>
<polygon fill="black" stroke="black" points="254.94,-299.15 265.46,-297.82 256.41,-292.3 254.94,-299.15"/>
</g>
<!-- &#45;attrs0 -->
<g id="node3" class="node">
<title>&#45;attrs0</title>
<polygon fill="none" stroke="gray" points="206.65,-36.5 86.4,-36.5 86.4,0 212.65,0 212.65,-30.5 206.65,-36.5"/>
<polyline fill="none" stroke="gray" points="206.65,-36.5 206.65,-30.5"/>
<polyline fill="none" stroke="gray" points="212.65,-30.5 206.65,-30.5"/>
<text text-anchor="start" x="96.4" y="-21" font-family="Times,serif" font-size="10.00">type:</text>
<text text-anchor="start" x="121.65" y="-21" font-family="Times,serif" font-size="10.00">prov:Collection</text>
<text text-anchor="start" x="96.4" y="-7.75" font-family="Times,serif" font-size="10.00">label:</text>
<text text-anchor="start" x="121.65" y="-7.75" font-family="Times,serif" font-size="10.00">Fragment Estimated</text>
</g>
<!-- &#45;attrs0&#45;&gt;http://www.provbook.orgEstimated -->
<g id="edge1" class="edge">
<title>&#45;attrs0&#45;&gt;http://www.provbook.orgEstimated</title>
<path fill="none" stroke="gray" stroke-dasharray="5,2" d="M149.53,-36.98C149.53,-47.71 149.53,-61.34 149.53,-72.02"/>
</g>
<!-- http://www.provbook.orgSAIUGR&#45;&gt;http://www.provbook.orgbeta -->
<g id="edge13" class="edge">
<title>http://www.provbook.orgSAIUGR&#45;&gt;http://www.provbook.orgbeta</title>
<path fill="none" stroke="black" d="M389.82,-253.26C392.7,-261.02 396.17,-270.41 399.4,-279.14"/>
<polygon fill="black" stroke="black" points="396.01,-280.07 402.77,-288.23 402.58,-277.64 396.01,-280.07"/>
</g>
<!-- http://www.provbook.orgSAIUGR&#45;&gt;http://www.provbook.orgetaI -->
<g id="edge15" class="edge">
<title>http://www.provbook.orgSAIUGR&#45;&gt;http://www.provbook.orgetaI</title>
<path fill="none" stroke="black" d="M425.57,-242.35C511.78,-254.91 703.01,-283.02 732.53,-289.5 740.29,-291.2 748.54,-293.36 756.33,-295.55"/>
<polygon fill="black" stroke="black" points="755.28,-298.89 765.86,-298.33 757.24,-292.17 755.28,-298.89"/>
</g>
<!-- http://www.provbook.orgSAIUGR&#45;&gt;http://www.provbook.orgetaU -->
<g id="edge16" class="edge">
<title>http://www.provbook.orgSAIUGR&#45;&gt;http://www.provbook.orgetaU</title>
<path fill="none" stroke="black" d="M347.93,-246.75C339.33,-249.12 330.13,-251.52 321.53,-253.5 234.79,-273.45 211.98,-272.97 124.53,-289.5 108.5,-292.53 90.83,-295.97 75.63,-298.95"/>
<polygon fill="black" stroke="black" points="75.17,-295.47 66.04,-300.84 76.52,-302.34 75.17,-295.47"/>
</g>
<!-- http://www.provbook.orgSAIUGR&#45;&gt;http://www.provbook.orggammaI -->
<g id="edge17" class="edge">
<title>http://www.provbook.orgSAIUGR&#45;&gt;http://www.provbook.orggammaI</title>
<path fill="none" stroke="black" d="M350.11,-247.54C314.39,-259.6 257.64,-278.77 218.6,-291.95"/>
<polygon fill="black" stroke="black" points="217.62,-288.59 209.27,-295.1 219.86,-295.22 217.62,-288.59"/>
</g>
<!-- http://www.provbook.orgSAIUGR&#45;&gt;http://www.provbook.orggammaU -->
<g id="edge18" class="edge">
<title>http://www.provbook.orgSAIUGR&#45;&gt;http://www.provbook.orggammaU</title>
<path fill="none" stroke="black" d="M366.05,-252.19C356.11,-261.26 343.47,-272.8 332.39,-282.9"/>
<polygon fill="black" stroke="black" points="330.08,-280.28 325.05,-289.6 334.8,-285.45 330.08,-280.28"/>
</g>
<!-- http://www.provbook.orgSAIUGR_AUTHORS -->
<g id="node13" class="node">
<title>http://www.provbook.orgSAIUGR_AUTHORS</title>
<g id="a_node13"><a xlink:href="http://www.provbook.orgSAIUGR_AUTHORS" xlink:title="SAIUGR_AUTHORS">
<polygon fill="#fdb266" stroke="black" points="723.88,-313.06 608.53,-325.5 493.18,-313.06 493.29,-292.94 723.77,-292.94 723.88,-313.06"/>
<text text-anchor="middle" x="608.53" y="-302.45" font-family="Times,serif" font-size="14.00">SAIUGR_AUTHORS</text>
</a>
</g>
</g>
<!-- http://www.provbook.orgSAIUGR&#45;&gt;http://www.provbook.orgSAIUGR_AUTHORS -->
<g id="edge14" class="edge">
<title>http://www.provbook.orgSAIUGR&#45;&gt;http://www.provbook.orgSAIUGR_AUTHORS</title>
<path fill="none" stroke="black" d="M418.19,-247.07C454.06,-258.27 510.64,-275.94 552.8,-289.1"/>
<polygon fill="black" stroke="black" points="551.7,-292.42 562.29,-292.06 553.79,-285.74 551.7,-292.42"/>
<text text-anchor="middle" x="429.22" y="-234.18" font-family="Times,serif" font-size="8.00">att</text>
</g>
<!-- &#45;attrs1 -->
<g id="node5" class="node">
<title>&#45;attrs1</title>
<polygon fill="none" stroke="gray" points="483.4,-181 295.65,-181 295.65,-144.5 489.4,-144.5 489.4,-175 483.4,-181"/>
<polyline fill="none" stroke="gray" points="483.4,-181 483.4,-175"/>
<polyline fill="none" stroke="gray" points="489.4,-175 483.4,-175"/>
<text text-anchor="start" x="305.65" y="-165.5" font-family="Times,serif" font-size="10.00">type:</text>
<text text-anchor="start" x="333.15" y="-165.5" font-family="Times,serif" font-size="10.00">prov:Collection</text>
<text text-anchor="start" x="305.65" y="-152.25" font-family="Times,serif" font-size="10.00">value:</text>
<text text-anchor="start" x="333.15" y="-152.25" font-family="Times,serif" font-size="10.00">A little provenance goes a long way</text>
</g>
<!-- &#45;attrs1&#45;&gt;http://www.provbook.orgSAIUGR -->
<g id="edge2" class="edge">
<title>&#45;attrs1&#45;&gt;http://www.provbook.orgSAIUGR</title>
<path fill="none" stroke="gray" stroke-dasharray="5,2" d="M390.3,-181.18C388.91,-192.1 387.12,-206.13 385.73,-217.02"/>
</g>
<!-- &#45;attrs2 -->
<g id="node12" class="node">
<title>&#45;attrs2</title>
<polygon fill="none" stroke="gray" points="199.03,-180.75 78.03,-180.75 78.03,-144.75 205.03,-144.75 205.03,-174.75 199.03,-180.75"/>
<polyline fill="none" stroke="gray" points="199.03,-180.75 199.03,-174.75"/>
<polyline fill="none" stroke="gray" points="205.03,-174.75 199.03,-174.75"/>
<text text-anchor="start" x="88.03" y="-158.88" font-family="Times,serif" font-size="10.00">label:</text>
<text text-anchor="start" x="113.28" y="-158.88" font-family="Times,serif" font-size="10.00">GEODES Epimodel</text>
</g>
<!-- &#45;attrs2&#45;&gt;http://www.provbook.orgGEODES_Epimodel -->
<g id="edge3" class="edge">
<title>&#45;attrs2&#45;&gt;http://www.provbook.orgGEODES_Epimodel</title>
<path fill="none" stroke="gray" stroke-dasharray="5,2" d="M156.85,-181.18C167.47,-193.25 181.41,-209.1 191.28,-220.33"/>
</g>
<!-- &#45;attrs3 -->
<g id="node14" class="node">
<title>&#45;attrs3</title>
<polygon fill="none" stroke="gray" points="784.65,-253.5 514.4,-253.5 514.4,-217 790.65,-217 790.65,-247.5 784.65,-253.5"/>
<polyline fill="none" stroke="gray" points="784.65,-253.5 784.65,-247.5"/>
<polyline fill="none" stroke="gray" points="790.65,-247.5 784.65,-247.5"/>
<text text-anchor="start" x="524.4" y="-238" font-family="Times,serif" font-size="10.00">type:</text>
<text text-anchor="start" x="576.65" y="-238" font-family="Times,serif" font-size="10.00">prov:Person</text>
<text text-anchor="start" x="524.4" y="-224.75" font-family="Times,serif" font-size="10.00">givenName:</text>
<text text-anchor="start" x="576.65" y="-224.75" font-family="Times,serif" font-size="10.00">Ambalarajan, V., Mallela, A.R., Sivakumar, V. et al</text>
</g>
<!-- &#45;attrs3&#45;&gt;http://www.provbook.orgSAIUGR_AUTHORS -->
<g id="edge4" class="edge">
<title>&#45;attrs3&#45;&gt;http://www.provbook.orgSAIUGR_AUTHORS</title>
<path fill="none" stroke="gray" stroke-dasharray="5,2" d="M641.42,-253.98C633.89,-266.01 624.07,-281.68 617.13,-292.77"/>
</g>
</g>
</svg>
