<?xml version="1.0" encoding="UTF-8" standalone="no"?>
<!DOCTYPE svg PUBLIC "-//W3C//DTD SVG 1.1//EN"
 "http://www.w3.org/Graphics/SVG/1.1/DTD/svg11.dtd">
<!-- Generated by graphviz version 12.2.1 (20241206.2353)
 -->
<!-- Title: PROV Pages: 1 -->
<svg width="1152pt" height="611pt"
 viewBox="0.00 0.00 1152.00 610.90" xmlns="http://www.w3.org/2000/svg" xmlns:xlink="http://www.w3.org/1999/xlink">
<g id="graph0" class="graph" transform="scale(0.981365 0.981365) rotate(0) translate(4 618.5)">
<title>PROV</title>
<polygon fill="white" stroke="none" points="-4,4 -4,-618.5 1169.88,-618.5 1169.88,4 -4,4"/>
<!-- http://www.provbook.orgSlicing -->
<g id="node1" class="node">
<title>http://www.provbook.orgSlicing</title>
<g id="a_node1"><a xlink:href="http://www.provbook.orgSlicing" xlink:title="Slicing">
<polygon fill="#9fb1fc" stroke="#0000ff" points="621.88,-180.75 567.62,-180.75 567.62,-144.75 621.88,-144.75 621.88,-180.75"/>
<text text-anchor="middle" x="594.75" y="-157.7" font-family="Times,serif" font-size="14.00">Slicing</text>
</a>
</g>
</g>
<!-- http://www.provbook.orgSAIUGR -->
<g id="node4" class="node">
<title>http://www.provbook.orgSAIUGR</title>
<g id="a_node4"><a xlink:href="http://www.provbook.orgSAIUGR" xlink:title="SAIUGR">
<ellipse fill="#fffc87" stroke="#808080" cx="719.75" cy="-235.25" rx="45.21" ry="18"/>
<text text-anchor="middle" x="719.75" y="-230.2" font-family="Times,serif" font-size="14.00">SAIUGR</text>
</a>
</g>
</g>
<!-- http://www.provbook.orgSlicing&#45;&gt;http://www.provbook.orgSAIUGR -->
<g id="edge10" class="edge">
<title>http://www.provbook.orgSlicing&#45;&gt;http://www.provbook.orgSAIUGR</title>
<path fill="none" stroke="black" d="M622.18,-179.22C640.54,-189.58 664.87,-203.3 684.64,-214.45"/>
<polygon fill="black" stroke="black" points="682.76,-217.41 693.19,-219.27 686.2,-211.31 682.76,-217.41"/>
<text text-anchor="middle" x="635.1" y="-168.87" font-family="Times,serif" font-size="8.00">use</text>
</g>
<!-- http://www.provbook.orgGEODES_Epimodel -->
<g id="node16" class="node">
<title>http://www.provbook.orgGEODES_Epimodel</title>
<g id="a_node16"><a xlink:href="http://www.provbook.orgGEODES_Epimodel" xlink:title="GEODES_Epimodel">
<polygon fill="#fdb266" stroke="black" points="648.77,-240.81 539.75,-253.25 430.73,-240.81 430.83,-220.69 648.67,-220.69 648.77,-240.81"/>
<text text-anchor="middle" x="539.75" y="-230.2" font-family="Times,serif" font-size="14.00">GEODES_Epimodel</text>
</a>
</g>
</g>
<!-- http://www.provbook.orgSlicing&#45;&gt;http://www.provbook.orgGEODES_Epimodel -->
<g id="edge12" class="edge">
<title>http://www.provbook.orgSlicing&#45;&gt;http://www.provbook.orgGEODES_Epimodel</title>
<path fill="none" stroke="black" d="M581.15,-181.18C574.02,-190.32 565.19,-201.64 557.52,-211.47"/>
<polygon fill="black" stroke="black" points="554.93,-209.1 551.54,-219.13 560.45,-213.4 554.93,-209.1"/>
<text text-anchor="middle" x="586.78" y="-192.36" font-family="Times,serif" font-size="8.00">assoc</text>
</g>
<!-- http://www.provbook.orgRef12 -->
<g id="node2" class="node">
<title>http://www.provbook.orgRef12</title>
<g id="a_node2"><a xlink:href="http://www.provbook.orgRef12" xlink:title="Ref12">
<ellipse fill="#fffc87" stroke="#808080" cx="493.75" cy="-90.5" rx="33.44" ry="18"/>
<text text-anchor="middle" x="493.75" y="-85.45" font-family="Times,serif" font-size="14.00">Ref12</text>
</a>
</g>
</g>
<!-- http://www.provbook.orgRef12&#45;&gt;http://www.provbook.orgSlicing -->
<g id="edge11" class="edge">
<title>http://www.provbook.orgRef12&#45;&gt;http://www.provbook.orgSlicing</title>
<path fill="none" stroke="black" d="M513.7,-105.38C527.03,-114.65 544.91,-127.09 560.49,-137.92"/>
<polygon fill="black" stroke="black" points="558.37,-140.71 568.58,-143.55 562.37,-134.97 558.37,-140.71"/>
<text text-anchor="middle" x="527.28" y="-96.27" font-family="Times,serif" font-size="8.00">gen</text>
</g>
<!-- http://www.provbook.orgmuI -->
<g id="node6" class="node">
<title>http://www.provbook.orgmuI</title>
<g id="a_node6"><a xlink:href="http://www.provbook.orgmuI" xlink:title="muI">
<ellipse fill="#fffc87" stroke="#808080" cx="681.75" cy="-307.5" rx="27" ry="18"/>
<text text-anchor="middle" x="681.75" y="-302.45" font-family="Times,serif" font-size="14.00">muI</text>
</a>
</g>
</g>
<!-- http://www.provbook.orgRef12&#45;&gt;http://www.provbook.orgmuI -->
<g id="edge13" class="edge">
<title>http://www.provbook.orgRef12&#45;&gt;http://www.provbook.orgmuI</title>
<path fill="none" stroke="black" d="M466.55,-101.45C448,-109.83 424.86,-123.8 413.75,-144.5 403.04,-164.44 412.8,-244.1 421.75,-253.5 491.27,-326.54 549.43,-259.68 645.75,-289.5 647.36,-290 648.99,-290.56 650.62,-291.16"/>
<polygon fill="black" stroke="black" points="649.24,-294.37 659.81,-295 651.94,-287.91 649.24,-294.37"/>
</g>
<!-- http://www.provbook.orgmuU -->
<g id="node7" class="node">
<title>http://www.provbook.orgmuU</title>
<g id="a_node7"><a xlink:href="http://www.provbook.orgmuU" xlink:title="muU">
<ellipse fill="#fffc87" stroke="#808080" cx="756.75" cy="-307.5" rx="29.86" ry="18"/>
<text text-anchor="middle" x="756.75" y="-302.45" font-family="Times,serif" font-size="14.00">muU</text>
</a>
</g>
</g>
<!-- http://www.provbook.orgRef12&#45;&gt;http://www.provbook.orgmuU -->
<g id="edge14" class="edge">
<title>http://www.provbook.orgRef12&#45;&gt;http://www.provbook.orgmuU</title>
<path fill="none" stroke="black" d="M527.51,-91.31C606.99,-91.66 802.25,-97.39 842.75,-144.5 880.8,-188.76 820.27,-252.7 782.82,-285.44"/>
<polygon fill="black" stroke="black" points="780.81,-282.55 775.47,-291.7 785.35,-287.88 780.81,-282.55"/>
</g>
<!-- http://www.provbook.orgmuG -->
<g id="node8" class="node">
<title>http://www.provbook.orgmuG</title>
<g id="a_node8"><a xlink:href="http://www.provbook.orgmuG" xlink:title="muG">
<ellipse fill="#fffc87" stroke="#808080" cx="606.75" cy="-307.5" rx="29.86" ry="18"/>
<text text-anchor="middle" x="606.75" y="-302.45" font-family="Times,serif" font-size="14.00">muG</text>
</a>
</g>
</g>
<!-- http://www.provbook.orgRef12&#45;&gt;http://www.provbook.orgmuG -->
<g id="edge15" class="edge">
<title>http://www.provbook.orgRef12&#45;&gt;http://www.provbook.orgmuG</title>
<path fill="none" stroke="black" d="M461.96,-96.66C434.92,-102.91 397.71,-116.35 379.75,-144.5 353.7,-185.34 349.64,-215.55 379.75,-253.5 402.57,-282.26 507.03,-296.87 565.97,-302.95"/>
<polygon fill="black" stroke="black" points="565.32,-306.4 575.61,-303.9 566,-299.43 565.32,-306.4"/>
</g>
<!-- &#45;attrs0 -->
<g id="node3" class="node">
<title>&#45;attrs0</title>
<polygon fill="none" stroke="gray" points="543,-36.5 438.5,-36.5 438.5,0 549,0 549,-30.5 543,-36.5"/>
<polyline fill="none" stroke="gray" points="543,-36.5 543,-30.5"/>
<polyline fill="none" stroke="gray" points="549,-30.5 543,-30.5"/>
<text text-anchor="start" x="448.5" y="-21" font-family="Times,serif" font-size="10.00">type:</text>
<text text-anchor="start" x="473.75" y="-21" font-family="Times,serif" font-size="10.00">prov:Collection</text>
<text text-anchor="start" x="448.5" y="-7.75" font-family="Times,serif" font-size="10.00">label:</text>
<text text-anchor="start" x="473.75" y="-7.75" font-family="Times,serif" font-size="10.00">Fragment Ref12</text>
</g>
<!-- &#45;attrs0&#45;&gt;http://www.provbook.orgRef12 -->
<g id="edge1" class="edge">
<title>&#45;attrs0&#45;&gt;http://www.provbook.orgRef12</title>
<path fill="none" stroke="gray" stroke-dasharray="5,2" d="M493.75,-36.98C493.75,-47.71 493.75,-61.34 493.75,-72.02"/>
</g>
<!-- http://www.provbook.orgSAIUGR&#45;&gt;http://www.provbook.orgmuI -->
<g id="edge16" class="edge">
<title>http://www.provbook.orgSAIUGR&#45;&gt;http://www.provbook.orgmuI</title>
<path fill="none" stroke="black" d="M710.55,-253.26C706.19,-261.31 700.89,-271.12 696.03,-280.11"/>
<polygon fill="black" stroke="black" points="693,-278.34 691.32,-288.8 699.16,-281.67 693,-278.34"/>
</g>
<!-- http://www.provbook.orgSAIUGR&#45;&gt;http://www.provbook.orgmuU -->
<g id="edge19" class="edge">
<title>http://www.provbook.orgSAIUGR&#45;&gt;http://www.provbook.orgmuU</title>
<path fill="none" stroke="black" d="M728.71,-253.26C732.95,-261.31 738.11,-271.12 742.85,-280.11"/>
<polygon fill="black" stroke="black" points="739.67,-281.58 747.43,-288.8 745.86,-278.32 739.67,-281.58"/>
</g>
<!-- http://www.provbook.orgSAIUGR&#45;&gt;http://www.provbook.orgmuG -->
<g id="edge21" class="edge">
<title>http://www.provbook.orgSAIUGR&#45;&gt;http://www.provbook.orgmuG</title>
<path fill="none" stroke="black" d="M696.06,-250.98C678.81,-261.7 655.3,-276.32 636.74,-287.86"/>
<polygon fill="black" stroke="black" points="634.93,-284.86 628.29,-293.11 638.63,-290.8 634.93,-284.86"/>
</g>
<!-- http://www.provbook.orgSAIUGR_AUTHORS -->
<g id="node18" class="node">
<title>http://www.provbook.orgSAIUGR_AUTHORS</title>
<g id="a_node18"><a xlink:href="http://www.provbook.orgSAIUGR_AUTHORS" xlink:title="SAIUGR_AUTHORS">
<polygon fill="#fdb266" stroke="black" points="1099.1,-313.06 983.75,-325.5 868.4,-313.06 868.51,-292.94 1098.99,-292.94 1099.1,-313.06"/>
<text text-anchor="middle" x="983.75" y="-302.45" font-family="Times,serif" font-size="14.00">SAIUGR_AUTHORS</text>
</a>
</g>
</g>
<!-- http://www.provbook.orgSAIUGR&#45;&gt;http://www.provbook.orgSAIUGR_AUTHORS -->
<g id="edge17" class="edge">
<title>http://www.provbook.orgSAIUGR&#45;&gt;http://www.provbook.orgSAIUGR_AUTHORS</title>
<path fill="none" stroke="black" d="M756.74,-246.09C799.04,-257.35 869.05,-275.98 920.15,-289.58"/>
<polygon fill="black" stroke="black" points="919.05,-292.91 929.62,-292.1 920.85,-286.14 919.05,-292.91"/>
<text text-anchor="middle" x="767.32" y="-232.74" font-family="Times,serif" font-size="8.00">att</text>
</g>
<!-- &#45;attrs1 -->
<g id="node5" class="node">
<title>&#45;attrs1</title>
<polygon fill="none" stroke="gray" points="827.62,-181 639.88,-181 639.88,-144.5 833.62,-144.5 833.62,-175 827.62,-181"/>
<polyline fill="none" stroke="gray" points="827.62,-181 827.62,-175"/>
<polyline fill="none" stroke="gray" points="833.62,-175 827.62,-175"/>
<text text-anchor="start" x="649.88" y="-165.5" font-family="Times,serif" font-size="10.00">type:</text>
<text text-anchor="start" x="677.38" y="-165.5" font-family="Times,serif" font-size="10.00">prov:Collection</text>
<text text-anchor="start" x="649.88" y="-152.25" font-family="Times,serif" font-size="10.00">value:</text>
<text text-anchor="start" x="677.38" y="-152.25" font-family="Times,serif" font-size="10.00">A little provenance goes a long way</text>
</g>
<!-- &#45;attrs1&#45;&gt;http://www.provbook.orgSAIUGR -->
<g id="edge2" class="edge">
<title>&#45;attrs1&#45;&gt;http://www.provbook.orgSAIUGR</title>
<path fill="none" stroke="gray" stroke-dasharray="5,2" d="M732.55,-181.18C729.91,-192.1 726.53,-206.13 723.9,-217.02"/>
</g>
<!-- http://www.provbook.orgReference_12 -->
<g id="node9" class="node">
<title>http://www.provbook.orgReference_12</title>
<g id="a_node9"><a xlink:href="http://www.provbook.orgReference_12" xlink:title="Reference_12">
<ellipse fill="#fffc87" stroke="#808080" cx="681.75" cy="-379.75" rx="62.1" ry="18"/>
<text text-anchor="middle" x="681.75" y="-374.7" font-family="Times,serif" font-size="14.00">Reference_12</text>
</a>
</g>
</g>
<!-- http://www.provbook.orgmuI&#45;&gt;http://www.provbook.orgReference_12 -->
<g id="edge18" class="edge">
<title>http://www.provbook.orgmuI&#45;&gt;http://www.provbook.orgReference_12</title>
<path fill="none" stroke="black" d="M681.75,-325.87C681.75,-333.18 681.75,-341.89 681.75,-350.11"/>
<polygon fill="black" stroke="black" points="678.25,-350.07 681.75,-360.07 685.25,-350.07 678.25,-350.07"/>
<text text-anchor="middle" x="694.74" y="-330.64" font-family="Times,serif" font-size="8.00">der</text>
</g>
<!-- http://www.provbook.orgmuU&#45;&gt;http://www.provbook.orgReference_12 -->
<g id="edge20" class="edge">
<title>http://www.provbook.orgmuU&#45;&gt;http://www.provbook.orgReference_12</title>
<path fill="none" stroke="black" d="M741.21,-323.06C731.5,-332.15 718.76,-344.09 707.56,-354.58"/>
<polygon fill="black" stroke="black" points="705.38,-351.82 700.48,-361.21 710.17,-356.93 705.38,-351.82"/>
<text text-anchor="middle" x="744.62" y="-334.94" font-family="Times,serif" font-size="8.00">der</text>
</g>
<!-- http://www.provbook.orgmuG&#45;&gt;http://www.provbook.orgReference_12 -->
<g id="edge22" class="edge">
<title>http://www.provbook.orgmuG&#45;&gt;http://www.provbook.orgReference_12</title>
<path fill="none" stroke="black" d="M622.29,-323.06C632,-332.15 644.74,-344.09 655.94,-354.58"/>
<polygon fill="black" stroke="black" points="653.33,-356.93 663.02,-361.21 658.12,-351.82 653.33,-356.93"/>
<text text-anchor="middle" x="636.64" y="-315.98" font-family="Times,serif" font-size="8.00">der</text>
</g>
<!-- http://www.provbook.orgCovid_Cases_April -->
<g id="node10" class="node">
<title>http://www.provbook.orgCovid_Cases_April</title>
<g id="a_node10"><a xlink:href="http://www.provbook.orgCovid_Cases_April" xlink:title="Covid_Cases_April">
<ellipse fill="#fffc87" stroke="#808080" cx="553.75" cy="-452" rx="83.6" ry="18"/>
<text text-anchor="middle" x="553.75" y="-446.95" font-family="Times,serif" font-size="14.00">Covid_Cases_April</text>
</a>
</g>
</g>
<!-- http://www.provbook.orgReference_12&#45;&gt;http://www.provbook.orgCovid_Cases_April -->
<g id="edge23" class="edge">
<title>http://www.provbook.orgReference_12&#45;&gt;http://www.provbook.orgCovid_Cases_April</title>
<path fill="none" stroke="black" d="M653.66,-396.17C635.86,-405.93 612.59,-418.71 592.98,-429.47"/>
<polygon fill="black" stroke="black" points="591.52,-426.28 584.44,-434.16 594.89,-432.42 591.52,-426.28"/>
<text text-anchor="middle" x="653.34" y="-408.44" font-family="Times,serif" font-size="8.00">der</text>
</g>
<!-- http://www.provbook.orgAUTHORS_12 -->
<g id="node20" class="node">
<title>http://www.provbook.orgAUTHORS_12</title>
<g id="a_node20"><a xlink:href="http://www.provbook.orgAUTHORS_12" xlink:title="AUTHORS_12">
<polygon fill="#fdb266" stroke="black" points="888.1,-457.56 803.75,-470 719.4,-457.56 719.48,-437.44 888.02,-437.44 888.1,-457.56"/>
<text text-anchor="middle" x="803.75" y="-446.95" font-family="Times,serif" font-size="14.00">AUTHORS_12</text>
</a>
</g>
</g>
<!-- http://www.provbook.orgReference_12&#45;&gt;http://www.provbook.orgAUTHORS_12 -->
<g id="edge24" class="edge">
<title>http://www.provbook.orgReference_12&#45;&gt;http://www.provbook.orgAUTHORS_12</title>
<path fill="none" stroke="black" d="M708.83,-396.34C726.8,-406.69 750.53,-420.35 769.76,-431.43"/>
<polygon fill="black" stroke="black" points="767.92,-434.41 778.33,-436.36 771.41,-428.34 767.92,-434.41"/>
<text text-anchor="middle" x="721.81" y="-386.1" font-family="Times,serif" font-size="8.00">att</text>
</g>
<!-- http://www.provbook.orgCovid_Cases -->
<g id="node12" class="node">
<title>http://www.provbook.orgCovid_Cases</title>
<g id="a_node12"><a xlink:href="http://www.provbook.orgCovid_Cases" xlink:title="Covid_Cases">
<ellipse fill="#fffc87" stroke="#808080" cx="300.75" cy="-524.25" rx="59.54" ry="18"/>
<text text-anchor="middle" x="300.75" y="-519.2" font-family="Times,serif" font-size="14.00">Covid_Cases</text>
</a>
</g>
</g>
<!-- http://www.provbook.orgCovid_Cases_April&#45;&gt;http://www.provbook.orgCovid_Cases -->
<g id="edge25" class="edge">
<title>http://www.provbook.orgCovid_Cases_April&#45;&gt;http://www.provbook.orgCovid_Cases</title>
<path fill="none" stroke="black" d="M504.07,-466.8C460.95,-478.77 398.67,-496.06 354.43,-508.35"/>
<polygon fill="black" stroke="black" points="353.74,-504.9 345.05,-510.95 355.62,-511.65 353.74,-504.9"/>
<text text-anchor="middle" x="500.32" y="-478.59" font-family="Times,serif" font-size="8.00">spe</text>
</g>
<!-- &#45;attrs2 -->
<g id="node11" class="node">
<title>&#45;attrs2</title>
<polygon fill="none" stroke="gray" points="595.5,-397.75 506,-397.75 506,-361.75 601.5,-361.75 601.5,-391.75 595.5,-397.75"/>
<polyline fill="none" stroke="gray" points="595.5,-397.75 595.5,-391.75"/>
<polyline fill="none" stroke="gray" points="601.5,-391.75 595.5,-391.75"/>
<text text-anchor="start" x="516" y="-375.88" font-family="Times,serif" font-size="10.00">type:</text>
<text text-anchor="start" x="539" y="-375.88" font-family="Times,serif" font-size="10.00">prov:Dataset</text>
</g>
<!-- &#45;attrs2&#45;&gt;http://www.provbook.orgCovid_Cases_April -->
<g id="edge3" class="edge">
<title>&#45;attrs2&#45;&gt;http://www.provbook.orgCovid_Cases_April</title>
<path fill="none" stroke="gray" stroke-dasharray="5,2" d="M553.75,-398.12C553.75,-409 553.75,-422.98 553.75,-433.83"/>
</g>
<!-- http://www.provbook.orgWHO -->
<g id="node22" class="node">
<title>http://www.provbook.orgWHO</title>
<g id="a_node22"><a xlink:href="http://www.provbook.orgWHO" xlink:title="WHO">
<polygon fill="#fdb266" stroke="black" points="264.08,-602.06 222.75,-614.5 181.42,-602.06 181.46,-581.94 264.04,-581.94 264.08,-602.06"/>
<text text-anchor="middle" x="222.75" y="-591.45" font-family="Times,serif" font-size="14.00">WHO</text>
</a>
</g>
</g>
<!-- http://www.provbook.orgCovid_Cases&#45;&gt;http://www.provbook.orgWHO -->
<g id="edge27" class="edge">
<title>http://www.provbook.orgCovid_Cases&#45;&gt;http://www.provbook.orgWHO</title>
<path fill="none" stroke="black" d="M282.66,-541.54C271.9,-551.23 258.13,-563.64 246.5,-574.11"/>
<polygon fill="black" stroke="black" points="244.33,-571.36 239.24,-580.65 249.01,-576.56 244.33,-571.36"/>
<text text-anchor="middle" x="285.78" y="-553.49" font-family="Times,serif" font-size="8.00">att</text>
</g>
<!-- &#45;attrs3 -->
<g id="node13" class="node">
<title>&#45;attrs3</title>
<polygon fill="none" stroke="gray" points="200.5,-470 111,-470 111,-434 206.5,-434 206.5,-464 200.5,-470"/>
<polyline fill="none" stroke="gray" points="200.5,-470 200.5,-464"/>
<polyline fill="none" stroke="gray" points="206.5,-464 200.5,-464"/>
<text text-anchor="start" x="121" y="-448.12" font-family="Times,serif" font-size="10.00">type:</text>
<text text-anchor="start" x="144" y="-448.12" font-family="Times,serif" font-size="10.00">prov:Dataset</text>
</g>
<!-- &#45;attrs3&#45;&gt;http://www.provbook.orgCovid_Cases -->
<g id="edge4" class="edge">
<title>&#45;attrs3&#45;&gt;http://www.provbook.orgCovid_Cases</title>
<path fill="none" stroke="gray" stroke-dasharray="5,2" d="M193.85,-470.37C217.5,-482.07 248.37,-497.34 270.85,-508.46"/>
</g>
<!-- http://www.provbook.orgCovid_Cases_Jan -->
<g id="node14" class="node">
<title>http://www.provbook.orgCovid_Cases_Jan</title>
<g id="a_node14"><a xlink:href="http://www.provbook.orgCovid_Cases_Jan" xlink:title="Covid_Cases_Jan">
<ellipse fill="#fffc87" stroke="#808080" cx="300.75" cy="-452" rx="76.43" ry="18"/>
<text text-anchor="middle" x="300.75" y="-446.95" font-family="Times,serif" font-size="14.00">Covid_Cases_Jan</text>
</a>
</g>
</g>
<!-- http://www.provbook.orgCovid_Cases_Jan&#45;&gt;http://www.provbook.orgCovid_Cases -->
<g id="edge26" class="edge">
<title>http://www.provbook.orgCovid_Cases_Jan&#45;&gt;http://www.provbook.orgCovid_Cases</title>
<path fill="none" stroke="black" d="M300.75,-470.37C300.75,-477.68 300.75,-486.39 300.75,-494.61"/>
<polygon fill="black" stroke="black" points="297.25,-494.57 300.75,-504.57 304.25,-494.57 297.25,-494.57"/>
<text text-anchor="middle" x="313.74" y="-475.14" font-family="Times,serif" font-size="8.00">spe</text>
</g>
<!-- &#45;attrs4 -->
<g id="node15" class="node">
<title>&#45;attrs4</title>
<polygon fill="none" stroke="gray" points="89.5,-397.75 0,-397.75 0,-361.75 95.5,-361.75 95.5,-391.75 89.5,-397.75"/>
<polyline fill="none" stroke="gray" points="89.5,-397.75 89.5,-391.75"/>
<polyline fill="none" stroke="gray" points="95.5,-391.75 89.5,-391.75"/>
<text text-anchor="start" x="10" y="-375.88" font-family="Times,serif" font-size="10.00">type:</text>
<text text-anchor="start" x="33" y="-375.88" font-family="Times,serif" font-size="10.00">prov:Dataset</text>
</g>
<!-- &#45;attrs4&#45;&gt;http://www.provbook.orgCovid_Cases_Jan -->
<g id="edge5" class="edge">
<title>&#45;attrs4&#45;&gt;http://www.provbook.orgCovid_Cases_Jan</title>
<path fill="none" stroke="gray" stroke-dasharray="5,2" d="M95.92,-395.44C98.91,-396.31 101.87,-397.17 104.75,-398 154.39,-412.22 211.41,-427.52 251.1,-438.01"/>
</g>
<!-- &#45;attrs5 -->
<g id="node17" class="node">
<title>&#45;attrs5</title>
<polygon fill="none" stroke="gray" points="543.25,-180.75 422.25,-180.75 422.25,-144.75 549.25,-144.75 549.25,-174.75 543.25,-180.75"/>
<polyline fill="none" stroke="gray" points="543.25,-180.75 543.25,-174.75"/>
<polyline fill="none" stroke="gray" points="549.25,-174.75 543.25,-174.75"/>
<text text-anchor="start" x="432.25" y="-158.88" font-family="Times,serif" font-size="10.00">label:</text>
<text text-anchor="start" x="457.5" y="-158.88" font-family="Times,serif" font-size="10.00">GEODES Epimodel</text>
</g>
<!-- &#45;attrs5&#45;&gt;http://www.provbook.orgGEODES_Epimodel -->
<g id="edge6" class="edge">
<title>&#45;attrs5&#45;&gt;http://www.provbook.orgGEODES_Epimodel</title>
<path fill="none" stroke="gray" stroke-dasharray="5,2" d="M499.1,-181.18C508.34,-193.25 520.49,-209.1 529.09,-220.33"/>
</g>
<!-- &#45;attrs6 -->
<g id="node19" class="node">
<title>&#45;attrs6</title>
<polygon fill="none" stroke="gray" points="1159.88,-253.5 889.62,-253.5 889.62,-217 1165.88,-217 1165.88,-247.5 1159.88,-253.5"/>
<polyline fill="none" stroke="gray" points="1159.88,-253.5 1159.88,-247.5"/>
<polyline fill="none" stroke="gray" points="1165.88,-247.5 1159.88,-247.5"/>
<text text-anchor="start" x="899.62" y="-238" font-family="Times,serif" font-size="10.00">type:</text>
<text text-anchor="start" x="951.88" y="-238" font-family="Times,serif" font-size="10.00">prov:Person</text>
<text text-anchor="start" x="899.62" y="-224.75" font-family="Times,serif" font-size="10.00">givenName:</text>
<text text-anchor="start" x="951.88" y="-224.75" font-family="Times,serif" font-size="10.00">Ambalarajan, V., Mallela, A.R., Sivakumar, V. et al</text>
</g>
<!-- &#45;attrs6&#45;&gt;http://www.provbook.orgSAIUGR_AUTHORS -->
<g id="edge7" class="edge">
<title>&#45;attrs6&#45;&gt;http://www.provbook.orgSAIUGR_AUTHORS</title>
<path fill="none" stroke="gray" stroke-dasharray="5,2" d="M1016.65,-253.98C1009.11,-266.01 999.29,-281.68 992.35,-292.77"/>
</g>
<!-- &#45;attrs7 -->
<g id="node21" class="node">
<title>&#45;attrs7</title>
<polygon fill="none" stroke="gray" points="968,-398 761.5,-398 761.5,-361.5 974,-361.5 974,-392 968,-398"/>
<polyline fill="none" stroke="gray" points="968,-398 968,-392"/>
<polyline fill="none" stroke="gray" points="974,-392 968,-392"/>
<text text-anchor="start" x="771.5" y="-382.5" font-family="Times,serif" font-size="10.00">type:</text>
<text text-anchor="start" x="798.25" y="-382.5" font-family="Times,serif" font-size="10.00">prov:Person</text>
<text text-anchor="start" x="771.5" y="-369.25" font-family="Times,serif" font-size="10.00">name:</text>
<text text-anchor="start" x="798.25" y="-369.25" font-family="Times,serif" font-size="10.00">Bajiya, V. P., Bugalia, S., &amp; Tripathi, J. P.</text>
</g>
<!-- &#45;attrs7&#45;&gt;http://www.provbook.orgAUTHORS_12 -->
<g id="edge8" class="edge">
<title>&#45;attrs7&#45;&gt;http://www.provbook.orgAUTHORS_12</title>
<path fill="none" stroke="gray" stroke-dasharray="5,2" d="M851.6,-398.48C840.64,-410.51 826.36,-426.18 816.26,-437.27"/>
</g>
<!-- &#45;attrs8 -->
<g id="node23" class="node">
<title>&#45;attrs8</title>
<polygon fill="none" stroke="gray" points="217.62,-542.5 65.88,-542.5 65.88,-506 223.62,-506 223.62,-536.5 217.62,-542.5"/>
<polyline fill="none" stroke="gray" points="217.62,-542.5 217.62,-536.5"/>
<polyline fill="none" stroke="gray" points="223.62,-536.5 217.62,-536.5"/>
<text text-anchor="start" x="75.88" y="-527" font-family="Times,serif" font-size="10.00">type:</text>
<text text-anchor="start" x="102.62" y="-527" font-family="Times,serif" font-size="10.00">prov:Organization</text>
<text text-anchor="start" x="75.88" y="-513.75" font-family="Times,serif" font-size="10.00">name:</text>
<text text-anchor="start" x="102.62" y="-513.75" font-family="Times,serif" font-size="10.00">World Health Organization</text>
</g>
<!-- &#45;attrs8&#45;&gt;http://www.provbook.orgWHO -->
<g id="edge9" class="edge">
<title>&#45;attrs8&#45;&gt;http://www.provbook.orgWHO</title>
<path fill="none" stroke="gray" stroke-dasharray="5,2" d="M164.43,-542.98C177.7,-554.93 194.96,-570.47 207.25,-581.54"/>
</g>
<!-- http://www.provbook.orgEstimates_of_severity -->
<g id="node24" class="node">
<title>http://www.provbook.orgEstimates_of_severity</title>
<ellipse fill="none" stroke="black" cx="300.75" cy="-379.75" rx="187.49" ry="18"/>
<text text-anchor="middle" x="300.75" y="-374.7" font-family="Times,serif" font-size="14.00">http://www.provbook.orgEstimates_of_severity</text>
</g>
<!-- http://www.provbook.orgEstimates_of_severity&#45;&gt;http://www.provbook.orgCovid_Cases_Jan -->
<g id="edge28" class="edge">
<title>http://www.provbook.orgEstimates_of_severity&#45;&gt;http://www.provbook.orgCovid_Cases_Jan</title>
<path fill="none" stroke="black" d="M300.75,-398.12C300.75,-405.43 300.75,-414.14 300.75,-422.36"/>
<polygon fill="black" stroke="black" points="297.25,-422.32 300.75,-432.32 304.25,-422.32 297.25,-422.32"/>
<text text-anchor="middle" x="313.74" y="-402.89" font-family="Times,serif" font-size="8.00">der</text>
</g>
</g>
</svg>
