<?xml version="1.0" encoding="UTF-8" standalone="no"?>
<!DOCTYPE svg PUBLIC "-//W3C//DTD SVG 1.1//EN"
 "http://www.w3.org/Graphics/SVG/1.1/DTD/svg11.dtd">
<!-- Generated by graphviz version 12.2.1 (20241206.2353)
 -->
<!-- Title: PROV Pages: 1 -->
<svg width="815pt" height="550pt"
 viewBox="0.00 0.00 815.44 550.00" xmlns="http://www.w3.org/2000/svg" xmlns:xlink="http://www.w3.org/1999/xlink">
<g id="graph0" class="graph" transform="scale(1 1) rotate(0) translate(4 546)">
<title>PROV</title>
<polygon fill="white" stroke="none" points="-4,4 -4,-546 811.44,-546 811.44,4 -4,4"/>
<!-- http://www.provbook.orgSlicing -->
<g id="node1" class="node">
<title>http://www.provbook.orgSlicing</title>
<g id="a_node1"><a xlink:href="http://www.provbook.orgSlicing" xlink:title="Slicing">
<polygon fill="#9fb1fc" stroke="#0000ff" points="263.44,-180.75 209.19,-180.75 209.19,-144.75 263.44,-144.75 263.44,-180.75"/>
<text text-anchor="middle" x="236.31" y="-157.7" font-family="Times,serif" font-size="14.00">Slicing</text>
</a>
</g>
</g>
<!-- http://www.provbook.orgSAIUGR -->
<g id="node4" class="node">
<title>http://www.provbook.orgSAIUGR</title>
<g id="a_node4"><a xlink:href="http://www.provbook.orgSAIUGR" xlink:title="SAIUGR">
<ellipse fill="#fffc87" stroke="#808080" cx="361.31" cy="-235.25" rx="45.21" ry="18"/>
<text text-anchor="middle" x="361.31" y="-230.2" font-family="Times,serif" font-size="14.00">SAIUGR</text>
</a>
</g>
</g>
<!-- http://www.provbook.orgSlicing&#45;&gt;http://www.provbook.orgSAIUGR -->
<g id="edge7" class="edge">
<title>http://www.provbook.orgSlicing&#45;&gt;http://www.provbook.orgSAIUGR</title>
<path fill="none" stroke="black" d="M263.75,-179.22C282.11,-189.58 306.44,-203.3 326.21,-214.45"/>
<polygon fill="black" stroke="black" points="324.33,-217.41 334.75,-219.27 327.76,-211.31 324.33,-217.41"/>
<text text-anchor="middle" x="276.66" y="-168.87" font-family="Times,serif" font-size="8.00">use</text>
</g>
<!-- http://www.provbook.orgGEODES_Epimodel -->
<g id="node12" class="node">
<title>http://www.provbook.orgGEODES_Epimodel</title>
<g id="a_node12"><a xlink:href="http://www.provbook.orgGEODES_Epimodel" xlink:title="GEODES_Epimodel">
<polygon fill="#fdb266" stroke="black" points="290.34,-240.81 181.31,-253.25 72.29,-240.81 72.39,-220.69 290.24,-220.69 290.34,-240.81"/>
<text text-anchor="middle" x="181.31" y="-230.2" font-family="Times,serif" font-size="14.00">GEODES_Epimodel</text>
</a>
</g>
</g>
<!-- http://www.provbook.orgSlicing&#45;&gt;http://www.provbook.orgGEODES_Epimodel -->
<g id="edge9" class="edge">
<title>http://www.provbook.orgSlicing&#45;&gt;http://www.provbook.orgGEODES_Epimodel</title>
<path fill="none" stroke="black" d="M222.72,-181.18C215.58,-190.32 206.75,-201.64 199.08,-211.47"/>
<polygon fill="black" stroke="black" points="196.5,-209.1 193.11,-219.13 202.02,-213.4 196.5,-209.1"/>
<text text-anchor="middle" x="228.35" y="-192.36" font-family="Times,serif" font-size="8.00">assoc</text>
</g>
<!-- http://www.provbook.orgRef12 -->
<g id="node2" class="node">
<title>http://www.provbook.orgRef12</title>
<g id="a_node2"><a xlink:href="http://www.provbook.orgRef12" xlink:title="Ref12">
<ellipse fill="#fffc87" stroke="#808080" cx="135.31" cy="-90.5" rx="33.44" ry="18"/>
<text text-anchor="middle" x="135.31" y="-85.45" font-family="Times,serif" font-size="14.00">Ref12</text>
</a>
</g>
</g>
<!-- http://www.provbook.orgRef12&#45;&gt;http://www.provbook.orgSlicing -->
<g id="edge8" class="edge">
<title>http://www.provbook.orgRef12&#45;&gt;http://www.provbook.orgSlicing</title>
<path fill="none" stroke="black" d="M155.27,-105.38C168.6,-114.65 186.48,-127.09 202.05,-137.92"/>
<polygon fill="black" stroke="black" points="199.94,-140.71 210.15,-143.55 203.94,-134.97 199.94,-140.71"/>
<text text-anchor="middle" x="168.84" y="-96.27" font-family="Times,serif" font-size="8.00">gen</text>
</g>
<!-- http://www.provbook.orgmuI -->
<g id="node6" class="node">
<title>http://www.provbook.orgmuI</title>
<g id="a_node6"><a xlink:href="http://www.provbook.orgmuI" xlink:title="muI">
<ellipse fill="#fffc87" stroke="#808080" cx="323.31" cy="-307.5" rx="27" ry="18"/>
<text text-anchor="middle" x="323.31" y="-302.45" font-family="Times,serif" font-size="14.00">muI</text>
</a>
</g>
</g>
<!-- http://www.provbook.orgRef12&#45;&gt;http://www.provbook.orgmuI -->
<g id="edge10" class="edge">
<title>http://www.provbook.orgRef12&#45;&gt;http://www.provbook.orgmuI</title>
<path fill="none" stroke="black" d="M108.12,-101.45C89.57,-109.83 66.43,-123.8 55.31,-144.5 44.61,-164.44 54.36,-244.1 63.31,-253.5 132.83,-326.54 190.99,-259.68 287.31,-289.5 288.92,-290 290.55,-290.56 292.18,-291.16"/>
<polygon fill="black" stroke="black" points="290.8,-294.37 301.38,-295 293.5,-287.91 290.8,-294.37"/>
</g>
<!-- http://www.provbook.orgmuU -->
<g id="node7" class="node">
<title>http://www.provbook.orgmuU</title>
<g id="a_node7"><a xlink:href="http://www.provbook.orgmuU" xlink:title="muU">
<ellipse fill="#fffc87" stroke="#808080" cx="398.31" cy="-307.5" rx="29.86" ry="18"/>
<text text-anchor="middle" x="398.31" y="-302.45" font-family="Times,serif" font-size="14.00">muU</text>
</a>
</g>
</g>
<!-- http://www.provbook.orgRef12&#45;&gt;http://www.provbook.orgmuU -->
<g id="edge11" class="edge">
<title>http://www.provbook.orgRef12&#45;&gt;http://www.provbook.orgmuU</title>
<path fill="none" stroke="black" d="M169.08,-91.31C248.56,-91.66 443.82,-97.39 484.31,-144.5 522.36,-188.76 461.83,-252.7 424.38,-285.44"/>
<polygon fill="black" stroke="black" points="422.38,-282.55 417.04,-291.7 426.92,-287.88 422.38,-282.55"/>
</g>
<!-- http://www.provbook.orgmuG -->
<g id="node8" class="node">
<title>http://www.provbook.orgmuG</title>
<g id="a_node8"><a xlink:href="http://www.provbook.orgmuG" xlink:title="muG">
<ellipse fill="#fffc87" stroke="#808080" cx="248.31" cy="-307.5" rx="29.86" ry="18"/>
<text text-anchor="middle" x="248.31" y="-302.45" font-family="Times,serif" font-size="14.00">muG</text>
</a>
</g>
</g>
<!-- http://www.provbook.orgRef12&#45;&gt;http://www.provbook.orgmuG -->
<g id="edge12" class="edge">
<title>http://www.provbook.orgRef12&#45;&gt;http://www.provbook.orgmuG</title>
<path fill="none" stroke="black" d="M103.52,-96.66C76.49,-102.91 39.27,-116.35 21.31,-144.5 -4.74,-185.34 -8.8,-215.55 21.31,-253.5 44.13,-282.26 148.6,-296.87 207.54,-302.95"/>
<polygon fill="black" stroke="black" points="206.88,-306.4 217.18,-303.9 207.57,-299.43 206.88,-306.4"/>
</g>
<!-- &#45;attrs0 -->
<g id="node3" class="node">
<title>&#45;attrs0</title>
<polygon fill="none" stroke="gray" points="184.56,-36.5 80.06,-36.5 80.06,0 190.56,0 190.56,-30.5 184.56,-36.5"/>
<polyline fill="none" stroke="gray" points="184.56,-36.5 184.56,-30.5"/>
<polyline fill="none" stroke="gray" points="190.56,-30.5 184.56,-30.5"/>
<text text-anchor="start" x="90.06" y="-21" font-family="Times,serif" font-size="10.00">type:</text>
<text text-anchor="start" x="115.31" y="-21" font-family="Times,serif" font-size="10.00">prov:Collection</text>
<text text-anchor="start" x="90.06" y="-7.75" font-family="Times,serif" font-size="10.00">label:</text>
<text text-anchor="start" x="115.31" y="-7.75" font-family="Times,serif" font-size="10.00">Fragment Ref12</text>
</g>
<!-- &#45;attrs0&#45;&gt;http://www.provbook.orgRef12 -->
<g id="edge1" class="edge">
<title>&#45;attrs0&#45;&gt;http://www.provbook.orgRef12</title>
<path fill="none" stroke="gray" stroke-dasharray="5,2" d="M135.31,-36.98C135.31,-47.71 135.31,-61.34 135.31,-72.02"/>
</g>
<!-- http://www.provbook.orgSAIUGR&#45;&gt;http://www.provbook.orgmuI -->
<g id="edge13" class="edge">
<title>http://www.provbook.orgSAIUGR&#45;&gt;http://www.provbook.orgmuI</title>
<path fill="none" stroke="black" d="M352.12,-253.26C347.76,-261.31 342.45,-271.12 337.59,-280.11"/>
<polygon fill="black" stroke="black" points="334.57,-278.34 332.89,-288.8 340.72,-281.67 334.57,-278.34"/>
</g>
<!-- http://www.provbook.orgSAIUGR&#45;&gt;http://www.provbook.orgmuU -->
<g id="edge16" class="edge">
<title>http://www.provbook.orgSAIUGR&#45;&gt;http://www.provbook.orgmuU</title>
<path fill="none" stroke="black" d="M370.27,-253.26C374.51,-261.31 379.68,-271.12 384.41,-280.11"/>
<polygon fill="black" stroke="black" points="381.23,-281.58 388.99,-288.8 387.43,-278.32 381.23,-281.58"/>
</g>
<!-- http://www.provbook.orgSAIUGR&#45;&gt;http://www.provbook.orgmuG -->
<g id="edge18" class="edge">
<title>http://www.provbook.orgSAIUGR&#45;&gt;http://www.provbook.orgmuG</title>
<path fill="none" stroke="black" d="M337.63,-250.98C320.37,-261.7 296.87,-276.32 278.3,-287.86"/>
<polygon fill="black" stroke="black" points="276.5,-284.86 269.85,-293.11 280.19,-290.8 276.5,-284.86"/>
</g>
<!-- http://www.provbook.orgSAIUGR_AUTHORS -->
<g id="node14" class="node">
<title>http://www.provbook.orgSAIUGR_AUTHORS</title>
<g id="a_node14"><a xlink:href="http://www.provbook.orgSAIUGR_AUTHORS" xlink:title="SAIUGR_AUTHORS">
<polygon fill="#fdb266" stroke="black" points="740.66,-313.06 625.31,-325.5 509.97,-313.06 510.07,-292.94 740.56,-292.94 740.66,-313.06"/>
<text text-anchor="middle" x="625.31" y="-302.45" font-family="Times,serif" font-size="14.00">SAIUGR_AUTHORS</text>
</a>
</g>
</g>
<!-- http://www.provbook.orgSAIUGR&#45;&gt;http://www.provbook.orgSAIUGR_AUTHORS -->
<g id="edge14" class="edge">
<title>http://www.provbook.orgSAIUGR&#45;&gt;http://www.provbook.orgSAIUGR_AUTHORS</title>
<path fill="none" stroke="black" d="M398.3,-246.09C440.61,-257.35 510.61,-275.98 561.72,-289.58"/>
<polygon fill="black" stroke="black" points="560.62,-292.91 571.18,-292.1 562.42,-286.14 560.62,-292.91"/>
<text text-anchor="middle" x="408.89" y="-232.74" font-family="Times,serif" font-size="8.00">att</text>
</g>
<!-- &#45;attrs1 -->
<g id="node5" class="node">
<title>&#45;attrs1</title>
<polygon fill="none" stroke="gray" points="469.19,-181 281.44,-181 281.44,-144.5 475.19,-144.5 475.19,-175 469.19,-181"/>
<polyline fill="none" stroke="gray" points="469.19,-181 469.19,-175"/>
<polyline fill="none" stroke="gray" points="475.19,-175 469.19,-175"/>
<text text-anchor="start" x="291.44" y="-165.5" font-family="Times,serif" font-size="10.00">type:</text>
<text text-anchor="start" x="318.94" y="-165.5" font-family="Times,serif" font-size="10.00">prov:Collection</text>
<text text-anchor="start" x="291.44" y="-152.25" font-family="Times,serif" font-size="10.00">value:</text>
<text text-anchor="start" x="318.94" y="-152.25" font-family="Times,serif" font-size="10.00">A little provenance goes a long way</text>
</g>
<!-- &#45;attrs1&#45;&gt;http://www.provbook.orgSAIUGR -->
<g id="edge2" class="edge">
<title>&#45;attrs1&#45;&gt;http://www.provbook.orgSAIUGR</title>
<path fill="none" stroke="gray" stroke-dasharray="5,2" d="M374.11,-181.18C371.48,-192.1 368.09,-206.13 365.47,-217.02"/>
</g>
<!-- http://www.provbook.orgReference_12 -->
<g id="node9" class="node">
<title>http://www.provbook.orgReference_12</title>
<g id="a_node9"><a xlink:href="http://www.provbook.orgReference_12" xlink:title="Reference_12">
<ellipse fill="#fffc87" stroke="#808080" cx="323.31" cy="-379.75" rx="62.1" ry="18"/>
<text text-anchor="middle" x="323.31" y="-374.7" font-family="Times,serif" font-size="14.00">Reference_12</text>
</a>
</g>
</g>
<!-- http://www.provbook.orgmuI&#45;&gt;http://www.provbook.orgReference_12 -->
<g id="edge15" class="edge">
<title>http://www.provbook.orgmuI&#45;&gt;http://www.provbook.orgReference_12</title>
<path fill="none" stroke="black" d="M323.31,-325.87C323.31,-333.18 323.31,-341.89 323.31,-350.11"/>
<polygon fill="black" stroke="black" points="319.81,-350.07 323.31,-360.07 326.81,-350.07 319.81,-350.07"/>
<text text-anchor="middle" x="336.31" y="-330.64" font-family="Times,serif" font-size="8.00">der</text>
</g>
<!-- http://www.provbook.orgmuU&#45;&gt;http://www.provbook.orgReference_12 -->
<g id="edge17" class="edge">
<title>http://www.provbook.orgmuU&#45;&gt;http://www.provbook.orgReference_12</title>
<path fill="none" stroke="black" d="M382.77,-323.06C373.06,-332.15 360.32,-344.09 349.12,-354.58"/>
<polygon fill="black" stroke="black" points="346.95,-351.82 342.04,-361.21 351.73,-356.93 346.95,-351.82"/>
<text text-anchor="middle" x="386.18" y="-334.94" font-family="Times,serif" font-size="8.00">der</text>
</g>
<!-- http://www.provbook.orgmuG&#45;&gt;http://www.provbook.orgReference_12 -->
<g id="edge19" class="edge">
<title>http://www.provbook.orgmuG&#45;&gt;http://www.provbook.orgReference_12</title>
<path fill="none" stroke="black" d="M263.85,-323.06C273.56,-332.15 286.31,-344.09 297.51,-354.58"/>
<polygon fill="black" stroke="black" points="294.9,-356.93 304.59,-361.21 299.68,-351.82 294.9,-356.93"/>
<text text-anchor="middle" x="278.21" y="-315.98" font-family="Times,serif" font-size="8.00">der</text>
</g>
<!-- http://www.provbook.orgCovid_Cases_April -->
<g id="node10" class="node">
<title>http://www.provbook.orgCovid_Cases_April</title>
<g id="a_node10"><a xlink:href="http://www.provbook.orgCovid_Cases_April" xlink:title="Covid_Cases_April">
<ellipse fill="#fffc87" stroke="#808080" cx="259.31" cy="-452" rx="83.6" ry="18"/>
<text text-anchor="middle" x="259.31" y="-446.95" font-family="Times,serif" font-size="14.00">Covid_Cases_April</text>
</a>
</g>
</g>
<!-- http://www.provbook.orgReference_12&#45;&gt;http://www.provbook.orgCovid_Cases_April -->
<g id="edge20" class="edge">
<title>http://www.provbook.orgReference_12&#45;&gt;http://www.provbook.orgCovid_Cases_April</title>
<path fill="none" stroke="black" d="M308.15,-397.4C300.45,-405.85 290.94,-416.29 282.36,-425.71"/>
<polygon fill="black" stroke="black" points="279.98,-423.11 275.84,-432.86 285.16,-427.83 279.98,-423.11"/>
<text text-anchor="middle" x="312.7" y="-408.97" font-family="Times,serif" font-size="8.00">der</text>
</g>
<!-- http://www.provbook.orgAUTHORS_12 -->
<g id="node16" class="node">
<title>http://www.provbook.orgAUTHORS_12</title>
<g id="a_node16"><a xlink:href="http://www.provbook.orgAUTHORS_12" xlink:title="AUTHORS_12">
<polygon fill="#fdb266" stroke="black" points="561.67,-457.56 477.31,-470 392.96,-457.56 393.04,-437.44 561.59,-437.44 561.67,-457.56"/>
<text text-anchor="middle" x="477.31" y="-446.95" font-family="Times,serif" font-size="14.00">AUTHORS_12</text>
</a>
</g>
</g>
<!-- http://www.provbook.orgReference_12&#45;&gt;http://www.provbook.orgAUTHORS_12 -->
<g id="edge21" class="edge">
<title>http://www.provbook.orgReference_12&#45;&gt;http://www.provbook.orgAUTHORS_12</title>
<path fill="none" stroke="black" d="M355.6,-395.48C379.06,-406.18 411,-420.75 436.27,-432.28"/>
<polygon fill="black" stroke="black" points="434.72,-435.42 445.27,-436.38 437.63,-429.05 434.72,-435.42"/>
<text text-anchor="middle" x="367.81" y="-384.05" font-family="Times,serif" font-size="8.00">att</text>
</g>
<!-- http://www.provbook.orgCovid_Cases -->
<g id="node18" class="node">
<title>http://www.provbook.orgCovid_Cases</title>
<ellipse fill="none" stroke="black" cx="259.31" cy="-524" rx="153.71" ry="18"/>
<text text-anchor="middle" x="259.31" y="-518.95" font-family="Times,serif" font-size="14.00">http://www.provbook.orgCovid_Cases</text>
</g>
<!-- http://www.provbook.orgCovid_Cases_April&#45;&gt;http://www.provbook.orgCovid_Cases -->
<g id="edge22" class="edge">
<title>http://www.provbook.orgCovid_Cases_April&#45;&gt;http://www.provbook.orgCovid_Cases</title>
<path fill="none" stroke="black" d="M259.31,-470.3C259.31,-477.59 259.31,-486.27 259.31,-494.46"/>
<polygon fill="black" stroke="black" points="255.81,-494.38 259.31,-504.38 262.81,-494.38 255.81,-494.38"/>
<text text-anchor="middle" x="272.31" y="-475.08" font-family="Times,serif" font-size="8.00">spe</text>
</g>
<!-- &#45;attrs2 -->
<g id="node11" class="node">
<title>&#45;attrs2</title>
<polygon fill="none" stroke="gray" points="237.06,-397.75 147.56,-397.75 147.56,-361.75 243.06,-361.75 243.06,-391.75 237.06,-397.75"/>
<polyline fill="none" stroke="gray" points="237.06,-397.75 237.06,-391.75"/>
<polyline fill="none" stroke="gray" points="243.06,-391.75 237.06,-391.75"/>
<text text-anchor="start" x="157.56" y="-375.88" font-family="Times,serif" font-size="10.00">type:</text>
<text text-anchor="start" x="180.56" y="-375.88" font-family="Times,serif" font-size="10.00">prov:Dataset</text>
</g>
<!-- &#45;attrs2&#45;&gt;http://www.provbook.orgCovid_Cases_April -->
<g id="edge3" class="edge">
<title>&#45;attrs2&#45;&gt;http://www.provbook.orgCovid_Cases_April</title>
<path fill="none" stroke="gray" stroke-dasharray="5,2" d="M211.13,-398.12C221.06,-409 233.79,-422.98 243.68,-433.83"/>
</g>
<!-- &#45;attrs3 -->
<g id="node13" class="node">
<title>&#45;attrs3</title>
<polygon fill="none" stroke="gray" points="184.81,-180.75 63.81,-180.75 63.81,-144.75 190.81,-144.75 190.81,-174.75 184.81,-180.75"/>
<polyline fill="none" stroke="gray" points="184.81,-180.75 184.81,-174.75"/>
<polyline fill="none" stroke="gray" points="190.81,-174.75 184.81,-174.75"/>
<text text-anchor="start" x="73.81" y="-158.88" font-family="Times,serif" font-size="10.00">label:</text>
<text text-anchor="start" x="99.06" y="-158.88" font-family="Times,serif" font-size="10.00">GEODES Epimodel</text>
</g>
<!-- &#45;attrs3&#45;&gt;http://www.provbook.orgGEODES_Epimodel -->
<g id="edge4" class="edge">
<title>&#45;attrs3&#45;&gt;http://www.provbook.orgGEODES_Epimodel</title>
<path fill="none" stroke="gray" stroke-dasharray="5,2" d="M140.66,-181.18C149.91,-193.25 162.05,-209.1 170.65,-220.33"/>
</g>
<!-- &#45;attrs4 -->
<g id="node15" class="node">
<title>&#45;attrs4</title>
<polygon fill="none" stroke="gray" points="801.44,-253.5 531.19,-253.5 531.19,-217 807.44,-217 807.44,-247.5 801.44,-253.5"/>
<polyline fill="none" stroke="gray" points="801.44,-253.5 801.44,-247.5"/>
<polyline fill="none" stroke="gray" points="807.44,-247.5 801.44,-247.5"/>
<text text-anchor="start" x="541.19" y="-238" font-family="Times,serif" font-size="10.00">type:</text>
<text text-anchor="start" x="593.44" y="-238" font-family="Times,serif" font-size="10.00">prov:Person</text>
<text text-anchor="start" x="541.19" y="-224.75" font-family="Times,serif" font-size="10.00">givenName:</text>
<text text-anchor="start" x="593.44" y="-224.75" font-family="Times,serif" font-size="10.00">Ambalarajan, V., Mallela, A.R., Sivakumar, V. et al</text>
</g>
<!-- &#45;attrs4&#45;&gt;http://www.provbook.orgSAIUGR_AUTHORS -->
<g id="edge5" class="edge">
<title>&#45;attrs4&#45;&gt;http://www.provbook.orgSAIUGR_AUTHORS</title>
<path fill="none" stroke="gray" stroke-dasharray="5,2" d="M658.21,-253.98C650.68,-266.01 640.86,-281.68 633.92,-292.77"/>
</g>
<!-- &#45;attrs5 -->
<g id="node17" class="node">
<title>&#45;attrs5</title>
<polygon fill="none" stroke="gray" points="609.56,-398 403.06,-398 403.06,-361.5 615.56,-361.5 615.56,-392 609.56,-398"/>
<polyline fill="none" stroke="gray" points="609.56,-398 609.56,-392"/>
<polyline fill="none" stroke="gray" points="615.56,-392 609.56,-392"/>
<text text-anchor="start" x="413.06" y="-382.5" font-family="Times,serif" font-size="10.00">type:</text>
<text text-anchor="start" x="439.81" y="-382.5" font-family="Times,serif" font-size="10.00">prov:Person</text>
<text text-anchor="start" x="413.06" y="-369.25" font-family="Times,serif" font-size="10.00">name:</text>
<text text-anchor="start" x="439.81" y="-369.25" font-family="Times,serif" font-size="10.00">Bajiya, V. P., Bugalia, S., &amp; Tripathi, J. P.</text>
</g>
<!-- &#45;attrs5&#45;&gt;http://www.provbook.orgAUTHORS_12 -->
<g id="edge6" class="edge">
<title>&#45;attrs5&#45;&gt;http://www.provbook.orgAUTHORS_12</title>
<path fill="none" stroke="gray" stroke-dasharray="5,2" d="M501.24,-398.48C495.76,-410.51 488.62,-426.18 483.57,-437.27"/>
</g>
</g>
</svg>
