<?xml version="1.0" encoding="UTF-8" standalone="no"?>
<!DOCTYPE svg PUBLIC "-//W3C//DTD SVG 1.1//EN"
 "http://www.w3.org/Graphics/SVG/1.1/DTD/svg11.dtd">
<!-- Generated by graphviz version 12.2.1 (20241206.2353)
 -->
<!-- Title: PROV Pages: 1 -->
<svg width="700pt" height="478pt"
 viewBox="0.00 0.00 700.12 478.00" xmlns="http://www.w3.org/2000/svg" xmlns:xlink="http://www.w3.org/1999/xlink">
<g id="graph0" class="graph" transform="scale(1 1) rotate(0) translate(4 474)">
<title>PROV</title>
<polygon fill="white" stroke="none" points="-4,4 -4,-474 696.12,-474 696.12,4 -4,4"/>
<!-- http://www.provbook.orgSlicing -->
<g id="node1" class="node">
<title>http://www.provbook.orgSlicing</title>
<g id="a_node1"><a xlink:href="http://www.provbook.orgSlicing" xlink:title="Slicing">
<polygon fill="#9fb1fc" stroke="#0000ff" points="272.12,-180.75 217.88,-180.75 217.88,-144.75 272.12,-144.75 272.12,-180.75"/>
<text text-anchor="middle" x="245" y="-157.7" font-family="Times,serif" font-size="14.00">Slicing</text>
</a>
</g>
</g>
<!-- http://www.provbook.orgSAIUGR -->
<g id="node4" class="node">
<title>http://www.provbook.orgSAIUGR</title>
<g id="a_node4"><a xlink:href="http://www.provbook.orgSAIUGR" xlink:title="SAIUGR">
<ellipse fill="#fffc87" stroke="#808080" cx="353" cy="-235.25" rx="45.21" ry="18"/>
<text text-anchor="middle" x="353" y="-230.2" font-family="Times,serif" font-size="14.00">SAIUGR</text>
</a>
</g>
</g>
<!-- http://www.provbook.orgSlicing&#45;&gt;http://www.provbook.orgSAIUGR -->
<g id="edge6" class="edge">
<title>http://www.provbook.orgSlicing&#45;&gt;http://www.provbook.orgSAIUGR</title>
<path fill="none" stroke="black" d="M271.7,-181.18C286.59,-190.9 305.25,-203.08 320.94,-213.32"/>
<polygon fill="black" stroke="black" points="318.71,-216.04 328.99,-218.58 322.53,-210.18 318.71,-216.04"/>
<text text-anchor="middle" x="285.08" y="-171.67" font-family="Times,serif" font-size="8.00">use</text>
</g>
<!-- http://www.provbook.orgGEODES_Epimodel -->
<g id="node8" class="node">
<title>http://www.provbook.orgGEODES_Epimodel</title>
<g id="a_node8"><a xlink:href="http://www.provbook.orgGEODES_Epimodel" xlink:title="GEODES_Epimodel">
<polygon fill="#fdb266" stroke="black" points="290.02,-240.81 181,-253.25 71.98,-240.81 72.08,-220.69 289.92,-220.69 290.02,-240.81"/>
<text text-anchor="middle" x="181" y="-230.2" font-family="Times,serif" font-size="14.00">GEODES_Epimodel</text>
</a>
</g>
</g>
<!-- http://www.provbook.orgSlicing&#45;&gt;http://www.provbook.orgGEODES_Epimodel -->
<g id="edge8" class="edge">
<title>http://www.provbook.orgSlicing&#45;&gt;http://www.provbook.orgGEODES_Epimodel</title>
<path fill="none" stroke="black" d="M229.18,-181.18C220.71,-190.51 210.18,-202.11 201.12,-212.08"/>
<polygon fill="black" stroke="black" points="198.79,-209.45 194.66,-219.21 203.97,-214.15 198.79,-209.45"/>
<text text-anchor="middle" x="233.76" y="-192.74" font-family="Times,serif" font-size="8.00">assoc</text>
</g>
<!-- http://www.provbook.orgRef38 -->
<g id="node2" class="node">
<title>http://www.provbook.orgRef38</title>
<g id="a_node2"><a xlink:href="http://www.provbook.orgRef38" xlink:title="Ref38">
<ellipse fill="#fffc87" stroke="#808080" cx="144" cy="-90.5" rx="33.44" ry="18"/>
<text text-anchor="middle" x="144" y="-85.45" font-family="Times,serif" font-size="14.00">Ref38</text>
</a>
</g>
</g>
<!-- http://www.provbook.orgRef38&#45;&gt;http://www.provbook.orgSlicing -->
<g id="edge7" class="edge">
<title>http://www.provbook.orgRef38&#45;&gt;http://www.provbook.orgSlicing</title>
<path fill="none" stroke="black" d="M163.95,-105.38C177.28,-114.65 195.16,-127.09 210.74,-137.92"/>
<polygon fill="black" stroke="black" points="208.62,-140.71 218.83,-143.55 212.62,-134.97 208.62,-140.71"/>
<text text-anchor="middle" x="177.53" y="-96.27" font-family="Times,serif" font-size="8.00">gen</text>
</g>
<!-- http://www.provbook.orgzetaA -->
<g id="node6" class="node">
<title>http://www.provbook.orgzetaA</title>
<g id="a_node6"><a xlink:href="http://www.provbook.orgzetaA" xlink:title="zetaA">
<ellipse fill="#fffc87" stroke="#808080" cx="216" cy="-307.5" rx="32.41" ry="18"/>
<text text-anchor="middle" x="216" y="-302.45" font-family="Times,serif" font-size="14.00">zetaA</text>
</a>
</g>
</g>
<!-- http://www.provbook.orgRef38&#45;&gt;http://www.provbook.orgzetaA -->
<g id="edge9" class="edge">
<title>http://www.provbook.orgRef38&#45;&gt;http://www.provbook.orgzetaA</title>
<path fill="none" stroke="black" d="M116.87,-101.18C98.03,-109.5 74.35,-123.51 63,-144.5 39.96,-187.11 34.9,-214.03 63,-253.5 87.64,-288.11 136.52,-300.33 172.42,-304.53"/>
<polygon fill="black" stroke="black" points="171.78,-307.98 182.07,-305.48 172.46,-301.02 171.78,-307.98"/>
</g>
<!-- &#45;attrs0 -->
<g id="node3" class="node">
<title>&#45;attrs0</title>
<polygon fill="none" stroke="gray" points="193.25,-36.5 88.75,-36.5 88.75,0 199.25,0 199.25,-30.5 193.25,-36.5"/>
<polyline fill="none" stroke="gray" points="193.25,-36.5 193.25,-30.5"/>
<polyline fill="none" stroke="gray" points="199.25,-30.5 193.25,-30.5"/>
<text text-anchor="start" x="98.75" y="-21" font-family="Times,serif" font-size="10.00">type:</text>
<text text-anchor="start" x="124" y="-21" font-family="Times,serif" font-size="10.00">prov:Collection</text>
<text text-anchor="start" x="98.75" y="-7.75" font-family="Times,serif" font-size="10.00">label:</text>
<text text-anchor="start" x="124" y="-7.75" font-family="Times,serif" font-size="10.00">Fragment Ref38</text>
</g>
<!-- &#45;attrs0&#45;&gt;http://www.provbook.orgRef38 -->
<g id="edge1" class="edge">
<title>&#45;attrs0&#45;&gt;http://www.provbook.orgRef38</title>
<path fill="none" stroke="gray" stroke-dasharray="5,2" d="M144,-36.98C144,-47.71 144,-61.34 144,-72.02"/>
</g>
<!-- http://www.provbook.orgSAIUGR&#45;&gt;http://www.provbook.orgzetaA -->
<g id="edge10" class="edge">
<title>http://www.provbook.orgSAIUGR&#45;&gt;http://www.provbook.orgzetaA</title>
<path fill="none" stroke="black" d="M325.93,-250.13C304.02,-261.36 273.05,-277.24 249.57,-289.29"/>
<polygon fill="black" stroke="black" points="248.01,-286.15 240.71,-293.83 251.2,-292.38 248.01,-286.15"/>
</g>
<!-- http://www.provbook.orgSAIUGR_AUTHORS -->
<g id="node10" class="node">
<title>http://www.provbook.orgSAIUGR_AUTHORS</title>
<g id="a_node10"><a xlink:href="http://www.provbook.orgSAIUGR_AUTHORS" xlink:title="SAIUGR_AUTHORS">
<polygon fill="#fdb266" stroke="black" points="568.35,-313.06 453,-325.5 337.65,-313.06 337.76,-292.94 568.24,-292.94 568.35,-313.06"/>
<text text-anchor="middle" x="453" y="-302.45" font-family="Times,serif" font-size="14.00">SAIUGR_AUTHORS</text>
</a>
</g>
</g>
<!-- http://www.provbook.orgSAIUGR&#45;&gt;http://www.provbook.orgSAIUGR_AUTHORS -->
<g id="edge11" class="edge">
<title>http://www.provbook.orgSAIUGR&#45;&gt;http://www.provbook.orgSAIUGR_AUTHORS</title>
<path fill="none" stroke="black" d="M374.7,-251.49C389.06,-261.59 408.08,-274.94 423.77,-285.97"/>
<polygon fill="black" stroke="black" points="421.61,-288.73 431.8,-291.61 425.63,-283 421.61,-288.73"/>
<text text-anchor="middle" x="388.3" y="-242.45" font-family="Times,serif" font-size="8.00">att</text>
</g>
<!-- &#45;attrs1 -->
<g id="node5" class="node">
<title>&#45;attrs1</title>
<polygon fill="none" stroke="gray" points="477.88,-181 290.12,-181 290.12,-144.5 483.88,-144.5 483.88,-175 477.88,-181"/>
<polyline fill="none" stroke="gray" points="477.88,-181 477.88,-175"/>
<polyline fill="none" stroke="gray" points="483.88,-175 477.88,-175"/>
<text text-anchor="start" x="300.12" y="-165.5" font-family="Times,serif" font-size="10.00">type:</text>
<text text-anchor="start" x="327.62" y="-165.5" font-family="Times,serif" font-size="10.00">prov:Collection</text>
<text text-anchor="start" x="300.12" y="-152.25" font-family="Times,serif" font-size="10.00">value:</text>
<text text-anchor="start" x="327.62" y="-152.25" font-family="Times,serif" font-size="10.00">A little provenance goes a long way</text>
</g>
<!-- &#45;attrs1&#45;&gt;http://www.provbook.orgSAIUGR -->
<g id="edge2" class="edge">
<title>&#45;attrs1&#45;&gt;http://www.provbook.orgSAIUGR</title>
<path fill="none" stroke="gray" stroke-dasharray="5,2" d="M378.6,-181.18C373.25,-192.27 366.36,-206.55 361.07,-217.51"/>
</g>
<!-- http://www.provbook.orgReference_38 -->
<g id="node7" class="node">
<title>http://www.provbook.orgReference_38</title>
<g id="a_node7"><a xlink:href="http://www.provbook.orgReference_38" xlink:title="Reference_38">
<ellipse fill="#fffc87" stroke="#808080" cx="216" cy="-379.75" rx="62.1" ry="18"/>
<text text-anchor="middle" x="216" y="-374.7" font-family="Times,serif" font-size="14.00">Reference_38</text>
</a>
</g>
</g>
<!-- http://www.provbook.orgzetaA&#45;&gt;http://www.provbook.orgReference_38 -->
<g id="edge12" class="edge">
<title>http://www.provbook.orgzetaA&#45;&gt;http://www.provbook.orgReference_38</title>
<path fill="none" stroke="black" d="M216,-325.87C216,-333.18 216,-341.89 216,-350.11"/>
<polygon fill="black" stroke="black" points="212.5,-350.07 216,-360.07 219.5,-350.07 212.5,-350.07"/>
<text text-anchor="middle" x="228.99" y="-330.64" font-family="Times,serif" font-size="8.00">der</text>
</g>
<!-- http://www.provbook.orgAUTHORS_38 -->
<g id="node12" class="node">
<title>http://www.provbook.orgAUTHORS_38</title>
<g id="a_node12"><a xlink:href="http://www.provbook.orgAUTHORS_38" xlink:title="AUTHORS_38">
<polygon fill="#fdb266" stroke="black" points="226.35,-457.56 142,-470 57.65,-457.56 57.73,-437.44 226.27,-437.44 226.35,-457.56"/>
<text text-anchor="middle" x="142" y="-446.95" font-family="Times,serif" font-size="14.00">AUTHORS_38</text>
</a>
</g>
</g>
<!-- http://www.provbook.orgReference_38&#45;&gt;http://www.provbook.orgAUTHORS_38 -->
<g id="edge13" class="edge">
<title>http://www.provbook.orgReference_38&#45;&gt;http://www.provbook.orgAUTHORS_38</title>
<path fill="none" stroke="black" d="M198.46,-397.4C188.35,-407 175.51,-419.18 164.64,-429.51"/>
<polygon fill="black" stroke="black" points="162.37,-426.84 157.53,-436.26 167.19,-431.91 162.37,-426.84"/>
<text text-anchor="middle" x="201.97" y="-409.26" font-family="Times,serif" font-size="8.00">att</text>
</g>
<!-- &#45;attrs2 -->
<g id="node9" class="node">
<title>&#45;attrs2</title>
<polygon fill="none" stroke="gray" points="193.5,-180.75 72.5,-180.75 72.5,-144.75 199.5,-144.75 199.5,-174.75 193.5,-180.75"/>
<polyline fill="none" stroke="gray" points="193.5,-180.75 193.5,-174.75"/>
<polyline fill="none" stroke="gray" points="199.5,-174.75 193.5,-174.75"/>
<text text-anchor="start" x="82.5" y="-158.88" font-family="Times,serif" font-size="10.00">label:</text>
<text text-anchor="start" x="107.75" y="-158.88" font-family="Times,serif" font-size="10.00">GEODES Epimodel</text>
</g>
<!-- &#45;attrs2&#45;&gt;http://www.provbook.orgGEODES_Epimodel -->
<g id="edge3" class="edge">
<title>&#45;attrs2&#45;&gt;http://www.provbook.orgGEODES_Epimodel</title>
<path fill="none" stroke="gray" stroke-dasharray="5,2" d="M147.12,-181.18C154.83,-193.25 164.95,-209.1 172.11,-220.33"/>
</g>
<!-- &#45;attrs3 -->
<g id="node11" class="node">
<title>&#45;attrs3</title>
<polygon fill="none" stroke="gray" points="686.12,-253.5 415.88,-253.5 415.88,-217 692.12,-217 692.12,-247.5 686.12,-253.5"/>
<polyline fill="none" stroke="gray" points="686.12,-253.5 686.12,-247.5"/>
<polyline fill="none" stroke="gray" points="692.12,-247.5 686.12,-247.5"/>
<text text-anchor="start" x="425.88" y="-238" font-family="Times,serif" font-size="10.00">type:</text>
<text text-anchor="start" x="478.12" y="-238" font-family="Times,serif" font-size="10.00">prov:Person</text>
<text text-anchor="start" x="425.88" y="-224.75" font-family="Times,serif" font-size="10.00">givenName:</text>
<text text-anchor="start" x="478.12" y="-224.75" font-family="Times,serif" font-size="10.00">Ambalarajan, V., Mallela, A.R., Sivakumar, V. et al</text>
</g>
<!-- &#45;attrs3&#45;&gt;http://www.provbook.orgSAIUGR_AUTHORS -->
<g id="edge4" class="edge">
<title>&#45;attrs3&#45;&gt;http://www.provbook.orgSAIUGR_AUTHORS</title>
<path fill="none" stroke="gray" stroke-dasharray="5,2" d="M528.51,-253.98C511.33,-265.93 488.98,-281.47 473.07,-292.54"/>
</g>
<!-- &#45;attrs4 -->
<g id="node13" class="node">
<title>&#45;attrs4</title>
<polygon fill="none" stroke="gray" points="130,-398 0,-398 0,-361.5 136,-361.5 136,-392 130,-398"/>
<polyline fill="none" stroke="gray" points="130,-398 130,-392"/>
<polyline fill="none" stroke="gray" points="136,-392 130,-392"/>
<text text-anchor="start" x="10" y="-382.5" font-family="Times,serif" font-size="10.00">type:</text>
<text text-anchor="start" x="36.75" y="-382.5" font-family="Times,serif" font-size="10.00">prov:Person</text>
<text text-anchor="start" x="10" y="-369.25" font-family="Times,serif" font-size="10.00">name:</text>
<text text-anchor="start" x="36.75" y="-369.25" font-family="Times,serif" font-size="10.00">Gumel, Abba B., et al.</text>
</g>
<!-- &#45;attrs4&#45;&gt;http://www.provbook.orgAUTHORS_38 -->
<g id="edge5" class="edge">
<title>&#45;attrs4&#45;&gt;http://www.provbook.orgAUTHORS_38</title>
<path fill="none" stroke="gray" stroke-dasharray="5,2" d="M86.67,-398.48C99.35,-410.51 115.86,-426.18 127.53,-437.27"/>
</g>
</g>
</svg>
