<?xml version="1.0" encoding="UTF-8" standalone="no"?>
<!DOCTYPE svg PUBLIC "-//W3C//DTD SVG 1.1//EN"
 "http://www.w3.org/Graphics/SVG/1.1/DTD/svg11.dtd">
<!-- Generated by graphviz version 12.2.1 (20241206.2353)
 -->
<!-- Title: PROV Pages: 1 -->
<svg width="694pt" height="551pt"
 viewBox="0.00 0.00 694.04 550.50" xmlns="http://www.w3.org/2000/svg" xmlns:xlink="http://www.w3.org/1999/xlink">
<g id="graph0" class="graph" transform="scale(1 1) rotate(0) translate(4 546.5)">
<title>PROV</title>
<polygon fill="white" stroke="none" points="-4,4 -4,-546.5 690.04,-546.5 690.04,4 -4,4"/>
<!-- http://www.provbook.orgSlicing -->
<g id="node1" class="node">
<title>http://www.provbook.orgSlicing</title>
<g id="a_node1"><a xlink:href="http://www.provbook.orgSlicing" xlink:title="Slicing">
<polygon fill="#9fb1fc" stroke="#0000ff" points="266.04,-180.75 211.79,-180.75 211.79,-144.75 266.04,-144.75 266.04,-180.75"/>
<text text-anchor="middle" x="238.92" y="-157.7" font-family="Times,serif" font-size="14.00">Slicing</text>
</a>
</g>
</g>
<!-- http://www.provbook.orgSAIUGR -->
<g id="node4" class="node">
<title>http://www.provbook.orgSAIUGR</title>
<g id="a_node4"><a xlink:href="http://www.provbook.orgSAIUGR" xlink:title="SAIUGR">
<ellipse fill="#fffc87" stroke="#808080" cx="346.92" cy="-235.25" rx="45.21" ry="18"/>
<text text-anchor="middle" x="346.92" y="-230.2" font-family="Times,serif" font-size="14.00">SAIUGR</text>
</a>
</g>
</g>
<!-- http://www.provbook.orgSlicing&#45;&gt;http://www.provbook.orgSAIUGR -->
<g id="edge8" class="edge">
<title>http://www.provbook.orgSlicing&#45;&gt;http://www.provbook.orgSAIUGR</title>
<path fill="none" stroke="black" d="M265.61,-181.18C280.51,-190.9 299.17,-203.08 314.86,-213.32"/>
<polygon fill="black" stroke="black" points="312.62,-216.04 322.91,-218.58 316.45,-210.18 312.62,-216.04"/>
<text text-anchor="middle" x="279" y="-171.67" font-family="Times,serif" font-size="8.00">use</text>
</g>
<!-- http://www.provbook.orgGEODES_Epimodel -->
<g id="node10" class="node">
<title>http://www.provbook.orgGEODES_Epimodel</title>
<g id="a_node10"><a xlink:href="http://www.provbook.orgGEODES_Epimodel" xlink:title="GEODES_Epimodel">
<polygon fill="#fdb266" stroke="black" points="283.94,-240.81 174.92,-253.25 65.9,-240.81 66,-220.69 283.84,-220.69 283.94,-240.81"/>
<text text-anchor="middle" x="174.92" y="-230.2" font-family="Times,serif" font-size="14.00">GEODES_Epimodel</text>
</a>
</g>
</g>
<!-- http://www.provbook.orgSlicing&#45;&gt;http://www.provbook.orgGEODES_Epimodel -->
<g id="edge10" class="edge">
<title>http://www.provbook.orgSlicing&#45;&gt;http://www.provbook.orgGEODES_Epimodel</title>
<path fill="none" stroke="black" d="M223.1,-181.18C214.62,-190.51 204.09,-202.11 195.04,-212.08"/>
<polygon fill="black" stroke="black" points="192.71,-209.45 188.58,-219.21 197.89,-214.15 192.71,-209.45"/>
<text text-anchor="middle" x="227.68" y="-192.74" font-family="Times,serif" font-size="8.00">assoc</text>
</g>
<!-- http://www.provbook.orgRef37 -->
<g id="node2" class="node">
<title>http://www.provbook.orgRef37</title>
<g id="a_node2"><a xlink:href="http://www.provbook.orgRef37" xlink:title="Ref37">
<ellipse fill="#fffc87" stroke="#808080" cx="137.92" cy="-90.5" rx="33.44" ry="18"/>
<text text-anchor="middle" x="137.92" y="-85.45" font-family="Times,serif" font-size="14.00">Ref37</text>
</a>
</g>
</g>
<!-- http://www.provbook.orgRef37&#45;&gt;http://www.provbook.orgSlicing -->
<g id="edge9" class="edge">
<title>http://www.provbook.orgRef37&#45;&gt;http://www.provbook.orgSlicing</title>
<path fill="none" stroke="black" d="M157.87,-105.38C171.2,-114.65 189.08,-127.09 204.65,-137.92"/>
<polygon fill="black" stroke="black" points="202.54,-140.71 212.75,-143.55 206.54,-134.97 202.54,-140.71"/>
<text text-anchor="middle" x="171.45" y="-96.27" font-family="Times,serif" font-size="8.00">gen</text>
</g>
<!-- http://www.provbook.orgomega -->
<g id="node6" class="node">
<title>http://www.provbook.orgomega</title>
<g id="a_node6"><a xlink:href="http://www.provbook.orgomega" xlink:title="omega">
<ellipse fill="#fffc87" stroke="#808080" cx="207.92" cy="-307.5" rx="36" ry="18"/>
<text text-anchor="middle" x="207.92" y="-302.45" font-family="Times,serif" font-size="14.00">omega</text>
</a>
</g>
</g>
<!-- http://www.provbook.orgRef37&#45;&gt;http://www.provbook.orgomega -->
<g id="edge11" class="edge">
<title>http://www.provbook.orgRef37&#45;&gt;http://www.provbook.orgomega</title>
<path fill="none" stroke="black" d="M110.79,-101.18C91.95,-109.5 68.27,-123.51 56.92,-144.5 33.88,-187.11 28.9,-213.98 56.92,-253.5 80.23,-286.39 125.62,-299.02 160.58,-303.8"/>
<polygon fill="black" stroke="black" points="160.15,-307.27 170.48,-304.95 160.96,-300.32 160.15,-307.27"/>
</g>
<!-- &#45;attrs0 -->
<g id="node3" class="node">
<title>&#45;attrs0</title>
<polygon fill="none" stroke="gray" points="187.17,-36.5 82.67,-36.5 82.67,0 193.17,0 193.17,-30.5 187.17,-36.5"/>
<polyline fill="none" stroke="gray" points="187.17,-36.5 187.17,-30.5"/>
<polyline fill="none" stroke="gray" points="193.17,-30.5 187.17,-30.5"/>
<text text-anchor="start" x="92.67" y="-21" font-family="Times,serif" font-size="10.00">type:</text>
<text text-anchor="start" x="117.92" y="-21" font-family="Times,serif" font-size="10.00">prov:Collection</text>
<text text-anchor="start" x="92.67" y="-7.75" font-family="Times,serif" font-size="10.00">label:</text>
<text text-anchor="start" x="117.92" y="-7.75" font-family="Times,serif" font-size="10.00">Fragment Ref37</text>
</g>
<!-- &#45;attrs0&#45;&gt;http://www.provbook.orgRef37 -->
<g id="edge1" class="edge">
<title>&#45;attrs0&#45;&gt;http://www.provbook.orgRef37</title>
<path fill="none" stroke="gray" stroke-dasharray="5,2" d="M137.92,-36.98C137.92,-47.71 137.92,-61.34 137.92,-72.02"/>
</g>
<!-- http://www.provbook.orgSAIUGR&#45;&gt;http://www.provbook.orgomega -->
<g id="edge12" class="edge">
<title>http://www.provbook.orgSAIUGR&#45;&gt;http://www.provbook.orgomega</title>
<path fill="none" stroke="black" d="M319.79,-249.96C297.76,-261.09 266.56,-276.86 242.7,-288.92"/>
<polygon fill="black" stroke="black" points="241.35,-285.68 234,-293.32 244.5,-291.93 241.35,-285.68"/>
</g>
<!-- http://www.provbook.orgSAIUGR_AUTHORS -->
<g id="node12" class="node">
<title>http://www.provbook.orgSAIUGR_AUTHORS</title>
<g id="a_node12"><a xlink:href="http://www.provbook.orgSAIUGR_AUTHORS" xlink:title="SAIUGR_AUTHORS">
<polygon fill="#fdb266" stroke="black" points="562.27,-313.06 446.92,-325.5 331.57,-313.06 331.68,-292.94 562.16,-292.94 562.27,-313.06"/>
<text text-anchor="middle" x="446.92" y="-302.45" font-family="Times,serif" font-size="14.00">SAIUGR_AUTHORS</text>
</a>
</g>
</g>
<!-- http://www.provbook.orgSAIUGR&#45;&gt;http://www.provbook.orgSAIUGR_AUTHORS -->
<g id="edge13" class="edge">
<title>http://www.provbook.orgSAIUGR&#45;&gt;http://www.provbook.orgSAIUGR_AUTHORS</title>
<path fill="none" stroke="black" d="M368.62,-251.49C382.98,-261.59 402,-274.94 417.69,-285.97"/>
<polygon fill="black" stroke="black" points="415.53,-288.73 425.72,-291.61 419.55,-283 415.53,-288.73"/>
<text text-anchor="middle" x="382.22" y="-242.45" font-family="Times,serif" font-size="8.00">att</text>
</g>
<!-- &#45;attrs1 -->
<g id="node5" class="node">
<title>&#45;attrs1</title>
<polygon fill="none" stroke="gray" points="471.79,-181 284.04,-181 284.04,-144.5 477.79,-144.5 477.79,-175 471.79,-181"/>
<polyline fill="none" stroke="gray" points="471.79,-181 471.79,-175"/>
<polyline fill="none" stroke="gray" points="477.79,-175 471.79,-175"/>
<text text-anchor="start" x="294.04" y="-165.5" font-family="Times,serif" font-size="10.00">type:</text>
<text text-anchor="start" x="321.54" y="-165.5" font-family="Times,serif" font-size="10.00">prov:Collection</text>
<text text-anchor="start" x="294.04" y="-152.25" font-family="Times,serif" font-size="10.00">value:</text>
<text text-anchor="start" x="321.54" y="-152.25" font-family="Times,serif" font-size="10.00">A little provenance goes a long way</text>
</g>
<!-- &#45;attrs1&#45;&gt;http://www.provbook.orgSAIUGR -->
<g id="edge2" class="edge">
<title>&#45;attrs1&#45;&gt;http://www.provbook.orgSAIUGR</title>
<path fill="none" stroke="gray" stroke-dasharray="5,2" d="M372.51,-181.18C367.16,-192.27 360.28,-206.55 354.99,-217.51"/>
</g>
<!-- http://www.provbook.orgReference_37 -->
<g id="node7" class="node">
<title>http://www.provbook.orgReference_37</title>
<g id="a_node7"><a xlink:href="http://www.provbook.orgReference_37" xlink:title="Reference_37">
<ellipse fill="#fffc87" stroke="#808080" cx="207.92" cy="-379.75" rx="62.1" ry="18"/>
<text text-anchor="middle" x="207.92" y="-374.7" font-family="Times,serif" font-size="14.00">Reference_37</text>
</a>
</g>
</g>
<!-- http://www.provbook.orgomega&#45;&gt;http://www.provbook.orgReference_37 -->
<g id="edge14" class="edge">
<title>http://www.provbook.orgomega&#45;&gt;http://www.provbook.orgReference_37</title>
<path fill="none" stroke="black" d="M207.92,-325.87C207.92,-333.18 207.92,-341.89 207.92,-350.11"/>
<polygon fill="black" stroke="black" points="204.42,-350.07 207.92,-360.07 211.42,-350.07 204.42,-350.07"/>
<text text-anchor="middle" x="220.91" y="-330.64" font-family="Times,serif" font-size="8.00">der</text>
</g>
<!-- http://www.provbook.orgHuman_Mobility -->
<g id="node8" class="node">
<title>http://www.provbook.orgHuman_Mobility</title>
<g id="a_node8"><a xlink:href="http://www.provbook.orgHuman_Mobility" xlink:title="Human_Mobility">
<ellipse fill="#fffc87" stroke="#808080" cx="75.92" cy="-452.25" rx="75.92" ry="18"/>
<text text-anchor="middle" x="75.92" y="-447.2" font-family="Times,serif" font-size="14.00">Human_Mobility</text>
</a>
</g>
</g>
<!-- http://www.provbook.orgReference_37&#45;&gt;http://www.provbook.orgHuman_Mobility -->
<g id="edge15" class="edge">
<title>http://www.provbook.orgReference_37&#45;&gt;http://www.provbook.orgHuman_Mobility</title>
<path fill="none" stroke="black" d="M179.28,-396.05C160.72,-405.96 136.3,-419 115.85,-429.92"/>
<polygon fill="black" stroke="black" points="114.39,-426.74 107.21,-434.54 117.68,-432.91 114.39,-426.74"/>
<text text-anchor="middle" x="178.78" y="-408.31" font-family="Times,serif" font-size="8.00">der</text>
</g>
<!-- http://www.provbook.orgAUTHORS_37 -->
<g id="node14" class="node">
<title>http://www.provbook.orgAUTHORS_37</title>
<g id="a_node14"><a xlink:href="http://www.provbook.orgAUTHORS_37" xlink:title="AUTHORS_37">
<polygon fill="#fdb266" stroke="black" points="479.27,-457.81 394.92,-470.25 310.57,-457.81 310.65,-437.69 479.19,-437.69 479.27,-457.81"/>
<text text-anchor="middle" x="394.92" y="-447.2" font-family="Times,serif" font-size="14.00">AUTHORS_37</text>
</a>
</g>
</g>
<!-- http://www.provbook.orgReference_37&#45;&gt;http://www.provbook.orgAUTHORS_37 -->
<g id="edge16" class="edge">
<title>http://www.provbook.orgReference_37&#45;&gt;http://www.provbook.orgAUTHORS_37</title>
<path fill="none" stroke="black" d="M244.86,-394.68C274.22,-405.75 315.5,-421.31 347.33,-433.31"/>
<polygon fill="black" stroke="black" points="345.72,-436.44 356.31,-436.7 348.19,-429.89 345.72,-436.44"/>
<text text-anchor="middle" x="256.46" y="-382.44" font-family="Times,serif" font-size="8.00">att</text>
</g>
<!-- http://www.provbook.orgTENCENT -->
<g id="node16" class="node">
<title>http://www.provbook.orgTENCENT</title>
<g id="a_node16"><a xlink:href="http://www.provbook.orgTENCENT" xlink:title="TENCENT">
<polygon fill="#fdb266" stroke="black" points="218.29,-530.06 152.92,-542.5 87.55,-530.06 87.61,-509.94 218.23,-509.94 218.29,-530.06"/>
<text text-anchor="middle" x="152.92" y="-519.45" font-family="Times,serif" font-size="14.00">TENCENT</text>
</a>
</g>
</g>
<!-- http://www.provbook.orgHuman_Mobility&#45;&gt;http://www.provbook.orgTENCENT -->
<g id="edge17" class="edge">
<title>http://www.provbook.orgHuman_Mobility&#45;&gt;http://www.provbook.orgTENCENT</title>
<path fill="none" stroke="black" d="M94.17,-469.9C104.73,-479.53 118.13,-491.76 129.47,-502.1"/>
<polygon fill="black" stroke="black" points="126.79,-504.4 136.53,-508.55 131.51,-499.23 126.79,-504.4"/>
<text text-anchor="middle" x="108.46" y="-462.63" font-family="Times,serif" font-size="8.00">att</text>
</g>
<!-- &#45;attrs2 -->
<g id="node9" class="node">
<title>&#45;attrs2</title>
<polygon fill="none" stroke="gray" points="117.67,-397.75 28.17,-397.75 28.17,-361.75 123.67,-361.75 123.67,-391.75 117.67,-397.75"/>
<polyline fill="none" stroke="gray" points="117.67,-397.75 117.67,-391.75"/>
<polyline fill="none" stroke="gray" points="123.67,-391.75 117.67,-391.75"/>
<text text-anchor="start" x="38.17" y="-375.88" font-family="Times,serif" font-size="10.00">type:</text>
<text text-anchor="start" x="61.17" y="-375.88" font-family="Times,serif" font-size="10.00">prov:Dataset</text>
</g>
<!-- &#45;attrs2&#45;&gt;http://www.provbook.orgHuman_Mobility -->
<g id="edge3" class="edge">
<title>&#45;attrs2&#45;&gt;http://www.provbook.orgHuman_Mobility</title>
<path fill="none" stroke="gray" stroke-dasharray="5,2" d="M75.92,-398.18C75.92,-409.1 75.92,-423.13 75.92,-434.02"/>
</g>
<!-- &#45;attrs3 -->
<g id="node11" class="node">
<title>&#45;attrs3</title>
<polygon fill="none" stroke="gray" points="187.42,-180.75 66.42,-180.75 66.42,-144.75 193.42,-144.75 193.42,-174.75 187.42,-180.75"/>
<polyline fill="none" stroke="gray" points="187.42,-180.75 187.42,-174.75"/>
<polyline fill="none" stroke="gray" points="193.42,-174.75 187.42,-174.75"/>
<text text-anchor="start" x="76.42" y="-158.88" font-family="Times,serif" font-size="10.00">label:</text>
<text text-anchor="start" x="101.67" y="-158.88" font-family="Times,serif" font-size="10.00">GEODES Epimodel</text>
</g>
<!-- &#45;attrs3&#45;&gt;http://www.provbook.orgGEODES_Epimodel -->
<g id="edge4" class="edge">
<title>&#45;attrs3&#45;&gt;http://www.provbook.orgGEODES_Epimodel</title>
<path fill="none" stroke="gray" stroke-dasharray="5,2" d="M141.04,-181.18C148.75,-193.25 158.86,-209.1 166.03,-220.33"/>
</g>
<!-- &#45;attrs4 -->
<g id="node13" class="node">
<title>&#45;attrs4</title>
<polygon fill="none" stroke="gray" points="680.04,-253.5 409.79,-253.5 409.79,-217 686.04,-217 686.04,-247.5 680.04,-253.5"/>
<polyline fill="none" stroke="gray" points="680.04,-253.5 680.04,-247.5"/>
<polyline fill="none" stroke="gray" points="686.04,-247.5 680.04,-247.5"/>
<text text-anchor="start" x="419.79" y="-238" font-family="Times,serif" font-size="10.00">type:</text>
<text text-anchor="start" x="472.04" y="-238" font-family="Times,serif" font-size="10.00">prov:Person</text>
<text text-anchor="start" x="419.79" y="-224.75" font-family="Times,serif" font-size="10.00">givenName:</text>
<text text-anchor="start" x="472.04" y="-224.75" font-family="Times,serif" font-size="10.00">Ambalarajan, V., Mallela, A.R., Sivakumar, V. et al</text>
</g>
<!-- &#45;attrs4&#45;&gt;http://www.provbook.orgSAIUGR_AUTHORS -->
<g id="edge5" class="edge">
<title>&#45;attrs4&#45;&gt;http://www.provbook.orgSAIUGR_AUTHORS</title>
<path fill="none" stroke="gray" stroke-dasharray="5,2" d="M522.43,-253.98C505.25,-265.93 482.9,-281.47 466.99,-292.54"/>
</g>
<!-- &#45;attrs5 -->
<g id="node15" class="node">
<title>&#45;attrs5</title>
<polygon fill="none" stroke="gray" points="491.42,-398 292.42,-398 292.42,-361.5 497.42,-361.5 497.42,-392 491.42,-398"/>
<polyline fill="none" stroke="gray" points="491.42,-398 491.42,-392"/>
<polyline fill="none" stroke="gray" points="497.42,-392 491.42,-392"/>
<text text-anchor="start" x="302.42" y="-382.5" font-family="Times,serif" font-size="10.00">type:</text>
<text text-anchor="start" x="329.17" y="-382.5" font-family="Times,serif" font-size="10.00">prov:Person</text>
<text text-anchor="start" x="302.42" y="-369.25" font-family="Times,serif" font-size="10.00">name:</text>
<text text-anchor="start" x="329.17" y="-369.25" font-family="Times,serif" font-size="10.00">LI, Ruiyun, PEI, Sen, CHEN, Bin, et al.</text>
</g>
<!-- &#45;attrs5&#45;&gt;http://www.provbook.orgAUTHORS_37 -->
<g id="edge6" class="edge">
<title>&#45;attrs5&#45;&gt;http://www.provbook.orgAUTHORS_37</title>
<path fill="none" stroke="gray" stroke-dasharray="5,2" d="M394.92,-398.18C394.92,-410.25 394.92,-426.1 394.92,-437.33"/>
</g>
<!-- &#45;attrs6 -->
<g id="node17" class="node">
<title>&#45;attrs6</title>
<polygon fill="none" stroke="gray" points="286.17,-470.5 169.67,-470.5 169.67,-434 292.17,-434 292.17,-464.5 286.17,-470.5"/>
<polyline fill="none" stroke="gray" points="286.17,-470.5 286.17,-464.5"/>
<polyline fill="none" stroke="gray" points="292.17,-464.5 286.17,-464.5"/>
<text text-anchor="start" x="179.67" y="-455" font-family="Times,serif" font-size="10.00">type:</text>
<text text-anchor="start" x="206.42" y="-455" font-family="Times,serif" font-size="10.00">prov:Organization</text>
<text text-anchor="start" x="179.67" y="-441.75" font-family="Times,serif" font-size="10.00">name:</text>
<text text-anchor="start" x="206.42" y="-441.75" font-family="Times,serif" font-size="10.00">Tencent</text>
</g>
<!-- &#45;attrs6&#45;&gt;http://www.provbook.orgTENCENT -->
<g id="edge7" class="edge">
<title>&#45;attrs6&#45;&gt;http://www.provbook.orgTENCENT</title>
<path fill="none" stroke="gray" stroke-dasharray="5,2" d="M211.24,-470.98C197.97,-482.93 180.71,-498.47 168.42,-509.54"/>
</g>
</g>
</svg>
