<?xml version="1.0" encoding="UTF-8" standalone="no"?>
<!DOCTYPE svg PUBLIC "-//W3C//DTD SVG 1.1//EN"
 "http://www.w3.org/Graphics/SVG/1.1/DTD/svg11.dtd">
<!-- Generated by graphviz version 12.2.1 (20241206.2353)
 -->
<!-- Title: PROV Pages: 1 -->
<svg width="1152pt" height="382pt"
 viewBox="0.00 0.00 1152.00 381.82" xmlns="http://www.w3.org/2000/svg" xmlns:xlink="http://www.w3.org/1999/xlink">
<g id="graph0" class="graph" transform="scale(0.612867 0.612867) rotate(0) translate(4 619)">
<title>PROV</title>
<polygon fill="white" stroke="none" points="-4,4 -4,-619 1875.69,-619 1875.69,4 -4,4"/>
<!-- http://www.provbook.orgSlicing -->
<g id="node1" class="node">
<title>http://www.provbook.orgSlicing</title>
<g id="a_node1"><a xlink:href="http://www.provbook.orgSlicing" xlink:title="Slicing">
<polygon fill="#9fb1fc" stroke="#0000ff" points="1491.79,-180.75 1437.54,-180.75 1437.54,-144.75 1491.79,-144.75 1491.79,-180.75"/>
<text text-anchor="middle" x="1464.67" y="-157.7" font-family="Times,serif" font-size="14.00">Slicing</text>
</a>
</g>
</g>
<!-- http://www.provbook.orgSAIUGR -->
<g id="node4" class="node">
<title>http://www.provbook.orgSAIUGR</title>
<g id="a_node4"><a xlink:href="http://www.provbook.orgSAIUGR" xlink:title="SAIUGR">
<ellipse fill="#fffc87" stroke="#808080" cx="1296.67" cy="-235.25" rx="45.21" ry="18"/>
<text text-anchor="middle" x="1296.67" y="-230.2" font-family="Times,serif" font-size="14.00">SAIUGR</text>
</a>
</g>
</g>
<!-- http://www.provbook.orgSlicing&#45;&gt;http://www.provbook.orgSAIUGR -->
<g id="edge13" class="edge">
<title>http://www.provbook.orgSlicing&#45;&gt;http://www.provbook.orgSAIUGR</title>
<path fill="none" stroke="black" d="M1437.23,-177.12C1434.35,-178.45 1431.46,-179.77 1428.67,-181 1398.99,-194.08 1365.04,-207.75 1339.01,-217.96"/>
<polygon fill="black" stroke="black" points="1337.82,-214.66 1329.78,-221.56 1340.37,-221.18 1337.82,-214.66"/>
<text text-anchor="middle" x="1435.89" y="-189.33" font-family="Times,serif" font-size="8.00">use</text>
</g>
<!-- http://www.provbook.orgGEODES_Epimodel -->
<g id="node16" class="node">
<title>http://www.provbook.orgGEODES_Epimodel</title>
<g id="a_node16"><a xlink:href="http://www.provbook.orgGEODES_Epimodel" xlink:title="GEODES_Epimodel">
<polygon fill="#fdb266" stroke="black" points="1871.69,-240.81 1762.67,-253.25 1653.64,-240.81 1653.74,-220.69 1871.59,-220.69 1871.69,-240.81"/>
<text text-anchor="middle" x="1762.67" y="-230.2" font-family="Times,serif" font-size="14.00">GEODES_Epimodel</text>
</a>
</g>
</g>
<!-- http://www.provbook.orgSlicing&#45;&gt;http://www.provbook.orgGEODES_Epimodel -->
<g id="edge15" class="edge">
<title>http://www.provbook.orgSlicing&#45;&gt;http://www.provbook.orgGEODES_Epimodel</title>
<path fill="none" stroke="black" d="M1492.17,-170.26C1537.32,-180.94 1628.53,-202.52 1692.51,-217.65"/>
<polygon fill="black" stroke="black" points="1691.31,-220.97 1701.85,-219.86 1692.92,-214.15 1691.31,-220.97"/>
<text text-anchor="middle" x="1502.46" y="-156.62" font-family="Times,serif" font-size="8.00">assoc</text>
</g>
<!-- http://www.provbook.orgRef36 -->
<g id="node2" class="node">
<title>http://www.provbook.orgRef36</title>
<g id="a_node2"><a xlink:href="http://www.provbook.orgRef36" xlink:title="Ref36">
<ellipse fill="#fffc87" stroke="#808080" cx="1330.67" cy="-90.5" rx="33.44" ry="18"/>
<text text-anchor="middle" x="1330.67" y="-85.45" font-family="Times,serif" font-size="14.00">Ref36</text>
</a>
</g>
</g>
<!-- http://www.provbook.orgRef36&#45;&gt;http://www.provbook.orgSlicing -->
<g id="edge14" class="edge">
<title>http://www.provbook.orgRef36&#45;&gt;http://www.provbook.orgSlicing</title>
<path fill="none" stroke="black" d="M1354.01,-103.74C1374.26,-114.35 1403.93,-129.91 1427.45,-142.24"/>
<polygon fill="black" stroke="black" points="1425.62,-145.23 1436.1,-146.77 1428.87,-139.03 1425.62,-145.23"/>
<text text-anchor="middle" x="1366.68" y="-92.99" font-family="Times,serif" font-size="8.00">gen</text>
</g>
<!-- http://www.provbook.orgtheta -->
<g id="node6" class="node">
<title>http://www.provbook.orgtheta</title>
<g id="a_node6"><a xlink:href="http://www.provbook.orgtheta" xlink:title="theta">
<ellipse fill="#fffc87" stroke="#808080" cx="1233.67" cy="-307.5" rx="28.83" ry="18"/>
<text text-anchor="middle" x="1233.67" y="-302.45" font-family="Times,serif" font-size="14.00">theta</text>
</a>
</g>
</g>
<!-- http://www.provbook.orgRef36&#45;&gt;http://www.provbook.orgtheta -->
<g id="edge16" class="edge">
<title>http://www.provbook.orgRef36&#45;&gt;http://www.provbook.orgtheta</title>
<path fill="none" stroke="black" d="M1298.87,-96.66C1271.84,-102.91 1234.62,-116.35 1216.67,-144.5 1190.32,-185.81 1207.42,-245.4 1221.23,-279.61"/>
<polygon fill="black" stroke="black" points="1217.82,-280.54 1224.94,-288.38 1224.26,-277.8 1217.82,-280.54"/>
</g>
<!-- &#45;attrs0 -->
<g id="node3" class="node">
<title>&#45;attrs0</title>
<polygon fill="none" stroke="gray" points="1379.92,-36.5 1275.42,-36.5 1275.42,0 1385.92,0 1385.92,-30.5 1379.92,-36.5"/>
<polyline fill="none" stroke="gray" points="1379.92,-36.5 1379.92,-30.5"/>
<polyline fill="none" stroke="gray" points="1385.92,-30.5 1379.92,-30.5"/>
<text text-anchor="start" x="1285.42" y="-21" font-family="Times,serif" font-size="10.00">type:</text>
<text text-anchor="start" x="1310.67" y="-21" font-family="Times,serif" font-size="10.00">prov:Collection</text>
<text text-anchor="start" x="1285.42" y="-7.75" font-family="Times,serif" font-size="10.00">label:</text>
<text text-anchor="start" x="1310.67" y="-7.75" font-family="Times,serif" font-size="10.00">Fragment Ref36</text>
</g>
<!-- &#45;attrs0&#45;&gt;http://www.provbook.orgRef36 -->
<g id="edge1" class="edge">
<title>&#45;attrs0&#45;&gt;http://www.provbook.orgRef36</title>
<path fill="none" stroke="gray" stroke-dasharray="5,2" d="M1330.67,-36.98C1330.67,-47.71 1330.67,-61.34 1330.67,-72.02"/>
</g>
<!-- http://www.provbook.orgSAIUGR&#45;&gt;http://www.provbook.orgtheta -->
<g id="edge17" class="edge">
<title>http://www.provbook.orgSAIUGR&#45;&gt;http://www.provbook.orgtheta</title>
<path fill="none" stroke="black" d="M1282.05,-252.54C1273.96,-261.57 1263.75,-272.96 1254.79,-282.94"/>
<polygon fill="black" stroke="black" points="1252.42,-280.35 1248.35,-290.13 1257.63,-285.02 1252.42,-280.35"/>
</g>
<!-- http://www.provbook.orgSAIUGR_AUTHORS -->
<g id="node18" class="node">
<title>http://www.provbook.orgSAIUGR_AUTHORS</title>
<g id="a_node18"><a xlink:href="http://www.provbook.orgSAIUGR_AUTHORS" xlink:title="SAIUGR_AUTHORS">
<polygon fill="#fdb266" stroke="black" points="1549.02,-313.06 1433.67,-325.5 1318.32,-313.06 1318.42,-292.94 1548.91,-292.94 1549.02,-313.06"/>
<text text-anchor="middle" x="1433.67" y="-302.45" font-family="Times,serif" font-size="14.00">SAIUGR_AUTHORS</text>
</a>
</g>
</g>
<!-- http://www.provbook.orgSAIUGR&#45;&gt;http://www.provbook.orgSAIUGR_AUTHORS -->
<g id="edge18" class="edge">
<title>http://www.provbook.orgSAIUGR&#45;&gt;http://www.provbook.orgSAIUGR_AUTHORS</title>
<path fill="none" stroke="black" d="M1323.73,-250.13C1344.56,-260.81 1373.58,-275.69 1396.57,-287.48"/>
<polygon fill="black" stroke="black" points="1394.81,-290.51 1405.31,-291.96 1398.01,-284.28 1394.81,-290.51"/>
<text text-anchor="middle" x="1336.33" y="-239.27" font-family="Times,serif" font-size="8.00">att</text>
</g>
<!-- &#45;attrs1 -->
<g id="node5" class="node">
<title>&#45;attrs1</title>
<polygon fill="none" stroke="gray" points="1413.54,-181 1225.79,-181 1225.79,-144.5 1419.54,-144.5 1419.54,-175 1413.54,-181"/>
<polyline fill="none" stroke="gray" points="1413.54,-181 1413.54,-175"/>
<polyline fill="none" stroke="gray" points="1419.54,-175 1413.54,-175"/>
<text text-anchor="start" x="1235.79" y="-165.5" font-family="Times,serif" font-size="10.00">type:</text>
<text text-anchor="start" x="1263.29" y="-165.5" font-family="Times,serif" font-size="10.00">prov:Collection</text>
<text text-anchor="start" x="1235.79" y="-152.25" font-family="Times,serif" font-size="10.00">value:</text>
<text text-anchor="start" x="1263.29" y="-152.25" font-family="Times,serif" font-size="10.00">A little provenance goes a long way</text>
</g>
<!-- &#45;attrs1&#45;&gt;http://www.provbook.orgSAIUGR -->
<g id="edge2" class="edge">
<title>&#45;attrs1&#45;&gt;http://www.provbook.orgSAIUGR</title>
<path fill="none" stroke="gray" stroke-dasharray="5,2" d="M1316.24,-181.18C1312.21,-192.1 1307.04,-206.13 1303.02,-217.02"/>
</g>
<!-- http://www.provbook.orgReference_36 -->
<g id="node7" class="node">
<title>http://www.provbook.orgReference_36</title>
<g id="a_node7"><a xlink:href="http://www.provbook.orgReference_36" xlink:title="Reference_36">
<ellipse fill="#fffc87" stroke="#808080" cx="1233.67" cy="-379.75" rx="62.1" ry="18"/>
<text text-anchor="middle" x="1233.67" y="-374.7" font-family="Times,serif" font-size="14.00">Reference_36</text>
</a>
</g>
</g>
<!-- http://www.provbook.orgtheta&#45;&gt;http://www.provbook.orgReference_36 -->
<g id="edge19" class="edge">
<title>http://www.provbook.orgtheta&#45;&gt;http://www.provbook.orgReference_36</title>
<path fill="none" stroke="black" d="M1233.67,-325.87C1233.67,-333.18 1233.67,-341.89 1233.67,-350.11"/>
<polygon fill="black" stroke="black" points="1230.17,-350.07 1233.67,-360.07 1237.17,-350.07 1230.17,-350.07"/>
<text text-anchor="middle" x="1246.66" y="-330.64" font-family="Times,serif" font-size="8.00">der</text>
</g>
<!-- http://www.provbook.orgEstimates_of_severity -->
<g id="node8" class="node">
<title>http://www.provbook.orgEstimates_of_severity</title>
<g id="a_node8"><a xlink:href="http://www.provbook.orgEstimates_of_severity" xlink:title="Estimates_of_severity">
<ellipse fill="#fffc87" stroke="#808080" cx="1005.67" cy="-452.25" rx="93.32" ry="18"/>
<text text-anchor="middle" x="1005.67" y="-447.2" font-family="Times,serif" font-size="14.00">Estimates_of_severity</text>
</a>
</g>
</g>
<!-- http://www.provbook.orgReference_36&#45;&gt;http://www.provbook.orgEstimates_of_severity -->
<g id="edge20" class="edge">
<title>http://www.provbook.orgReference_36&#45;&gt;http://www.provbook.orgEstimates_of_severity</title>
<path fill="none" stroke="black" d="M1192.38,-393.52C1156.72,-404.54 1104.77,-420.61 1064.72,-432.99"/>
<polygon fill="black" stroke="black" points="1063.72,-429.63 1055.2,-435.93 1065.79,-436.32 1063.72,-429.63"/>
<text text-anchor="middle" x="1189.05" y="-405.42" font-family="Times,serif" font-size="8.00">der</text>
</g>
<!-- http://www.provbook.orgAUTHORS_36 -->
<g id="node20" class="node">
<title>http://www.provbook.orgAUTHORS_36</title>
<g id="a_node20"><a xlink:href="http://www.provbook.orgAUTHORS_36" xlink:title="AUTHORS_36">
<polygon fill="#fdb266" stroke="black" points="1567.02,-457.81 1482.67,-470.25 1398.32,-457.81 1398.39,-437.69 1566.94,-437.69 1567.02,-457.81"/>
<text text-anchor="middle" x="1482.67" y="-447.2" font-family="Times,serif" font-size="14.00">AUTHORS_36</text>
</a>
</g>
</g>
<!-- http://www.provbook.orgReference_36&#45;&gt;http://www.provbook.orgAUTHORS_36 -->
<g id="edge21" class="edge">
<title>http://www.provbook.orgReference_36&#45;&gt;http://www.provbook.orgAUTHORS_36</title>
<path fill="none" stroke="black" d="M1277.04,-393.03C1317.24,-404.41 1377.44,-421.46 1422.33,-434.17"/>
<polygon fill="black" stroke="black" points="1421.36,-437.53 1431.93,-436.89 1423.26,-430.79 1421.36,-437.53"/>
<text text-anchor="middle" x="1287.79" y="-379.85" font-family="Times,serif" font-size="8.00">att</text>
</g>
<!-- http://www.provbook.orgRepatriation_Flights -->
<g id="node10" class="node">
<title>http://www.provbook.orgRepatriation_Flights</title>
<g id="a_node10"><a xlink:href="http://www.provbook.orgRepatriation_Flights" xlink:title="Repatriation_Flights">
<ellipse fill="#fffc87" stroke="#808080" cx="86.67" cy="-524.75" rx="86.67" ry="18"/>
<text text-anchor="middle" x="86.67" y="-519.7" font-family="Times,serif" font-size="14.00">Repatriation_Flights</text>
</a>
</g>
</g>
<!-- http://www.provbook.orgEstimates_of_severity&#45;&gt;http://www.provbook.orgRepatriation_Flights -->
<g id="edge22" class="edge">
<title>http://www.provbook.orgEstimates_of_severity&#45;&gt;http://www.provbook.orgRepatriation_Flights</title>
<path fill="none" stroke="black" d="M918.67,-459.04C867.92,-462.41 802.67,-466.73 744.67,-470.5 494.9,-486.75 431.13,-476.32 182.67,-506.5 175.01,-507.43 167.04,-508.57 159.11,-509.83"/>
<polygon fill="black" stroke="black" points="158.76,-506.34 149.46,-511.42 159.89,-513.25 158.76,-506.34"/>
<text text-anchor="middle" x="912.05" y="-469.78" font-family="Times,serif" font-size="8.00">der</text>
</g>
<!-- http://www.provbook.orgDiamond_Princess_Cruise_Ship -->
<g id="node12" class="node">
<title>http://www.provbook.orgDiamond_Princess_Cruise_Ship</title>
<g id="a_node12"><a xlink:href="http://www.provbook.orgDiamond_Princess_Cruise_Ship" xlink:title="Diamond_Princess_Cruise_Ship">
<ellipse fill="#fffc87" stroke="#808080" cx="687.67" cy="-524.75" rx="131.19" ry="18"/>
<text text-anchor="middle" x="687.67" y="-519.7" font-family="Times,serif" font-size="14.00">Diamond_Princess_Cruise_Ship</text>
</a>
</g>
</g>
<!-- http://www.provbook.orgEstimates_of_severity&#45;&gt;http://www.provbook.orgDiamond_Princess_Cruise_Ship -->
<g id="edge23" class="edge">
<title>http://www.provbook.orgEstimates_of_severity&#45;&gt;http://www.provbook.orgDiamond_Princess_Cruise_Ship</title>
<path fill="none" stroke="black" d="M946.23,-466.43C895.35,-477.71 821.72,-494.03 766.04,-506.38"/>
<polygon fill="black" stroke="black" points="765.28,-502.96 756.27,-508.54 766.79,-509.79 765.28,-502.96"/>
<text text-anchor="middle" x="941.72" y="-478.01" font-family="Times,serif" font-size="8.00">der</text>
</g>
<!-- http://www.provbook.orgCovid_Cases_Jan -->
<g id="node14" class="node">
<title>http://www.provbook.orgCovid_Cases_Jan</title>
<g id="a_node14"><a xlink:href="http://www.provbook.orgCovid_Cases_Jan" xlink:title="Covid_Cases_Jan">
<ellipse fill="#fffc87" stroke="#808080" cx="1137.67" cy="-524.75" rx="76.43" ry="18"/>
<text text-anchor="middle" x="1137.67" y="-519.7" font-family="Times,serif" font-size="14.00">Covid_Cases_Jan</text>
</a>
</g>
</g>
<!-- http://www.provbook.orgEstimates_of_severity&#45;&gt;http://www.provbook.orgCovid_Cases_Jan -->
<g id="edge24" class="edge">
<title>http://www.provbook.orgEstimates_of_severity&#45;&gt;http://www.provbook.orgCovid_Cases_Jan</title>
<path fill="none" stroke="black" d="M1036.28,-469.6C1054.57,-479.37 1078.01,-491.89 1097.74,-502.42"/>
<polygon fill="black" stroke="black" points="1095.87,-505.39 1106.34,-507.02 1099.17,-499.22 1095.87,-505.39"/>
<text text-anchor="middle" x="1049.02" y="-458.95" font-family="Times,serif" font-size="8.00">der</text>
</g>
<!-- http://www.provbook.orgSEVERITY_AUTHORS -->
<g id="node22" class="node">
<title>http://www.provbook.orgSEVERITY_AUTHORS</title>
<g id="a_node22"><a xlink:href="http://www.provbook.orgSEVERITY_AUTHORS" xlink:title="SEVERITY_AUTHORS">
<polygon fill="#fdb266" stroke="black" points="1487.67,-530.31 1359.67,-542.75 1231.66,-530.31 1231.78,-510.19 1487.55,-510.19 1487.67,-530.31"/>
<text text-anchor="middle" x="1359.67" y="-519.7" font-family="Times,serif" font-size="14.00">SEVERITY_AUTHORS</text>
</a>
</g>
</g>
<!-- http://www.provbook.orgEstimates_of_severity&#45;&gt;http://www.provbook.orgSEVERITY_AUTHORS -->
<g id="edge25" class="edge">
<title>http://www.provbook.orgEstimates_of_severity&#45;&gt;http://www.provbook.orgSEVERITY_AUTHORS</title>
<path fill="none" stroke="black" d="M1068.95,-465.85C1127.39,-477.49 1214.51,-494.84 1278.14,-507.51"/>
<polygon fill="black" stroke="black" points="1277.36,-510.93 1287.85,-509.45 1278.73,-504.06 1277.36,-510.93"/>
<text text-anchor="middle" x="1078.85" y="-451.85" font-family="Times,serif" font-size="8.00">att</text>
</g>
<!-- &#45;attrs2 -->
<g id="node9" class="node">
<title>&#45;attrs2</title>
<polygon fill="none" stroke="gray" points="1037.67,-397.75 967.67,-397.75 967.67,-361.75 1043.67,-361.75 1043.67,-391.75 1037.67,-397.75"/>
<polyline fill="none" stroke="gray" points="1037.67,-397.75 1037.67,-391.75"/>
<polyline fill="none" stroke="gray" points="1043.67,-391.75 1037.67,-391.75"/>
<text text-anchor="start" x="977.67" y="-375.88" font-family="Times,serif" font-size="10.00">state:</text>
<text text-anchor="start" x="1001.42" y="-375.88" font-family="Times,serif" font-size="10.00">preprint</text>
</g>
<!-- &#45;attrs2&#45;&gt;http://www.provbook.orgEstimates_of_severity -->
<g id="edge3" class="edge">
<title>&#45;attrs2&#45;&gt;http://www.provbook.orgEstimates_of_severity</title>
<path fill="none" stroke="gray" stroke-dasharray="5,2" d="M1005.67,-398.18C1005.67,-409.1 1005.67,-423.13 1005.67,-434.02"/>
</g>
<!-- http://www.provbook.orgREPATRIATION_FLIGHT_TEAM -->
<g id="node24" class="node">
<title>http://www.provbook.orgREPATRIATION_FLIGHT_TEAM</title>
<g id="a_node24"><a xlink:href="http://www.provbook.orgREPATRIATION_FLIGHT_TEAM" xlink:title="REPATRIATION_FLIGHT_TEAM">
<polygon fill="#fdb266" stroke="black" points="463.28,-602.56 284.67,-615 106.05,-602.56 106.22,-582.44 463.11,-582.44 463.28,-602.56"/>
<text text-anchor="middle" x="284.67" y="-591.95" font-family="Times,serif" font-size="14.00">REPATRIATION_FLIGHT_TEAM</text>
</a>
</g>
</g>
<!-- http://www.provbook.orgRepatriation_Flights&#45;&gt;http://www.provbook.orgREPATRIATION_FLIGHT_TEAM -->
<g id="edge26" class="edge">
<title>http://www.provbook.orgRepatriation_Flights&#45;&gt;http://www.provbook.orgREPATRIATION_FLIGHT_TEAM</title>
<path fill="none" stroke="black" d="M129.14,-540.82C160.08,-551.8 202.08,-566.7 234.64,-578.25"/>
<polygon fill="black" stroke="black" points="233.27,-581.48 243.86,-581.52 235.61,-574.88 233.27,-581.48"/>
<text text-anchor="middle" x="140.55" y="-528.36" font-family="Times,serif" font-size="8.00">att</text>
</g>
<!-- &#45;attrs3 -->
<g id="node11" class="node">
<title>&#45;attrs3</title>
<polygon fill="none" stroke="gray" points="128.42,-470.25 38.92,-470.25 38.92,-434.25 134.42,-434.25 134.42,-464.25 128.42,-470.25"/>
<polyline fill="none" stroke="gray" points="128.42,-470.25 128.42,-464.25"/>
<polyline fill="none" stroke="gray" points="134.42,-464.25 128.42,-464.25"/>
<text text-anchor="start" x="48.92" y="-448.38" font-family="Times,serif" font-size="10.00">type:</text>
<text text-anchor="start" x="71.92" y="-448.38" font-family="Times,serif" font-size="10.00">prov:Dataset</text>
</g>
<!-- &#45;attrs3&#45;&gt;http://www.provbook.orgRepatriation_Flights -->
<g id="edge4" class="edge">
<title>&#45;attrs3&#45;&gt;http://www.provbook.orgRepatriation_Flights</title>
<path fill="none" stroke="gray" stroke-dasharray="5,2" d="M86.67,-470.68C86.67,-481.6 86.67,-495.63 86.67,-506.52"/>
</g>
<!-- http://www.provbook.orgCRUISE_SHIP_AUTHORS -->
<g id="node26" class="node">
<title>http://www.provbook.orgCRUISE_SHIP_AUTHORS</title>
<g id="a_node26"><a xlink:href="http://www.provbook.orgCRUISE_SHIP_AUTHORS" xlink:title="CRUISE_SHIP_AUTHORS">
<polygon fill="#fdb266" stroke="black" points="898.48,-602.56 754.67,-615 610.85,-602.56 610.98,-582.44 898.35,-582.44 898.48,-602.56"/>
<text text-anchor="middle" x="754.67" y="-591.95" font-family="Times,serif" font-size="14.00">CRUISE_SHIP_AUTHORS</text>
</a>
</g>
</g>
<!-- http://www.provbook.orgDiamond_Princess_Cruise_Ship&#45;&gt;http://www.provbook.orgCRUISE_SHIP_AUTHORS -->
<g id="edge27" class="edge">
<title>http://www.provbook.orgDiamond_Princess_Cruise_Ship&#45;&gt;http://www.provbook.orgCRUISE_SHIP_AUTHORS</title>
<path fill="none" stroke="black" d="M703.89,-542.76C712.75,-552.05 723.84,-563.68 733.39,-573.7"/>
<polygon fill="black" stroke="black" points="730.82,-576.07 740.25,-580.89 735.89,-571.24 730.82,-576.07"/>
<text text-anchor="middle" x="718.46" y="-536.49" font-family="Times,serif" font-size="8.00">att</text>
</g>
<!-- &#45;attrs4 -->
<g id="node13" class="node">
<title>&#45;attrs4</title>
<polygon fill="none" stroke="gray" points="729.42,-470.25 639.92,-470.25 639.92,-434.25 735.42,-434.25 735.42,-464.25 729.42,-470.25"/>
<polyline fill="none" stroke="gray" points="729.42,-470.25 729.42,-464.25"/>
<polyline fill="none" stroke="gray" points="735.42,-464.25 729.42,-464.25"/>
<text text-anchor="start" x="649.92" y="-448.38" font-family="Times,serif" font-size="10.00">type:</text>
<text text-anchor="start" x="672.92" y="-448.38" font-family="Times,serif" font-size="10.00">prov:Dataset</text>
</g>
<!-- &#45;attrs4&#45;&gt;http://www.provbook.orgDiamond_Princess_Cruise_Ship -->
<g id="edge5" class="edge">
<title>&#45;attrs4&#45;&gt;http://www.provbook.orgDiamond_Princess_Cruise_Ship</title>
<path fill="none" stroke="gray" stroke-dasharray="5,2" d="M687.67,-470.68C687.67,-481.6 687.67,-495.63 687.67,-506.52"/>
</g>
<!-- http://www.provbook.orgCovid_Cases -->
<g id="node28" class="node">
<title>http://www.provbook.orgCovid_Cases</title>
<ellipse fill="none" stroke="black" cx="1137.67" cy="-597" rx="153.71" ry="18"/>
<text text-anchor="middle" x="1137.67" y="-591.95" font-family="Times,serif" font-size="14.00">http://www.provbook.orgCovid_Cases</text>
</g>
<!-- http://www.provbook.orgCovid_Cases_Jan&#45;&gt;http://www.provbook.orgCovid_Cases -->
<g id="edge28" class="edge">
<title>http://www.provbook.orgCovid_Cases_Jan&#45;&gt;http://www.provbook.orgCovid_Cases</title>
<path fill="none" stroke="black" d="M1137.67,-543.12C1137.67,-550.43 1137.67,-559.14 1137.67,-567.36"/>
<polygon fill="black" stroke="black" points="1134.17,-567.32 1137.67,-577.32 1141.17,-567.32 1134.17,-567.32"/>
<text text-anchor="middle" x="1150.66" y="-547.89" font-family="Times,serif" font-size="8.00">spe</text>
</g>
<!-- &#45;attrs5 -->
<g id="node15" class="node">
<title>&#45;attrs5</title>
<polygon fill="none" stroke="gray" points="1206.42,-470.25 1116.92,-470.25 1116.92,-434.25 1212.42,-434.25 1212.42,-464.25 1206.42,-470.25"/>
<polyline fill="none" stroke="gray" points="1206.42,-470.25 1206.42,-464.25"/>
<polyline fill="none" stroke="gray" points="1212.42,-464.25 1206.42,-464.25"/>
<text text-anchor="start" x="1126.92" y="-448.38" font-family="Times,serif" font-size="10.00">type:</text>
<text text-anchor="start" x="1149.92" y="-448.38" font-family="Times,serif" font-size="10.00">prov:Dataset</text>
</g>
<!-- &#45;attrs5&#45;&gt;http://www.provbook.orgCovid_Cases_Jan -->
<g id="edge6" class="edge">
<title>&#45;attrs5&#45;&gt;http://www.provbook.orgCovid_Cases_Jan</title>
<path fill="none" stroke="gray" stroke-dasharray="5,2" d="M1157.99,-470.68C1153.81,-481.6 1148.43,-495.63 1144.26,-506.52"/>
</g>
<!-- &#45;attrs6 -->
<g id="node17" class="node">
<title>&#45;attrs6</title>
<polygon fill="none" stroke="gray" points="1820.17,-180.75 1699.17,-180.75 1699.17,-144.75 1826.17,-144.75 1826.17,-174.75 1820.17,-180.75"/>
<polyline fill="none" stroke="gray" points="1820.17,-180.75 1820.17,-174.75"/>
<polyline fill="none" stroke="gray" points="1826.17,-174.75 1820.17,-174.75"/>
<text text-anchor="start" x="1709.17" y="-158.88" font-family="Times,serif" font-size="10.00">label:</text>
<text text-anchor="start" x="1734.42" y="-158.88" font-family="Times,serif" font-size="10.00">GEODES Epimodel</text>
</g>
<!-- &#45;attrs6&#45;&gt;http://www.provbook.orgGEODES_Epimodel -->
<g id="edge7" class="edge">
<title>&#45;attrs6&#45;&gt;http://www.provbook.orgGEODES_Epimodel</title>
<path fill="none" stroke="gray" stroke-dasharray="5,2" d="M1762.67,-181.18C1762.67,-193.25 1762.67,-209.1 1762.67,-220.33"/>
</g>
<!-- &#45;attrs7 -->
<g id="node19" class="node">
<title>&#45;attrs7</title>
<polygon fill="none" stroke="gray" points="1629.79,-253.5 1359.54,-253.5 1359.54,-217 1635.79,-217 1635.79,-247.5 1629.79,-253.5"/>
<polyline fill="none" stroke="gray" points="1629.79,-253.5 1629.79,-247.5"/>
<polyline fill="none" stroke="gray" points="1635.79,-247.5 1629.79,-247.5"/>
<text text-anchor="start" x="1369.54" y="-238" font-family="Times,serif" font-size="10.00">type:</text>
<text text-anchor="start" x="1421.79" y="-238" font-family="Times,serif" font-size="10.00">prov:Person</text>
<text text-anchor="start" x="1369.54" y="-224.75" font-family="Times,serif" font-size="10.00">givenName:</text>
<text text-anchor="start" x="1421.79" y="-224.75" font-family="Times,serif" font-size="10.00">Ambalarajan, V., Mallela, A.R., Sivakumar, V. et al</text>
</g>
<!-- &#45;attrs7&#45;&gt;http://www.provbook.orgSAIUGR_AUTHORS -->
<g id="edge8" class="edge">
<title>&#45;attrs7&#45;&gt;http://www.provbook.orgSAIUGR_AUTHORS</title>
<path fill="none" stroke="gray" stroke-dasharray="5,2" d="M1481.52,-253.98C1470.56,-266.01 1456.28,-281.68 1446.18,-292.77"/>
</g>
<!-- &#45;attrs8 -->
<g id="node21" class="node">
<title>&#45;attrs8</title>
<polygon fill="none" stroke="gray" points="1590.79,-398 1368.54,-398 1368.54,-361.5 1596.79,-361.5 1596.79,-392 1590.79,-398"/>
<polyline fill="none" stroke="gray" points="1590.79,-398 1590.79,-392"/>
<polyline fill="none" stroke="gray" points="1596.79,-392 1590.79,-392"/>
<text text-anchor="start" x="1378.54" y="-382.5" font-family="Times,serif" font-size="10.00">type:</text>
<text text-anchor="start" x="1405.29" y="-382.5" font-family="Times,serif" font-size="10.00">prov:Organization</text>
<text text-anchor="start" x="1378.54" y="-369.25" font-family="Times,serif" font-size="10.00">name:</text>
<text text-anchor="start" x="1405.29" y="-369.25" font-family="Times,serif" font-size="10.00">Imperial College COVID&#45;19 Response Team</text>
</g>
<!-- &#45;attrs8&#45;&gt;http://www.provbook.orgAUTHORS_36 -->
<g id="edge9" class="edge">
<title>&#45;attrs8&#45;&gt;http://www.provbook.orgAUTHORS_36</title>
<path fill="none" stroke="gray" stroke-dasharray="5,2" d="M1482.67,-398.18C1482.67,-410.25 1482.67,-426.1 1482.67,-437.33"/>
</g>
<!-- &#45;attrs9 -->
<g id="node23" class="node">
<title>&#45;attrs9</title>
<polygon fill="none" stroke="gray" points="1374.42,-470.5 1284.92,-470.5 1284.92,-434 1380.42,-434 1380.42,-464.5 1374.42,-470.5"/>
<polyline fill="none" stroke="gray" points="1374.42,-470.5 1374.42,-464.5"/>
<polyline fill="none" stroke="gray" points="1380.42,-464.5 1374.42,-464.5"/>
<text text-anchor="start" x="1294.92" y="-455" font-family="Times,serif" font-size="10.00">type:</text>
<text text-anchor="start" x="1321.67" y="-455" font-family="Times,serif" font-size="10.00">prov:Person</text>
<text text-anchor="start" x="1294.92" y="-441.75" font-family="Times,serif" font-size="10.00">name:</text>
<text text-anchor="start" x="1321.67" y="-441.75" font-family="Times,serif" font-size="10.00">Verity, et al.</text>
</g>
<!-- &#45;attrs9&#45;&gt;http://www.provbook.orgSEVERITY_AUTHORS -->
<g id="edge10" class="edge">
<title>&#45;attrs9&#45;&gt;http://www.provbook.orgSEVERITY_AUTHORS</title>
<path fill="none" stroke="gray" stroke-dasharray="5,2" d="M1339.34,-470.68C1343.96,-482.75 1350.03,-498.6 1354.33,-509.83"/>
</g>
<!-- &#45;attrs10 -->
<g id="node25" class="node">
<title>&#45;attrs10</title>
<polygon fill="none" stroke="gray" points="532.04,-543 191.29,-543 191.29,-506.5 538.04,-506.5 538.04,-537 532.04,-543"/>
<polyline fill="none" stroke="gray" points="532.04,-543 532.04,-537"/>
<polyline fill="none" stroke="gray" points="538.04,-537 532.04,-537"/>
<text text-anchor="start" x="201.29" y="-527.5" font-family="Times,serif" font-size="10.00">type:</text>
<text text-anchor="start" x="228.04" y="-527.5" font-family="Times,serif" font-size="10.00">prov:Organization</text>
<text text-anchor="start" x="201.29" y="-514.25" font-family="Times,serif" font-size="10.00">name:</text>
<text text-anchor="start" x="228.04" y="-514.25" font-family="Times,serif" font-size="10.00">Novel Coronavirus Pneumonia Emergency Response Epidemiology Team</text>
</g>
<!-- &#45;attrs10&#45;&gt;http://www.provbook.orgREPATRIATION_FLIGHT_TEAM -->
<g id="edge11" class="edge">
<title>&#45;attrs10&#45;&gt;http://www.provbook.orgREPATRIATION_FLIGHT_TEAM</title>
<path fill="none" stroke="gray" stroke-dasharray="5,2" d="M344.48,-543.48C330.87,-555.43 313.17,-570.97 300.56,-582.04"/>
</g>
<!-- &#45;attrs11 -->
<g id="node27" class="node">
<title>&#45;attrs11</title>
<polygon fill="none" stroke="gray" points="1036.92,-543 836.42,-543 836.42,-506.5 1042.92,-506.5 1042.92,-537 1036.92,-543"/>
<polyline fill="none" stroke="gray" points="1036.92,-543 1036.92,-537"/>
<polyline fill="none" stroke="gray" points="1042.92,-537 1036.92,-537"/>
<text text-anchor="start" x="846.42" y="-527.5" font-family="Times,serif" font-size="10.00">type:</text>
<text text-anchor="start" x="873.17" y="-527.5" font-family="Times,serif" font-size="10.00">prov:Organization</text>
<text text-anchor="start" x="846.42" y="-514.25" font-family="Times,serif" font-size="10.00">name:</text>
<text text-anchor="start" x="873.17" y="-514.25" font-family="Times,serif" font-size="10.00">Ministry of Health, Labour and Welfare</text>
</g>
<!-- &#45;attrs11&#45;&gt;http://www.provbook.orgCRUISE_SHIP_AUTHORS -->
<g id="edge12" class="edge">
<title>&#45;attrs11&#45;&gt;http://www.provbook.orgCRUISE_SHIP_AUTHORS</title>
<path fill="none" stroke="gray" stroke-dasharray="5,2" d="M892.98,-543.48C861.51,-555.43 820.58,-570.97 791.42,-582.04"/>
</g>
</g>
</svg>
