<?xml version="1.0" encoding="UTF-8" standalone="no"?>
<!DOCTYPE svg PUBLIC "-//W3C//DTD SVG 1.1//EN"
 "http://www.w3.org/Graphics/SVG/1.1/DTD/svg11.dtd">
<!-- Generated by graphviz version 12.2.1 (20241206.2353)
 -->
<!-- Title: PROV Pages: 1 -->
<svg width="1152pt" height="366pt"
 viewBox="0.00 0.00 1152.00 366.41" xmlns="http://www.w3.org/2000/svg" xmlns:xlink="http://www.w3.org/1999/xlink">
<g id="graph0" class="graph" transform="scale(0.526824 0.526824) rotate(0) translate(4 691.5)">
<title>PROV</title>
<polygon fill="white" stroke="none" points="-4,4 -4,-691.5 2182.69,-691.5 2182.69,4 -4,4"/>
<!-- http://www.provbook.orgSlicing -->
<g id="node1" class="node">
<title>http://www.provbook.orgSlicing</title>
<g id="a_node1"><a xlink:href="http://www.provbook.orgSlicing" xlink:title="Slicing">
<polygon fill="#9fb1fc" stroke="#0000ff" points="1798.79,-180.75 1744.54,-180.75 1744.54,-144.75 1798.79,-144.75 1798.79,-180.75"/>
<text text-anchor="middle" x="1771.67" y="-157.7" font-family="Times,serif" font-size="14.00">Slicing</text>
</a>
</g>
</g>
<!-- http://www.provbook.orgSAIUGR -->
<g id="node4" class="node">
<title>http://www.provbook.orgSAIUGR</title>
<g id="a_node4"><a xlink:href="http://www.provbook.orgSAIUGR" xlink:title="SAIUGR">
<ellipse fill="#fffc87" stroke="#808080" cx="1603.67" cy="-235.25" rx="45.21" ry="18"/>
<text text-anchor="middle" x="1603.67" y="-230.2" font-family="Times,serif" font-size="14.00">SAIUGR</text>
</a>
</g>
</g>
<!-- http://www.provbook.orgSlicing&#45;&gt;http://www.provbook.orgSAIUGR -->
<g id="edge16" class="edge">
<title>http://www.provbook.orgSlicing&#45;&gt;http://www.provbook.orgSAIUGR</title>
<path fill="none" stroke="black" d="M1744.23,-177.12C1741.35,-178.45 1738.46,-179.77 1735.67,-181 1705.99,-194.08 1672.04,-207.75 1646.01,-217.96"/>
<polygon fill="black" stroke="black" points="1644.82,-214.66 1636.78,-221.56 1647.37,-221.18 1644.82,-214.66"/>
<text text-anchor="middle" x="1742.89" y="-189.33" font-family="Times,serif" font-size="8.00">use</text>
</g>
<!-- http://www.provbook.orgGEODES_Epimodel -->
<g id="node20" class="node">
<title>http://www.provbook.orgGEODES_Epimodel</title>
<g id="a_node20"><a xlink:href="http://www.provbook.orgGEODES_Epimodel" xlink:title="GEODES_Epimodel">
<polygon fill="#fdb266" stroke="black" points="2178.69,-240.81 2069.67,-253.25 1960.64,-240.81 1960.74,-220.69 2178.59,-220.69 2178.69,-240.81"/>
<text text-anchor="middle" x="2069.67" y="-230.2" font-family="Times,serif" font-size="14.00">GEODES_Epimodel</text>
</a>
</g>
</g>
<!-- http://www.provbook.orgSlicing&#45;&gt;http://www.provbook.orgGEODES_Epimodel -->
<g id="edge18" class="edge">
<title>http://www.provbook.orgSlicing&#45;&gt;http://www.provbook.orgGEODES_Epimodel</title>
<path fill="none" stroke="black" d="M1799.17,-170.26C1844.32,-180.94 1935.53,-202.52 1999.51,-217.65"/>
<polygon fill="black" stroke="black" points="1998.31,-220.97 2008.85,-219.86 1999.92,-214.15 1998.31,-220.97"/>
<text text-anchor="middle" x="1809.46" y="-156.62" font-family="Times,serif" font-size="8.00">assoc</text>
</g>
<!-- http://www.provbook.orgRef36 -->
<g id="node2" class="node">
<title>http://www.provbook.orgRef36</title>
<g id="a_node2"><a xlink:href="http://www.provbook.orgRef36" xlink:title="Ref36">
<ellipse fill="#fffc87" stroke="#808080" cx="1637.67" cy="-90.5" rx="33.44" ry="18"/>
<text text-anchor="middle" x="1637.67" y="-85.45" font-family="Times,serif" font-size="14.00">Ref36</text>
</a>
</g>
</g>
<!-- http://www.provbook.orgRef36&#45;&gt;http://www.provbook.orgSlicing -->
<g id="edge17" class="edge">
<title>http://www.provbook.orgRef36&#45;&gt;http://www.provbook.orgSlicing</title>
<path fill="none" stroke="black" d="M1661.01,-103.74C1681.26,-114.35 1710.93,-129.91 1734.45,-142.24"/>
<polygon fill="black" stroke="black" points="1732.62,-145.23 1743.1,-146.77 1735.87,-139.03 1732.62,-145.23"/>
<text text-anchor="middle" x="1673.68" y="-92.99" font-family="Times,serif" font-size="8.00">gen</text>
</g>
<!-- http://www.provbook.orgtheta -->
<g id="node6" class="node">
<title>http://www.provbook.orgtheta</title>
<g id="a_node6"><a xlink:href="http://www.provbook.orgtheta" xlink:title="theta">
<ellipse fill="#fffc87" stroke="#808080" cx="1540.67" cy="-307.5" rx="28.83" ry="18"/>
<text text-anchor="middle" x="1540.67" y="-302.45" font-family="Times,serif" font-size="14.00">theta</text>
</a>
</g>
</g>
<!-- http://www.provbook.orgRef36&#45;&gt;http://www.provbook.orgtheta -->
<g id="edge19" class="edge">
<title>http://www.provbook.orgRef36&#45;&gt;http://www.provbook.orgtheta</title>
<path fill="none" stroke="black" d="M1605.87,-96.66C1578.84,-102.91 1541.62,-116.35 1523.67,-144.5 1497.32,-185.81 1514.42,-245.4 1528.23,-279.61"/>
<polygon fill="black" stroke="black" points="1524.82,-280.54 1531.94,-288.38 1531.26,-277.8 1524.82,-280.54"/>
</g>
<!-- &#45;attrs0 -->
<g id="node3" class="node">
<title>&#45;attrs0</title>
<polygon fill="none" stroke="gray" points="1686.92,-36.5 1582.42,-36.5 1582.42,0 1692.92,0 1692.92,-30.5 1686.92,-36.5"/>
<polyline fill="none" stroke="gray" points="1686.92,-36.5 1686.92,-30.5"/>
<polyline fill="none" stroke="gray" points="1692.92,-30.5 1686.92,-30.5"/>
<text text-anchor="start" x="1592.42" y="-21" font-family="Times,serif" font-size="10.00">type:</text>
<text text-anchor="start" x="1617.67" y="-21" font-family="Times,serif" font-size="10.00">prov:Collection</text>
<text text-anchor="start" x="1592.42" y="-7.75" font-family="Times,serif" font-size="10.00">label:</text>
<text text-anchor="start" x="1617.67" y="-7.75" font-family="Times,serif" font-size="10.00">Fragment Ref36</text>
</g>
<!-- &#45;attrs0&#45;&gt;http://www.provbook.orgRef36 -->
<g id="edge1" class="edge">
<title>&#45;attrs0&#45;&gt;http://www.provbook.orgRef36</title>
<path fill="none" stroke="gray" stroke-dasharray="5,2" d="M1637.67,-36.98C1637.67,-47.71 1637.67,-61.34 1637.67,-72.02"/>
</g>
<!-- http://www.provbook.orgSAIUGR&#45;&gt;http://www.provbook.orgtheta -->
<g id="edge20" class="edge">
<title>http://www.provbook.orgSAIUGR&#45;&gt;http://www.provbook.orgtheta</title>
<path fill="none" stroke="black" d="M1589.05,-252.54C1580.96,-261.57 1570.75,-272.96 1561.79,-282.94"/>
<polygon fill="black" stroke="black" points="1559.42,-280.35 1555.35,-290.13 1564.63,-285.02 1559.42,-280.35"/>
</g>
<!-- http://www.provbook.orgSAIUGR_AUTHORS -->
<g id="node22" class="node">
<title>http://www.provbook.orgSAIUGR_AUTHORS</title>
<g id="a_node22"><a xlink:href="http://www.provbook.orgSAIUGR_AUTHORS" xlink:title="SAIUGR_AUTHORS">
<polygon fill="#fdb266" stroke="black" points="1856.02,-313.06 1740.67,-325.5 1625.32,-313.06 1625.42,-292.94 1855.91,-292.94 1856.02,-313.06"/>
<text text-anchor="middle" x="1740.67" y="-302.45" font-family="Times,serif" font-size="14.00">SAIUGR_AUTHORS</text>
</a>
</g>
</g>
<!-- http://www.provbook.orgSAIUGR&#45;&gt;http://www.provbook.orgSAIUGR_AUTHORS -->
<g id="edge21" class="edge">
<title>http://www.provbook.orgSAIUGR&#45;&gt;http://www.provbook.orgSAIUGR_AUTHORS</title>
<path fill="none" stroke="black" d="M1630.73,-250.13C1651.56,-260.81 1680.58,-275.69 1703.57,-287.48"/>
<polygon fill="black" stroke="black" points="1701.81,-290.51 1712.31,-291.96 1705.01,-284.28 1701.81,-290.51"/>
<text text-anchor="middle" x="1643.33" y="-239.27" font-family="Times,serif" font-size="8.00">att</text>
</g>
<!-- &#45;attrs1 -->
<g id="node5" class="node">
<title>&#45;attrs1</title>
<polygon fill="none" stroke="gray" points="1720.54,-181 1532.79,-181 1532.79,-144.5 1726.54,-144.5 1726.54,-175 1720.54,-181"/>
<polyline fill="none" stroke="gray" points="1720.54,-181 1720.54,-175"/>
<polyline fill="none" stroke="gray" points="1726.54,-175 1720.54,-175"/>
<text text-anchor="start" x="1542.79" y="-165.5" font-family="Times,serif" font-size="10.00">type:</text>
<text text-anchor="start" x="1570.29" y="-165.5" font-family="Times,serif" font-size="10.00">prov:Collection</text>
<text text-anchor="start" x="1542.79" y="-152.25" font-family="Times,serif" font-size="10.00">value:</text>
<text text-anchor="start" x="1570.29" y="-152.25" font-family="Times,serif" font-size="10.00">A little provenance goes a long way</text>
</g>
<!-- &#45;attrs1&#45;&gt;http://www.provbook.orgSAIUGR -->
<g id="edge2" class="edge">
<title>&#45;attrs1&#45;&gt;http://www.provbook.orgSAIUGR</title>
<path fill="none" stroke="gray" stroke-dasharray="5,2" d="M1623.24,-181.18C1619.21,-192.1 1614.04,-206.13 1610.02,-217.02"/>
</g>
<!-- http://www.provbook.orgReference_36 -->
<g id="node7" class="node">
<title>http://www.provbook.orgReference_36</title>
<g id="a_node7"><a xlink:href="http://www.provbook.orgReference_36" xlink:title="Reference_36">
<ellipse fill="#fffc87" stroke="#808080" cx="1540.67" cy="-379.75" rx="62.1" ry="18"/>
<text text-anchor="middle" x="1540.67" y="-374.7" font-family="Times,serif" font-size="14.00">Reference_36</text>
</a>
</g>
</g>
<!-- http://www.provbook.orgtheta&#45;&gt;http://www.provbook.orgReference_36 -->
<g id="edge22" class="edge">
<title>http://www.provbook.orgtheta&#45;&gt;http://www.provbook.orgReference_36</title>
<path fill="none" stroke="black" d="M1540.67,-325.87C1540.67,-333.18 1540.67,-341.89 1540.67,-350.11"/>
<polygon fill="black" stroke="black" points="1537.17,-350.07 1540.67,-360.07 1544.17,-350.07 1537.17,-350.07"/>
<text text-anchor="middle" x="1553.66" y="-330.64" font-family="Times,serif" font-size="8.00">der</text>
</g>
<!-- http://www.provbook.orgEstimates_of_severity -->
<g id="node8" class="node">
<title>http://www.provbook.orgEstimates_of_severity</title>
<g id="a_node8"><a xlink:href="http://www.provbook.orgEstimates_of_severity" xlink:title="Estimates_of_severity">
<ellipse fill="#fffc87" stroke="#808080" cx="1086.67" cy="-452.25" rx="93.32" ry="18"/>
<text text-anchor="middle" x="1086.67" y="-447.2" font-family="Times,serif" font-size="14.00">Estimates_of_severity</text>
</a>
</g>
</g>
<!-- http://www.provbook.orgReference_36&#45;&gt;http://www.provbook.orgEstimates_of_severity -->
<g id="edge23" class="edge">
<title>http://www.provbook.orgReference_36&#45;&gt;http://www.provbook.orgEstimates_of_severity</title>
<path fill="none" stroke="black" d="M1486.05,-388.71C1416.81,-398.87 1293.79,-417.16 1188.67,-434 1181.28,-435.18 1173.6,-436.44 1165.91,-437.71"/>
<polygon fill="black" stroke="black" points="1165.46,-434.24 1156.17,-439.33 1166.61,-441.14 1165.46,-434.24"/>
<text text-anchor="middle" x="1480.52" y="-399.93" font-family="Times,serif" font-size="8.00">der</text>
</g>
<!-- http://www.provbook.orgAUTHORS_36 -->
<g id="node24" class="node">
<title>http://www.provbook.orgAUTHORS_36</title>
<g id="a_node24"><a xlink:href="http://www.provbook.orgAUTHORS_36" xlink:title="AUTHORS_36">
<polygon fill="#fdb266" stroke="black" points="2097.02,-457.81 2012.67,-470.25 1928.32,-457.81 1928.39,-437.69 2096.94,-437.69 2097.02,-457.81"/>
<text text-anchor="middle" x="2012.67" y="-447.2" font-family="Times,serif" font-size="14.00">AUTHORS_36</text>
</a>
</g>
</g>
<!-- http://www.provbook.orgReference_36&#45;&gt;http://www.provbook.orgAUTHORS_36 -->
<g id="edge24" class="edge">
<title>http://www.provbook.orgReference_36&#45;&gt;http://www.provbook.orgAUTHORS_36</title>
<path fill="none" stroke="black" d="M1596.81,-387.92C1670.73,-397.53 1804.67,-415.52 1918.67,-434 1921.29,-434.43 1923.96,-434.87 1926.65,-435.32"/>
<polygon fill="black" stroke="black" points="1925.87,-438.73 1936.31,-436.97 1927.04,-431.83 1925.87,-438.73"/>
<text text-anchor="middle" x="1605.94" y="-373.29" font-family="Times,serif" font-size="8.00">att</text>
</g>
<!-- http://www.provbook.orgRepatriation_Flights -->
<g id="node10" class="node">
<title>http://www.provbook.orgRepatriation_Flights</title>
<g id="a_node10"><a xlink:href="http://www.provbook.orgRepatriation_Flights" xlink:title="Repatriation_Flights">
<ellipse fill="#fffc87" stroke="#808080" cx="86.67" cy="-524.75" rx="86.67" ry="18"/>
<text text-anchor="middle" x="86.67" y="-519.7" font-family="Times,serif" font-size="14.00">Repatriation_Flights</text>
</a>
</g>
</g>
<!-- http://www.provbook.orgEstimates_of_severity&#45;&gt;http://www.provbook.orgRepatriation_Flights -->
<g id="edge25" class="edge">
<title>http://www.provbook.orgEstimates_of_severity&#45;&gt;http://www.provbook.orgRepatriation_Flights</title>
<path fill="none" stroke="black" d="M997.44,-457.9C785.19,-469.05 261.99,-497.07 182.67,-506.5 175.01,-507.41 167.04,-508.54 159.11,-509.79"/>
<polygon fill="black" stroke="black" points="158.75,-506.3 149.45,-511.37 159.89,-513.21 158.75,-506.3"/>
<text text-anchor="middle" x="990.64" y="-468.54" font-family="Times,serif" font-size="8.00">der</text>
</g>
<!-- http://www.provbook.orgDiamond_Princess_Cruise_Ship -->
<g id="node12" class="node">
<title>http://www.provbook.orgDiamond_Princess_Cruise_Ship</title>
<g id="a_node12"><a xlink:href="http://www.provbook.orgDiamond_Princess_Cruise_Ship" xlink:title="Diamond_Princess_Cruise_Ship">
<ellipse fill="#fffc87" stroke="#808080" cx="687.67" cy="-524.75" rx="131.19" ry="18"/>
<text text-anchor="middle" x="687.67" y="-519.7" font-family="Times,serif" font-size="14.00">Diamond_Princess_Cruise_Ship</text>
</a>
</g>
</g>
<!-- http://www.provbook.orgEstimates_of_severity&#45;&gt;http://www.provbook.orgDiamond_Princess_Cruise_Ship -->
<g id="edge26" class="edge">
<title>http://www.provbook.orgEstimates_of_severity&#45;&gt;http://www.provbook.orgDiamond_Princess_Cruise_Ship</title>
<path fill="none" stroke="black" d="M1019.43,-465.13C952.78,-476.91 850.29,-495.02 776.86,-507.99"/>
<polygon fill="black" stroke="black" points="776.52,-504.5 767.29,-509.68 777.74,-511.39 776.52,-504.5"/>
<text text-anchor="middle" x="1014.31" y="-476.5" font-family="Times,serif" font-size="8.00">der</text>
</g>
<!-- http://www.provbook.orgCovid_Cases_Jan -->
<g id="node14" class="node">
<title>http://www.provbook.orgCovid_Cases_Jan</title>
<g id="a_node14"><a xlink:href="http://www.provbook.orgCovid_Cases_Jan" xlink:title="Covid_Cases_Jan">
<ellipse fill="#fffc87" stroke="#808080" cx="1137.67" cy="-524.75" rx="76.43" ry="18"/>
<text text-anchor="middle" x="1137.67" y="-519.7" font-family="Times,serif" font-size="14.00">Covid_Cases_Jan</text>
</a>
</g>
</g>
<!-- http://www.provbook.orgEstimates_of_severity&#45;&gt;http://www.provbook.orgCovid_Cases_Jan -->
<g id="edge27" class="edge">
<title>http://www.provbook.orgEstimates_of_severity&#45;&gt;http://www.provbook.orgCovid_Cases_Jan</title>
<path fill="none" stroke="black" d="M1099.01,-470.32C1104.96,-478.54 1112.23,-488.59 1118.85,-497.74"/>
<polygon fill="black" stroke="black" points="1115.85,-499.56 1124.55,-505.61 1121.52,-495.46 1115.85,-499.56"/>
<text text-anchor="middle" x="1113.93" y="-466.05" font-family="Times,serif" font-size="8.00">der</text>
</g>
<!-- http://www.provbook.orgSEVERITY_AUTHORS -->
<g id="node26" class="node">
<title>http://www.provbook.orgSEVERITY_AUTHORS</title>
<g id="a_node26"><a xlink:href="http://www.provbook.orgSEVERITY_AUTHORS" xlink:title="SEVERITY_AUTHORS">
<polygon fill="#fdb266" stroke="black" points="1601.67,-530.31 1473.67,-542.75 1345.66,-530.31 1345.78,-510.19 1601.55,-510.19 1601.67,-530.31"/>
<text text-anchor="middle" x="1473.67" y="-519.7" font-family="Times,serif" font-size="14.00">SEVERITY_AUTHORS</text>
</a>
</g>
</g>
<!-- http://www.provbook.orgEstimates_of_severity&#45;&gt;http://www.provbook.orgSEVERITY_AUTHORS -->
<g id="edge28" class="edge">
<title>http://www.provbook.orgEstimates_of_severity&#45;&gt;http://www.provbook.orgSEVERITY_AUTHORS</title>
<path fill="none" stroke="black" d="M1152.75,-465.29C1216.89,-476.97 1314.66,-494.78 1385.42,-507.67"/>
<polygon fill="black" stroke="black" points="1384.58,-511.08 1395.05,-509.43 1385.84,-504.19 1384.58,-511.08"/>
<text text-anchor="middle" x="1162.46" y="-451.13" font-family="Times,serif" font-size="8.00">att</text>
</g>
<!-- &#45;attrs2 -->
<g id="node9" class="node">
<title>&#45;attrs2</title>
<polygon fill="none" stroke="gray" points="1118.67,-397.75 1048.67,-397.75 1048.67,-361.75 1124.67,-361.75 1124.67,-391.75 1118.67,-397.75"/>
<polyline fill="none" stroke="gray" points="1118.67,-397.75 1118.67,-391.75"/>
<polyline fill="none" stroke="gray" points="1124.67,-391.75 1118.67,-391.75"/>
<text text-anchor="start" x="1058.67" y="-375.88" font-family="Times,serif" font-size="10.00">state:</text>
<text text-anchor="start" x="1082.42" y="-375.88" font-family="Times,serif" font-size="10.00">preprint</text>
</g>
<!-- &#45;attrs2&#45;&gt;http://www.provbook.orgEstimates_of_severity -->
<g id="edge3" class="edge">
<title>&#45;attrs2&#45;&gt;http://www.provbook.orgEstimates_of_severity</title>
<path fill="none" stroke="gray" stroke-dasharray="5,2" d="M1086.67,-398.18C1086.67,-409.1 1086.67,-423.13 1086.67,-434.02"/>
</g>
<!-- http://www.provbook.orgREPATRIATION_FLIGHT_TEAM -->
<g id="node28" class="node">
<title>http://www.provbook.orgREPATRIATION_FLIGHT_TEAM</title>
<g id="a_node28"><a xlink:href="http://www.provbook.orgREPATRIATION_FLIGHT_TEAM" xlink:title="REPATRIATION_FLIGHT_TEAM">
<polygon fill="#fdb266" stroke="black" points="469.28,-602.81 290.67,-615.25 112.05,-602.81 112.22,-582.69 469.11,-582.69 469.28,-602.81"/>
<text text-anchor="middle" x="290.67" y="-592.2" font-family="Times,serif" font-size="14.00">REPATRIATION_FLIGHT_TEAM</text>
</a>
</g>
</g>
<!-- http://www.provbook.orgRepatriation_Flights&#45;&gt;http://www.provbook.orgREPATRIATION_FLIGHT_TEAM -->
<g id="edge29" class="edge">
<title>http://www.provbook.orgRepatriation_Flights&#45;&gt;http://www.provbook.orgREPATRIATION_FLIGHT_TEAM</title>
<path fill="none" stroke="black" d="M129.93,-540.7C162.01,-551.79 205.86,-566.94 239.65,-578.62"/>
<polygon fill="black" stroke="black" points="238.22,-581.83 248.81,-581.78 240.5,-575.21 238.22,-581.83"/>
<text text-anchor="middle" x="141.26" y="-528.15" font-family="Times,serif" font-size="8.00">att</text>
</g>
<!-- &#45;attrs3 -->
<g id="node11" class="node">
<title>&#45;attrs3</title>
<polygon fill="none" stroke="gray" points="128.42,-470.25 38.92,-470.25 38.92,-434.25 134.42,-434.25 134.42,-464.25 128.42,-470.25"/>
<polyline fill="none" stroke="gray" points="128.42,-470.25 128.42,-464.25"/>
<polyline fill="none" stroke="gray" points="134.42,-464.25 128.42,-464.25"/>
<text text-anchor="start" x="48.92" y="-448.38" font-family="Times,serif" font-size="10.00">type:</text>
<text text-anchor="start" x="71.92" y="-448.38" font-family="Times,serif" font-size="10.00">prov:Dataset</text>
</g>
<!-- &#45;attrs3&#45;&gt;http://www.provbook.orgRepatriation_Flights -->
<g id="edge4" class="edge">
<title>&#45;attrs3&#45;&gt;http://www.provbook.orgRepatriation_Flights</title>
<path fill="none" stroke="gray" stroke-dasharray="5,2" d="M86.67,-470.68C86.67,-481.6 86.67,-495.63 86.67,-506.52"/>
</g>
<!-- http://www.provbook.orgCRUISE_SHIP_AUTHORS -->
<g id="node30" class="node">
<title>http://www.provbook.orgCRUISE_SHIP_AUTHORS</title>
<g id="a_node30"><a xlink:href="http://www.provbook.orgCRUISE_SHIP_AUTHORS" xlink:title="CRUISE_SHIP_AUTHORS">
<polygon fill="#fdb266" stroke="black" points="904.48,-602.81 760.67,-615.25 616.85,-602.81 616.98,-582.69 904.35,-582.69 904.48,-602.81"/>
<text text-anchor="middle" x="760.67" y="-592.2" font-family="Times,serif" font-size="14.00">CRUISE_SHIP_AUTHORS</text>
</a>
</g>
</g>
<!-- http://www.provbook.orgDiamond_Princess_Cruise_Ship&#45;&gt;http://www.provbook.orgCRUISE_SHIP_AUTHORS -->
<g id="edge30" class="edge">
<title>http://www.provbook.orgDiamond_Princess_Cruise_Ship&#45;&gt;http://www.provbook.orgCRUISE_SHIP_AUTHORS</title>
<path fill="none" stroke="black" d="M705.34,-542.82C715.33,-552.46 727.91,-564.61 738.54,-574.89"/>
<polygon fill="black" stroke="black" points="735.86,-577.16 745.49,-581.59 740.72,-572.13 735.86,-577.16"/>
<text text-anchor="middle" x="719.76" y="-535.96" font-family="Times,serif" font-size="8.00">att</text>
</g>
<!-- &#45;attrs4 -->
<g id="node13" class="node">
<title>&#45;attrs4</title>
<polygon fill="none" stroke="gray" points="729.42,-470.25 639.92,-470.25 639.92,-434.25 735.42,-434.25 735.42,-464.25 729.42,-470.25"/>
<polyline fill="none" stroke="gray" points="729.42,-470.25 729.42,-464.25"/>
<polyline fill="none" stroke="gray" points="735.42,-464.25 729.42,-464.25"/>
<text text-anchor="start" x="649.92" y="-448.38" font-family="Times,serif" font-size="10.00">type:</text>
<text text-anchor="start" x="672.92" y="-448.38" font-family="Times,serif" font-size="10.00">prov:Dataset</text>
</g>
<!-- &#45;attrs4&#45;&gt;http://www.provbook.orgDiamond_Princess_Cruise_Ship -->
<g id="edge5" class="edge">
<title>&#45;attrs4&#45;&gt;http://www.provbook.orgDiamond_Princess_Cruise_Ship</title>
<path fill="none" stroke="gray" stroke-dasharray="5,2" d="M687.67,-470.68C687.67,-481.6 687.67,-495.63 687.67,-506.52"/>
</g>
<!-- http://www.provbook.orgCovid_Cases -->
<g id="node16" class="node">
<title>http://www.provbook.orgCovid_Cases</title>
<g id="a_node16"><a xlink:href="http://www.provbook.orgCovid_Cases" xlink:title="Covid_Cases">
<ellipse fill="#fffc87" stroke="#808080" cx="1279.67" cy="-597.25" rx="59.54" ry="18"/>
<text text-anchor="middle" x="1279.67" y="-592.2" font-family="Times,serif" font-size="14.00">Covid_Cases</text>
</a>
</g>
</g>
<!-- http://www.provbook.orgCovid_Cases_Jan&#45;&gt;http://www.provbook.orgCovid_Cases -->
<g id="edge31" class="edge">
<title>http://www.provbook.orgCovid_Cases_Jan&#45;&gt;http://www.provbook.orgCovid_Cases</title>
<path fill="none" stroke="black" d="M1169.53,-541.57C1190.29,-551.88 1217.53,-565.4 1239.72,-576.42"/>
<polygon fill="black" stroke="black" points="1237.98,-579.46 1248.49,-580.77 1241.09,-573.19 1237.98,-579.46"/>
<text text-anchor="middle" x="1182.03" y="-530.55" font-family="Times,serif" font-size="8.00">spe</text>
</g>
<!-- &#45;attrs5 -->
<g id="node15" class="node">
<title>&#45;attrs5</title>
<polygon fill="none" stroke="gray" points="1287.42,-470.25 1197.92,-470.25 1197.92,-434.25 1293.42,-434.25 1293.42,-464.25 1287.42,-470.25"/>
<polyline fill="none" stroke="gray" points="1287.42,-470.25 1287.42,-464.25"/>
<polyline fill="none" stroke="gray" points="1293.42,-464.25 1287.42,-464.25"/>
<text text-anchor="start" x="1207.92" y="-448.38" font-family="Times,serif" font-size="10.00">type:</text>
<text text-anchor="start" x="1230.92" y="-448.38" font-family="Times,serif" font-size="10.00">prov:Dataset</text>
</g>
<!-- &#45;attrs5&#45;&gt;http://www.provbook.orgCovid_Cases_Jan -->
<g id="edge6" class="edge">
<title>&#45;attrs5&#45;&gt;http://www.provbook.orgCovid_Cases_Jan</title>
<path fill="none" stroke="gray" stroke-dasharray="5,2" d="M1218.97,-470.68C1201.73,-481.93 1179.45,-496.47 1162.57,-507.49"/>
</g>
<!-- http://www.provbook.orgWHO -->
<g id="node32" class="node">
<title>http://www.provbook.orgWHO</title>
<g id="a_node32"><a xlink:href="http://www.provbook.orgWHO" xlink:title="WHO">
<polygon fill="#fdb266" stroke="black" points="1399,-675.06 1357.67,-687.5 1316.33,-675.06 1316.37,-654.94 1398.96,-654.94 1399,-675.06"/>
<text text-anchor="middle" x="1357.67" y="-664.45" font-family="Times,serif" font-size="14.00">WHO</text>
</a>
</g>
</g>
<!-- http://www.provbook.orgCovid_Cases&#45;&gt;http://www.provbook.orgWHO -->
<g id="edge33" class="edge">
<title>http://www.provbook.orgCovid_Cases&#45;&gt;http://www.provbook.orgWHO</title>
<path fill="none" stroke="black" d="M1297.76,-614.54C1308.52,-624.23 1322.29,-636.64 1333.92,-647.11"/>
<polygon fill="black" stroke="black" points="1331.4,-649.56 1341.18,-653.65 1336.09,-644.36 1331.4,-649.56"/>
<text text-anchor="middle" x="1312.02" y="-607.18" font-family="Times,serif" font-size="8.00">att</text>
</g>
<!-- &#45;attrs6 -->
<g id="node17" class="node">
<title>&#45;attrs6</title>
<polygon fill="none" stroke="gray" points="1321.42,-542.75 1231.92,-542.75 1231.92,-506.75 1327.42,-506.75 1327.42,-536.75 1321.42,-542.75"/>
<polyline fill="none" stroke="gray" points="1321.42,-542.75 1321.42,-536.75"/>
<polyline fill="none" stroke="gray" points="1327.42,-536.75 1321.42,-536.75"/>
<text text-anchor="start" x="1241.92" y="-520.88" font-family="Times,serif" font-size="10.00">type:</text>
<text text-anchor="start" x="1264.92" y="-520.88" font-family="Times,serif" font-size="10.00">prov:Dataset</text>
</g>
<!-- &#45;attrs6&#45;&gt;http://www.provbook.orgCovid_Cases -->
<g id="edge7" class="edge">
<title>&#45;attrs6&#45;&gt;http://www.provbook.orgCovid_Cases</title>
<path fill="none" stroke="gray" stroke-dasharray="5,2" d="M1279.67,-543.18C1279.67,-554.1 1279.67,-568.13 1279.67,-579.02"/>
</g>
<!-- http://www.provbook.orgCovid_Cases_April -->
<g id="node18" class="node">
<title>http://www.provbook.orgCovid_Cases_April</title>
<g id="a_node18"><a xlink:href="http://www.provbook.orgCovid_Cases_April" xlink:title="Covid_Cases_April">
<ellipse fill="#fffc87" stroke="#808080" cx="1703.67" cy="-524.75" rx="83.6" ry="18"/>
<text text-anchor="middle" x="1703.67" y="-519.7" font-family="Times,serif" font-size="14.00">Covid_Cases_April</text>
</a>
</g>
</g>
<!-- http://www.provbook.orgCovid_Cases_April&#45;&gt;http://www.provbook.orgCovid_Cases -->
<g id="edge32" class="edge">
<title>http://www.provbook.orgCovid_Cases_April&#45;&gt;http://www.provbook.orgCovid_Cases</title>
<path fill="none" stroke="black" d="M1642.71,-537.48C1632.04,-539.41 1621.04,-541.33 1610.67,-543 1494.19,-561.76 1463.47,-556.46 1347.67,-579 1343.29,-579.85 1338.77,-580.81 1334.24,-581.84"/>
<polygon fill="black" stroke="black" points="1333.44,-578.43 1324.51,-584.13 1335.04,-585.24 1333.44,-578.43"/>
<text text-anchor="middle" x="1637.63" y="-548.87" font-family="Times,serif" font-size="8.00">spe</text>
</g>
<!-- &#45;attrs7 -->
<g id="node19" class="node">
<title>&#45;attrs7</title>
<polygon fill="none" stroke="gray" points="1573.42,-470.25 1483.92,-470.25 1483.92,-434.25 1579.42,-434.25 1579.42,-464.25 1573.42,-470.25"/>
<polyline fill="none" stroke="gray" points="1573.42,-470.25 1573.42,-464.25"/>
<polyline fill="none" stroke="gray" points="1579.42,-464.25 1573.42,-464.25"/>
<text text-anchor="start" x="1493.92" y="-448.38" font-family="Times,serif" font-size="10.00">type:</text>
<text text-anchor="start" x="1516.92" y="-448.38" font-family="Times,serif" font-size="10.00">prov:Dataset</text>
</g>
<!-- &#45;attrs7&#45;&gt;http://www.provbook.orgCovid_Cases_April -->
<g id="edge8" class="edge">
<title>&#45;attrs7&#45;&gt;http://www.provbook.orgCovid_Cases_April</title>
<path fill="none" stroke="gray" stroke-dasharray="5,2" d="M1574.18,-470.68C1602.34,-482.22 1638.93,-497.21 1666.02,-508.32"/>
</g>
<!-- &#45;attrs8 -->
<g id="node21" class="node">
<title>&#45;attrs8</title>
<polygon fill="none" stroke="gray" points="2127.17,-180.75 2006.17,-180.75 2006.17,-144.75 2133.17,-144.75 2133.17,-174.75 2127.17,-180.75"/>
<polyline fill="none" stroke="gray" points="2127.17,-180.75 2127.17,-174.75"/>
<polyline fill="none" stroke="gray" points="2133.17,-174.75 2127.17,-174.75"/>
<text text-anchor="start" x="2016.17" y="-158.88" font-family="Times,serif" font-size="10.00">label:</text>
<text text-anchor="start" x="2041.42" y="-158.88" font-family="Times,serif" font-size="10.00">GEODES Epimodel</text>
</g>
<!-- &#45;attrs8&#45;&gt;http://www.provbook.orgGEODES_Epimodel -->
<g id="edge9" class="edge">
<title>&#45;attrs8&#45;&gt;http://www.provbook.orgGEODES_Epimodel</title>
<path fill="none" stroke="gray" stroke-dasharray="5,2" d="M2069.67,-181.18C2069.67,-193.25 2069.67,-209.1 2069.67,-220.33"/>
</g>
<!-- &#45;attrs9 -->
<g id="node23" class="node">
<title>&#45;attrs9</title>
<polygon fill="none" stroke="gray" points="1936.79,-253.5 1666.54,-253.5 1666.54,-217 1942.79,-217 1942.79,-247.5 1936.79,-253.5"/>
<polyline fill="none" stroke="gray" points="1936.79,-253.5 1936.79,-247.5"/>
<polyline fill="none" stroke="gray" points="1942.79,-247.5 1936.79,-247.5"/>
<text text-anchor="start" x="1676.54" y="-238" font-family="Times,serif" font-size="10.00">type:</text>
<text text-anchor="start" x="1728.79" y="-238" font-family="Times,serif" font-size="10.00">prov:Person</text>
<text text-anchor="start" x="1676.54" y="-224.75" font-family="Times,serif" font-size="10.00">givenName:</text>
<text text-anchor="start" x="1728.79" y="-224.75" font-family="Times,serif" font-size="10.00">Ambalarajan, V., Mallela, A.R., Sivakumar, V. et al</text>
</g>
<!-- &#45;attrs9&#45;&gt;http://www.provbook.orgSAIUGR_AUTHORS -->
<g id="edge10" class="edge">
<title>&#45;attrs9&#45;&gt;http://www.provbook.orgSAIUGR_AUTHORS</title>
<path fill="none" stroke="gray" stroke-dasharray="5,2" d="M1788.52,-253.98C1777.56,-266.01 1763.28,-281.68 1753.18,-292.77"/>
</g>
<!-- &#45;attrs10 -->
<g id="node25" class="node">
<title>&#45;attrs10</title>
<polygon fill="none" stroke="gray" points="2120.79,-398 1898.54,-398 1898.54,-361.5 2126.79,-361.5 2126.79,-392 2120.79,-398"/>
<polyline fill="none" stroke="gray" points="2120.79,-398 2120.79,-392"/>
<polyline fill="none" stroke="gray" points="2126.79,-392 2120.79,-392"/>
<text text-anchor="start" x="1908.54" y="-382.5" font-family="Times,serif" font-size="10.00">type:</text>
<text text-anchor="start" x="1935.29" y="-382.5" font-family="Times,serif" font-size="10.00">prov:Organization</text>
<text text-anchor="start" x="1908.54" y="-369.25" font-family="Times,serif" font-size="10.00">name:</text>
<text text-anchor="start" x="1935.29" y="-369.25" font-family="Times,serif" font-size="10.00">Imperial College COVID&#45;19 Response Team</text>
</g>
<!-- &#45;attrs10&#45;&gt;http://www.provbook.orgAUTHORS_36 -->
<g id="edge11" class="edge">
<title>&#45;attrs10&#45;&gt;http://www.provbook.orgAUTHORS_36</title>
<path fill="none" stroke="gray" stroke-dasharray="5,2" d="M2012.67,-398.18C2012.67,-410.25 2012.67,-426.1 2012.67,-437.33"/>
</g>
<!-- &#45;attrs11 -->
<g id="node27" class="node">
<title>&#45;attrs11</title>
<polygon fill="none" stroke="gray" points="1459.42,-470.5 1369.92,-470.5 1369.92,-434 1465.42,-434 1465.42,-464.5 1459.42,-470.5"/>
<polyline fill="none" stroke="gray" points="1459.42,-470.5 1459.42,-464.5"/>
<polyline fill="none" stroke="gray" points="1465.42,-464.5 1459.42,-464.5"/>
<text text-anchor="start" x="1379.92" y="-455" font-family="Times,serif" font-size="10.00">type:</text>
<text text-anchor="start" x="1406.67" y="-455" font-family="Times,serif" font-size="10.00">prov:Person</text>
<text text-anchor="start" x="1379.92" y="-441.75" font-family="Times,serif" font-size="10.00">name:</text>
<text text-anchor="start" x="1406.67" y="-441.75" font-family="Times,serif" font-size="10.00">Verity, et al.</text>
</g>
<!-- &#45;attrs11&#45;&gt;http://www.provbook.orgSEVERITY_AUTHORS -->
<g id="edge12" class="edge">
<title>&#45;attrs11&#45;&gt;http://www.provbook.orgSEVERITY_AUTHORS</title>
<path fill="none" stroke="gray" stroke-dasharray="5,2" d="M1431.51,-470.68C1441.1,-482.75 1453.69,-498.6 1462.61,-509.83"/>
</g>
<!-- &#45;attrs12 -->
<g id="node29" class="node">
<title>&#45;attrs12</title>
<polygon fill="none" stroke="gray" points="532.04,-543 191.29,-543 191.29,-506.5 538.04,-506.5 538.04,-537 532.04,-543"/>
<polyline fill="none" stroke="gray" points="532.04,-543 532.04,-537"/>
<polyline fill="none" stroke="gray" points="538.04,-537 532.04,-537"/>
<text text-anchor="start" x="201.29" y="-527.5" font-family="Times,serif" font-size="10.00">type:</text>
<text text-anchor="start" x="228.04" y="-527.5" font-family="Times,serif" font-size="10.00">prov:Organization</text>
<text text-anchor="start" x="201.29" y="-514.25" font-family="Times,serif" font-size="10.00">name:</text>
<text text-anchor="start" x="228.04" y="-514.25" font-family="Times,serif" font-size="10.00">Novel Coronavirus Pneumonia Emergency Response Epidemiology Team</text>
</g>
<!-- &#45;attrs12&#45;&gt;http://www.provbook.orgREPATRIATION_FLIGHT_TEAM -->
<g id="edge13" class="edge">
<title>&#45;attrs12&#45;&gt;http://www.provbook.orgREPATRIATION_FLIGHT_TEAM</title>
<path fill="none" stroke="gray" stroke-dasharray="5,2" d="M346.37,-543.18C333.71,-555.25 317.07,-571.1 305.28,-582.33"/>
</g>
<!-- &#45;attrs13 -->
<g id="node31" class="node">
<title>&#45;attrs13</title>
<polygon fill="none" stroke="gray" points="1036.92,-543 836.42,-543 836.42,-506.5 1042.92,-506.5 1042.92,-537 1036.92,-543"/>
<polyline fill="none" stroke="gray" points="1036.92,-543 1036.92,-537"/>
<polyline fill="none" stroke="gray" points="1042.92,-537 1036.92,-537"/>
<text text-anchor="start" x="846.42" y="-527.5" font-family="Times,serif" font-size="10.00">type:</text>
<text text-anchor="start" x="873.17" y="-527.5" font-family="Times,serif" font-size="10.00">prov:Organization</text>
<text text-anchor="start" x="846.42" y="-514.25" font-family="Times,serif" font-size="10.00">name:</text>
<text text-anchor="start" x="873.17" y="-514.25" font-family="Times,serif" font-size="10.00">Ministry of Health, Labour and Welfare</text>
</g>
<!-- &#45;attrs13&#45;&gt;http://www.provbook.orgCRUISE_SHIP_AUTHORS -->
<g id="edge14" class="edge">
<title>&#45;attrs13&#45;&gt;http://www.provbook.orgCRUISE_SHIP_AUTHORS</title>
<path fill="none" stroke="gray" stroke-dasharray="5,2" d="M894.96,-543.36C864.41,-555.39 824.48,-571.12 796.13,-582.28"/>
</g>
<!-- &#45;attrs14 -->
<g id="node33" class="node">
<title>&#45;attrs14</title>
<polygon fill="none" stroke="gray" points="1508.54,-615.5 1356.79,-615.5 1356.79,-579 1514.54,-579 1514.54,-609.5 1508.54,-615.5"/>
<polyline fill="none" stroke="gray" points="1508.54,-615.5 1508.54,-609.5"/>
<polyline fill="none" stroke="gray" points="1514.54,-609.5 1508.54,-609.5"/>
<text text-anchor="start" x="1366.79" y="-600" font-family="Times,serif" font-size="10.00">type:</text>
<text text-anchor="start" x="1393.54" y="-600" font-family="Times,serif" font-size="10.00">prov:Organization</text>
<text text-anchor="start" x="1366.79" y="-586.75" font-family="Times,serif" font-size="10.00">name:</text>
<text text-anchor="start" x="1393.54" y="-586.75" font-family="Times,serif" font-size="10.00">World Health Organization</text>
</g>
<!-- &#45;attrs14&#45;&gt;http://www.provbook.orgWHO -->
<g id="edge15" class="edge">
<title>&#45;attrs14&#45;&gt;http://www.provbook.orgWHO</title>
<path fill="none" stroke="gray" stroke-dasharray="5,2" d="M1415.98,-615.98C1402.72,-627.93 1385.46,-643.47 1373.16,-654.54"/>
</g>
<!-- http://www.provbook.orgReference_12 -->
<g id="node34" class="node">
<title>http://www.provbook.orgReference_12</title>
<ellipse fill="none" stroke="black" cx="1753.67" cy="-452.25" rx="156.27" ry="18"/>
<text text-anchor="middle" x="1753.67" y="-447.2" font-family="Times,serif" font-size="14.00">http://www.provbook.orgReference_12</text>
</g>
<!-- http://www.provbook.orgReference_12&#45;&gt;http://www.provbook.orgCovid_Cases_April -->
<g id="edge34" class="edge">
<title>http://www.provbook.orgReference_12&#45;&gt;http://www.provbook.orgCovid_Cases_April</title>
<path fill="none" stroke="black" d="M1741.31,-470.68C1735.62,-478.7 1728.74,-488.4 1722.43,-497.3"/>
<polygon fill="black" stroke="black" points="1719.69,-495.11 1716.76,-505.29 1725.4,-499.16 1719.69,-495.11"/>
<text text-anchor="middle" x="1747.56" y="-481.58" font-family="Times,serif" font-size="8.00">der</text>
</g>
</g>
</svg>
