<?xml version="1.0" encoding="UTF-8" standalone="no"?>
<!DOCTYPE svg PUBLIC "-//W3C//DTD SVG 1.1//EN"
 "http://www.w3.org/Graphics/SVG/1.1/DTD/svg11.dtd">
<!-- Generated by graphviz version 12.2.1 (20241206.2353)
 -->
<!-- Title: PROV Pages: 1 -->
<svg width="801pt" height="478pt"
 viewBox="0.00 0.00 801.25 478.00" xmlns="http://www.w3.org/2000/svg" xmlns:xlink="http://www.w3.org/1999/xlink">
<g id="graph0" class="graph" transform="scale(1 1) rotate(0) translate(4 474)">
<title>PROV</title>
<polygon fill="white" stroke="none" points="-4,4 -4,-474 797.25,-474 797.25,4 -4,4"/>
<!-- http://www.provbook.orgSlicing -->
<g id="node1" class="node">
<title>http://www.provbook.orgSlicing</title>
<g id="a_node1"><a xlink:href="http://www.provbook.orgSlicing" xlink:title="Slicing">
<polygon fill="#9fb1fc" stroke="#0000ff" points="373.25,-180.75 319,-180.75 319,-144.75 373.25,-144.75 373.25,-180.75"/>
<text text-anchor="middle" x="346.12" y="-157.7" font-family="Times,serif" font-size="14.00">Slicing</text>
</a>
</g>
</g>
<!-- http://www.provbook.orgSAIUGR -->
<g id="node4" class="node">
<title>http://www.provbook.orgSAIUGR</title>
<g id="a_node4"><a xlink:href="http://www.provbook.orgSAIUGR" xlink:title="SAIUGR">
<ellipse fill="#fffc87" stroke="#808080" cx="454.12" cy="-235.25" rx="45.21" ry="18"/>
<text text-anchor="middle" x="454.12" y="-230.2" font-family="Times,serif" font-size="14.00">SAIUGR</text>
</a>
</g>
</g>
<!-- http://www.provbook.orgSlicing&#45;&gt;http://www.provbook.orgSAIUGR -->
<g id="edge6" class="edge">
<title>http://www.provbook.orgSlicing&#45;&gt;http://www.provbook.orgSAIUGR</title>
<path fill="none" stroke="black" d="M372.82,-181.18C387.72,-190.9 406.38,-203.08 422.06,-213.32"/>
<polygon fill="black" stroke="black" points="419.83,-216.04 430.12,-218.58 423.66,-210.18 419.83,-216.04"/>
<text text-anchor="middle" x="386.2" y="-171.67" font-family="Times,serif" font-size="8.00">use</text>
</g>
<!-- http://www.provbook.orgGEODES_Epimodel -->
<g id="node8" class="node">
<title>http://www.provbook.orgGEODES_Epimodel</title>
<g id="a_node8"><a xlink:href="http://www.provbook.orgGEODES_Epimodel" xlink:title="GEODES_Epimodel">
<polygon fill="#fdb266" stroke="black" points="391.15,-240.81 282.13,-253.25 173.1,-240.81 173.2,-220.69 391.05,-220.69 391.15,-240.81"/>
<text text-anchor="middle" x="282.12" y="-230.2" font-family="Times,serif" font-size="14.00">GEODES_Epimodel</text>
</a>
</g>
</g>
<!-- http://www.provbook.orgSlicing&#45;&gt;http://www.provbook.orgGEODES_Epimodel -->
<g id="edge8" class="edge">
<title>http://www.provbook.orgSlicing&#45;&gt;http://www.provbook.orgGEODES_Epimodel</title>
<path fill="none" stroke="black" d="M330.3,-181.18C321.83,-190.51 311.3,-202.11 302.25,-212.08"/>
<polygon fill="black" stroke="black" points="299.91,-209.45 295.78,-219.21 305.09,-214.15 299.91,-209.45"/>
<text text-anchor="middle" x="334.88" y="-192.74" font-family="Times,serif" font-size="8.00">assoc</text>
</g>
<!-- http://www.provbook.orgRef5 -->
<g id="node2" class="node">
<title>http://www.provbook.orgRef5</title>
<g id="a_node2"><a xlink:href="http://www.provbook.orgRef5" xlink:title="Ref5">
<ellipse fill="#fffc87" stroke="#808080" cx="245.12" cy="-90.5" rx="28.83" ry="18"/>
<text text-anchor="middle" x="245.12" y="-85.45" font-family="Times,serif" font-size="14.00">Ref5</text>
</a>
</g>
</g>
<!-- http://www.provbook.orgRef5&#45;&gt;http://www.provbook.orgSlicing -->
<g id="edge7" class="edge">
<title>http://www.provbook.orgRef5&#45;&gt;http://www.provbook.orgSlicing</title>
<path fill="none" stroke="black" d="M263.65,-104.38C277.17,-113.79 295.88,-126.81 312.07,-138.06"/>
<polygon fill="black" stroke="black" points="309.8,-140.75 320.01,-143.58 313.79,-135 309.8,-140.75"/>
<text text-anchor="middle" x="277.22" y="-95.28" font-family="Times,serif" font-size="8.00">gen</text>
</g>
<!-- http://www.provbook.orggammaG -->
<g id="node6" class="node">
<title>http://www.provbook.orggammaG</title>
<g id="a_node6"><a xlink:href="http://www.provbook.orggammaG" xlink:title="gammaG">
<ellipse fill="#fffc87" stroke="#808080" cx="310.12" cy="-307.5" rx="45.72" ry="18"/>
<text text-anchor="middle" x="310.12" y="-302.45" font-family="Times,serif" font-size="14.00">gammaG</text>
</a>
</g>
</g>
<!-- http://www.provbook.orgRef5&#45;&gt;http://www.provbook.orggammaG -->
<g id="edge9" class="edge">
<title>http://www.provbook.orgRef5&#45;&gt;http://www.provbook.orggammaG</title>
<path fill="none" stroke="black" d="M220.36,-100.16C201.18,-108.33 175.96,-122.62 164.12,-144.5 141.08,-187.11 136.32,-213.83 164.12,-253.5 184.41,-282.44 222.18,-295.64 254.23,-301.63"/>
<polygon fill="black" stroke="black" points="253.35,-305.03 263.79,-303.21 254.5,-298.13 253.35,-305.03"/>
</g>
<!-- &#45;attrs0 -->
<g id="node3" class="node">
<title>&#45;attrs0</title>
<polygon fill="none" stroke="gray" points="294.38,-36.5 189.88,-36.5 189.88,0 300.38,0 300.38,-30.5 294.38,-36.5"/>
<polyline fill="none" stroke="gray" points="294.38,-36.5 294.38,-30.5"/>
<polyline fill="none" stroke="gray" points="300.38,-30.5 294.38,-30.5"/>
<text text-anchor="start" x="199.88" y="-21" font-family="Times,serif" font-size="10.00">type:</text>
<text text-anchor="start" x="225.12" y="-21" font-family="Times,serif" font-size="10.00">prov:Collection</text>
<text text-anchor="start" x="199.88" y="-7.75" font-family="Times,serif" font-size="10.00">label:</text>
<text text-anchor="start" x="225.12" y="-7.75" font-family="Times,serif" font-size="10.00">Fragment Ref5</text>
</g>
<!-- &#45;attrs0&#45;&gt;http://www.provbook.orgRef5 -->
<g id="edge1" class="edge">
<title>&#45;attrs0&#45;&gt;http://www.provbook.orgRef5</title>
<path fill="none" stroke="gray" stroke-dasharray="5,2" d="M245.12,-36.98C245.12,-47.71 245.12,-61.34 245.12,-72.02"/>
</g>
<!-- http://www.provbook.orgSAIUGR&#45;&gt;http://www.provbook.orggammaG -->
<g id="edge10" class="edge">
<title>http://www.provbook.orgSAIUGR&#45;&gt;http://www.provbook.orggammaG</title>
<path fill="none" stroke="black" d="M426.36,-249.79C404.05,-260.68 372.48,-276.08 347.88,-288.08"/>
<polygon fill="black" stroke="black" points="346.62,-284.8 339.16,-292.33 349.69,-291.09 346.62,-284.8"/>
</g>
<!-- http://www.provbook.orgSAIUGR_AUTHORS -->
<g id="node10" class="node">
<title>http://www.provbook.orgSAIUGR_AUTHORS</title>
<g id="a_node10"><a xlink:href="http://www.provbook.orgSAIUGR_AUTHORS" xlink:title="SAIUGR_AUTHORS">
<polygon fill="#fdb266" stroke="black" points="669.47,-313.06 554.12,-325.5 438.78,-313.06 438.88,-292.94 669.37,-292.94 669.47,-313.06"/>
<text text-anchor="middle" x="554.12" y="-302.45" font-family="Times,serif" font-size="14.00">SAIUGR_AUTHORS</text>
</a>
</g>
</g>
<!-- http://www.provbook.orgSAIUGR&#45;&gt;http://www.provbook.orgSAIUGR_AUTHORS -->
<g id="edge11" class="edge">
<title>http://www.provbook.orgSAIUGR&#45;&gt;http://www.provbook.orgSAIUGR_AUTHORS</title>
<path fill="none" stroke="black" d="M475.82,-251.49C490.19,-261.59 509.2,-274.94 524.9,-285.97"/>
<polygon fill="black" stroke="black" points="522.74,-288.73 532.93,-291.61 526.76,-283 522.74,-288.73"/>
<text text-anchor="middle" x="489.43" y="-242.45" font-family="Times,serif" font-size="8.00">att</text>
</g>
<!-- &#45;attrs1 -->
<g id="node5" class="node">
<title>&#45;attrs1</title>
<polygon fill="none" stroke="gray" points="579,-181 391.25,-181 391.25,-144.5 585,-144.5 585,-175 579,-181"/>
<polyline fill="none" stroke="gray" points="579,-181 579,-175"/>
<polyline fill="none" stroke="gray" points="585,-175 579,-175"/>
<text text-anchor="start" x="401.25" y="-165.5" font-family="Times,serif" font-size="10.00">type:</text>
<text text-anchor="start" x="428.75" y="-165.5" font-family="Times,serif" font-size="10.00">prov:Collection</text>
<text text-anchor="start" x="401.25" y="-152.25" font-family="Times,serif" font-size="10.00">value:</text>
<text text-anchor="start" x="428.75" y="-152.25" font-family="Times,serif" font-size="10.00">A little provenance goes a long way</text>
</g>
<!-- &#45;attrs1&#45;&gt;http://www.provbook.orgSAIUGR -->
<g id="edge2" class="edge">
<title>&#45;attrs1&#45;&gt;http://www.provbook.orgSAIUGR</title>
<path fill="none" stroke="gray" stroke-dasharray="5,2" d="M479.72,-181.18C474.37,-192.27 467.48,-206.55 462.2,-217.51"/>
</g>
<!-- http://www.provbook.orgReference_5 -->
<g id="node7" class="node">
<title>http://www.provbook.orgReference_5</title>
<g id="a_node7"><a xlink:href="http://www.provbook.orgReference_5" xlink:title="Reference_5">
<ellipse fill="#fffc87" stroke="#808080" cx="310.12" cy="-379.75" rx="57.49" ry="18"/>
<text text-anchor="middle" x="310.12" y="-374.7" font-family="Times,serif" font-size="14.00">Reference_5</text>
</a>
</g>
</g>
<!-- http://www.provbook.orggammaG&#45;&gt;http://www.provbook.orgReference_5 -->
<g id="edge12" class="edge">
<title>http://www.provbook.orggammaG&#45;&gt;http://www.provbook.orgReference_5</title>
<path fill="none" stroke="black" d="M310.12,-325.87C310.12,-333.18 310.12,-341.89 310.12,-350.11"/>
<polygon fill="black" stroke="black" points="306.63,-350.07 310.13,-360.07 313.63,-350.07 306.63,-350.07"/>
<text text-anchor="middle" x="323.12" y="-330.64" font-family="Times,serif" font-size="8.00">der</text>
</g>
<!-- http://www.provbook.orgAUTHORS_5 -->
<g id="node12" class="node">
<title>http://www.provbook.orgAUTHORS_5</title>
<g id="a_node12"><a xlink:href="http://www.provbook.orgAUTHORS_5" xlink:title="AUTHORS_5">
<polygon fill="#fdb266" stroke="black" points="291.78,-457.56 213.13,-470 134.47,-457.56 134.54,-437.44 291.71,-437.44 291.78,-457.56"/>
<text text-anchor="middle" x="213.12" y="-446.95" font-family="Times,serif" font-size="14.00">AUTHORS_5</text>
</a>
</g>
</g>
<!-- http://www.provbook.orgReference_5&#45;&gt;http://www.provbook.orgAUTHORS_5 -->
<g id="edge13" class="edge">
<title>http://www.provbook.orgReference_5&#45;&gt;http://www.provbook.orgAUTHORS_5</title>
<path fill="none" stroke="black" d="M288.11,-396.69C274.36,-406.65 256.5,-419.59 241.66,-430.33"/>
<polygon fill="black" stroke="black" points="239.7,-427.44 233.65,-436.14 243.8,-433.11 239.7,-427.44"/>
<text text-anchor="middle" x="289.66" y="-408.89" font-family="Times,serif" font-size="8.00">att</text>
</g>
<!-- &#45;attrs2 -->
<g id="node9" class="node">
<title>&#45;attrs2</title>
<polygon fill="none" stroke="gray" points="294.62,-180.75 173.62,-180.75 173.62,-144.75 300.62,-144.75 300.62,-174.75 294.62,-180.75"/>
<polyline fill="none" stroke="gray" points="294.62,-180.75 294.62,-174.75"/>
<polyline fill="none" stroke="gray" points="300.62,-174.75 294.62,-174.75"/>
<text text-anchor="start" x="183.62" y="-158.88" font-family="Times,serif" font-size="10.00">label:</text>
<text text-anchor="start" x="208.88" y="-158.88" font-family="Times,serif" font-size="10.00">GEODES Epimodel</text>
</g>
<!-- &#45;attrs2&#45;&gt;http://www.provbook.orgGEODES_Epimodel -->
<g id="edge3" class="edge">
<title>&#45;attrs2&#45;&gt;http://www.provbook.orgGEODES_Epimodel</title>
<path fill="none" stroke="gray" stroke-dasharray="5,2" d="M248.25,-181.18C255.95,-193.25 266.07,-209.1 273.24,-220.33"/>
</g>
<!-- &#45;attrs3 -->
<g id="node11" class="node">
<title>&#45;attrs3</title>
<polygon fill="none" stroke="gray" points="787.25,-253.5 517,-253.5 517,-217 793.25,-217 793.25,-247.5 787.25,-253.5"/>
<polyline fill="none" stroke="gray" points="787.25,-253.5 787.25,-247.5"/>
<polyline fill="none" stroke="gray" points="793.25,-247.5 787.25,-247.5"/>
<text text-anchor="start" x="527" y="-238" font-family="Times,serif" font-size="10.00">type:</text>
<text text-anchor="start" x="579.25" y="-238" font-family="Times,serif" font-size="10.00">prov:Person</text>
<text text-anchor="start" x="527" y="-224.75" font-family="Times,serif" font-size="10.00">givenName:</text>
<text text-anchor="start" x="579.25" y="-224.75" font-family="Times,serif" font-size="10.00">Ambalarajan, V., Mallela, A.R., Sivakumar, V. et al</text>
</g>
<!-- &#45;attrs3&#45;&gt;http://www.provbook.orgSAIUGR_AUTHORS -->
<g id="edge4" class="edge">
<title>&#45;attrs3&#45;&gt;http://www.provbook.orgSAIUGR_AUTHORS</title>
<path fill="none" stroke="gray" stroke-dasharray="5,2" d="M629.64,-253.98C612.46,-265.93 590.11,-281.47 574.19,-292.54"/>
</g>
<!-- &#45;attrs4 -->
<g id="node13" class="node">
<title>&#45;attrs4</title>
<polygon fill="none" stroke="gray" points="228.25,-398 0,-398 0,-361.5 234.25,-361.5 234.25,-392 228.25,-398"/>
<polyline fill="none" stroke="gray" points="228.25,-398 228.25,-392"/>
<polyline fill="none" stroke="gray" points="234.25,-392 228.25,-392"/>
<text text-anchor="start" x="10" y="-382.5" font-family="Times,serif" font-size="10.00">type:</text>
<text text-anchor="start" x="36.75" y="-382.5" font-family="Times,serif" font-size="10.00">prov:Person</text>
<text text-anchor="start" x="10" y="-369.25" font-family="Times,serif" font-size="10.00">name:</text>
<text text-anchor="start" x="36.75" y="-369.25" font-family="Times,serif" font-size="10.00">Mohammed&#45;Awel, Jemal, and Abba B. Gumel.</text>
</g>
<!-- &#45;attrs4&#45;&gt;http://www.provbook.orgAUTHORS_5 -->
<g id="edge5" class="edge">
<title>&#45;attrs4&#45;&gt;http://www.provbook.orgAUTHORS_5</title>
<path fill="none" stroke="gray" stroke-dasharray="5,2" d="M141.35,-398.48C157.68,-410.43 178.92,-425.97 194.05,-437.04"/>
</g>
</g>
</svg>
